# Made in Blockbench 5.0.7
mtllib ore_transform3.mtl

o plane
v -0.022007316561564655 0.5331674190819106 -0.0008480642618674816
v -0.42854056040931865 0.5679893019634397 -0.2898436604796475
v -0.2555621301072676 0.19786782027610275 0.28729451275239687
v -0.6620953739550216 0.23268970315763188 -0.0017010834653831686
vt 0.99999875 0.0000012499999999526779
vt 0.99999875 1
vt 0 1
vt 0 0.0000012499999999526779
vn -0.34746568300285446 0.7385432294111889 0.5777728770254381
usemtl m_a9ccf307-4975-cbd3-0a33-e7985d06e903
f 1/1/1 2/2/1 4/3/1 3/4/1
o plane
v -0.11021728943091236 0.48260372388265227 0.09696664151708831
v -0.1996742243958654 0.9744049168385911 0.10833941197349267
v -0.5565274213653315 0.40632654209142244 -0.11513916757072071
v -0.6459843563302845 0.8981277350473613 -0.10376639711431634
vt 0.99999875 0.0000012499999999526779
vt 0.99999875 1
vt 0 1
vt 0 0.0000012499999999526779
vn -0.4137855346591831 -0.09620045124947102 0.9052773080588138
usemtl m_c7b744c8-e9d1-ab81-a97d-7739c2954e15
f 5/5/2 6/6/2 8/7/2 7/8/2
o plane
v 0.5803835334496861 0.29223799441764553 0.03786651931570234
v 0.4909265984847331 0.7840391873735844 0.049239289772106704
v 0.13407340151526695 0.21596081262641564 -0.1742392897721067
v 0.04461646655031387 0.7077620055823545 -0.16286651931570234
vt 0.99999875 0.0000012499999999526779
vt 0.99999875 1
vt 0 1
vt 0 0.0000012499999999526779
vn -0.4137855346591831 -0.09620045124947102 0.9052773080588138
usemtl m_a9ccf307-4975-cbd3-0a33-e7985d06e903
f 9/9/3 10/10/3 12/11/3 11/12/3
o plane
v 0.09755468057037392 0.29738665377069173 -0.42688195901587755
v -0.34810472669419823 0.34413188545347884 -0.6486991642673532
v -0.02689527330580177 0.6558681145465212 -0.10130083573264681
v -0.4725546805703739 0.7026133462293083 -0.32311804098412245
vt 0.99999875 0.0000012499999999526779
vt 0.99999875 1
vt 0 1
vt 0 0.0000012499999999526779
vn 0.378946797501069 0.6908135692748406 -0.6157726343135417
usemtl m_a9ccf307-4975-cbd3-0a33-e7985d06e903
f 13/13/4 14/14/4 16/15/4 15/16/4
o plane
v -0.1594866416509046 0.232247542915192 0.24901361061200883
v -0.007327104127293038 0.6337101565685885 -0.007258795684853991
v 0.1323269792859653 0.36628963650403795 0.6322589375506593
v 0.2844869446978107 0.7677524012172419 0.3759869610416441
vt 0.99999875 0.0000012499999999526779
vt 0.99999875 1
vt 0 1
vt 0 0.0000012499999999526779
vn 0.7528401242597921 -0.5323931443858887 -0.3870262098558794
usemtl m_a9ccf307-4975-cbd3-0a33-e7985d06e903
f 17/17/5 18/18/5 20/19/5 19/20/5
o plane
v -0.15637350463779076 0.6401868287338468 0.06636248086373742
v 0.3035649462607467 0.5156261659937188 -0.0850999252971951
v -0.1130697768266648 1.081347317996679 -0.1649429971300717
v 0.3468695544072981 0.956786591629039 -0.31640535626889843
vt 0.99999875 0.0000012499999999526779
vt 0.99999875 1
vt 0 1
vt 0 0.0000012499999999526779
vn 0.382523407429154 0.39930927695130114 0.8332034230063019
usemtl m_c7b744c8-e9d1-ab81-a97d-7739c2954e15
f 21/21/6 22/22/6 24/23/6 23/24/6
o plane
v 0.15637659555717726 0.6649782627177364 0.26321810518142597
v -0.07873821026305308 0.730085403636531 -0.17322433494521755
v -0.07922722432313989 1.0645979608926235 0.44975363505499233
v -0.3143417840813497 1.1297043099649366 0.01331088885216225
vt 0.99999875 0.0000012499999999526779
vt 0.99999875 1
vt 0 1
vt 0 0.0000012499999999526779
vn 0.7462222710270718 0.5867388131086927 -0.31446762538455714
usemtl m_a9ccf307-4975-cbd3-0a33-e7985d06e903
f 25/25/7 26/26/7 28/27/7 27/28/7
o plane
v 0.10921734132169683 0.3444209496431179 -0.3034863756405758
v -0.2841000510396036 0.6529368765490825 -0.31438954951440223
v 0.4091000510396036 0.7220631234509175 -0.43561045048559777
v 0.01578265867830316 1.0305790503568821 -0.4465136243594242
vt 0.99999875 0.0000012499999999526779
vt 0.99999875 1
vt 0 1
vt 0 0.0000012499999999526779
vn -0.14657966455604857 -0.22094567864562506 -0.9642081772244315
usemtl m_c7b744c8-e9d1-ab81-a97d-7739c2954e15
f 29/29/8 30/30/8 32/31/8 31/32/8
o plane
v 0.2925974749641061 0.3971840683426064 -0.04259421277322317
v -0.20072462354856924 0.4070185527569578 0.03825680174989002
v 0.32572462354856924 -0.03201855275695781 0.21174319825010998
v -0.1675974749641061 -0.02218406834260639 0.2925942127732232
vt 0.99999875 0.0000012499999999526779
vt 0.99999875 1
vt 0 1
vt 0 0.0000012499999999526779
vn 0.14881094496766747 0.5125943996899237 0.8456372059366573
usemtl m_c7b744c8-e9d1-ab81-a97d-7739c2954e15
f 33/33/9 34/34/9 36/35/9 35/36/9
o plane
v -0.15206834926892748 -0.12198088683089164 0.10473114383833149
v -0.28789369240518886 0.017517092214669627 -0.35580342220224653
v -0.08710630759481114 0.3574829077853304 0.23080342220224653
v -0.22293165073107252 0.49698088683089164 -0.2297311438383315
vt 0.99999875 0.0000012499999999526779
vt 0.99999875 1
vt 0 1
vt 0 0.0000012499999999526779
vn 0.9535856988390706 -0.051173809236311714 -0.29674156469535395
usemtl m_a9ccf307-4975-cbd3-0a33-e7985d06e903
f 37/37/10 38/38/10 40/39/10 39/40/10
o mesh
v -0.5 1 -0.4999999999999999
v 0.5 1 -0.5000000000000001
v -0.5 0 -0.4999999999999999
v 0.5 0 -0.5000000000000001
v 0 0.09375 -0.5
v 6.731420976180402e-18 0.92669125 -0.469684375
v -0.412823125 0.3557325 -0.48805874999999993
v -0.19318312499999998 0.828663125 -0.383516875
v -0.19318312499999998 0.171336875 -0.383516875
v -0.08617374999999994 0.40766562500000003 -0.25380187499999995
v -0.07378937499999998 0.198304375 -0.36133249999999995
v 0.19318312500000004 0.828663125 -0.38351687500000003
v 0.399893125 0.6255381250000001 -0.4752843750000001
v 0.386366875 0.360755 -0.5084668750000001
v 0.2387875 0.14773999999999998 -0.48442812500000004
v 0.25357625 0.828663125 -0.49454687500000005
v 0.11939375000000008 0.40056 -0.20611875000000002
v -0.09970124999999996 0.6255381250000001 -0.28893812499999993
v -0.2387875 0.857870625 -0.5055099999999999
v -0.412823125 0.6880381250000001 -0.4678643749999999
v -0.07378937499999996 0.828663125 -0.31152625
v 0.09947812500000006 0.6880381250000001 -0.23876562499999998
v 0.06538937500000003 0.779014375 -0.354028125
v -0.5 0 -0.4999999999999999
v -0.2387875 0.150466875 -0.47546874999999994
vt 0.584375 0.21514437500000005
vt 0.5078125 0.125
vt 0.7375 0.18509624999999996
vt 0.584375 0.21514437500000005
vt 0.278125 0.20011999999999996
vt 0.5078125 0.125
vt 0.125 0.6358174999999999
vt 0.125 0.38040874999999996
vt 0.4159375 0.42548062499999995
vt 0.4159375 0.680889375
vt 0 0.7600125
vt 0.147575 0.7600125
vt 0 0.7600125
vt 1 1
vt 0.010754375 0.99485875
vt 0.50163375 0.903565
vt 0.010754375 0.99485875
vt 0.2676825 0.82576125
vt 0.50163375 0.903565
vt 1 1
vt 0.881838125 0.687688125
vt 0.8776725 0.3811675
vt 0.982803125 0.02271500000000004
vt 0.73725875 0.826975
vt 0.881838125 0.687688125
vt 1 1
vt 0.501578125 0.11546687499999997
vt 0.27289625 0.19046125000000003
vt 0.0273125 0.031906250000000025
vt 0.731879375 0.18717812499999997
vt 0.982803125 0.02271500000000004
vt 0.8776725 0.3811675
vt 0.501578125 0.11546687499999997
vt 0.0273125 0.031906250000000025
vt 0.982803125 0.02271500000000004
vt 0.27289625 0.19046125000000003
vt 0.129793125 0.3843025
vt 0.0273125 0.031906250000000025
vt 0.0273125 0.031906250000000025
vt 0.129793125 0.3843025
vt 0.126574375 0.626413125
vt 0.010754375 0.99485875
vt 0.126574375 0.626413125
vt 0.2676825 0.82576125
vt 0.010754375 0.99485875
vt 0.278125 0.20011999999999996
vt 0.4159375 0.42548062499999995
vt 0.125 0.38040874999999996
vt 0.584375 0.21514437500000005
vt 0.7375 0.18509624999999996
vt 0.890625 0.38040874999999996
vt 0.615 0.42548062499999995
vt 0.278125 0.20011999999999996
vt 0.584375 0.21514437500000005
vt 0.615 0.42548062499999995
vt 0.4159375 0.42548062499999995
vt 0.615 0.42548062499999995
vt 0.890625 0.38040874999999996
vt 0.890625 0.69591375
vt 0.615 0.6358174999999999
vt 0.416660625 0.427955
vt 0.61538 0.428089375
vt 0.619496875 0.6358625
vt 0.414075625 0.6875
vt 0.50163375 0.903565
vt 0.73725875 0.826975
vt 1 1
vt 0.2628125 0.83113
vt 0.125 0.6358174999999999
vt 0.4159375 0.680889375
vt 0.4465625 0.8161056250000001
vt 0.4159375 0.680889375
vt 0.890625 0.69591375
vt 0.7375 0.83113
vt 0.4465625 0.8161056250000001
vt 0 0.7600125
vt 0.147575 0.7600125
vt 0.0737875 1
vt 0 0.7600125
vt 0.0737875 1
vt 0.147575 0.7600125
vt 0.5078125 0.90625
vt 0.2628125 0.83113
vt 0.4465625 0.8161056250000001
vt 0.147575 0.7600125
vt 0 0.7600125
vt 0.147575 0.7600125
vt 0.4465625 0.8161056250000001
vt 0.7375 0.83113
vt 0.5078125 0.90625
vt 0.615 0.6358174999999999
vt 0.890625 0.69591375
vt 0.4159375 0.680889375
vt 0.982803125 0.02271500000000004
vt 0.731879375 0.18717812499999997
vt 0.501578125 0.11546687499999997
vt 0.584375 0.21514437500000005
vt 0.6915625 0.21514437500000005
vt 0.7375 0.18509624999999996
vn 0.13967741959825553 0.8249476928725347 -0.5476783019973085
vn -0.12951199474285796 0.7573927834075732 -0.639986573968435
vn -0.736123004257581 0.12105880492165448 -0.6659336966648663
vn -0.39645215768552644 0.892369447020902 -0.21564428276701517
vn -2.0519176616890746e-16 -0.3821469661552242 -0.9241015616577856
vn -0.0705694744163972 0.06982623202921039 -0.9950599211108828
vn 0.504952419041671 0.052357285360998256 -0.8615577573056793
vn -0.08987069257057491 -0.12687281258814342 -0.9878393331118474
vn 0.029189866400745872 0.1556792874706458 -0.9873762763770145
vn 0.08650263900349715 0.012241113366838528 -0.9961764143910309
vn -2.220446049250313e-16 0 -1
vn -0.0882261317488974 -0.051137608334123306 -0.9947869594493547
vn 0.3747815511795195 0.09641004554419076 -0.922086705258047
vn 0.029096268112292795 -0.07357459933594179 -0.996865179206543
vn -0.664731562762322 0.38852361946898767 -0.6381076293089423
vn 0.46469779647529513 0.34395101966074704 -0.8159372855957362
vn -0.270664360656843 0.42710438656225863 -0.8627413557083602
vn 0.5768489042588425 0.049549016685607135 -0.8153466971790972
vn 0.21900398857228015 -0.1420798475138038 -0.9653240750752501
vn 0.08856651496873867 0.20059597756372466 -0.9756624550588927
vn -0.5994972225995341 -0.4917224921730273 -0.6315156932227352
vn 0.3468524712168931 -0.5273624585344864 -0.7756173028879619
vn 0.42485006950581644 0.6672498071350413 0.6117843683187346
vn 0.3086087220492381 -0.866240479614047 -0.3929224963694011
vn -0.32394451575002814 -0.668070477213314 -0.6698819210812116
vn 0.17530245004382783 -0.9406081246524505 -0.2907325348949295
vn 0.2707207869222242 -0.5163996374124882 -0.812429486176162
vn 0.354944084547282 -0.49400086114765196 -0.7937114375075304
vn -0.04400973156162178 0.2347185683286484 -0.9710665977210955
vn 0.19681570457599493 -0.9726752366370363 0.12315219228799908
usemtl m_8d66721a-1083-0fed-6951-913bc8dde7a3
f 51/41/11 45/42/11 65/43/11
f 51/44/12 55/45/12 45/46/12
f 53/47/13 54/48/13 57/49/13 62/50/13
usemtl none
f 52/51/14 56/52/14 63/53/14
usemtl m_7c911e7c-023e-b6f0-626e-68270d9d5eee
f 41/54/15 42/55/15 46/56/15
f 42/57/16 56/58/16 46/59/16
f 41/60/17 60/61/17 47/62/17 43/63/17
f 59/64/18 60/65/18 41/66/18
f 45/67/19 55/68/19 44/69/19
f 65/70/20 43/71/20 47/72/20
f 45/73/21 44/74/21 43/75/21
f 55/76/22 54/77/22 44/78/22
f 44/79/23 54/80/23 53/81/23 42/82/23
f 53/83/24 56/84/24 42/85/24
usemtl m_8d66721a-1083-0fed-6951-913bc8dde7a3
f 55/86/25 57/87/25 54/88/25
f 51/89/26 65/90/26 47/91/26 50/92/26
f 55/93/27 51/94/27 50/95/27 57/96/27
f 50/97/28 47/98/28 60/99/28 58/100/28
f 57/101/29 50/102/29 58/103/29 62/104/29
usemtl m_7c911e7c-023e-b6f0-626e-68270d9d5eee
f 46/105/30 59/106/30 41/107/30
usemtl m_8d66721a-1083-0fed-6951-913bc8dde7a3
f 56/108/31 53/109/31 62/110/31 63/111/31
f 62/112/32 60/113/32 59/114/32 63/115/32
usemtl none
f 61/116/33 63/117/33 46/118/33
f 59/119/34 46/120/34 61/121/34
usemtl m_8d66721a-1083-0fed-6951-913bc8dde7a3
f 46/122/35 56/123/35 63/124/35
usemtl none
f 48/125/36 59/126/36 61/127/36
usemtl m_8d66721a-1083-0fed-6951-913bc8dde7a3
f 63/128/37 59/129/37 46/130/37
f 58/131/38 60/132/38 62/133/38
usemtl m_7c911e7c-023e-b6f0-626e-68270d9d5eee
f 64/134/39 65/135/39 45/136/39
usemtl none
f 51/137/40 49/138/40 65/139/40
o mesh
v 0.49999999999999994 1 -0.5
v 0.5000000000000001 1 0.5
v 0.49999999999999994 0 -0.5
v 0.5000000000000001 0 0.5
v 0.5 0.09375 0
v 0.469684375 0.92669125 3.712593312040148e-18
v 0.48805874999999993 0.3557325 -0.412823125
v 0.383516875 0.828663125 -0.19318312499999998
v 0.383516875 0.171336875 -0.19318312499999998
v 0.253801875 0.40766562500000003 -0.08617374999999997
v 0.3613325 0.198304375 -0.07378937499999999
v 0.38351687500000003 0.828663125 0.19318312500000004
v 0.47528437500000004 0.6255381250000001 0.399893125
v 0.5084668750000001 0.360755 0.386366875
v 0.48442812500000004 0.14773999999999998 0.2387875
v 0.49454687500000005 0.828663125 0.25357625
v 0.20611875000000002 0.40056 0.11939375000000005
v 0.288938125 0.6255381250000001 -0.09970124999999998
v 0.50551 0.857870625 -0.2387875
v 0.46786437499999994 0.6880381250000001 -0.412823125
v 0.31152625 0.828663125 -0.07378937499999998
v 0.23876562499999998 0.6880381250000001 0.09947812500000003
v 0.354028125 0.779014375 0.06538937500000001
v 0.49999999999999994 0 -0.5
v 0.47546875 0.150466875 -0.2387875
vt 0.584375 0.21514437500000005
vt 0.5078125 0.125
vt 0.7375 0.18509624999999996
vt 0.584375 0.21514437500000005
vt 0.278125 0.20011999999999996
vt 0.5078125 0.125
vt 0.125 0.6358174999999999
vt 0.125 0.38040874999999996
vt 0.4159375 0.42548062499999995
vt 0.4159375 0.680889375
vt 0 0.7600125
vt 0.147575 0.7600125
vt 0 0.7600125
vt 1 1
vt 0.010754375 0.99485875
vt 0.50163375 0.903565
vt 0.010754375 0.99485875
vt 0.2676825 0.82576125
vt 0.50163375 0.903565
vt 1 1
vt 0.881838125 0.687688125
vt 0.8776725 0.3811675
vt 0.982803125 0.02271500000000004
vt 0.73725875 0.826975
vt 0.881838125 0.687688125
vt 1 1
vt 0.501578125 0.11546687499999997
vt 0.27289625 0.19046125000000003
vt 0.0273125 0.031906250000000025
vt 0.731879375 0.18717812499999997
vt 0.982803125 0.02271500000000004
vt 0.8776725 0.3811675
vt 0.501578125 0.11546687499999997
vt 0.0273125 0.031906250000000025
vt 0.982803125 0.02271500000000004
vt 0.27289625 0.19046125000000003
vt 0.129793125 0.3843025
vt 0.0273125 0.031906250000000025
vt 0.0273125 0.031906250000000025
vt 0.129793125 0.3843025
vt 0.126574375 0.626413125
vt 0.010754375 0.99485875
vt 0.126574375 0.626413125
vt 0.2676825 0.82576125
vt 0.010754375 0.99485875
vt 0.278125 0.20011999999999996
vt 0.4159375 0.42548062499999995
vt 0.125 0.38040874999999996
vt 0.584375 0.21514437500000005
vt 0.7375 0.18509624999999996
vt 0.890625 0.38040874999999996
vt 0.615 0.42548062499999995
vt 0.278125 0.20011999999999996
vt 0.584375 0.21514437500000005
vt 0.615 0.42548062499999995
vt 0.4159375 0.42548062499999995
vt 0.615 0.42548062499999995
vt 0.890625 0.38040874999999996
vt 0.890625 0.69591375
vt 0.615 0.6358174999999999
vt 0.416660625 0.427955
vt 0.61538 0.428089375
vt 0.619496875 0.6358625
vt 0.414075625 0.6875
vt 0.50163375 0.903565
vt 0.73725875 0.826975
vt 1 1
vt 0.2628125 0.83113
vt 0.125 0.6358174999999999
vt 0.4159375 0.680889375
vt 0.4465625 0.8161056250000001
vt 0.4159375 0.680889375
vt 0.890625 0.69591375
vt 0.7375 0.83113
vt 0.4465625 0.8161056250000001
vt 0 0.7600125
vt 0.147575 0.7600125
vt 0.0737875 1
vt 0 0.7600125
vt 0.0737875 1
vt 0.147575 0.7600125
vt 0.5078125 0.90625
vt 0.2628125 0.83113
vt 0.4465625 0.8161056250000001
vt 0.147575 0.7600125
vt 0 0.7600125
vt 0.147575 0.7600125
vt 0.4465625 0.8161056250000001
vt 0.7375 0.83113
vt 0.5078125 0.90625
vt 0.615 0.6358174999999999
vt 0.890625 0.69591375
vt 0.4159375 0.680889375
vt 0.982803125 0.02271500000000004
vt 0.731879375 0.18717812499999997
vt 0.501578125 0.11546687499999997
vt 0.584375 0.21514437500000005
vt 0.6915625 0.21514437500000005
vt 0.7375 0.18509624999999996
vn 0.5476783019973085 0.8249476928725347 0.13967741959825558
vn 0.639986573968435 0.7573927834075732 -0.1295119947428579
vn 0.6659336966648663 0.12105880492165448 -0.736123004257581
vn 0.2156442827670152 0.892369447020902 -0.3964521576855264
vn 0.9241015616577856 -0.3821469661552242 -1.1316980195712775e-16
vn 0.9950599211108828 0.06982623202921039 -0.0705694744163971
vn 0.8615577573056793 0.052357285360998256 0.5049524190416711
vn 0.9878393331118474 -0.12687281258814342 -0.08987069257057481
vn 0.9873762763770147 0.15567928747064583 0.029189866400745976
vn 0.9961764143910309 0.012241113366838528 0.08650263900349725
vn 1 0 -1.2246467991473532e-16
vn 0.9947869594493547 -0.051137608334123306 -0.0882261317488973
vn 0.9220867052580469 0.09641004554419076 0.3747815511795196
vn 0.996865179206543 -0.07357459933594179 0.029096268112292895
vn 0.6381076293089423 0.38852361946898767 -0.664731562762322
vn 0.8159372855957362 0.34395101966074704 0.4646977964752952
vn 0.8627413557083603 0.42710438656225863 -0.27066436065684296
vn 0.8153466971790972 0.049549016685607135 0.5768489042588426
vn 0.9653240750752501 -0.1420798475138038 0.21900398857228026
vn 0.9756624550588927 0.20059597756372466 0.08856651496873877
vn 0.6315156932227352 -0.4917224921730273 -0.5994972225995341
vn 0.775617302887962 -0.5273624585344865 0.3468524712168932
vn -0.6117843683187347 0.6672498071350413 0.4248500695058164
vn 0.3929224963694011 -0.866240479614047 0.30860872204923817
vn 0.6698819210812117 -0.668070477213314 -0.32394451575002803
vn 0.29073253489492945 -0.9406081246524505 0.17530245004382786
vn 0.8124294861761618 -0.5163996374124882 0.27072078692222423
vn 0.7937114375075305 -0.49400086114765207 0.3549440845472821
vn 0.9710665977210955 0.2347185683286484 -0.04400973156162168
vn -0.12315219228799909 -0.9726752366370363 0.19681570457599493
usemtl m_8d66721a-1083-0fed-6951-913bc8dde7a3
f 76/140/41 70/141/41 90/142/41
f 76/143/42 80/144/42 70/145/42
f 78/146/43 79/147/43 82/148/43 87/149/43
usemtl none
f 77/150/44 81/151/44 88/152/44
usemtl m_7c911e7c-023e-b6f0-626e-68270d9d5eee
f 66/153/45 67/154/45 71/155/45
f 67/156/46 81/157/46 71/158/46
f 66/159/47 85/160/47 72/161/47 68/162/47
f 84/163/48 85/164/48 66/165/48
f 70/166/49 80/167/49 69/168/49
f 90/169/50 68/170/50 72/171/50
f 70/172/51 69/173/51 68/174/51
f 80/175/52 79/176/52 69/177/52
f 69/178/53 79/179/53 78/180/53 67/181/53
f 78/182/54 81/183/54 67/184/54
usemtl m_8d66721a-1083-0fed-6951-913bc8dde7a3
f 80/185/55 82/186/55 79/187/55
f 76/188/56 90/189/56 72/190/56 75/191/56
f 80/192/57 76/193/57 75/194/57 82/195/57
f 75/196/58 72/197/58 85/198/58 83/199/58
f 82/200/59 75/201/59 83/202/59 87/203/59
usemtl m_7c911e7c-023e-b6f0-626e-68270d9d5eee
f 71/204/60 84/205/60 66/206/60
usemtl m_8d66721a-1083-0fed-6951-913bc8dde7a3
f 81/207/61 78/208/61 87/209/61 88/210/61
f 87/211/62 85/212/62 84/213/62 88/214/62
usemtl none
f 86/215/63 88/216/63 71/217/63
f 84/218/64 71/219/64 86/220/64
usemtl m_8d66721a-1083-0fed-6951-913bc8dde7a3
f 71/221/65 81/222/65 88/223/65
usemtl none
f 73/224/66 84/225/66 86/226/66
usemtl m_8d66721a-1083-0fed-6951-913bc8dde7a3
f 88/227/67 84/228/67 71/229/67
f 83/230/68 85/231/68 87/232/68
usemtl m_7c911e7c-023e-b6f0-626e-68270d9d5eee
f 89/233/69 90/234/69 70/235/69
usemtl none
f 76/236/70 74/237/70 90/238/70
o mesh
v 0.5 1 0.5000000000000001
v -0.5 1 0.4999999999999999
v 0.5 0 0.5000000000000001
v -0.5 0 0.4999999999999999
v 0 0.09375 0.5
v 6.731420976180402e-18 0.92669125 0.469684375
v 0.412823125 0.3557325 0.4880587500000001
v 0.19318312500000004 0.828663125 0.38351687500000003
v 0.19318312500000004 0.171336875 0.38351687500000003
v 0.08617375000000005 0.40766562500000003 0.25380187500000007
v 0.07378937500000003 0.198304375 0.36133250000000006
v -0.19318312499999998 0.828663125 0.383516875
v -0.399893125 0.6255381250000001 0.4752843749999999
v -0.386366875 0.360755 0.5084668749999999
v -0.2387875 0.14773999999999998 0.48442812499999993
v -0.25357625 0.828663125 0.49454687499999994
v -0.11939374999999994 0.40056 0.20611875000000002
v 0.09970125000000005 0.6255381250000001 0.28893812500000005
v 0.2387875 0.857870625 0.50551
v 0.412823125 0.6880381250000001 0.4678643750000001
v 0.07378937500000005 0.828663125 0.31152625
v -0.09947812499999995 0.6880381250000001 0.23876562499999998
v -0.06538937499999997 0.779014375 0.35402812499999997
v 0.5 0 0.5000000000000001
v 0.2387875 0.150466875 0.47546875000000005
vt 0.584375 0.21514437500000005
vt 0.5078125 0.125
vt 0.7375 0.18509624999999996
vt 0.584375 0.21514437500000005
vt 0.278125 0.20011999999999996
vt 0.5078125 0.125
vt 0.125 0.6358174999999999
vt 0.125 0.38040874999999996
vt 0.4159375 0.42548062499999995
vt 0.4159375 0.680889375
vt 0 0.7600125
vt 0.147575 0.7600125
vt 0 0.7600125
vt 1 1
vt 0.010754375 0.99485875
vt 0.50163375 0.903565
vt 0.010754375 0.99485875
vt 0.2676825 0.82576125
vt 0.50163375 0.903565
vt 1 1
vt 0.881838125 0.687688125
vt 0.8776725 0.3811675
vt 0.982803125 0.02271500000000004
vt 0.73725875 0.826975
vt 0.881838125 0.687688125
vt 1 1
vt 0.501578125 0.11546687499999997
vt 0.27289625 0.19046125000000003
vt 0.0273125 0.031906250000000025
vt 0.731879375 0.18717812499999997
vt 0.982803125 0.02271500000000004
vt 0.8776725 0.3811675
vt 0.501578125 0.11546687499999997
vt 0.0273125 0.031906250000000025
vt 0.982803125 0.02271500000000004
vt 0.27289625 0.19046125000000003
vt 0.129793125 0.3843025
vt 0.0273125 0.031906250000000025
vt 0.0273125 0.031906250000000025
vt 0.129793125 0.3843025
vt 0.126574375 0.626413125
vt 0.010754375 0.99485875
vt 0.126574375 0.626413125
vt 0.2676825 0.82576125
vt 0.010754375 0.99485875
vt 0.278125 0.20011999999999996
vt 0.4159375 0.42548062499999995
vt 0.125 0.38040874999999996
vt 0.584375 0.21514437500000005
vt 0.7375 0.18509624999999996
vt 0.890625 0.38040874999999996
vt 0.615 0.42548062499999995
vt 0.278125 0.20011999999999996
vt 0.584375 0.21514437500000005
vt 0.615 0.42548062499999995
vt 0.4159375 0.42548062499999995
vt 0.615 0.42548062499999995
vt 0.890625 0.38040874999999996
vt 0.890625 0.69591375
vt 0.615 0.6358174999999999
vt 0.416660625 0.427955
vt 0.61538 0.428089375
vt 0.619496875 0.6358625
vt 0.414075625 0.6875
vt 0.50163375 0.903565
vt 0.73725875 0.826975
vt 1 1
vt 0.2628125 0.83113
vt 0.125 0.6358174999999999
vt 0.4159375 0.680889375
vt 0.4465625 0.8161056250000001
vt 0.4159375 0.680889375
vt 0.890625 0.69591375
vt 0.7375 0.83113
vt 0.4465625 0.8161056250000001
vt 0 0.7600125
vt 0.147575 0.7600125
vt 0.0737875 1
vt 0 0.7600125
vt 0.0737875 1
vt 0.147575 0.7600125
vt 0.5078125 0.90625
vt 0.2628125 0.83113
vt 0.4465625 0.8161056250000001
vt 0.147575 0.7600125
vt 0 0.7600125
vt 0.147575 0.7600125
vt 0.4465625 0.8161056250000001
vt 0.7375 0.83113
vt 0.5078125 0.90625
vt 0.615 0.6358174999999999
vt 0.890625 0.69591375
vt 0.4159375 0.680889375
vt 0.982803125 0.02271500000000004
vt 0.731879375 0.18717812499999997
vt 0.501578125 0.11546687499999997
vt 0.584375 0.21514437500000005
vt 0.6915625 0.21514437500000005
vt 0.7375 0.18509624999999996
vn -0.13967741959825575 0.8249476928725347 0.5476783019973085
vn 0.12951199474285768 0.7573927834075732 0.639986573968435
vn 0.7361230042575808 0.12105880492165448 0.6659336966648666
vn 0.39645215768552633 0.892369447020902 0.21564428276701533
vn -2.0519176616890746e-16 -0.3821469661552242 0.9241015616577856
vn 0.07056947441639676 0.06982623202921039 0.9950599211108828
vn -0.5049524190416714 0.052357285360998256 0.8615577573056791
vn 0.08987069257057446 -0.12687281258814342 0.9878393331118474
vn -0.02918986640074631 0.1556792874706458 0.9873762763770145
vn -0.0865026390034976 0.012241113366838528 0.9961764143910309
vn -2.220446049250313e-16 0 1
vn 0.08822613174889696 -0.051137608334123306 0.9947869594493547
vn -0.37478155117951995 0.09641004554419076 0.9220867052580468
vn -0.02909626811229324 -0.07357459933594179 0.996865179206543
vn 0.6647315627623218 0.38852361946898767 0.6381076293089425
vn -0.46469779647529547 0.34395101966074704 0.815937285595736
vn 0.27066436065684263 0.4271043865622585 0.8627413557083602
vn -0.5768489042588428 0.04954901668560712 0.8153466971790968
vn -0.21900398857228054 -0.14207984751380376 0.9653240750752499
vn -0.08856651496873912 0.20059597756372466 0.9756624550588927
vn 0.5994972225995339 -0.4917224921730273 0.6315156932227354
vn -0.3468524712168935 -0.5273624585344865 0.7756173028879619
vn -0.4248500695058162 0.6672498071350413 -0.6117843683187348
vn -0.30860872204923834 -0.866240479614047 0.39292249636940096
vn 0.3239445157500278 -0.668070477213314 0.6698819210812118
vn -0.17530245004382794 -0.9406081246524505 0.2907325348949294
vn -0.27072078692222457 -0.5163996374124883 0.812429486176162
vn -0.3549440845472823 -0.49400086114765196 0.7937114375075301
vn 0.04400973156162135 0.2347185683286484 0.9710665977210955
vn -0.19681570457599487 -0.9726752366370363 -0.12315219228799916
usemtl m_8d66721a-1083-0fed-6951-913bc8dde7a3
f 101/239/71 95/240/71 115/241/71
f 101/242/72 105/243/72 95/244/72
f 103/245/73 104/246/73 107/247/73 112/248/73
usemtl none
f 102/249/74 106/250/74 113/251/74
usemtl m_7c911e7c-023e-b6f0-626e-68270d9d5eee
f 91/252/75 92/253/75 96/254/75
f 92/255/76 106/256/76 96/257/76
f 91/258/77 110/259/77 97/260/77 93/261/77
f 109/262/78 110/263/78 91/264/78
f 95/265/79 105/266/79 94/267/79
f 115/268/80 93/269/80 97/270/80
f 95/271/81 94/272/81 93/273/81
f 105/274/82 104/275/82 94/276/82
f 94/277/83 104/278/83 103/279/83 92/280/83
f 103/281/84 106/282/84 92/283/84
usemtl m_8d66721a-1083-0fed-6951-913bc8dde7a3
f 105/284/85 107/285/85 104/286/85
f 101/287/86 115/288/86 97/289/86 100/290/86
f 105/291/87 101/292/87 100/293/87 107/294/87
f 100/295/88 97/296/88 110/297/88 108/298/88
f 107/299/89 100/300/89 108/301/89 112/302/89
usemtl m_7c911e7c-023e-b6f0-626e-68270d9d5eee
f 96/303/90 109/304/90 91/305/90
usemtl m_8d66721a-1083-0fed-6951-913bc8dde7a3
f 106/306/91 103/307/91 112/308/91 113/309/91
f 112/310/92 110/311/92 109/312/92 113/313/92
usemtl none
f 111/314/93 113/315/93 96/316/93
f 109/317/94 96/318/94 111/319/94
usemtl m_8d66721a-1083-0fed-6951-913bc8dde7a3
f 96/320/95 106/321/95 113/322/95
usemtl none
f 98/323/96 109/324/96 111/325/96
usemtl m_8d66721a-1083-0fed-6951-913bc8dde7a3
f 113/326/97 109/327/97 96/328/97
f 108/329/98 110/330/98 112/331/98
usemtl m_7c911e7c-023e-b6f0-626e-68270d9d5eee
f 114/332/99 115/333/99 95/334/99
usemtl none
f 101/335/100 99/336/100 115/337/100
o mesh
v -0.5 1 0.5
v -0.5 1 -0.5
v -0.5 0 0.5
v -0.5 0 -0.5
v -0.5 0.09375 0
v -0.469684375 0.92669125 0
v -0.48805875 0.3557325 0.412823125
v -0.383516875 0.828663125 0.193183125
v -0.383516875 0.171336875 0.193183125
v -0.253801875 0.40766562500000003 0.08617375
v -0.3613325 0.198304375 0.073789375
v -0.383516875 0.828663125 -0.193183125
v -0.475284375 0.6255381250000001 -0.399893125
v -0.508466875 0.360755 -0.386366875
v -0.484428125 0.14773999999999998 -0.2387875
v -0.494546875 0.828663125 -0.25357625
v -0.20611875000000002 0.40056 -0.11939375
v -0.288938125 0.6255381250000001 0.09970125
v -0.50551 0.857870625 0.2387875
v -0.467864375 0.6880381250000001 0.412823125
v -0.31152625 0.828663125 0.073789375
v -0.23876562499999998 0.6880381250000001 -0.099478125
v -0.354028125 0.779014375 -0.065389375
v -0.5 0 0.5
v -0.47546875 0.150466875 0.2387875
vt 0.584375 0.21514437500000005
vt 0.5078125 0.125
vt 0.7375 0.18509624999999996
vt 0.584375 0.21514437500000005
vt 0.278125 0.20011999999999996
vt 0.5078125 0.125
vt 0.125 0.6358174999999999
vt 0.125 0.38040874999999996
vt 0.4159375 0.42548062499999995
vt 0.4159375 0.680889375
vt 0 0.7600125
vt 0.147575 0.7600125
vt 0 0.7600125
vt 1 1
vt 0.010754375 0.99485875
vt 0.50163375 0.903565
vt 0.010754375 0.99485875
vt 0.2676825 0.82576125
vt 0.50163375 0.903565
vt 1 1
vt 0.881838125 0.687688125
vt 0.8776725 0.3811675
vt 0.982803125 0.02271500000000004
vt 0.73725875 0.826975
vt 0.881838125 0.687688125
vt 1 1
vt 0.501578125 0.11546687499999997
vt 0.27289625 0.19046125000000003
vt 0.0273125 0.031906250000000025
vt 0.731879375 0.18717812499999997
vt 0.982803125 0.02271500000000004
vt 0.8776725 0.3811675
vt 0.501578125 0.11546687499999997
vt 0.0273125 0.031906250000000025
vt 0.982803125 0.02271500000000004
vt 0.27289625 0.19046125000000003
vt 0.129793125 0.3843025
vt 0.0273125 0.031906250000000025
vt 0.0273125 0.031906250000000025
vt 0.129793125 0.3843025
vt 0.126574375 0.626413125
vt 0.010754375 0.99485875
vt 0.126574375 0.626413125
vt 0.2676825 0.82576125
vt 0.010754375 0.99485875
vt 0.278125 0.20011999999999996
vt 0.4159375 0.42548062499999995
vt 0.125 0.38040874999999996
vt 0.584375 0.21514437500000005
vt 0.7375 0.18509624999999996
vt 0.890625 0.38040874999999996
vt 0.615 0.42548062499999995
vt 0.278125 0.20011999999999996
vt 0.584375 0.21514437500000005
vt 0.615 0.42548062499999995
vt 0.4159375 0.42548062499999995
vt 0.615 0.42548062499999995
vt 0.890625 0.38040874999999996
vt 0.890625 0.69591375
vt 0.615 0.6358174999999999
vt 0.416660625 0.427955
vt 0.61538 0.428089375
vt 0.619496875 0.6358625
vt 0.414075625 0.6875
vt 0.50163375 0.903565
vt 0.73725875 0.826975
vt 1 1
vt 0.2628125 0.83113
vt 0.125 0.6358174999999999
vt 0.4159375 0.680889375
vt 0.4465625 0.8161056250000001
vt 0.4159375 0.680889375
vt 0.890625 0.69591375
vt 0.7375 0.83113
vt 0.4465625 0.8161056250000001
vt 0 0.7600125
vt 0.147575 0.7600125
vt 0.0737875 1
vt 0 0.7600125
vt 0.0737875 1
vt 0.147575 0.7600125
vt 0.5078125 0.90625
vt 0.2628125 0.83113
vt 0.4465625 0.8161056250000001
vt 0.147575 0.7600125
vt 0 0.7600125
vt 0.147575 0.7600125
vt 0.4465625 0.8161056250000001
vt 0.7375 0.83113
vt 0.5078125 0.90625
vt 0.615 0.6358174999999999
vt 0.890625 0.69591375
vt 0.4159375 0.680889375
vt 0.982803125 0.02271500000000004
vt 0.731879375 0.18717812499999997
vt 0.501578125 0.11546687499999997
vt 0.584375 0.21514437500000005
vt 0.6915625 0.21514437500000005
vt 0.7375 0.18509624999999996
vn -0.5476783019973085 0.8249476928725347 -0.13967741959825564
vn -0.639986573968435 0.7573927834075732 0.12951199474285782
vn -0.6659336966648665 0.12105880492165448 0.7361230042575809
vn -0.21564428276701525 0.892369447020902 0.3964521576855264
vn -0.9241015616577856 -0.3821469661552242 0
vn -0.9950599211108828 0.06982623202921039 0.07056947441639698
vn -0.8615577573056792 0.052357285360998256 -0.5049524190416712
vn -0.9878393331118474 -0.12687281258814342 0.08987069257057469
vn -0.9873762763770145 0.1556792874706458 -0.02918986640074609
vn -0.9961764143910309 0.012241113366838528 -0.08650263900349738
vn -1 0 0
vn -0.9947869594493547 -0.051137608334123306 0.08822613174889718
vn -0.9220867052580469 0.09641004554419076 -0.3747815511795197
vn -0.996865179206543 -0.07357459933594179 -0.029096268112293017
vn -0.6381076293089424 0.38852361946898767 0.6647315627623219
vn -0.8159372855957361 0.34395101966074704 -0.4646977964752953
vn -0.8627413557083603 0.42710438656225863 0.27066436065684285
vn -0.8153466971790971 0.049549016685607135 -0.5768489042588427
vn -0.9653240750752501 -0.1420798475138038 -0.21900398857228037
vn -0.9756624550588927 0.20059597756372466 -0.0885665149687389
vn -0.6315156932227353 -0.4917224921730273 0.599497222599534
vn -0.7756173028879618 -0.5273624585344864 -0.3468524712168933
vn 0.6117843683187347 0.6672498071350413 -0.42485006950581633
vn -0.392922496369401 -0.866240479614047 -0.3086087220492382
vn -0.6698819210812117 -0.668070477213314 0.323944515750028
vn -0.29073253489492945 -0.9406081246524505 -0.17530245004382788
vn -0.8124294861761618 -0.5163996374124882 -0.27072078692222434
vn -0.7937114375075303 -0.49400086114765196 -0.35494408454728216
vn -0.9710665977210955 0.2347185683286484 0.044009731561621565
vn 0.12315219228799912 -0.9726752366370363 -0.1968157045759949
usemtl m_8d66721a-1083-0fed-6951-913bc8dde7a3
f 126/338/101 120/339/101 140/340/101
f 126/341/102 130/342/102 120/343/102
f 128/344/103 129/345/103 132/346/103 137/347/103
usemtl none
f 127/348/104 131/349/104 138/350/104
usemtl m_7c911e7c-023e-b6f0-626e-68270d9d5eee
f 116/351/105 117/352/105 121/353/105
f 117/354/106 131/355/106 121/356/106
f 116/357/107 135/358/107 122/359/107 118/360/107
f 134/361/108 135/362/108 116/363/108
f 120/364/109 130/365/109 119/366/109
f 140/367/110 118/368/110 122/369/110
f 120/370/111 119/371/111 118/372/111
f 130/373/112 129/374/112 119/375/112
f 119/376/113 129/377/113 128/378/113 117/379/113
f 128/380/114 131/381/114 117/382/114
usemtl m_8d66721a-1083-0fed-6951-913bc8dde7a3
f 130/383/115 132/384/115 129/385/115
f 126/386/116 140/387/116 122/388/116 125/389/116
f 130/390/117 126/391/117 125/392/117 132/393/117
f 125/394/118 122/395/118 135/396/118 133/397/118
f 132/398/119 125/399/119 133/400/119 137/401/119
usemtl m_7c911e7c-023e-b6f0-626e-68270d9d5eee
f 121/402/120 134/403/120 116/404/120
usemtl m_8d66721a-1083-0fed-6951-913bc8dde7a3
f 131/405/121 128/406/121 137/407/121 138/408/121
f 137/409/122 135/410/122 134/411/122 138/412/122
usemtl none
f 136/413/123 138/414/123 121/415/123
f 134/416/124 121/417/124 136/418/124
usemtl m_8d66721a-1083-0fed-6951-913bc8dde7a3
f 121/419/125 131/420/125 138/421/125
usemtl none
f 123/422/126 134/423/126 136/424/126
usemtl m_8d66721a-1083-0fed-6951-913bc8dde7a3
f 138/425/127 134/426/127 121/427/127
f 133/428/128 135/429/128 137/430/128
usemtl m_7c911e7c-023e-b6f0-626e-68270d9d5eee
f 139/431/129 140/432/129 120/433/129
usemtl none
f 126/434/130 124/435/130 140/436/130
o mesh
v 0.5 1.0000000000000002 0.5
v 0.5 1.0000000000000002 -0.5
v -0.5 1 0.5
v -0.5 1 -0.5
v -0.40625 1 0
v 0.42669124999999997 0.9696843750000002 0
v -0.1442675 0.98805875 0.412823125
v 0.32866312499999994 0.8835168750000001 0.193183125
v -0.32866312499999994 0.883516875 0.193183125
v -0.09233437499999994 0.7538018750000001 0.08617375
v -0.30169562499999997 0.8613325000000001 0.073789375
v 0.32866312499999994 0.8835168750000001 -0.193183125
v 0.125538125 0.9752843750000001 -0.399893125
v -0.139245 1.008466875 -0.386366875
v -0.35226 0.984428125 -0.2387875
v 0.32866312499999994 0.9945468750000002 -0.25357625
v -0.09943999999999995 0.7061187500000001 -0.11939375
v 0.12553812500000006 0.788938125 0.09970125
v 0.357870625 1.0055100000000001 0.2387875
v 0.188038125 0.9678643750000001 0.412823125
v 0.32866312499999994 0.8115262500000001 0.073789375
v 0.18803812500000006 0.7387656250000001 -0.099478125
v 0.27901437500000004 0.8540281250000001 -0.065389375
v -0.5 1 0.5
v -0.349533125 0.97546875 0.2387875
vt 0.584375 0.21514437500000005
vt 0.5078125 0.125
vt 0.7375 0.18509624999999996
vt 0.584375 0.21514437500000005
vt 0.278125 0.20011999999999996
vt 0.5078125 0.125
vt 0.125 0.6358174999999999
vt 0.125 0.38040874999999996
vt 0.4159375 0.42548062499999995
vt 0.4159375 0.680889375
vt 0 0.7600125
vt 0.147575 0.7600125
vt 0 0.7600125
vt 1 1
vt 0.010754375 0.99485875
vt 0.50163375 0.903565
vt 0.010754375 0.99485875
vt 0.2676825 0.82576125
vt 0.50163375 0.903565
vt 1 1
vt 0.881838125 0.687688125
vt 0.8776725 0.3811675
vt 0.982803125 0.02271500000000004
vt 0.73725875 0.826975
vt 0.881838125 0.687688125
vt 1 1
vt 0.501578125 0.11546687499999997
vt 0.27289625 0.19046125000000003
vt 0.0273125 0.031906250000000025
vt 0.731879375 0.18717812499999997
vt 0.982803125 0.02271500000000004
vt 0.8776725 0.3811675
vt 0.501578125 0.11546687499999997
vt 0.0273125 0.031906250000000025
vt 0.982803125 0.02271500000000004
vt 0.27289625 0.19046125000000003
vt 0.129793125 0.3843025
vt 0.0273125 0.031906250000000025
vt 0.0273125 0.031906250000000025
vt 0.129793125 0.3843025
vt 0.126574375 0.626413125
vt 0.010754375 0.99485875
vt 0.126574375 0.626413125
vt 0.2676825 0.82576125
vt 0.010754375 0.99485875
vt 0.278125 0.20011999999999996
vt 0.4159375 0.42548062499999995
vt 0.125 0.38040874999999996
vt 0.584375 0.21514437500000005
vt 0.7375 0.18509624999999996
vt 0.890625 0.38040874999999996
vt 0.615 0.42548062499999995
vt 0.278125 0.20011999999999996
vt 0.584375 0.21514437500000005
vt 0.615 0.42548062499999995
vt 0.4159375 0.42548062499999995
vt 0.615 0.42548062499999995
vt 0.890625 0.38040874999999996
vt 0.890625 0.69591375
vt 0.615 0.6358174999999999
vt 0.416660625 0.427955
vt 0.61538 0.428089375
vt 0.619496875 0.6358625
vt 0.414075625 0.6875
vt 0.50163375 0.903565
vt 0.73725875 0.826975
vt 1 1
vt 0.2628125 0.83113
vt 0.125 0.6358174999999999
vt 0.4159375 0.680889375
vt 0.4465625 0.8161056250000001
vt 0.4159375 0.680889375
vt 0.890625 0.69591375
vt 0.7375 0.83113
vt 0.4465625 0.8161056250000001
vt 0 0.7600125
vt 0.147575 0.7600125
vt 0.0737875 1
vt 0 0.7600125
vt 0.0737875 1
vt 0.147575 0.7600125
vt 0.5078125 0.90625
vt 0.2628125 0.83113
vt 0.4465625 0.8161056250000001
vt 0.147575 0.7600125
vt 0 0.7600125
vt 0.147575 0.7600125
vt 0.4465625 0.8161056250000001
vt 0.7375 0.83113
vt 0.5078125 0.90625
vt 0.615 0.6358174999999999
vt 0.890625 0.69591375
vt 0.4159375 0.680889375
vt 0.982803125 0.02271500000000004
vt 0.731879375 0.18717812499999997
vt 0.501578125 0.11546687499999997
vt 0.584375 0.21514437500000005
vt 0.6915625 0.21514437500000005
vt 0.7375 0.18509624999999996
vn 0.8249476928725346 0.5476783019973087 -0.13967741959825564
vn 0.7573927834075729 0.6399865739684351 0.1295119947428578
vn 0.12105880492165433 0.6659336966648665 0.7361230042575809
vn 0.892369447020902 0.21564428276701544 0.3964521576855264
vn -0.3821469661552244 0.9241015616577855 0
vn 0.06982623202921016 0.9950599211108828 0.07056947441639698
vn 0.05235728536099806 0.8615577573056792 -0.5049524190416712
vn -0.12687281258814365 0.9878393331118474 0.08987069257057469
vn 0.15567928747064558 0.9873762763770145 -0.02918986640074609
vn 0.012241113366838306 0.9961764143910309 -0.08650263900349738
vn -2.220446049250313e-16 1 0
vn -0.05113760833412353 0.9947869594493547 0.08822613174889718
vn 0.09641004554419055 0.9220867052580469 -0.3747815511795197
vn -0.07357459933594201 0.996865179206543 -0.029096268112293017
vn 0.3885236194689875 0.6381076293089425 0.6647315627623219
vn 0.34395101966074687 0.8159372855957362 -0.4646977964752953
vn 0.42710438656225846 0.8627413557083604 0.27066436065684285
vn 0.049549016685606954 0.8153466971790971 -0.5768489042588427
vn -0.14207984751380398 0.9653240750752499 -0.21900398857228032
vn 0.2005959775637245 0.9756624550588929 -0.08856651496873891
vn -0.4917224921730275 0.6315156932227352 0.599497222599534
vn -0.5273624585344866 0.7756173028879617 -0.3468524712168933
vn 0.6672498071350415 -0.6117843683187346 -0.42485006950581633
vn -0.8662404796140472 0.39292249636940085 -0.3086087220492382
vn -0.6680704772133141 0.6698819210812116 0.323944515750028
vn -0.9406081246524506 0.29073253489492923 -0.17530245004382788
vn -0.5163996374124884 0.8124294861761617 -0.27072078692222434
vn -0.4940008611476521 0.7937114375075301 -0.35494408454728216
vn 0.23471856832864818 0.9710665977210955 0.044009731561621565
vn -0.9726752366370363 -0.12315219228799934 -0.1968157045759949
usemtl m_8d66721a-1083-0fed-6951-913bc8dde7a3
f 151/437/131 145/438/131 165/439/131
f 151/440/132 155/441/132 145/442/132
f 153/443/133 154/444/133 157/445/133 162/446/133
usemtl none
f 152/447/134 156/448/134 163/449/134
usemtl m_7c911e7c-023e-b6f0-626e-68270d9d5eee
f 141/450/135 142/451/135 146/452/135
f 142/453/136 156/454/136 146/455/136
f 141/456/137 160/457/137 147/458/137 143/459/137
f 159/460/138 160/461/138 141/462/138
f 145/463/139 155/464/139 144/465/139
f 165/466/140 143/467/140 147/468/140
f 145/469/141 144/470/141 143/471/141
f 155/472/142 154/473/142 144/474/142
f 144/475/143 154/476/143 153/477/143 142/478/143
f 153/479/144 156/480/144 142/481/144
usemtl m_8d66721a-1083-0fed-6951-913bc8dde7a3
f 155/482/145 157/483/145 154/484/145
f 151/485/146 165/486/146 147/487/146 150/488/146
f 155/489/147 151/490/147 150/491/147 157/492/147
f 150/493/148 147/494/148 160/495/148 158/496/148
f 157/497/149 150/498/149 158/499/149 162/500/149
usemtl m_7c911e7c-023e-b6f0-626e-68270d9d5eee
f 146/501/150 159/502/150 141/503/150
usemtl m_8d66721a-1083-0fed-6951-913bc8dde7a3
f 156/504/151 153/505/151 162/506/151 163/507/151
f 162/508/152 160/509/152 159/510/152 163/511/152
usemtl none
f 161/512/153 163/513/153 146/514/153
f 159/515/154 146/516/154 161/517/154
usemtl m_8d66721a-1083-0fed-6951-913bc8dde7a3
f 146/518/155 156/519/155 163/520/155
usemtl none
f 148/521/156 159/522/156 161/523/156
usemtl m_8d66721a-1083-0fed-6951-913bc8dde7a3
f 163/524/157 159/525/157 146/526/157
f 158/527/158 160/528/158 162/529/158
usemtl m_7c911e7c-023e-b6f0-626e-68270d9d5eee
f 164/530/159 165/531/159 145/532/159
usemtl none
f 151/533/160 149/534/160 165/535/160
o mesh
v -0.5 1.6653345369377348e-16 0.5
v -0.5 1.6653345369377348e-16 -0.5
v 0.5 -5.551115123125783e-17 0.5
v 0.5 -5.551115123125783e-17 -0.5
v 0.40625 -3.469446951953614e-17 0
v -0.42669124999999997 0.030315625000000148 0
v 0.1442675 0.011941250000000025 0.412823125
v -0.32866312499999994 0.11648312500000013 0.193183125
v 0.32866312500000006 0.11648312499999999 0.193183125
v 0.09233437500000005 0.24619812500000002 0.08617375
v 0.301695625 0.1386675 0.073789375
v -0.32866312499999994 0.11648312500000013 -0.193183125
v -0.125538125 0.024715625000000085 -0.399893125
v 0.139245 -0.008466874999999976 -0.386366875
v 0.35226 0.015571874999999978 -0.2387875
v -0.32866312499999994 0.005453125000000128 -0.25357625
v 0.09944000000000006 0.29388125000000004 -0.11939375
v -0.12553812499999994 0.2110618750000001 0.09970125
v -0.357870625 -0.005509999999999865 0.2387875
v -0.188038125 0.0321356250000001 0.412823125
v -0.32866312499999994 0.18847375000000013 0.073789375
v -0.18803812499999994 0.26123437500000013 -0.099478125
v -0.27901437500000004 0.1459718750000001 -0.065389375
v 0.5 -5.551115123125783e-17 0.5
v 0.349533125 0.02453124999999998 0.2387875
vt 0.584375 0.21514437500000005
vt 0.5078125 0.125
vt 0.7375 0.18509624999999996
vt 0.584375 0.21514437500000005
vt 0.278125 0.20011999999999996
vt 0.5078125 0.125
vt 0.125 0.6358174999999999
vt 0.125 0.38040874999999996
vt 0.4159375 0.42548062499999995
vt 0.4159375 0.680889375
vt 0 0.7600125
vt 0.147575 0.7600125
vt 0 0.7600125
vt 1 1
vt 0.010754375 0.99485875
vt 0.50163375 0.903565
vt 0.010754375 0.99485875
vt 0.2676825 0.82576125
vt 0.50163375 0.903565
vt 1 1
vt 0.881838125 0.687688125
vt 0.8776725 0.3811675
vt 0.982803125 0.02271500000000004
vt 0.73725875 0.826975
vt 0.881838125 0.687688125
vt 1 1
vt 0.501578125 0.11546687499999997
vt 0.27289625 0.19046125000000003
vt 0.0273125 0.031906250000000025
vt 0.731879375 0.18717812499999997
vt 0.982803125 0.02271500000000004
vt 0.8776725 0.3811675
vt 0.501578125 0.11546687499999997
vt 0.0273125 0.031906250000000025
vt 0.982803125 0.02271500000000004
vt 0.27289625 0.19046125000000003
vt 0.129793125 0.3843025
vt 0.0273125 0.031906250000000025
vt 0.0273125 0.031906250000000025
vt 0.129793125 0.3843025
vt 0.126574375 0.626413125
vt 0.010754375 0.99485875
vt 0.126574375 0.626413125
vt 0.2676825 0.82576125
vt 0.010754375 0.99485875
vt 0.278125 0.20011999999999996
vt 0.4159375 0.42548062499999995
vt 0.125 0.38040874999999996
vt 0.584375 0.21514437500000005
vt 0.7375 0.18509624999999996
vt 0.890625 0.38040874999999996
vt 0.615 0.42548062499999995
vt 0.278125 0.20011999999999996
vt 0.584375 0.21514437500000005
vt 0.615 0.42548062499999995
vt 0.4159375 0.42548062499999995
vt 0.615 0.42548062499999995
vt 0.890625 0.38040874999999996
vt 0.890625 0.69591375
vt 0.615 0.6358174999999999
vt 0.416660625 0.427955
vt 0.61538 0.428089375
vt 0.619496875 0.6358625
vt 0.414075625 0.6875
vt 0.50163375 0.903565
vt 0.73725875 0.826975
vt 1 1
vt 0.2628125 0.83113
vt 0.125 0.6358174999999999
vt 0.4159375 0.680889375
vt 0.4465625 0.8161056250000001
vt 0.4159375 0.680889375
vt 0.890625 0.69591375
vt 0.7375 0.83113
vt 0.4465625 0.8161056250000001
vt 0 0.7600125
vt 0.147575 0.7600125
vt 0.0737875 1
vt 0 0.7600125
vt 0.0737875 1
vt 0.147575 0.7600125
vt 0.5078125 0.90625
vt 0.2628125 0.83113
vt 0.4465625 0.8161056250000001
vt 0.147575 0.7600125
vt 0 0.7600125
vt 0.147575 0.7600125
vt 0.4465625 0.8161056250000001
vt 0.7375 0.83113
vt 0.5078125 0.90625
vt 0.615 0.6358174999999999
vt 0.890625 0.69591375
vt 0.4159375 0.680889375
vt 0.982803125 0.02271500000000004
vt 0.731879375 0.18717812499999997
vt 0.501578125 0.11546687499999997
vt 0.584375 0.21514437500000005
vt 0.6915625 0.21514437500000005
vt 0.7375 0.18509624999999996
vn -0.824947692872535 -0.5476783019973084 -0.13967741959825566
vn -0.7573927834075733 -0.6399865739684347 0.12951199474285782
vn -0.12105880492165463 -0.6659336966648665 0.7361230042575809
vn -0.892369447020902 -0.21564428276701506 0.3964521576855264
vn 0.382146966155224 -0.9241015616577857 0
vn -0.06982623202921061 -0.9950599211108828 0.07056947441639698
vn -0.05235728536099845 -0.8615577573056792 -0.5049524190416712
vn 0.1268728125881432 -0.9878393331118474 0.08987069257057469
vn -0.15567928747064602 -0.9873762763770145 -0.02918986640074609
vn -0.01224111336683875 -0.9961764143910309 -0.08650263900349738
vn -2.220446049250313e-16 -1 0
vn 0.051137608334123084 -0.9947869594493547 0.08822613174889718
vn -0.09641004554419097 -0.9220867052580469 -0.3747815511795197
vn 0.07357459933594158 -0.9968651792065433 -0.029096268112293024
vn -0.38852361946898784 -0.6381076293089423 0.6647315627623219
vn -0.3439510196607472 -0.815937285595736 -0.4646977964752953
vn -0.4271043865622588 -0.8627413557083602 0.27066436065684285
vn -0.0495490166856073 -0.8153466971790969 -0.5768489042588426
vn 0.14207984751380356 -0.9653240750752501 -0.21900398857228037
vn -0.20059597756372488 -0.9756624550588927 -0.0885665149687389
vn 0.49172249217302716 -0.6315156932227354 0.599497222599534
vn 0.5273624585344862 -0.7756173028879619 -0.3468524712168933
vn -0.6672498071350412 0.6117843683187348 -0.42485006950581633
vn 0.8662404796140469 -0.3929224963694012 -0.3086087220492382
vn 0.6680704772133139 -0.6698819210812118 0.323944515750028
vn 0.9406081246524506 -0.29073253489492973 -0.1753024500438279
vn 0.5163996374124881 -0.8124294861761622 -0.2707207869222244
vn 0.4940008611476518 -0.7937114375075304 -0.35494408454728216
vn -0.23471856832864862 -0.9710665977210955 0.044009731561621565
vn 0.9726752366370363 0.1231521922879989 -0.1968157045759949
usemtl m_8d66721a-1083-0fed-6951-913bc8dde7a3
f 176/536/161 170/537/161 190/538/161
f 176/539/162 180/540/162 170/541/162
f 178/542/163 179/543/163 182/544/163 187/545/163
usemtl none
f 177/546/164 181/547/164 188/548/164
usemtl m_7c911e7c-023e-b6f0-626e-68270d9d5eee
f 166/549/165 167/550/165 171/551/165
f 167/552/166 181/553/166 171/554/166
f 166/555/167 185/556/167 172/557/167 168/558/167
f 184/559/168 185/560/168 166/561/168
f 170/562/169 180/563/169 169/564/169
f 190/565/170 168/566/170 172/567/170
f 170/568/171 169/569/171 168/570/171
f 180/571/172 179/572/172 169/573/172
f 169/574/173 179/575/173 178/576/173 167/577/173
f 178/578/174 181/579/174 167/580/174
usemtl m_8d66721a-1083-0fed-6951-913bc8dde7a3
f 180/581/175 182/582/175 179/583/175
f 176/584/176 190/585/176 172/586/176 175/587/176
f 180/588/177 176/589/177 175/590/177 182/591/177
f 175/592/178 172/593/178 185/594/178 183/595/178
f 182/596/179 175/597/179 183/598/179 187/599/179
usemtl m_7c911e7c-023e-b6f0-626e-68270d9d5eee
f 171/600/180 184/601/180 166/602/180
usemtl m_8d66721a-1083-0fed-6951-913bc8dde7a3
f 181/603/181 178/604/181 187/605/181 188/606/181
f 187/607/182 185/608/182 184/609/182 188/610/182
usemtl none
f 186/611/183 188/612/183 171/613/183
f 184/614/184 171/615/184 186/616/184
usemtl m_8d66721a-1083-0fed-6951-913bc8dde7a3
f 171/617/185 181/618/185 188/619/185
usemtl none
f 173/620/186 184/621/186 186/622/186
usemtl m_8d66721a-1083-0fed-6951-913bc8dde7a3
f 188/623/187 184/624/187 171/625/187
f 183/626/188 185/627/188 187/628/188
usemtl m_7c911e7c-023e-b6f0-626e-68270d9d5eee
f 189/629/189 190/630/189 170/631/189
usemtl none
f 176/632/190 174/633/190 190/634/190