# Made in Blockbench 5.0.7
mtllib ore_transform2.mtl

o mesh
v -0.5 1 0.5
v -0.5 1 -0.5
v -0.5 0 0.5
v -0.5 0 -0.5
v -0.5 0.09375 0
v -0.469684375 0.92669125 0
v -0.48805875 0.3557325 0.412823125
v -0.383516875 0.828663125 0.193183125
v -0.383516875 0.171336875 0.193183125
v -0.253801875 0.40766562500000003 0.08617375
v -0.3613325 0.198304375 0.073789375
v -0.383516875 0.828663125 -0.193183125
v -0.475284375 0.6255381250000001 -0.399893125
v -0.508466875 0.360755 -0.386366875
v -0.484428125 0.14773999999999998 -0.2387875
v -0.494546875 0.828663125 -0.25357625
v -0.20611875000000002 0.40056 -0.11939375
v -0.288938125 0.6255381250000001 0.09970125
v -0.50551 0.857870625 0.2387875
v -0.467864375 0.6880381250000001 0.412823125
v -0.31152625 0.828663125 0.073789375
v -0.23876562499999998 0.6880381250000001 -0.099478125
v -0.354028125 0.779014375 -0.065389375
v -0.5 0 0.5
v -0.47546875 0.150466875 0.2387875
v -0.251189375 0.5272362500000001 -0.173540625
v -0.49527875 0.459646875 -0.223871875
v -0.295133125 0.729001875 0.32544625
v -0.285670625 0.92136375 -0.15269125
v -0.23304312500000002 0.16277999999999998 -0.34125
v -0.292901875 0.85715375 0.044605625
v -0.364730625 0.754874375 -0.010784375
v -0.252243125 0.40559500000000004 -0.34125
v -0.24179 0.282364375 -0.31245625
v -0.316823125 0.1591775 -0.11406
v -0.390873125 0.347181875 0.198494375
v -0.156391875 0.282185 -0.330718125
v -0.366573125 0.56515 0.097905625
v -0.19287125 0.332919375 0.28106875
v -0.403430625 0.06587375000000001 0.133481875
v -0.30939125 0.524629375 0.1781375
v -0.19768312500000002 0.484468125 -0.1440725
v -0.30695062500000003 0.128891875 0.175324375
v -0.501174375 0.188284375 0.167366875
v -0.374281875 0.300314375 -0.241421875
vt 0.584375 0.21514437500000005
vt 0.5078125 0.125
vt 0.7375 0.18509624999999996
vt 0.584375 0.21514437500000005
vt 0.278125 0.20011999999999996
vt 0.5078125 0.125
vt 0.125 0.6358174999999999
vt 0.125 0.38040874999999996
vt 0.4159375 0.42548062499999995
vt 0.4159375 0.680889375
vt 0 0.7600125
vt 0.147575 0.7600125
vt 0 0.7600125
vt 1 1
vt 0.010754375 0.99485875
vt 0.50163375 0.903565
vt 0.010754375 0.99485875
vt 0.2676825 0.82576125
vt 0.50163375 0.903565
vt 1 1
vt 0.881838125 0.687688125
vt 0.8776725 0.3811675
vt 0.982803125 0.02271500000000004
vt 0.73725875 0.826975
vt 0.881838125 0.687688125
vt 1 1
vt 0.501578125 0.11546687499999997
vt 0.27289625 0.19046125000000003
vt 0.0273125 0.031906250000000025
vt 0.731879375 0.18717812499999997
vt 0.982803125 0.02271500000000004
vt 0.8776725 0.3811675
vt 0.501578125 0.11546687499999997
vt 0.0273125 0.031906250000000025
vt 0.982803125 0.02271500000000004
vt 0.27289625 0.19046125000000003
vt 0.129793125 0.3843025
vt 0.0273125 0.031906250000000025
vt 0.0273125 0.031906250000000025
vt 0.129793125 0.3843025
vt 0.126574375 0.626413125
vt 0.010754375 0.99485875
vt 0.126574375 0.626413125
vt 0.2676825 0.82576125
vt 0.010754375 0.99485875
vt 0.278125 0.20011999999999996
vt 0.4159375 0.42548062499999995
vt 0.125 0.38040874999999996
vt 0.584375 0.21514437500000005
vt 0.7375 0.18509624999999996
vt 0.890625 0.38040874999999996
vt 0.615 0.42548062499999995
vt 0.278125 0.20011999999999996
vt 0.584375 0.21514437500000005
vt 0.615 0.42548062499999995
vt 0.4159375 0.42548062499999995
vt 0.615 0.42548062499999995
vt 0.890625 0.38040874999999996
vt 0.890625 0.69591375
vt 0.615 0.6358174999999999
vt 0.619496875 0.6358625
vt 0.61538 0.428089375
vt 0.416660625 0.427955
vt 0.414075625 0.6875
vt 0.50163375 0.903565
vt 0.73725875 0.826975
vt 1 1
vt 0.2628125 0.83113
vt 0.125 0.6358174999999999
vt 0.4159375 0.680889375
vt 0.4465625 0.8161056250000001
vt 0.4159375 0.680889375
vt 0.890625 0.69591375
vt 0.7375 0.83113
vt 0.4465625 0.8161056250000001
vt 0 0.7600125
vt 0.147575 0.7600125
vt 0.0737875 1
vt 0 0.7600125
vt 0.0737875 1
vt 0.147575 0.7600125
vt 0.5078125 0.90625
vt 0.2628125 0.83113
vt 0.4465625 0.8161056250000001
vt 0.147575 0.7600125
vt 0 0.7600125
vt 0.147575 0.7600125
vt 0.4465625 0.8161056250000001
vt 0.7375 0.83113
vt 0.5078125 0.90625
vt 0.615 0.6358174999999999
vt 0.890625 0.69591375
vt 0.4159375 0.680889375
vt 0.982803125 0.02271500000000004
vt 0.731879375 0.18717812499999997
vt 0.501578125 0.11546687499999997
vt 0.584375 0.21514437500000005
vt 0.6915625 0.21514437500000005
vt 0.7375 0.18509624999999996
vt 0.39563125 0.40625
vt 0.260315625 0.640625
vt 0.125 0.5625
vt 0.260315625 0.640625
vt 0.125 0.875
vt 0.125 0.5625
vt 0.125 0.35115624999999995
vt 0.39563125 0.35115624999999995
vt 0.39563125 0.604398125
vt 0.39563125 0.35115624999999995
vt 0.6662625 0.35115624999999995
vt 0.39563125 0.604398125
vt 0.6662625 0.35115624999999995
vt 0.39563125 0.875
vt 0.125 0.35115624999999995
vt 0.125 0.71875
vt 0.3128025 0.71875
vt 0.39563125 0.875
vt 0.3128025 0.71875
vt 0.6662625 0.71875
vt 0.39563125 0.875
vt 0.125 0.35115624999999995
vt 0.47846 0.35115624999999995
vt 0.39563125 0.875
vt 0.47846 0.35115624999999995
vt 0.6662625 0.35115624999999995
vt 0.39563125 0.875
vt 0.39563125 0.875
vt 0.202023125 0.5396587500000001
vt 0.39563125 0.5625
vt 0.202023125 0.5396587500000001
vt 0.125 0.40625
vt 0.39563125 0.5625
vt 0.125 0.35115624999999995
vt 0.27904625 0.35115624999999995
vt 0.329639375 0.5784825
vt 0.329639375 0.5784825
vt 0.39563125 0.875
vt 0.125 0.35115624999999995
vt 0.27904625 0.35115624999999995
vt 0.6662625 0.35115624999999995
vt 0.329639375 0.5784825
vt 0.6662625 0.35115624999999995
vt 0.39563125 0.875
vt 0.329639375 0.5784825
vt 0.39563125 0.604398125
vt 0.39563125 0.875
vt 0.125 0.35115624999999995
vt 0.125 0.35115624999999995
vt 0.39563125 0.35115624999999995
vt 0.39563125 0.604398125
vt 0.39563125 0.604398125
vt 0.39563125 0.875
vt 0.125 0.35115624999999995
vt 0.39563125 0.35115624999999995
vt 0.6662625 0.35115624999999995
vt 0.39563125 0.604398125
vt 0.6662625 0.35115624999999995
vt 0.39563125 0.875
vt 0.39563125 0.604398125
vt 0.125 0.35115624999999995
vt 0.47846 0.35115624999999995
vt 0.39563125 0.875
vt 0.47846 0.35115624999999995
vt 0.6662625 0.35115624999999995
vt 0.39563125 0.875
vt 0.202023125 0.5396587500000001
vt 0.125 0.40625
vt 0.39563125 0.5625
vt 0.125 0.35115624999999995
vt 0.27904625 0.35115624999999995
vt 0.329639375 0.5784825
vt 0.329639375 0.5784825
vt 0.39563125 0.875
vt 0.125 0.35115624999999995
vt 0.27904625 0.35115624999999995
vt 0.6662625 0.35115624999999995
vt 0.329639375 0.5784825
vt 0.6662625 0.35115624999999995
vt 0.39563125 0.875
vt 0.329639375 0.5784825
vt 0.3128025 0.71875
vt 0.6662625 0.71875
vt 0.39563125 0.875
vt 0.39563125 0.875
vt 0.202023125 0.5396587500000001
vt 0.39563125 0.5625
vt 0.39563125 0.40625
vt 0.260315625 0.640625
vt 0.125 0.5625
vt 0.125 0.71875
vt 0.3128025 0.71875
vt 0.39563125 0.875
vt 0.260315625 0.640625
vt 0.125 0.875
vt 0.125 0.5625
vn -0.5476783019973085 0.8249476928725347 -0.13967741959825564
vn -0.639986573968435 0.7573927834075732 0.12951199474285782
vn -0.6659336966648665 0.12105880492165448 0.7361230042575809
vn -0.21564428276701525 0.892369447020902 0.3964521576855264
vn -0.9241015616577856 -0.3821469661552242 0
vn -0.9950599211108828 0.06982623202921039 0.07056947441639698
vn -0.8615577573056792 0.052357285360998256 -0.5049524190416712
vn -0.9878393331118474 -0.12687281258814342 0.08987069257057469
vn -0.9873762763770145 0.1556792874706458 -0.02918986640074609
vn -0.9961764143910309 0.012241113366838528 -0.08650263900349738
vn -1 0 0
vn -0.9947869594493547 -0.051137608334123306 0.08822613174889718
vn -0.9220867052580469 0.09641004554419076 -0.3747815511795197
vn -0.996865179206543 -0.07357459933594179 -0.029096268112293017
vn -0.6381076293089424 0.38852361946898767 0.6647315627623219
vn -0.8159372855957361 0.34395101966074704 -0.4646977964752953
vn -0.8627413557083603 0.42710438656225863 0.27066436065684285
vn -0.8153466971790971 0.049549016685607135 -0.5768489042588427
vn 0.96532407507525 0.14207984751380376 0.2190039885722804
vn -0.9756624550588927 0.20059597756372466 -0.0885665149687389
vn -0.6315156932227353 -0.4917224921730273 0.599497222599534
vn -0.7756173028879618 -0.5273624585344864 -0.3468524712168933
vn 0.6117843683187347 0.6672498071350413 -0.42485006950581633
vn -0.392922496369401 -0.866240479614047 -0.3086087220492382
vn -0.6698819210812117 -0.668070477213314 0.323944515750028
vn -0.29073253489492945 -0.9406081246524505 -0.17530245004382788
vn -0.8124294861761618 -0.5163996374124882 -0.27072078692222434
vn -0.7937114375075303 -0.49400086114765196 -0.35494408454728216
vn -0.9710665977210955 0.2347185683286484 0.044009731561621565
vn 0.12315219228799912 -0.9726752366370363 -0.1968157045759949
vn 0.9944604864187389 0.08363490003805961 0.06366745202557976
vn 0.9944423252857091 0.09257455445749065 0.05014392831988166
vn -0.850087391153924 0.48163509968317864 0.2130236093823644
vn -0.8440931553603539 0.5182101523863036 0.13771340906958104
vn -0.909578880994826 0.3914243048278298 0.13947499000985986
vn 0.9948885017620978 0.07866836576748665 -0.06331000939062661
vn 0.9932688745848146 0.0907092229197051 -0.07203318442439695
vn -0.3600538980480277 0.2996598700371357 -0.8834959834598839
vn -0.4409133792172588 -0.03486414299351921 -0.8968722782874634
vn 0.9954868160433179 -0.014952568710263172 0.09371456542556406
vn -0.9896193074685209 -0.09775080151408251 0.10534897763566416
vn 0.9382129255438973 -0.014625561174164487 0.34574933015510273
vn -0.7710808399590056 -0.5651579344940826 -0.2933101555120401
vn 0.9503578803773785 -0.21191180117370825 0.22784487645749565
vn -0.8271077087057649 -0.3231847950901325 0.4598308671914583
vn -0.9411034008714939 0.2610495530454572 0.21488955238185806
vn 0.5096921873205249 0.8575188608310301 0.0698231874342025
vn -0.6694431373455993 0.4253211111057612 -0.6090548729865329
vn 0.7861045272534246 0.5849697088964553 0.19962492806577598
vn 0.9861874809098649 0.15923244830502875 0.0455991217398066
vn 0.8474609383292538 -0.522493991725645 0.09386152894931013
vn 0.5688687283887541 -0.8186504308848956 -0.07873907462839942
vn 0.05271661914359992 -0.22709292748077814 0.972445247998199
vn -0.771366465089618 -0.510891234402412 -0.37945213551372575
vn -0.28175721959740674 -0.8035191538913581 -0.5243756654674728
vn -0.932546183364213 0.29459491339254223 -0.2087377610689552
vn -0.18221161690154947 0.7771282456475934 -0.602387430548494
vn -0.3882083728157366 -0.2435880293922133 0.8887964509450837
vn -0.6973085077592196 0.3629694488587124 0.6180728308232073
vn -0.3547042532693111 0.26571471079044406 0.8964265642997262
vn -0.2736765599682787 -0.20496200416772806 0.9397295980075744
vn -0.6543968259978834 0.37576812169324625 0.6561730814678591
usemtl m_f4c4c967-e937-d3ff-c47f-d19310d9d955
f 11/1/1 5/2/1 25/3/1
f 11/4/2 15/5/2 5/6/2
f 13/7/3 14/8/3 17/9/3 22/10/3
usemtl none
f 12/11/4 16/12/4 23/13/4
usemtl m_7c911e7c-023e-b6f0-626e-68270d9d5eee
f 1/14/5 2/15/5 6/16/5
f 2/17/6 16/18/6 6/19/6
f 1/20/7 20/21/7 7/22/7 3/23/7
f 19/24/8 20/25/8 1/26/8
f 5/27/9 15/28/9 4/29/9
f 25/30/10 3/31/10 7/32/10
f 5/33/11 4/34/11 3/35/11
f 15/36/12 14/37/12 4/38/12
f 4/39/13 14/40/13 13/41/13 2/42/13
f 13/43/14 16/44/14 2/45/14
usemtl m_f4c4c967-e937-d3ff-c47f-d19310d9d955
f 15/46/15 17/47/15 14/48/15
f 11/49/16 25/50/16 7/51/16 10/52/16
f 15/53/17 11/54/17 10/55/17 17/56/17
f 10/57/18 7/58/18 20/59/18 18/60/18
usemtl none
f 18/61/19 10/62/19 17/63/19 22/64/19
usemtl m_7c911e7c-023e-b6f0-626e-68270d9d5eee
f 6/65/20 19/66/20 1/67/20
usemtl m_f4c4c967-e937-d3ff-c47f-d19310d9d955
f 16/68/21 13/69/21 22/70/21 23/71/21
f 22/72/22 20/73/22 19/74/22 23/75/22
usemtl none
f 21/76/23 23/77/23 6/78/23
f 19/79/24 6/80/24 21/81/24
usemtl m_f4c4c967-e937-d3ff-c47f-d19310d9d955
f 6/82/25 16/83/25 23/84/25
usemtl none
f 8/85/26 19/86/26 21/87/26
usemtl m_f4c4c967-e937-d3ff-c47f-d19310d9d955
f 23/88/27 19/89/27 6/90/27
f 18/91/28 20/92/28 22/93/28
usemtl m_7c911e7c-023e-b6f0-626e-68270d9d5eee
f 24/94/29 25/95/29 5/96/29
usemtl none
f 11/97/30 9/98/30 25/99/30
usemtl m_fd91be87-b8b9-25b6-ac27-47077aa12872
f 29/100/31 31/101/31 26/102/31
f 31/103/32 28/104/32 26/105/32
f 28/106/33 31/107/33 32/108/33
f 31/109/34 29/110/34 32/111/34
f 29/112/35 27/113/35 28/114/35
f 30/115/36 33/116/36 26/117/36
f 33/118/37 29/119/37 26/120/37
f 29/121/38 33/122/38 27/123/38
f 33/124/39 30/125/39 27/126/39
f 28/127/40 34/128/40 26/129/40
f 34/130/41 30/131/41 26/132/41
f 30/133/42 34/134/42 35/135/42
f 35/136/43 27/137/43 30/138/43
f 34/139/44 28/140/44 35/141/44
f 28/142/45 27/143/45 35/144/45
f 32/145/46 27/146/46 28/147/46
f 38/148/47 41/149/47 42/150/47
f 42/151/48 37/152/48 38/153/48
f 41/154/49 39/155/49 42/156/49
f 39/157/50 37/158/50 42/159/50
f 39/160/51 43/161/51 37/162/51
f 43/163/52 40/164/52 37/165/52
f 44/166/53 40/167/53 36/168/53
f 40/169/54 44/170/54 45/171/54
f 45/172/55 37/173/55 40/174/55
f 44/175/56 38/176/56 45/177/56
f 38/178/57 37/179/57 45/180/57
f 43/181/58 39/182/58 36/183/58
f 38/184/59 44/185/59 36/186/59
f 39/187/60 41/188/60 36/189/60
f 40/190/61 43/191/61 36/192/61
f 41/193/62 38/194/62 36/195/62
o mesh
v -0.5 1 -0.4999999999999999
v 0.5 1 -0.5000000000000001
v -0.5 0 -0.4999999999999999
v 0.5 0 -0.5000000000000001
v 0 0.09375 -0.5
v 6.731420976180402e-18 0.92669125 -0.469684375
v -0.412823125 0.3557325 -0.48805874999999993
v -0.19318312499999998 0.828663125 -0.383516875
v -0.19318312499999998 0.171336875 -0.383516875
v -0.08617374999999994 0.40766562500000003 -0.25380187499999995
v -0.07378937499999998 0.198304375 -0.36133249999999995
v 0.19318312500000004 0.828663125 -0.38351687500000003
v 0.399893125 0.6255381250000001 -0.4752843750000001
v 0.386366875 0.360755 -0.5084668750000001
v 0.2387875 0.14773999999999998 -0.48442812500000004
v 0.25357625 0.828663125 -0.49454687500000005
v 0.11939375000000008 0.40056 -0.20611875000000002
v -0.09970124999999996 0.6255381250000001 -0.28893812499999993
v -0.2387875 0.857870625 -0.5055099999999999
v -0.412823125 0.6880381250000001 -0.4678643749999999
v -0.07378937499999996 0.828663125 -0.31152625
v 0.09947812500000006 0.6880381250000001 -0.23876562499999998
v 0.06538937500000003 0.779014375 -0.354028125
v -0.5 0 -0.4999999999999999
v -0.2387875 0.150466875 -0.47546874999999994
v 0.17354062500000006 0.5272362500000001 -0.25118937500000005
v 0.223871875 0.459646875 -0.49527875000000005
v -0.32544624999999994 0.729001875 -0.2951331249999999
v 0.34019125000000006 0.85886375 -0.28567062500000007
v 0.34125000000000005 0.16277999999999998 -0.23304312500000007
v -0.044605624999999954 0.79465375 -0.292901875
v 0.010784375000000058 0.754874375 -0.23973062499999997
v 0.34125000000000005 0.40559500000000004 -0.2522431250000001
v 0.31245625000000005 0.282364375 -0.24179000000000006
v 0.11406000000000004 0.1591775 -0.31682312500000004
v -0.19849437499999997 0.347181875 -0.39087312499999993
v 0.39321812500000003 0.282185 -0.15639187500000012
v -0.09790562499999997 0.56515 -0.36657312499999994
v -0.2810687499999999 0.332919375 -0.19287124999999994
v -0.13348187499999997 0.06587375000000001 -0.403430625
v -0.17813749999999995 0.524629375 -0.30939125
v 0.14407250000000005 0.484468125 -0.19768312500000007
v -0.17532437499999995 0.128891875 -0.306950625
v -0.167366875 0.188284375 -0.501174375
v 0.24142187500000004 0.300314375 -0.3742818750000001
vt 0.584375 0.21514437500000005
vt 0.5078125 0.125
vt 0.7375 0.18509624999999996
vt 0.584375 0.21514437500000005
vt 0.278125 0.20011999999999996
vt 0.5078125 0.125
vt 0.125 0.6358174999999999
vt 0.125 0.38040874999999996
vt 0.4159375 0.42548062499999995
vt 0.4159375 0.680889375
vt 0 0.7600125
vt 0.147575 0.7600125
vt 0 0.7600125
vt 1 1
vt 0.010754375 0.99485875
vt 0.50163375 0.903565
vt 0.010754375 0.99485875
vt 0.2676825 0.82576125
vt 0.50163375 0.903565
vt 1 1
vt 0.881838125 0.687688125
vt 0.8776725 0.3811675
vt 0.982803125 0.02271500000000004
vt 0.73725875 0.826975
vt 0.881838125 0.687688125
vt 1 1
vt 0.501578125 0.11546687499999997
vt 0.27289625 0.19046125000000003
vt 0.0273125 0.031906250000000025
vt 0.731879375 0.18717812499999997
vt 0.982803125 0.02271500000000004
vt 0.8776725 0.3811675
vt 0.501578125 0.11546687499999997
vt 0.0273125 0.031906250000000025
vt 0.982803125 0.02271500000000004
vt 0.27289625 0.19046125000000003
vt 0.129793125 0.3843025
vt 0.0273125 0.031906250000000025
vt 0.0273125 0.031906250000000025
vt 0.129793125 0.3843025
vt 0.126574375 0.626413125
vt 0.010754375 0.99485875
vt 0.126574375 0.626413125
vt 0.2676825 0.82576125
vt 0.010754375 0.99485875
vt 0.278125 0.20011999999999996
vt 0.4159375 0.42548062499999995
vt 0.125 0.38040874999999996
vt 0.584375 0.21514437500000005
vt 0.7375 0.18509624999999996
vt 0.890625 0.38040874999999996
vt 0.615 0.42548062499999995
vt 0.278125 0.20011999999999996
vt 0.584375 0.21514437500000005
vt 0.615 0.42548062499999995
vt 0.4159375 0.42548062499999995
vt 0.615 0.42548062499999995
vt 0.890625 0.38040874999999996
vt 0.890625 0.69591375
vt 0.615 0.6358174999999999
vt 0.619496875 0.6358625
vt 0.61538 0.428089375
vt 0.416660625 0.427955
vt 0.414075625 0.6875
vt 0.50163375 0.903565
vt 0.73725875 0.826975
vt 1 1
vt 0.2628125 0.83113
vt 0.125 0.6358174999999999
vt 0.4159375 0.680889375
vt 0.4465625 0.8161056250000001
vt 0.4159375 0.680889375
vt 0.890625 0.69591375
vt 0.7375 0.83113
vt 0.4465625 0.8161056250000001
vt 0 0.7600125
vt 0.147575 0.7600125
vt 0.0737875 1
vt 0 0.7600125
vt 0.0737875 1
vt 0.147575 0.7600125
vt 0.5078125 0.90625
vt 0.2628125 0.83113
vt 0.4465625 0.8161056250000001
vt 0.147575 0.7600125
vt 0 0.7600125
vt 0.147575 0.7600125
vt 0.4465625 0.8161056250000001
vt 0.7375 0.83113
vt 0.5078125 0.90625
vt 0.615 0.6358174999999999
vt 0.890625 0.69591375
vt 0.4159375 0.680889375
vt 0.982803125 0.02271500000000004
vt 0.731879375 0.18717812499999997
vt 0.501578125 0.11546687499999997
vt 0.584375 0.21514437500000005
vt 0.6915625 0.21514437500000005
vt 0.7375 0.18509624999999996
vt 0.39563125 0.40625
vt 0.260315625 0.640625
vt 0.125 0.5625
vt 0.260315625 0.640625
vt 0.125 0.875
vt 0.125 0.5625
vt 0.125 0.35115624999999995
vt 0.39563125 0.35115624999999995
vt 0.39563125 0.604398125
vt 0.39563125 0.35115624999999995
vt 0.6662625 0.35115624999999995
vt 0.39563125 0.604398125
vt 0.6662625 0.35115624999999995
vt 0.39563125 0.875
vt 0.125 0.35115624999999995
vt 0.125 0.71875
vt 0.3128025 0.71875
vt 0.39563125 0.875
vt 0.3128025 0.71875
vt 0.6662625 0.71875
vt 0.39563125 0.875
vt 0.125 0.35115624999999995
vt 0.47846 0.35115624999999995
vt 0.39563125 0.875
vt 0.47846 0.35115624999999995
vt 0.6662625 0.35115624999999995
vt 0.39563125 0.875
vt 0.39563125 0.875
vt 0.202023125 0.5396587500000001
vt 0.39563125 0.5625
vt 0.202023125 0.5396587500000001
vt 0.125 0.40625
vt 0.39563125 0.5625
vt 0.125 0.35115624999999995
vt 0.27904625 0.35115624999999995
vt 0.329639375 0.5784825
vt 0.329639375 0.5784825
vt 0.39563125 0.875
vt 0.125 0.35115624999999995
vt 0.27904625 0.35115624999999995
vt 0.6662625 0.35115624999999995
vt 0.329639375 0.5784825
vt 0.6662625 0.35115624999999995
vt 0.39563125 0.875
vt 0.329639375 0.5784825
vt 0.39563125 0.604398125
vt 0.39563125 0.875
vt 0.125 0.35115624999999995
vt 0.125 0.35115624999999995
vt 0.39563125 0.35115624999999995
vt 0.39563125 0.604398125
vt 0.39563125 0.604398125
vt 0.39563125 0.875
vt 0.125 0.35115624999999995
vt 0.39563125 0.35115624999999995
vt 0.6662625 0.35115624999999995
vt 0.39563125 0.604398125
vt 0.6662625 0.35115624999999995
vt 0.39563125 0.875
vt 0.39563125 0.604398125
vt 0.125 0.35115624999999995
vt 0.47846 0.35115624999999995
vt 0.39563125 0.875
vt 0.47846 0.35115624999999995
vt 0.6662625 0.35115624999999995
vt 0.39563125 0.875
vt 0.202023125 0.5396587500000001
vt 0.125 0.40625
vt 0.39563125 0.5625
vt 0.125 0.35115624999999995
vt 0.27904625 0.35115624999999995
vt 0.329639375 0.5784825
vt 0.329639375 0.5784825
vt 0.39563125 0.875
vt 0.125 0.35115624999999995
vt 0.27904625 0.35115624999999995
vt 0.6662625 0.35115624999999995
vt 0.329639375 0.5784825
vt 0.6662625 0.35115624999999995
vt 0.39563125 0.875
vt 0.329639375 0.5784825
vt 0.3128025 0.71875
vt 0.6662625 0.71875
vt 0.39563125 0.875
vt 0.39563125 0.875
vt 0.202023125 0.5396587500000001
vt 0.39563125 0.5625
vt 0.39563125 0.40625
vt 0.260315625 0.640625
vt 0.125 0.5625
vt 0.125 0.71875
vt 0.3128025 0.71875
vt 0.39563125 0.875
vt 0.260315625 0.640625
vt 0.125 0.875
vt 0.125 0.5625
vn 0.13967741959825553 0.8249476928725347 -0.5476783019973085
vn -0.12951199474285796 0.7573927834075732 -0.639986573968435
vn -0.736123004257581 0.12105880492165448 -0.6659336966648663
vn -0.39645215768552644 0.892369447020902 -0.21564428276701517
vn -2.0519176616890746e-16 -0.3821469661552242 -0.9241015616577856
vn -0.0705694744163972 0.06982623202921039 -0.9950599211108828
vn 0.504952419041671 0.052357285360998256 -0.8615577573056793
vn -0.08987069257057491 -0.12687281258814342 -0.9878393331118474
vn 0.029189866400745872 0.1556792874706458 -0.9873762763770145
vn 0.08650263900349715 0.012241113366838528 -0.9961764143910309
vn -2.220446049250313e-16 0 -1
vn -0.0882261317488974 -0.051137608334123306 -0.9947869594493547
vn 0.3747815511795195 0.09641004554419076 -0.922086705258047
vn 0.029096268112292795 -0.07357459933594179 -0.996865179206543
vn -0.664731562762322 0.38852361946898767 -0.6381076293089423
vn 0.46469779647529513 0.34395101966074704 -0.8159372855957362
vn -0.270664360656843 0.42710438656225863 -0.8627413557083602
vn 0.5768489042588425 0.049549016685607135 -0.8153466971790972
vn -0.21900398857228018 0.14207984751380376 0.96532407507525
vn 0.08856651496873867 0.20059597756372466 -0.9756624550588927
vn -0.5994972225995341 -0.4917224921730273 -0.6315156932227352
vn 0.3468524712168931 -0.5273624585344864 -0.7756173028879619
vn 0.42485006950581644 0.6672498071350413 0.6117843683187346
vn 0.3086087220492381 -0.866240479614047 -0.3929224963694011
vn -0.32394451575002814 -0.668070477213314 -0.6698819210812116
vn 0.17530245004382783 -0.9406081246524505 -0.2907325348949295
vn 0.2707207869222242 -0.5163996374124882 -0.812429486176162
vn 0.354944084547282 -0.49400086114765196 -0.7937114375075304
vn -0.04400973156162178 0.2347185683286484 -0.9710665977210955
vn 0.19681570457599493 -0.9726752366370363 0.12315219228799908
vn -0.03912180811232091 0.12276872458730648 0.9916639170571999
vn -0.036980620815607074 0.1244946523440019 0.9915308947389581
vn 0.16847938244336597 -0.6970208485374394 -0.6969767818196313
vn 0.13323649415393193 -0.7219957126452365 -0.6789478827917989
vn -0.08160407996514903 0.48185227957832416 -0.8724443562762121
vn 0.06331000939062684 0.07866836576748665 0.9948885017620978
vn 0.05960557381662596 0.07355561271341612 0.9955082859566489
vn 0.8974016254795504 -0.030365224433877236 -0.44016846289999173
vn 0.8968722782874633 -0.03486414299351921 -0.44091337921725904
vn -0.09371456542556383 -0.014952568710263172 0.9954868160433179
vn -0.10534897763566438 -0.09775080151408251 -0.9896193074685209
vn -0.3457493301551025 -0.014625561174164487 0.9382129255438975
vn 0.29331015551203987 -0.5651579344940825 -0.7710808399590054
vn -0.22784487645749543 -0.21191180117370825 0.9503578803773785
vn -0.4598308671914586 -0.32318479509013254 -0.827107708705765
vn 0.06785449554872482 0.6805083034060675 -0.7295918149412203
vn -0.06982318743420239 0.8575188608310301 0.5096921873205249
vn 0.5813974987671178 0.6050531299483424 -0.5439555665374275
vn -0.1996249280657758 0.5849697088964553 0.7861045272534246
vn -0.042179409927253525 0.14969133321170808 0.9878326792222912
vn -0.08508533696095268 -0.5194926600119638 0.8502281232868832
vn 0.07115242835510803 -0.8206973717350791 0.5669154751515473
vn -0.972445247998199 -0.22709292748077814 0.05271661914360014
vn 0.3794521355137256 -0.510891234402412 -0.7713664650896181
vn 0.5053647057014868 -0.7565492232439203 -0.4150178153287765
vn 0.208737761068955 0.29459491339254223 -0.932546183364213
vn 0.5742619274551032 0.7456271873493144 -0.3380286025783915
vn -0.8887964509450839 -0.2435880293922133 -0.3882083728157364
vn -0.6180728308232074 0.3629694488587124 -0.6973085077592195
vn -0.8964265642997263 0.26571471079044406 -0.3547042532693109
vn -0.9397295980075745 -0.20496200416772806 -0.2736765599682785
vn -0.6561730814678592 0.37576812169324625 -0.6543968259978833
usemtl m_f4c4c967-e937-d3ff-c47f-d19310d9d955
f 56/196/63 50/197/63 70/198/63
f 56/199/64 60/200/64 50/201/64
f 58/202/65 59/203/65 62/204/65 67/205/65
usemtl none
f 57/206/66 61/207/66 68/208/66
usemtl m_7c911e7c-023e-b6f0-626e-68270d9d5eee
f 46/209/67 47/210/67 51/211/67
f 47/212/68 61/213/68 51/214/68
f 46/215/69 65/216/69 52/217/69 48/218/69
f 64/219/70 65/220/70 46/221/70
f 50/222/71 60/223/71 49/224/71
f 70/225/72 48/226/72 52/227/72
f 50/228/73 49/229/73 48/230/73
f 60/231/74 59/232/74 49/233/74
f 49/234/75 59/235/75 58/236/75 47/237/75
f 58/238/76 61/239/76 47/240/76
usemtl m_f4c4c967-e937-d3ff-c47f-d19310d9d955
f 60/241/77 62/242/77 59/243/77
f 56/244/78 70/245/78 52/246/78 55/247/78
f 60/248/79 56/249/79 55/250/79 62/251/79
f 55/252/80 52/253/80 65/254/80 63/255/80
usemtl none
f 63/256/81 55/257/81 62/258/81 67/259/81
usemtl m_7c911e7c-023e-b6f0-626e-68270d9d5eee
f 51/260/82 64/261/82 46/262/82
usemtl m_f4c4c967-e937-d3ff-c47f-d19310d9d955
f 61/263/83 58/264/83 67/265/83 68/266/83
f 67/267/84 65/268/84 64/269/84 68/270/84
usemtl none
f 66/271/85 68/272/85 51/273/85
f 64/274/86 51/275/86 66/276/86
usemtl m_f4c4c967-e937-d3ff-c47f-d19310d9d955
f 51/277/87 61/278/87 68/279/87
usemtl none
f 53/280/88 64/281/88 66/282/88
usemtl m_f4c4c967-e937-d3ff-c47f-d19310d9d955
f 68/283/89 64/284/89 51/285/89
f 63/286/90 65/287/90 67/288/90
usemtl m_7c911e7c-023e-b6f0-626e-68270d9d5eee
f 69/289/91 70/290/91 50/291/91
usemtl none
f 56/292/92 54/293/92 70/294/92
usemtl m_fd91be87-b8b9-25b6-ac27-47077aa12872
f 74/295/93 76/296/93 71/297/93
f 76/298/94 73/299/94 71/300/94
f 73/301/95 76/302/95 77/303/95
f 76/304/96 74/305/96 77/306/96
f 74/307/97 72/308/97 73/309/97
f 75/310/98 78/311/98 71/312/98
f 78/313/99 74/314/99 71/315/99
f 74/316/100 78/317/100 72/318/100
f 78/319/101 75/320/101 72/321/101
f 73/322/102 79/323/102 71/324/102
f 79/325/103 75/326/103 71/327/103
f 75/328/104 79/329/104 80/330/104
f 80/331/105 72/332/105 75/333/105
f 79/334/106 73/335/106 80/336/106
f 73/337/107 72/338/107 80/339/107
f 77/340/108 72/341/108 73/342/108
f 83/343/109 86/344/109 87/345/109
f 87/346/110 82/347/110 83/348/110
f 86/349/111 84/350/111 87/351/111
f 84/352/112 82/353/112 87/354/112
f 84/355/113 88/356/113 82/357/113
f 88/358/114 85/359/114 82/360/114
f 89/361/115 85/362/115 81/363/115
f 85/364/116 89/365/116 90/366/116
f 90/367/117 82/368/117 85/369/117
f 89/370/118 83/371/118 90/372/118
f 83/373/119 82/374/119 90/375/119
f 88/376/120 84/377/120 81/378/120
f 83/379/121 89/380/121 81/381/121
f 84/382/122 86/383/122 81/384/122
f 85/385/123 88/386/123 81/387/123
f 86/388/124 83/389/124 81/390/124
o mesh
v 0.49999999999999994 1 -0.5
v 0.5000000000000001 1 0.5
v 0.49999999999999994 0 -0.5
v 0.5000000000000001 0 0.5
v 0.5 0.09375 0
v 0.469684375 0.92669125 3.712593312040148e-18
v 0.48805874999999993 0.3557325 -0.412823125
v 0.383516875 0.828663125 -0.19318312499999998
v 0.383516875 0.171336875 -0.19318312499999998
v 0.253801875 0.40766562500000003 -0.08617374999999997
v 0.3613325 0.198304375 -0.07378937499999999
v 0.38351687500000003 0.828663125 0.19318312500000004
v 0.47528437500000004 0.6255381250000001 0.399893125
v 0.5084668750000001 0.360755 0.386366875
v 0.48442812500000004 0.14773999999999998 0.2387875
v 0.49454687500000005 0.828663125 0.25357625
v 0.20611875000000002 0.40056 0.11939375000000005
v 0.288938125 0.6255381250000001 -0.09970124999999998
v 0.50551 0.857870625 -0.2387875
v 0.46786437499999994 0.6880381250000001 -0.412823125
v 0.31152625 0.828663125 -0.07378937499999998
v 0.23876562499999998 0.6880381250000001 0.09947812500000003
v 0.354028125 0.779014375 0.06538937500000001
v 0.49999999999999994 0 -0.5
v 0.47546875 0.150466875 -0.2387875
v 0.25118937500000005 0.5272362500000001 0.17354062500000003
v 0.49527875000000005 0.459646875 0.223871875
v 0.295133125 0.729001875 -0.32544625
v 0.28567062500000007 0.92136375 0.34019125
v 0.23304312500000007 0.16277999999999998 0.40375000000000005
v 0.292901875 0.85715375 -0.044605624999999975
v 0.302230625 0.754874375 0.010784375000000025
v 0.25224312500000007 0.40559500000000004 0.34125000000000005
v 0.24179000000000006 0.282364375 0.31245625000000005
v 0.31682312500000004 0.1591775 0.11406000000000002
v 0.390873125 0.347181875 -0.198494375
v 0.15639187500000007 0.282185 0.33071812500000003
v 0.366573125 0.56515 -0.09790562499999998
v 0.19287124999999994 0.332919375 -0.2810687499999999
v 0.403430625 0.06587375000000001 -0.133481875
v 0.30939125 0.524629375 -0.17813749999999998
v 0.19768312500000002 0.484468125 0.14407250000000002
v 0.306950625 0.128891875 -0.17532437499999998
v 0.501174375 0.188284375 -0.167366875
v 0.37428187500000004 0.300314375 0.24142187500000004
vt 0.584375 0.21514437500000005
vt 0.5078125 0.125
vt 0.7375 0.18509624999999996
vt 0.584375 0.21514437500000005
vt 0.278125 0.20011999999999996
vt 0.5078125 0.125
vt 0.125 0.6358174999999999
vt 0.125 0.38040874999999996
vt 0.4159375 0.42548062499999995
vt 0.4159375 0.680889375
vt 0 0.7600125
vt 0.147575 0.7600125
vt 0 0.7600125
vt 1 1
vt 0.010754375 0.99485875
vt 0.50163375 0.903565
vt 0.010754375 0.99485875
vt 0.2676825 0.82576125
vt 0.50163375 0.903565
vt 1 1
vt 0.881838125 0.687688125
vt 0.8776725 0.3811675
vt 0.982803125 0.02271500000000004
vt 0.73725875 0.826975
vt 0.881838125 0.687688125
vt 1 1
vt 0.501578125 0.11546687499999997
vt 0.27289625 0.19046125000000003
vt 0.0273125 0.031906250000000025
vt 0.731879375 0.18717812499999997
vt 0.982803125 0.02271500000000004
vt 0.8776725 0.3811675
vt 0.501578125 0.11546687499999997
vt 0.0273125 0.031906250000000025
vt 0.982803125 0.02271500000000004
vt 0.27289625 0.19046125000000003
vt 0.129793125 0.3843025
vt 0.0273125 0.031906250000000025
vt 0.0273125 0.031906250000000025
vt 0.129793125 0.3843025
vt 0.126574375 0.626413125
vt 0.010754375 0.99485875
vt 0.126574375 0.626413125
vt 0.2676825 0.82576125
vt 0.010754375 0.99485875
vt 0.278125 0.20011999999999996
vt 0.4159375 0.42548062499999995
vt 0.125 0.38040874999999996
vt 0.584375 0.21514437500000005
vt 0.7375 0.18509624999999996
vt 0.890625 0.38040874999999996
vt 0.615 0.42548062499999995
vt 0.278125 0.20011999999999996
vt 0.584375 0.21514437500000005
vt 0.615 0.42548062499999995
vt 0.4159375 0.42548062499999995
vt 0.615 0.42548062499999995
vt 0.890625 0.38040874999999996
vt 0.890625 0.69591375
vt 0.615 0.6358174999999999
vt 0.619496875 0.6358625
vt 0.61538 0.428089375
vt 0.416660625 0.427955
vt 0.414075625 0.6875
vt 0.50163375 0.903565
vt 0.73725875 0.826975
vt 1 1
vt 0.2628125 0.83113
vt 0.125 0.6358174999999999
vt 0.4159375 0.680889375
vt 0.4465625 0.8161056250000001
vt 0.4159375 0.680889375
vt 0.890625 0.69591375
vt 0.7375 0.83113
vt 0.4465625 0.8161056250000001
vt 0 0.7600125
vt 0.147575 0.7600125
vt 0.0737875 1
vt 0 0.7600125
vt 0.0737875 1
vt 0.147575 0.7600125
vt 0.5078125 0.90625
vt 0.2628125 0.83113
vt 0.4465625 0.8161056250000001
vt 0.147575 0.7600125
vt 0 0.7600125
vt 0.147575 0.7600125
vt 0.4465625 0.8161056250000001
vt 0.7375 0.83113
vt 0.5078125 0.90625
vt 0.615 0.6358174999999999
vt 0.890625 0.69591375
vt 0.4159375 0.680889375
vt 0.982803125 0.02271500000000004
vt 0.731879375 0.18717812499999997
vt 0.501578125 0.11546687499999997
vt 0.584375 0.21514437500000005
vt 0.6915625 0.21514437500000005
vt 0.7375 0.18509624999999996
vt 0.39563125 0.40625
vt 0.260315625 0.640625
vt 0.125 0.5625
vt 0.260315625 0.640625
vt 0.125 0.875
vt 0.125 0.5625
vt 0.125 0.35115624999999995
vt 0.39563125 0.35115624999999995
vt 0.39563125 0.604398125
vt 0.39563125 0.35115624999999995
vt 0.6662625 0.35115624999999995
vt 0.39563125 0.604398125
vt 0.6662625 0.35115624999999995
vt 0.39563125 0.875
vt 0.125 0.35115624999999995
vt 0.125 0.71875
vt 0.3128025 0.71875
vt 0.39563125 0.875
vt 0.3128025 0.71875
vt 0.6662625 0.71875
vt 0.39563125 0.875
vt 0.125 0.35115624999999995
vt 0.47846 0.35115624999999995
vt 0.39563125 0.875
vt 0.47846 0.35115624999999995
vt 0.6662625 0.35115624999999995
vt 0.39563125 0.875
vt 0.39563125 0.875
vt 0.202023125 0.5396587500000001
vt 0.39563125 0.5625
vt 0.202023125 0.5396587500000001
vt 0.125 0.40625
vt 0.39563125 0.5625
vt 0.125 0.35115624999999995
vt 0.27904625 0.35115624999999995
vt 0.329639375 0.5784825
vt 0.329639375 0.5784825
vt 0.39563125 0.875
vt 0.125 0.35115624999999995
vt 0.27904625 0.35115624999999995
vt 0.6662625 0.35115624999999995
vt 0.329639375 0.5784825
vt 0.6662625 0.35115624999999995
vt 0.39563125 0.875
vt 0.329639375 0.5784825
vt 0.39563125 0.604398125
vt 0.39563125 0.875
vt 0.125 0.35115624999999995
vt 0.125 0.35115624999999995
vt 0.39563125 0.35115624999999995
vt 0.39563125 0.604398125
vt 0.39563125 0.604398125
vt 0.39563125 0.875
vt 0.125 0.35115624999999995
vt 0.39563125 0.35115624999999995
vt 0.6662625 0.35115624999999995
vt 0.39563125 0.604398125
vt 0.6662625 0.35115624999999995
vt 0.39563125 0.875
vt 0.39563125 0.604398125
vt 0.125 0.35115624999999995
vt 0.47846 0.35115624999999995
vt 0.39563125 0.875
vt 0.47846 0.35115624999999995
vt 0.6662625 0.35115624999999995
vt 0.39563125 0.875
vt 0.202023125 0.5396587500000001
vt 0.125 0.40625
vt 0.39563125 0.5625
vt 0.125 0.35115624999999995
vt 0.27904625 0.35115624999999995
vt 0.329639375 0.5784825
vt 0.329639375 0.5784825
vt 0.39563125 0.875
vt 0.125 0.35115624999999995
vt 0.27904625 0.35115624999999995
vt 0.6662625 0.35115624999999995
vt 0.329639375 0.5784825
vt 0.6662625 0.35115624999999995
vt 0.39563125 0.875
vt 0.329639375 0.5784825
vt 0.3128025 0.71875
vt 0.6662625 0.71875
vt 0.39563125 0.875
vt 0.39563125 0.875
vt 0.202023125 0.5396587500000001
vt 0.39563125 0.5625
vt 0.39563125 0.40625
vt 0.260315625 0.640625
vt 0.125 0.5625
vt 0.125 0.71875
vt 0.3128025 0.71875
vt 0.39563125 0.875
vt 0.260315625 0.640625
vt 0.125 0.875
vt 0.125 0.5625
vn 0.5476783019973085 0.8249476928725347 0.13967741959825558
vn 0.639986573968435 0.7573927834075732 -0.1295119947428579
vn 0.6659336966648663 0.12105880492165448 -0.736123004257581
vn 0.2156442827670152 0.892369447020902 -0.3964521576855264
vn 0.9241015616577856 -0.3821469661552242 -1.1316980195712775e-16
vn 0.9950599211108828 0.06982623202921039 -0.0705694744163971
vn 0.8615577573056793 0.052357285360998256 0.5049524190416711
vn 0.9878393331118474 -0.12687281258814342 -0.08987069257057481
vn 0.9873762763770147 0.15567928747064583 0.029189866400745976
vn 0.9961764143910309 0.012241113366838528 0.08650263900349725
vn 1 0 -1.2246467991473532e-16
vn 0.9947869594493547 -0.051137608334123306 -0.0882261317488973
vn 0.9220867052580469 0.09641004554419076 0.3747815511795196
vn 0.996865179206543 -0.07357459933594179 0.029096268112292895
vn 0.6381076293089423 0.38852361946898767 -0.664731562762322
vn 0.8159372855957362 0.34395101966074704 0.4646977964752952
vn 0.8627413557083603 0.42710438656225863 -0.27066436065684296
vn 0.8153466971790972 0.049549016685607135 0.5768489042588426
vn -0.96532407507525 0.14207984751380376 -0.2190039885722803
vn 0.9756624550588927 0.20059597756372466 0.08856651496873877
vn 0.6315156932227352 -0.4917224921730273 -0.5994972225995341
vn 0.775617302887962 -0.5273624585344865 0.3468524712168932
vn -0.6117843683187347 0.6672498071350413 0.4248500695058164
vn 0.3929224963694011 -0.866240479614047 0.30860872204923817
vn 0.6698819210812117 -0.668070477213314 -0.32394451575002803
vn 0.29073253489492945 -0.9406081246524505 0.17530245004382786
vn 0.8124294861761618 -0.5163996374124882 0.27072078692222423
vn 0.7937114375075305 -0.49400086114765207 0.3549440845472821
vn 0.9710665977210955 0.2347185683286484 -0.04400973156162168
vn -0.12315219228799909 -0.9726752366370363 0.19681570457599493
vn -0.9941352420444938 0.10207612607517459 -0.03571533299048012
vn -0.9944423252857091 0.09257455445749065 -0.050143928319881535
vn 0.9967190031710028 0.07633405879321079 -0.026913568807521868
vn 0.9956996163069032 0.09258309949357853 0.003262479800379267
vn 0.8937555018392663 0.4341502625413935 -0.11275926776669096
vn -0.9921118591389011 0.09842941315682933 0.07762544416333811
vn -0.9964870405829946 0.06469251635946441 0.053183233046006355
vn 0.43954544829465464 -0.026644369532149773 0.8978250812133093
vn 0.38953354290462966 0.2005750282334126 0.8989067120682395
vn -0.9954868160433179 -0.014952568710263172 -0.09371456542556393
vn -0.9828166334010016 -0.061088499544355176 -0.17418283593322503
vn -0.951741653660548 -0.13919651597988594 -0.2735181065789746
vn 0.7948741693608636 -0.5586474101788141 0.23682931825131104
vn -0.9503578803773785 -0.21191180117370825 -0.22784487645749554
vn 0.827107708705765 -0.32318479509013254 -0.45983086719145855
vn 0.8541484338314984 0.5168073703912892 -0.05779787965348996
vn -0.5096921873205249 0.8575188608310301 -0.06982318743420245
vn 0.6694431373455995 0.4253211111057612 0.6090548729865328
vn -0.7861045272534246 0.5849697088964553 -0.1996249280657759
vn -0.9861874809098649 0.15923244830502875 -0.04559912173980648
vn -0.8474609383292538 -0.522493991725645 -0.09386152894931003
vn -0.5688687283887541 -0.8186504308848956 0.07873907462839949
vn -0.05271661914360004 -0.22709292748077814 -0.972445247998199
vn 0.771366465089618 -0.510891234402412 0.37945213551372564
vn 0.2817572195974068 -0.8035191538913581 0.5243756654674728
vn 0.932546183364213 0.29459491339254223 0.20873776106895509
vn 0.18221161690154955 0.7771282456475934 0.602387430548494
vn 0.3882083728157365 -0.2435880293922133 -0.8887964509450837
vn 0.6973085077592195 0.3629694488587124 -0.6180728308232074
vn 0.354704253269311 0.26571471079044406 -0.8964265642997262
vn 0.2736765599682786 -0.20496200416772806 -0.9397295980075744
vn 0.6543968259978833 0.37576812169324625 -0.6561730814678592
usemtl m_f4c4c967-e937-d3ff-c47f-d19310d9d955
f 101/391/125 95/392/125 115/393/125
f 101/394/126 105/395/126 95/396/126
f 103/397/127 104/398/127 107/399/127 112/400/127
usemtl none
f 102/401/128 106/402/128 113/403/128
usemtl m_7c911e7c-023e-b6f0-626e-68270d9d5eee
f 91/404/129 92/405/129 96/406/129
f 92/407/130 106/408/130 96/409/130
f 91/410/131 110/411/131 97/412/131 93/413/131
f 109/414/132 110/415/132 91/416/132
f 95/417/133 105/418/133 94/419/133
f 115/420/134 93/421/134 97/422/134
f 95/423/135 94/424/135 93/425/135
f 105/426/136 104/427/136 94/428/136
f 94/429/137 104/430/137 103/431/137 92/432/137
f 103/433/138 106/434/138 92/435/138
usemtl m_f4c4c967-e937-d3ff-c47f-d19310d9d955
f 105/436/139 107/437/139 104/438/139
f 101/439/140 115/440/140 97/441/140 100/442/140
f 105/443/141 101/444/141 100/445/141 107/446/141
f 100/447/142 97/448/142 110/449/142 108/450/142
usemtl none
f 108/451/143 100/452/143 107/453/143 112/454/143
usemtl m_7c911e7c-023e-b6f0-626e-68270d9d5eee
f 96/455/144 109/456/144 91/457/144
usemtl m_f4c4c967-e937-d3ff-c47f-d19310d9d955
f 106/458/145 103/459/145 112/460/145 113/461/145
f 112/462/146 110/463/146 109/464/146 113/465/146
usemtl none
f 111/466/147 113/467/147 96/468/147
f 109/469/148 96/470/148 111/471/148
usemtl m_f4c4c967-e937-d3ff-c47f-d19310d9d955
f 96/472/149 106/473/149 113/474/149
usemtl none
f 98/475/150 109/476/150 111/477/150
usemtl m_f4c4c967-e937-d3ff-c47f-d19310d9d955
f 113/478/151 109/479/151 96/480/151
f 108/481/152 110/482/152 112/483/152
usemtl m_7c911e7c-023e-b6f0-626e-68270d9d5eee
f 114/484/153 115/485/153 95/486/153
usemtl none
f 101/487/154 99/488/154 115/489/154
usemtl m_fd91be87-b8b9-25b6-ac27-47077aa12872
f 119/490/155 121/491/155 116/492/155
f 121/493/156 118/494/156 116/495/156
f 118/496/157 121/497/157 122/498/157
f 121/499/158 119/500/158 122/501/158
f 119/502/159 117/503/159 118/504/159
f 120/505/160 123/506/160 116/507/160
f 123/508/161 119/509/161 116/510/161
f 119/511/162 123/512/162 117/513/162
f 123/514/163 120/515/163 117/516/163
f 118/517/164 124/518/164 116/519/164
f 124/520/165 120/521/165 116/522/165
f 120/523/166 124/524/166 125/525/166
f 125/526/167 117/527/167 120/528/167
f 124/529/168 118/530/168 125/531/168
f 118/532/169 117/533/169 125/534/169
f 122/535/170 117/536/170 118/537/170
f 128/538/171 131/539/171 132/540/171
f 132/541/172 127/542/172 128/543/172
f 131/544/173 129/545/173 132/546/173
f 129/547/174 127/548/174 132/549/174
f 129/550/175 133/551/175 127/552/175
f 133/553/176 130/554/176 127/555/176
f 134/556/177 130/557/177 126/558/177
f 130/559/178 134/560/178 135/561/178
f 135/562/179 127/563/179 130/564/179
f 134/565/180 128/566/180 135/567/180
f 128/568/181 127/569/181 135/570/181
f 133/571/182 129/572/182 126/573/182
f 128/574/183 134/575/183 126/576/183
f 129/577/184 131/578/184 126/579/184
f 130/580/185 133/581/185 126/582/185
f 131/583/186 128/584/186 126/585/186
o mesh
v 0.5 1 0.5000000000000001
v -0.5 1 0.4999999999999999
v 0.5 0 0.5000000000000001
v -0.5 0 0.4999999999999999
v 0 0.09375 0.5
v 6.731420976180402e-18 0.92669125 0.469684375
v 0.412823125 0.3557325 0.4880587500000001
v 0.19318312500000004 0.828663125 0.38351687500000003
v 0.19318312500000004 0.171336875 0.38351687500000003
v 0.08617375000000005 0.40766562500000003 0.25380187500000007
v 0.07378937500000003 0.198304375 0.36133250000000006
v -0.19318312499999998 0.828663125 0.383516875
v -0.399893125 0.6255381250000001 0.4752843749999999
v -0.386366875 0.360755 0.5084668749999999
v -0.2387875 0.14773999999999998 0.48442812499999993
v -0.25357625 0.828663125 0.49454687499999994
v -0.11939374999999994 0.40056 0.20611875000000002
v 0.09970125000000005 0.6255381250000001 0.28893812500000005
v 0.2387875 0.857870625 0.50551
v 0.412823125 0.6880381250000001 0.4678643750000001
v 0.07378937500000005 0.828663125 0.31152625
v -0.09947812499999995 0.6880381250000001 0.23876562499999998
v -0.06538937499999997 0.779014375 0.35402812499999997
v 0.5 0 0.5000000000000001
v 0.2387875 0.150466875 0.47546875000000005
v -0.17354062499999995 0.5272362500000001 0.25118937499999994
v -0.223871875 0.459646875 0.49527874999999993
v 0.32544625000000005 0.729001875 0.2951331250000001
v -0.34019124999999995 0.92136375 0.28567062499999996
v -0.34124999999999994 0.16277999999999998 0.23304312499999996
v 0.04460562500000005 0.85715375 0.292901875
v -0.010784374999999957 0.754874375 0.302230625
v -0.34124999999999994 0.40559500000000004 0.2522431249999999
v -0.31245624999999994 0.282364375 0.24178999999999995
v -0.11405999999999995 0.1591775 0.316823125
v 0.19849437500000003 0.347181875 0.39087312500000004
v -0.3307181249999999 0.282185 0.15639187499999996
v 0.09790562500000002 0.56515 0.36657312500000006
v 0.28106875000000003 0.332919375 0.19287125000000005
v 0.13348187500000003 0.06587375000000001 0.40343062500000004
v 0.17813750000000006 0.524629375 0.30939125
v -0.14407249999999994 0.484468125 0.19768312499999996
v 0.17532437500000006 0.128891875 0.30695062500000003
v 0.167366875 0.188284375 0.5011743750000001
v -0.24142187499999998 0.300314375 0.374281875
vt 0.584375 0.21514437500000005
vt 0.5078125 0.125
vt 0.7375 0.18509624999999996
vt 0.584375 0.21514437500000005
vt 0.278125 0.20011999999999996
vt 0.5078125 0.125
vt 0.125 0.6358174999999999
vt 0.125 0.38040874999999996
vt 0.4159375 0.42548062499999995
vt 0.4159375 0.680889375
vt 0 0.7600125
vt 0.147575 0.7600125
vt 0 0.7600125
vt 1 1
vt 0.010754375 0.99485875
vt 0.50163375 0.903565
vt 0.010754375 0.99485875
vt 0.2676825 0.82576125
vt 0.50163375 0.903565
vt 1 1
vt 0.881838125 0.687688125
vt 0.8776725 0.3811675
vt 0.982803125 0.02271500000000004
vt 0.73725875 0.826975
vt 0.881838125 0.687688125
vt 1 1
vt 0.501578125 0.11546687499999997
vt 0.27289625 0.19046125000000003
vt 0.0273125 0.031906250000000025
vt 0.731879375 0.18717812499999997
vt 0.982803125 0.02271500000000004
vt 0.8776725 0.3811675
vt 0.501578125 0.11546687499999997
vt 0.0273125 0.031906250000000025
vt 0.982803125 0.02271500000000004
vt 0.27289625 0.19046125000000003
vt 0.129793125 0.3843025
vt 0.0273125 0.031906250000000025
vt 0.0273125 0.031906250000000025
vt 0.129793125 0.3843025
vt 0.126574375 0.626413125
vt 0.010754375 0.99485875
vt 0.126574375 0.626413125
vt 0.2676825 0.82576125
vt 0.010754375 0.99485875
vt 0.278125 0.20011999999999996
vt 0.4159375 0.42548062499999995
vt 0.125 0.38040874999999996
vt 0.584375 0.21514437500000005
vt 0.7375 0.18509624999999996
vt 0.890625 0.38040874999999996
vt 0.615 0.42548062499999995
vt 0.278125 0.20011999999999996
vt 0.584375 0.21514437500000005
vt 0.615 0.42548062499999995
vt 0.4159375 0.42548062499999995
vt 0.615 0.42548062499999995
vt 0.890625 0.38040874999999996
vt 0.890625 0.69591375
vt 0.615 0.6358174999999999
vt 0.619496875 0.6358625
vt 0.61538 0.428089375
vt 0.416660625 0.427955
vt 0.414075625 0.6875
vt 0.50163375 0.903565
vt 0.73725875 0.826975
vt 1 1
vt 0.2628125 0.83113
vt 0.125 0.6358174999999999
vt 0.4159375 0.680889375
vt 0.4465625 0.8161056250000001
vt 0.4159375 0.680889375
vt 0.890625 0.69591375
vt 0.7375 0.83113
vt 0.4465625 0.8161056250000001
vt 0 0.7600125
vt 0.147575 0.7600125
vt 0.0737875 1
vt 0 0.7600125
vt 0.0737875 1
vt 0.147575 0.7600125
vt 0.5078125 0.90625
vt 0.2628125 0.83113
vt 0.4465625 0.8161056250000001
vt 0.147575 0.7600125
vt 0 0.7600125
vt 0.147575 0.7600125
vt 0.4465625 0.8161056250000001
vt 0.7375 0.83113
vt 0.5078125 0.90625
vt 0.615 0.6358174999999999
vt 0.890625 0.69591375
vt 0.4159375 0.680889375
vt 0.982803125 0.02271500000000004
vt 0.731879375 0.18717812499999997
vt 0.501578125 0.11546687499999997
vt 0.584375 0.21514437500000005
vt 0.6915625 0.21514437500000005
vt 0.7375 0.18509624999999996
vt 0.39563125 0.40625
vt 0.260315625 0.640625
vt 0.125 0.5625
vt 0.260315625 0.640625
vt 0.125 0.875
vt 0.125 0.5625
vt 0.125 0.35115624999999995
vt 0.39563125 0.35115624999999995
vt 0.39563125 0.604398125
vt 0.39563125 0.35115624999999995
vt 0.6662625 0.35115624999999995
vt 0.39563125 0.604398125
vt 0.6662625 0.35115624999999995
vt 0.39563125 0.875
vt 0.125 0.35115624999999995
vt 0.125 0.71875
vt 0.3128025 0.71875
vt 0.39563125 0.875
vt 0.3128025 0.71875
vt 0.6662625 0.71875
vt 0.39563125 0.875
vt 0.125 0.35115624999999995
vt 0.47846 0.35115624999999995
vt 0.39563125 0.875
vt 0.47846 0.35115624999999995
vt 0.6662625 0.35115624999999995
vt 0.39563125 0.875
vt 0.39563125 0.875
vt 0.202023125 0.5396587500000001
vt 0.39563125 0.5625
vt 0.202023125 0.5396587500000001
vt 0.125 0.40625
vt 0.39563125 0.5625
vt 0.125 0.35115624999999995
vt 0.27904625 0.35115624999999995
vt 0.329639375 0.5784825
vt 0.329639375 0.5784825
vt 0.39563125 0.875
vt 0.125 0.35115624999999995
vt 0.27904625 0.35115624999999995
vt 0.6662625 0.35115624999999995
vt 0.329639375 0.5784825
vt 0.6662625 0.35115624999999995
vt 0.39563125 0.875
vt 0.329639375 0.5784825
vt 0.39563125 0.604398125
vt 0.39563125 0.875
vt 0.125 0.35115624999999995
vt 0.125 0.35115624999999995
vt 0.39563125 0.35115624999999995
vt 0.39563125 0.604398125
vt 0.39563125 0.604398125
vt 0.39563125 0.875
vt 0.125 0.35115624999999995
vt 0.39563125 0.35115624999999995
vt 0.6662625 0.35115624999999995
vt 0.39563125 0.604398125
vt 0.6662625 0.35115624999999995
vt 0.39563125 0.875
vt 0.39563125 0.604398125
vt 0.125 0.35115624999999995
vt 0.47846 0.35115624999999995
vt 0.39563125 0.875
vt 0.47846 0.35115624999999995
vt 0.6662625 0.35115624999999995
vt 0.39563125 0.875
vt 0.202023125 0.5396587500000001
vt 0.125 0.40625
vt 0.39563125 0.5625
vt 0.125 0.35115624999999995
vt 0.27904625 0.35115624999999995
vt 0.329639375 0.5784825
vt 0.329639375 0.5784825
vt 0.39563125 0.875
vt 0.125 0.35115624999999995
vt 0.27904625 0.35115624999999995
vt 0.6662625 0.35115624999999995
vt 0.329639375 0.5784825
vt 0.6662625 0.35115624999999995
vt 0.39563125 0.875
vt 0.329639375 0.5784825
vt 0.3128025 0.71875
vt 0.6662625 0.71875
vt 0.39563125 0.875
vt 0.39563125 0.875
vt 0.202023125 0.5396587500000001
vt 0.39563125 0.5625
vt 0.39563125 0.40625
vt 0.260315625 0.640625
vt 0.125 0.5625
vt 0.125 0.71875
vt 0.3128025 0.71875
vt 0.39563125 0.875
vt 0.260315625 0.640625
vt 0.125 0.875
vt 0.125 0.5625
vn -0.13967741959825575 0.8249476928725347 0.5476783019973085
vn 0.12951199474285768 0.7573927834075732 0.639986573968435
vn 0.7361230042575808 0.12105880492165448 0.6659336966648666
vn 0.39645215768552633 0.892369447020902 0.21564428276701533
vn -2.0519176616890746e-16 -0.3821469661552242 0.9241015616577856
vn 0.07056947441639676 0.06982623202921039 0.9950599211108828
vn -0.5049524190416714 0.052357285360998256 0.8615577573056791
vn 0.08987069257057446 -0.12687281258814342 0.9878393331118474
vn -0.02918986640074631 0.1556792874706458 0.9873762763770145
vn -0.0865026390034976 0.012241113366838528 0.9961764143910309
vn -2.220446049250313e-16 0 1
vn 0.08822613174889696 -0.051137608334123306 0.9947869594493547
vn -0.37478155117951995 0.09641004554419076 0.9220867052580468
vn -0.02909626811229324 -0.07357459933594179 0.996865179206543
vn 0.6647315627623218 0.38852361946898767 0.6381076293089425
vn -0.46469779647529547 0.34395101966074704 0.815937285595736
vn 0.27066436065684263 0.4271043865622585 0.8627413557083602
vn -0.5768489042588428 0.04954901668560712 0.8153466971790968
vn 0.21900398857228062 0.14207984751380376 -0.96532407507525
vn -0.08856651496873912 0.20059597756372466 0.9756624550588927
vn 0.5994972225995339 -0.4917224921730273 0.6315156932227354
vn -0.3468524712168935 -0.5273624585344865 0.7756173028879619
vn -0.4248500695058162 0.6672498071350413 -0.6117843683187348
vn -0.30860872204923834 -0.866240479614047 0.39292249636940096
vn 0.3239445157500278 -0.668070477213314 0.6698819210812118
vn -0.17530245004382794 -0.9406081246524505 0.2907325348949294
vn -0.27072078692222457 -0.5163996374124883 0.812429486176162
vn -0.3549440845472823 -0.49400086114765196 0.7937114375075301
vn 0.04400973156162135 0.2347185683286484 0.9710665977210955
vn -0.19681570457599487 -0.9726752366370363 -0.12315219228799916
vn 0.035715332990480464 0.10207612607517459 -0.9941352420444938
vn 0.05014392831988187 0.09257455445749063 -0.9944423252857089
vn 0.026913568807521524 0.07633405879321079 0.9967190031710028
vn -0.0032624798003796102 0.09258309949357853 0.9956996163069032
vn 0.11275926776669065 0.4341502625413935 0.8937555018392663
vn -0.0633100093906264 0.07866836576748666 -0.994888501762098
vn -0.05318323304600601 0.06469251635946441 -0.9964870405829946
vn -0.8978250812133094 -0.026644369532149773 0.4395454482946543
vn -0.8968722782874635 -0.03486414299351921 0.4409133792172586
vn 0.09371456542556428 -0.014952568710263172 -0.9954868160433179
vn 0.10534897763566393 -0.09775080151408251 0.9896193074685209
vn 0.34574933015510295 -0.014625561174164487 -0.9382129255438972
vn -0.29331015551204026 -0.5651579344940826 0.7710808399590054
vn 0.22784487645749582 -0.2119118011737082 -0.9503578803773782
vn 0.45983086719145816 -0.3231847950901325 0.827107708705765
vn 0.05779787965348967 0.5168073703912892 0.8541484338314984
vn 0.0698231874342026 0.8575188608310299 -0.5096921873205248
vn -0.609054872986533 0.4253211111057612 0.6694431373455992
vn 0.19962492806577614 0.5849697088964553 -0.7861045272534246
vn 0.04559912173980682 0.15923244830502875 -0.9861874809098649
vn 0.09386152894931032 -0.522493991725645 -0.8474609383292538
vn -0.0787390746283993 -0.8186504308848956 -0.5688687283887541
vn 0.972445247998199 -0.22709292748077814 -0.05271661914359971
vn -0.3794521355137259 -0.510891234402412 0.7713664650896179
vn -0.5243756654674729 -0.8035191538913581 0.2817572195974066
vn -0.2087377610689554 0.29459491339254223 0.932546183364213
vn -0.602387430548494 0.7771282456475934 0.18221161690154933
vn 0.8887964509450836 -0.2435880293922133 0.38820837281573684
vn 0.6180728308232072 0.3629694488587124 0.6973085077592197
vn 0.8964265642997261 0.26571471079044406 0.3547042532693113
vn 0.9397295980075743 -0.20496200416772806 0.27367655996827894
vn 0.656173081467859 0.37576812169324625 0.6543968259978835
usemtl m_f4c4c967-e937-d3ff-c47f-d19310d9d955
f 146/586/187 140/587/187 160/588/187
f 146/589/188 150/590/188 140/591/188
f 148/592/189 149/593/189 152/594/189 157/595/189
usemtl none
f 147/596/190 151/597/190 158/598/190
usemtl m_7c911e7c-023e-b6f0-626e-68270d9d5eee
f 136/599/191 137/600/191 141/601/191
f 137/602/192 151/603/192 141/604/192
f 136/605/193 155/606/193 142/607/193 138/608/193
f 154/609/194 155/610/194 136/611/194
f 140/612/195 150/613/195 139/614/195
f 160/615/196 138/616/196 142/617/196
f 140/618/197 139/619/197 138/620/197
f 150/621/198 149/622/198 139/623/198
f 139/624/199 149/625/199 148/626/199 137/627/199
f 148/628/200 151/629/200 137/630/200
usemtl m_f4c4c967-e937-d3ff-c47f-d19310d9d955
f 150/631/201 152/632/201 149/633/201
f 146/634/202 160/635/202 142/636/202 145/637/202
f 150/638/203 146/639/203 145/640/203 152/641/203
f 145/642/204 142/643/204 155/644/204 153/645/204
usemtl none
f 153/646/205 145/647/205 152/648/205 157/649/205
usemtl m_7c911e7c-023e-b6f0-626e-68270d9d5eee
f 141/650/206 154/651/206 136/652/206
usemtl m_f4c4c967-e937-d3ff-c47f-d19310d9d955
f 151/653/207 148/654/207 157/655/207 158/656/207
f 157/657/208 155/658/208 154/659/208 158/660/208
usemtl none
f 156/661/209 158/662/209 141/663/209
f 154/664/210 141/665/210 156/666/210
usemtl m_f4c4c967-e937-d3ff-c47f-d19310d9d955
f 141/667/211 151/668/211 158/669/211
usemtl none
f 143/670/212 154/671/212 156/672/212
usemtl m_f4c4c967-e937-d3ff-c47f-d19310d9d955
f 158/673/213 154/674/213 141/675/213
f 153/676/214 155/677/214 157/678/214
usemtl m_7c911e7c-023e-b6f0-626e-68270d9d5eee
f 159/679/215 160/680/215 140/681/215
usemtl none
f 146/682/216 144/683/216 160/684/216
usemtl m_fd91be87-b8b9-25b6-ac27-47077aa12872
f 164/685/217 166/686/217 161/687/217
f 166/688/218 163/689/218 161/690/218
f 163/691/219 166/692/219 167/693/219
f 166/694/220 164/695/220 167/696/220
f 164/697/221 162/698/221 163/699/221
f 165/700/222 168/701/222 161/702/222
f 168/703/223 164/704/223 161/705/223
f 164/706/224 168/707/224 162/708/224
f 168/709/225 165/710/225 162/711/225
f 163/712/226 169/713/226 161/714/226
f 169/715/227 165/716/227 161/717/227
f 165/718/228 169/719/228 170/720/228
f 170/721/229 162/722/229 165/723/229
f 169/724/230 163/725/230 170/726/230
f 163/727/231 162/728/231 170/729/231
f 167/730/232 162/731/232 163/732/232
f 173/733/233 176/734/233 177/735/233
f 177/736/234 172/737/234 173/738/234
f 176/739/235 174/740/235 177/741/235
f 174/742/236 172/743/236 177/744/236
f 174/745/237 178/746/237 172/747/237
f 178/748/238 175/749/238 172/750/238
f 179/751/239 175/752/239 171/753/239
f 175/754/240 179/755/240 180/756/240
f 180/757/241 172/758/241 175/759/241
f 179/760/242 173/761/242 180/762/242
f 173/763/243 172/764/243 180/765/243
f 178/766/244 174/767/244 171/768/244
f 173/769/245 179/770/245 171/771/245
f 174/772/246 176/773/246 171/774/246
f 175/775/247 178/776/247 171/777/247
f 176/778/248 173/779/248 171/780/248
o mesh
v 0.5 1.0000000000000002 0.5
v 0.5 1.0000000000000002 -0.5
v -0.5 1 0.5
v -0.5 1 -0.5
v -0.40625 1 0
v 0.42669124999999997 0.9696843750000002 0
v -0.1442675 0.98805875 0.412823125
v 0.32866312499999994 0.8835168750000001 0.193183125
v -0.32866312499999994 0.883516875 0.193183125
v -0.09233437499999994 0.7538018750000001 0.08617375
v -0.30169562499999997 0.8613325000000001 0.073789375
v 0.32866312499999994 0.8835168750000001 -0.193183125
v 0.125538125 0.9752843750000001 -0.399893125
v -0.139245 1.008466875 -0.386366875
v -0.35226 0.984428125 -0.2387875
v 0.32866312499999994 0.9945468750000002 -0.25357625
v -0.09943999999999995 0.7061187500000001 -0.11939375
v 0.12553812500000006 0.788938125 0.09970125
v 0.357870625 1.0055100000000001 0.2387875
v 0.188038125 0.9678643750000001 0.412823125
v 0.32866312499999994 0.8115262500000001 0.073789375
v 0.18803812500000006 0.7387656250000001 -0.099478125
v 0.27901437500000004 0.8540281250000001 -0.065389375
v -0.5 1 0.5
v -0.349533125 0.97546875 0.2387875
v 0.027236250000000073 0.751189375 -0.173540625
v -0.04035312499999999 0.9952787500000001 -0.223871875
v 0.16650187500000008 0.7951331250000001 0.32544625
v 0.35886375000000004 0.7856706250000002 -0.09019125
v -0.33721999999999996 0.733043125 -0.27875
v 0.35715375000000005 0.7929018750000001 0.044605625
v 0.254874375 0.8647306250000001 -0.010784375
v -0.09440499999999993 0.752243125 -0.27875
v -0.21763562499999994 0.74179 -0.31245625
v -0.3408225 0.816823125 -0.11406
v -0.15281812499999997 0.890873125 0.198494375
v -0.21781499999999993 0.656391875 -0.330718125
v 0.06515000000000004 0.866573125 0.097905625
v -0.16708062499999993 0.69287125 0.28106875
v -0.43412624999999994 0.9034306249999999 0.133481875
v 0.024629375000000064 0.80939125 0.1781375
v -0.015531874999999945 0.6976831250000001 -0.1440725
v -0.37110812499999996 0.806950625 0.175324375
v -0.311715625 1.001174375 0.167366875
v -0.19968562499999998 0.874281875 -0.241421875
vt 0.584375 0.21514437500000005
vt 0.5078125 0.125
vt 0.7375 0.18509624999999996
vt 0.584375 0.21514437500000005
vt 0.278125 0.20011999999999996
vt 0.5078125 0.125
vt 0.125 0.6358174999999999
vt 0.125 0.38040874999999996
vt 0.4159375 0.42548062499999995
vt 0.4159375 0.680889375
vt 0 0.7600125
vt 0.147575 0.7600125
vt 0 0.7600125
vt 1 1
vt 0.010754375 0.99485875
vt 0.50163375 0.903565
vt 0.010754375 0.99485875
vt 0.2676825 0.82576125
vt 0.50163375 0.903565
vt 1 1
vt 0.881838125 0.687688125
vt 0.8776725 0.3811675
vt 0.982803125 0.02271500000000004
vt 0.73725875 0.826975
vt 0.881838125 0.687688125
vt 1 1
vt 0.501578125 0.11546687499999997
vt 0.27289625 0.19046125000000003
vt 0.0273125 0.031906250000000025
vt 0.731879375 0.18717812499999997
vt 0.982803125 0.02271500000000004
vt 0.8776725 0.3811675
vt 0.501578125 0.11546687499999997
vt 0.0273125 0.031906250000000025
vt 0.982803125 0.02271500000000004
vt 0.27289625 0.19046125000000003
vt 0.129793125 0.3843025
vt 0.0273125 0.031906250000000025
vt 0.0273125 0.031906250000000025
vt 0.129793125 0.3843025
vt 0.126574375 0.626413125
vt 0.010754375 0.99485875
vt 0.126574375 0.626413125
vt 0.2676825 0.82576125
vt 0.010754375 0.99485875
vt 0.278125 0.20011999999999996
vt 0.4159375 0.42548062499999995
vt 0.125 0.38040874999999996
vt 0.584375 0.21514437500000005
vt 0.7375 0.18509624999999996
vt 0.890625 0.38040874999999996
vt 0.615 0.42548062499999995
vt 0.278125 0.20011999999999996
vt 0.584375 0.21514437500000005
vt 0.615 0.42548062499999995
vt 0.4159375 0.42548062499999995
vt 0.615 0.42548062499999995
vt 0.890625 0.38040874999999996
vt 0.890625 0.69591375
vt 0.615 0.6358174999999999
vt 0.619496875 0.6358625
vt 0.61538 0.428089375
vt 0.416660625 0.427955
vt 0.414075625 0.6875
vt 0.50163375 0.903565
vt 0.73725875 0.826975
vt 1 1
vt 0.2628125 0.83113
vt 0.125 0.6358174999999999
vt 0.4159375 0.680889375
vt 0.4465625 0.8161056250000001
vt 0.4159375 0.680889375
vt 0.890625 0.69591375
vt 0.7375 0.83113
vt 0.4465625 0.8161056250000001
vt 0 0.7600125
vt 0.147575 0.7600125
vt 0.0737875 1
vt 0 0.7600125
vt 0.0737875 1
vt 0.147575 0.7600125
vt 0.5078125 0.90625
vt 0.2628125 0.83113
vt 0.4465625 0.8161056250000001
vt 0.147575 0.7600125
vt 0 0.7600125
vt 0.147575 0.7600125
vt 0.4465625 0.8161056250000001
vt 0.7375 0.83113
vt 0.5078125 0.90625
vt 0.615 0.6358174999999999
vt 0.890625 0.69591375
vt 0.4159375 0.680889375
vt 0.982803125 0.02271500000000004
vt 0.731879375 0.18717812499999997
vt 0.501578125 0.11546687499999997
vt 0.584375 0.21514437500000005
vt 0.6915625 0.21514437500000005
vt 0.7375 0.18509624999999996
vt 0.39563125 0.40625
vt 0.260315625 0.640625
vt 0.125 0.5625
vt 0.260315625 0.640625
vt 0.125 0.875
vt 0.125 0.5625
vt 0.125 0.35115624999999995
vt 0.39563125 0.35115624999999995
vt 0.39563125 0.604398125
vt 0.39563125 0.35115624999999995
vt 0.6662625 0.35115624999999995
vt 0.39563125 0.604398125
vt 0.6662625 0.35115624999999995
vt 0.39563125 0.875
vt 0.125 0.35115624999999995
vt 0.125 0.71875
vt 0.3128025 0.71875
vt 0.39563125 0.875
vt 0.3128025 0.71875
vt 0.6662625 0.71875
vt 0.39563125 0.875
vt 0.125 0.35115624999999995
vt 0.47846 0.35115624999999995
vt 0.39563125 0.875
vt 0.47846 0.35115624999999995
vt 0.6662625 0.35115624999999995
vt 0.39563125 0.875
vt 0.39563125 0.875
vt 0.202023125 0.5396587500000001
vt 0.39563125 0.5625
vt 0.202023125 0.5396587500000001
vt 0.125 0.40625
vt 0.39563125 0.5625
vt 0.125 0.35115624999999995
vt 0.27904625 0.35115624999999995
vt 0.329639375 0.5784825
vt 0.329639375 0.5784825
vt 0.39563125 0.875
vt 0.125 0.35115624999999995
vt 0.27904625 0.35115624999999995
vt 0.6662625 0.35115624999999995
vt 0.329639375 0.5784825
vt 0.6662625 0.35115624999999995
vt 0.39563125 0.875
vt 0.329639375 0.5784825
vt 0.39563125 0.604398125
vt 0.39563125 0.875
vt 0.125 0.35115624999999995
vt 0.125 0.35115624999999995
vt 0.39563125 0.35115624999999995
vt 0.39563125 0.604398125
vt 0.39563125 0.604398125
vt 0.39563125 0.875
vt 0.125 0.35115624999999995
vt 0.39563125 0.35115624999999995
vt 0.6662625 0.35115624999999995
vt 0.39563125 0.604398125
vt 0.6662625 0.35115624999999995
vt 0.39563125 0.875
vt 0.39563125 0.604398125
vt 0.125 0.35115624999999995
vt 0.47846 0.35115624999999995
vt 0.39563125 0.875
vt 0.47846 0.35115624999999995
vt 0.6662625 0.35115624999999995
vt 0.39563125 0.875
vt 0.202023125 0.5396587500000001
vt 0.125 0.40625
vt 0.39563125 0.5625
vt 0.125 0.35115624999999995
vt 0.27904625 0.35115624999999995
vt 0.329639375 0.5784825
vt 0.329639375 0.5784825
vt 0.39563125 0.875
vt 0.125 0.35115624999999995
vt 0.27904625 0.35115624999999995
vt 0.6662625 0.35115624999999995
vt 0.329639375 0.5784825
vt 0.6662625 0.35115624999999995
vt 0.39563125 0.875
vt 0.329639375 0.5784825
vt 0.3128025 0.71875
vt 0.6662625 0.71875
vt 0.39563125 0.875
vt 0.39563125 0.875
vt 0.202023125 0.5396587500000001
vt 0.39563125 0.5625
vt 0.39563125 0.40625
vt 0.260315625 0.640625
vt 0.125 0.5625
vt 0.125 0.71875
vt 0.3128025 0.71875
vt 0.39563125 0.875
vt 0.260315625 0.640625
vt 0.125 0.875
vt 0.125 0.5625
vn 0.8249476928725346 0.5476783019973087 -0.13967741959825564
vn 0.7573927834075729 0.6399865739684351 0.1295119947428578
vn 0.12105880492165433 0.6659336966648665 0.7361230042575809
vn 0.892369447020902 0.21564428276701544 0.3964521576855264
vn -0.3821469661552244 0.9241015616577855 0
vn 0.06982623202921016 0.9950599211108828 0.07056947441639698
vn 0.05235728536099806 0.8615577573056792 -0.5049524190416712
vn -0.12687281258814365 0.9878393331118474 0.08987069257057469
vn 0.15567928747064558 0.9873762763770145 -0.02918986640074609
vn 0.012241113366838306 0.9961764143910309 -0.08650263900349738
vn -2.220446049250313e-16 1 0
vn -0.05113760833412353 0.9947869594493547 0.08822613174889718
vn 0.09641004554419055 0.9220867052580469 -0.3747815511795197
vn -0.07357459933594201 0.996865179206543 -0.029096268112293017
vn 0.3885236194689875 0.6381076293089425 0.6647315627623219
vn 0.34395101966074687 0.8159372855957362 -0.4646977964752953
vn 0.42710438656225846 0.8627413557083604 0.27066436065684285
vn 0.049549016685606954 0.8153466971790971 -0.5768489042588427
vn 0.14207984751380398 -0.96532407507525 0.2190039885722804
vn 0.2005959775637245 0.9756624550588929 -0.08856651496873891
vn -0.4917224921730275 0.6315156932227352 0.599497222599534
vn -0.5273624585344866 0.7756173028879617 -0.3468524712168933
vn 0.6672498071350415 -0.6117843683187346 -0.42485006950581633
vn -0.8662404796140472 0.39292249636940085 -0.3086087220492382
vn -0.6680704772133141 0.6698819210812116 0.323944515750028
vn -0.9406081246524506 0.29073253489492923 -0.17530245004382788
vn -0.5163996374124884 0.8124294861761617 -0.27072078692222434
vn -0.4940008611476521 0.7937114375075301 -0.35494408454728216
vn 0.23471856832864818 0.9710665977210955 0.044009731561621565
vn -0.9726752366370363 -0.12315219228799934 -0.1968157045759949
vn 0.08970703923900002 -0.9944766407248983 0.05448722936151601
vn 0.08317348287679786 -0.9944543394093062 0.06436410937893643
vn 0.4390930182723838 0.8498962158226365 0.2913309863965907
vn 0.5872996616538027 0.8085718490972376 -0.03592592752878282
vn 0.4126622050235315 0.894762873016983 0.17061449415425176
vn 0.07842653406977916 -0.9918301494871551 -0.10060931031514646
vn 0.14606399790458652 -0.9730156440984384 -0.17862212868463487
vn 0.37325136782518115 0.12457465259921607 -0.9193283267399174
vn -0.017709794680494044 0.22396894767417455 -0.9744353614530302
vn -0.013693294089944016 -0.9957100143150662 0.09150989612963788
vn -0.0614385567601891 0.9972757254193847 0.040821945476238256
vn 0.19027540456114037 -0.8733274711035469 0.4484355010868095
vn -0.5711316165174574 0.726514295014939 -0.3820806927248511
vn -0.22856841775260672 -0.9490345493167699 0.21700207973470106
vn -0.33855537150719184 0.8358915139841189 0.43204818860049066
vn 0.23106908952139582 0.9389044168495255 0.25507954031675256
vn 0.8575188608310302 -0.5096921873205247 0.0698231874342025
vn 0.42532111110576104 0.6694431373455995 -0.6090548729865329
vn 0.5849697088964555 -0.7861045272534245 0.19962492806577598
vn 0.15923244830502895 -0.9861874809098646 0.04559912173980659
vn -0.5224939917256448 -0.847460938329254 0.09386152894931013
vn -0.8186504308848955 -0.5688687283887544 -0.07873907462839942
vn -0.22709292748077814 -0.05271661914359997 0.972445247998199
vn -0.5108912344024122 0.7713664650896179 -0.37945213551372575
vn -0.803519153891358 0.2817572195974065 -0.5243756654674727
vn 0.294594913392542 0.9325461833642131 -0.2087377610689552
vn 0.7771282456475934 0.18221161690154963 -0.602387430548494
vn -0.24358802939221338 0.38820837281573656 0.8887964509450837
vn 0.36296944885871224 0.6973085077592197 0.6180728308232073
vn 0.265714710790444 0.35470425326931115 0.8964265642997262
vn -0.2049620041677281 0.27367655996827867 0.9397295980075744
vn 0.3757681216932461 0.6543968259978835 0.6561730814678591
usemtl m_f4c4c967-e937-d3ff-c47f-d19310d9d955
f 191/781/249 185/782/249 205/783/249
f 191/784/250 195/785/250 185/786/250
f 193/787/251 194/788/251 197/789/251 202/790/251
usemtl none
f 192/791/252 196/792/252 203/793/252
usemtl m_7c911e7c-023e-b6f0-626e-68270d9d5eee
f 181/794/253 182/795/253 186/796/253
f 182/797/254 196/798/254 186/799/254
f 181/800/255 200/801/255 187/802/255 183/803/255
f 199/804/256 200/805/256 181/806/256
f 185/807/257 195/808/257 184/809/257
f 205/810/258 183/811/258 187/812/258
f 185/813/259 184/814/259 183/815/259
f 195/816/260 194/817/260 184/818/260
f 184/819/261 194/820/261 193/821/261 182/822/261
f 193/823/262 196/824/262 182/825/262
usemtl m_f4c4c967-e937-d3ff-c47f-d19310d9d955
f 195/826/263 197/827/263 194/828/263
f 191/829/264 205/830/264 187/831/264 190/832/264
f 195/833/265 191/834/265 190/835/265 197/836/265
f 190/837/266 187/838/266 200/839/266 198/840/266
usemtl none
f 198/841/267 190/842/267 197/843/267 202/844/267
usemtl m_7c911e7c-023e-b6f0-626e-68270d9d5eee
f 186/845/268 199/846/268 181/847/268
usemtl m_f4c4c967-e937-d3ff-c47f-d19310d9d955
f 196/848/269 193/849/269 202/850/269 203/851/269
f 202/852/270 200/853/270 199/854/270 203/855/270
usemtl none
f 201/856/271 203/857/271 186/858/271
f 199/859/272 186/860/272 201/861/272
usemtl m_f4c4c967-e937-d3ff-c47f-d19310d9d955
f 186/862/273 196/863/273 203/864/273
usemtl none
f 188/865/274 199/866/274 201/867/274
usemtl m_f4c4c967-e937-d3ff-c47f-d19310d9d955
f 203/868/275 199/869/275 186/870/275
f 198/871/276 200/872/276 202/873/276
usemtl m_7c911e7c-023e-b6f0-626e-68270d9d5eee
f 204/874/277 205/875/277 185/876/277
usemtl none
f 191/877/278 189/878/278 205/879/278
usemtl m_fd91be87-b8b9-25b6-ac27-47077aa12872
f 209/880/279 211/881/279 206/882/279
f 211/883/280 208/884/280 206/885/280
f 208/886/281 211/887/281 212/888/281
f 211/889/282 209/890/282 212/891/282
f 209/892/283 207/893/283 208/894/283
f 210/895/284 213/896/284 206/897/284
f 213/898/285 209/899/285 206/900/285
f 209/901/286 213/902/286 207/903/286
f 213/904/287 210/905/287 207/906/287
f 208/907/288 214/908/288 206/909/288
f 214/910/289 210/911/289 206/912/289
f 210/913/290 214/914/290 215/915/290
f 215/916/291 207/917/291 210/918/291
f 214/919/292 208/920/292 215/921/292
f 208/922/293 207/923/293 215/924/293
f 212/925/294 207/926/294 208/927/294
f 218/928/295 221/929/295 222/930/295
f 222/931/296 217/932/296 218/933/296
f 221/934/297 219/935/297 222/936/297
f 219/937/298 217/938/298 222/939/298
f 219/940/299 223/941/299 217/942/299
f 223/943/300 220/944/300 217/945/300
f 224/946/301 220/947/301 216/948/301
f 220/949/302 224/950/302 225/951/302
f 225/952/303 217/953/303 220/954/303
f 224/955/304 218/956/304 225/957/304
f 218/958/305 217/959/305 225/960/305
f 223/961/306 219/962/306 216/963/306
f 218/964/307 224/965/307 216/966/307
f 219/967/308 221/968/308 216/969/308
f 220/970/309 223/971/309 216/972/309
f 221/973/310 218/974/310 216/975/310
o mesh
v -0.5 1.6653345369377348e-16 0.5
v -0.5 1.6653345369377348e-16 -0.5
v 0.5 -5.551115123125783e-17 0.5
v 0.5 -5.551115123125783e-17 -0.5
v 0.40625 -3.469446951953614e-17 0
v -0.42669124999999997 0.030315625000000148 0
v 0.1442675 0.011941250000000025 0.412823125
v -0.32866312499999994 0.11648312500000013 0.193183125
v 0.32866312500000006 0.11648312499999999 0.193183125
v 0.09233437500000005 0.24619812500000002 0.08617375
v 0.301695625 0.1386675 0.073789375
v -0.32866312499999994 0.11648312500000013 -0.193183125
v -0.125538125 0.024715625000000085 -0.399893125
v 0.139245 -0.008466874999999976 -0.386366875
v 0.35226 0.015571874999999978 -0.2387875
v -0.32866312499999994 0.005453125000000128 -0.25357625
v 0.09944000000000006 0.29388125000000004 -0.11939375
v -0.12553812499999994 0.2110618750000001 0.09970125
v -0.357870625 -0.005509999999999865 0.2387875
v -0.188038125 0.0321356250000001 0.412823125
v -0.32866312499999994 0.18847375000000013 0.073789375
v -0.18803812499999994 0.26123437500000013 -0.099478125
v -0.27901437500000004 0.1459718750000001 -0.065389375
v 0.5 -5.551115123125783e-17 0.5
v 0.349533125 0.02453124999999998 0.2387875
v -0.027236249999999962 0.24881062500000006 -0.173540625
v 0.04035312499999999 0.004721250000000047 -0.223871875
v -0.16650187499999997 0.2048668750000001 0.32544625
v -0.35886375000000004 0.21432937500000013 -0.09019125
v 0.3372200000000001 0.266956875 -0.27875
v -0.35715375000000005 0.20709812500000013 0.044605625
v -0.254874375 0.1352693750000001 -0.010784375
v 0.09440500000000004 0.24775687500000002 -0.27875
v 0.21763562500000005 0.25821 -0.31245625
v 0.34082250000000003 0.18317687499999996 -0.11406
v 0.15281812500000003 0.10912687500000003 0.198494375
v 0.2178150000000001 0.343608125 -0.330718125
v -0.06514999999999993 0.13342687500000008 0.097905625
v 0.16708062500000007 0.30712875 0.28106875
v 0.43412625000000005 0.09656937499999996 0.133481875
v -0.024629374999999953 0.19060875000000005 0.1781375
v 0.015531875000000056 0.30231687500000004 -0.1440725
v 0.371108125 0.19304937499999997 0.175324375
v 0.311715625 -0.0011743750000000137 0.167366875
v 0.19968562500000003 0.125718125 -0.241421875
vt 0.584375 0.21514437500000005
vt 0.5078125 0.125
vt 0.7375 0.18509624999999996
vt 0.584375 0.21514437500000005
vt 0.278125 0.20011999999999996
vt 0.5078125 0.125
vt 0.125 0.6358174999999999
vt 0.125 0.38040874999999996
vt 0.4159375 0.42548062499999995
vt 0.4159375 0.680889375
vt 0 0.7600125
vt 0.147575 0.7600125
vt 0 0.7600125
vt 1 1
vt 0.010754375 0.99485875
vt 0.50163375 0.903565
vt 0.010754375 0.99485875
vt 0.2676825 0.82576125
vt 0.50163375 0.903565
vt 1 1
vt 0.881838125 0.687688125
vt 0.8776725 0.3811675
vt 0.982803125 0.02271500000000004
vt 0.73725875 0.826975
vt 0.881838125 0.687688125
vt 1 1
vt 0.501578125 0.11546687499999997
vt 0.27289625 0.19046125000000003
vt 0.0273125 0.031906250000000025
vt 0.731879375 0.18717812499999997
vt 0.982803125 0.02271500000000004
vt 0.8776725 0.3811675
vt 0.501578125 0.11546687499999997
vt 0.0273125 0.031906250000000025
vt 0.982803125 0.02271500000000004
vt 0.27289625 0.19046125000000003
vt 0.129793125 0.3843025
vt 0.0273125 0.031906250000000025
vt 0.0273125 0.031906250000000025
vt 0.129793125 0.3843025
vt 0.126574375 0.626413125
vt 0.010754375 0.99485875
vt 0.126574375 0.626413125
vt 0.2676825 0.82576125
vt 0.010754375 0.99485875
vt 0.278125 0.20011999999999996
vt 0.4159375 0.42548062499999995
vt 0.125 0.38040874999999996
vt 0.584375 0.21514437500000005
vt 0.7375 0.18509624999999996
vt 0.890625 0.38040874999999996
vt 0.615 0.42548062499999995
vt 0.278125 0.20011999999999996
vt 0.584375 0.21514437500000005
vt 0.615 0.42548062499999995
vt 0.4159375 0.42548062499999995
vt 0.615 0.42548062499999995
vt 0.890625 0.38040874999999996
vt 0.890625 0.69591375
vt 0.615 0.6358174999999999
vt 0.619496875 0.6358625
vt 0.61538 0.428089375
vt 0.416660625 0.427955
vt 0.414075625 0.6875
vt 0.50163375 0.903565
vt 0.73725875 0.826975
vt 1 1
vt 0.2628125 0.83113
vt 0.125 0.6358174999999999
vt 0.4159375 0.680889375
vt 0.4465625 0.8161056250000001
vt 0.4159375 0.680889375
vt 0.890625 0.69591375
vt 0.7375 0.83113
vt 0.4465625 0.8161056250000001
vt 0 0.7600125
vt 0.147575 0.7600125
vt 0.0737875 1
vt 0 0.7600125
vt 0.0737875 1
vt 0.147575 0.7600125
vt 0.5078125 0.90625
vt 0.2628125 0.83113
vt 0.4465625 0.8161056250000001
vt 0.147575 0.7600125
vt 0 0.7600125
vt 0.147575 0.7600125
vt 0.4465625 0.8161056250000001
vt 0.7375 0.83113
vt 0.5078125 0.90625
vt 0.615 0.6358174999999999
vt 0.890625 0.69591375
vt 0.4159375 0.680889375
vt 0.982803125 0.02271500000000004
vt 0.731879375 0.18717812499999997
vt 0.501578125 0.11546687499999997
vt 0.584375 0.21514437500000005
vt 0.6915625 0.21514437500000005
vt 0.7375 0.18509624999999996
vt 0.39563125 0.40625
vt 0.260315625 0.640625
vt 0.125 0.5625
vt 0.260315625 0.640625
vt 0.125 0.875
vt 0.125 0.5625
vt 0.125 0.35115624999999995
vt 0.39563125 0.35115624999999995
vt 0.39563125 0.604398125
vt 0.39563125 0.35115624999999995
vt 0.6662625 0.35115624999999995
vt 0.39563125 0.604398125
vt 0.6662625 0.35115624999999995
vt 0.39563125 0.875
vt 0.125 0.35115624999999995
vt 0.125 0.71875
vt 0.3128025 0.71875
vt 0.39563125 0.875
vt 0.3128025 0.71875
vt 0.6662625 0.71875
vt 0.39563125 0.875
vt 0.125 0.35115624999999995
vt 0.47846 0.35115624999999995
vt 0.39563125 0.875
vt 0.47846 0.35115624999999995
vt 0.6662625 0.35115624999999995
vt 0.39563125 0.875
vt 0.39563125 0.875
vt 0.202023125 0.5396587500000001
vt 0.39563125 0.5625
vt 0.202023125 0.5396587500000001
vt 0.125 0.40625
vt 0.39563125 0.5625
vt 0.125 0.35115624999999995
vt 0.27904625 0.35115624999999995
vt 0.329639375 0.5784825
vt 0.329639375 0.5784825
vt 0.39563125 0.875
vt 0.125 0.35115624999999995
vt 0.27904625 0.35115624999999995
vt 0.6662625 0.35115624999999995
vt 0.329639375 0.5784825
vt 0.6662625 0.35115624999999995
vt 0.39563125 0.875
vt 0.329639375 0.5784825
vt 0.39563125 0.604398125
vt 0.39563125 0.875
vt 0.125 0.35115624999999995
vt 0.125 0.35115624999999995
vt 0.39563125 0.35115624999999995
vt 0.39563125 0.604398125
vt 0.39563125 0.604398125
vt 0.39563125 0.875
vt 0.125 0.35115624999999995
vt 0.39563125 0.35115624999999995
vt 0.6662625 0.35115624999999995
vt 0.39563125 0.604398125
vt 0.6662625 0.35115624999999995
vt 0.39563125 0.875
vt 0.39563125 0.604398125
vt 0.125 0.35115624999999995
vt 0.47846 0.35115624999999995
vt 0.39563125 0.875
vt 0.47846 0.35115624999999995
vt 0.6662625 0.35115624999999995
vt 0.39563125 0.875
vt 0.202023125 0.5396587500000001
vt 0.125 0.40625
vt 0.39563125 0.5625
vt 0.125 0.35115624999999995
vt 0.27904625 0.35115624999999995
vt 0.329639375 0.5784825
vt 0.329639375 0.5784825
vt 0.39563125 0.875
vt 0.125 0.35115624999999995
vt 0.27904625 0.35115624999999995
vt 0.6662625 0.35115624999999995
vt 0.329639375 0.5784825
vt 0.6662625 0.35115624999999995
vt 0.39563125 0.875
vt 0.329639375 0.5784825
vt 0.3128025 0.71875
vt 0.6662625 0.71875
vt 0.39563125 0.875
vt 0.39563125 0.875
vt 0.202023125 0.5396587500000001
vt 0.39563125 0.5625
vt 0.39563125 0.40625
vt 0.260315625 0.640625
vt 0.125 0.5625
vt 0.125 0.71875
vt 0.3128025 0.71875
vt 0.39563125 0.875
vt 0.260315625 0.640625
vt 0.125 0.875
vt 0.125 0.5625
vn -0.824947692872535 -0.5476783019973084 -0.13967741959825566
vn -0.7573927834075733 -0.6399865739684347 0.12951199474285782
vn -0.12105880492165463 -0.6659336966648665 0.7361230042575809
vn -0.892369447020902 -0.21564428276701506 0.3964521576855264
vn 0.382146966155224 -0.9241015616577857 0
vn -0.06982623202921061 -0.9950599211108828 0.07056947441639698
vn -0.05235728536099845 -0.8615577573056792 -0.5049524190416712
vn 0.1268728125881432 -0.9878393331118474 0.08987069257057469
vn -0.15567928747064602 -0.9873762763770145 -0.02918986640074609
vn -0.01224111336683875 -0.9961764143910309 -0.08650263900349738
vn -2.220446049250313e-16 -1 0
vn 0.051137608334123084 -0.9947869594493547 0.08822613174889718
vn -0.09641004554419097 -0.9220867052580469 -0.3747815511795197
vn 0.07357459933594158 -0.9968651792065433 -0.029096268112293024
vn -0.38852361946898784 -0.6381076293089423 0.6647315627623219
vn -0.3439510196607472 -0.815937285595736 -0.4646977964752953
vn -0.4271043865622588 -0.8627413557083602 0.27066436065684285
vn -0.0495490166856073 -0.8153466971790969 -0.5768489042588426
vn -0.14207984751380354 0.96532407507525 0.2190039885722804
vn -0.20059597756372488 -0.9756624550588927 -0.0885665149687389
vn 0.49172249217302716 -0.6315156932227354 0.599497222599534
vn 0.5273624585344862 -0.7756173028879619 -0.3468524712168933
vn -0.6672498071350412 0.6117843683187348 -0.42485006950581633
vn 0.8662404796140469 -0.3929224963694012 -0.3086087220492382
vn 0.6680704772133139 -0.6698819210812118 0.323944515750028
vn 0.9406081246524506 -0.29073253489492973 -0.1753024500438279
vn 0.5163996374124881 -0.8124294861761622 -0.2707207869222244
vn 0.4940008611476518 -0.7937114375075304 -0.35494408454728216
vn -0.23471856832864862 -0.9710665977210955 0.044009731561621565
vn 0.9726752366370363 0.1231521922879989 -0.1968157045759949
vn -0.08970703923899957 0.9944766407248983 0.05448722936151601
vn -0.08317348287679742 0.9944543394093062 0.06436410937893643
vn -0.43909301827238423 -0.8498962158226365 0.2913309863965908
vn -0.587299661653803 -0.8085718490972371 -0.03592592752878281
vn -0.41266220502353207 -0.894762873016983 0.17061449415425178
vn -0.07842653406977872 0.9918301494871551 -0.10060931031514646
vn -0.14606399790458607 0.9730156440984384 -0.17862212868463487
vn -0.37325136782518115 -0.12457465259921591 -0.9193283267399174
vn 0.017709794680493947 -0.22396894767417455 -0.9744353614530302
vn 0.013693294089944456 0.9957100143150662 0.09150989612963788
vn 0.06143855676018865 -0.9972757254193847 0.040821945476238256
vn -0.19027540456113998 0.8733274711035469 0.4484355010868095
vn 0.5711316165174571 -0.7265142950149392 -0.3820806927248511
vn 0.2285684177526071 0.9490345493167697 0.217002079734701
vn 0.33855537150719145 -0.8358915139841189 0.43204818860049055
vn -0.2310690895213962 -0.9389044168495253 0.2550795403167525
vn -0.85751886083103 0.5096921873205251 0.0698231874342025
vn -0.4253211111057614 -0.6694431373455992 -0.6090548729865329
vn -0.5849697088964552 0.786104527253425 0.19962492806577603
vn -0.15923244830502853 0.9861874809098649 0.0455991217398066
vn 0.5224939917256453 0.8474609383292537 0.09386152894931013
vn 0.8186504308848958 0.5688687283887539 -0.07873907462839942
vn 0.22709292748077814 0.052716619143599874 0.972445247998199
vn 0.5108912344024118 -0.7713664650896181 -0.37945213551372575
vn 0.803519153891358 -0.2817572195974069 -0.5243756654674728
vn -0.29459491339254246 -0.9325461833642129 -0.2087377610689552
vn -0.7771282456475934 -0.1822116169015493 -0.602387430548494
vn 0.24358802939221322 -0.38820837281573667 0.8887964509450837
vn -0.3629694488587126 -0.6973085077592195 0.6180728308232073
vn -0.2657147107904441 -0.35470425326931104 0.8964265642997262
vn 0.204962004167728 -0.2736765599682788 0.9397295980075744
vn -0.3757681216932464 -0.6543968259978833 0.6561730814678591
usemtl m_f4c4c967-e937-d3ff-c47f-d19310d9d955
f 236/976/311 230/977/311 250/978/311
f 236/979/312 240/980/312 230/981/312
f 238/982/313 239/983/313 242/984/313 247/985/313
usemtl none
f 237/986/314 241/987/314 248/988/314
usemtl m_7c911e7c-023e-b6f0-626e-68270d9d5eee
f 226/989/315 227/990/315 231/991/315
f 227/992/316 241/993/316 231/994/316
f 226/995/317 245/996/317 232/997/317 228/998/317
f 244/999/318 245/1000/318 226/1001/318
f 230/1002/319 240/1003/319 229/1004/319
f 250/1005/320 228/1006/320 232/1007/320
f 230/1008/321 229/1009/321 228/1010/321
f 240/1011/322 239/1012/322 229/1013/322
f 229/1014/323 239/1015/323 238/1016/323 227/1017/323
f 238/1018/324 241/1019/324 227/1020/324
usemtl m_f4c4c967-e937-d3ff-c47f-d19310d9d955
f 240/1021/325 242/1022/325 239/1023/325
f 236/1024/326 250/1025/326 232/1026/326 235/1027/326
f 240/1028/327 236/1029/327 235/1030/327 242/1031/327
f 235/1032/328 232/1033/328 245/1034/328 243/1035/328
usemtl none
f 243/1036/329 235/1037/329 242/1038/329 247/1039/329
usemtl m_7c911e7c-023e-b6f0-626e-68270d9d5eee
f 231/1040/330 244/1041/330 226/1042/330
usemtl m_f4c4c967-e937-d3ff-c47f-d19310d9d955
f 241/1043/331 238/1044/331 247/1045/331 248/1046/331
f 247/1047/332 245/1048/332 244/1049/332 248/1050/332
usemtl none
f 246/1051/333 248/1052/333 231/1053/333
f 244/1054/334 231/1055/334 246/1056/334
usemtl m_f4c4c967-e937-d3ff-c47f-d19310d9d955
f 231/1057/335 241/1058/335 248/1059/335
usemtl none
f 233/1060/336 244/1061/336 246/1062/336
usemtl m_f4c4c967-e937-d3ff-c47f-d19310d9d955
f 248/1063/337 244/1064/337 231/1065/337
f 243/1066/338 245/1067/338 247/1068/338
usemtl m_7c911e7c-023e-b6f0-626e-68270d9d5eee
f 249/1069/339 250/1070/339 230/1071/339
usemtl none
f 236/1072/340 234/1073/340 250/1074/340
usemtl m_fd91be87-b8b9-25b6-ac27-47077aa12872
f 254/1075/341 256/1076/341 251/1077/341
f 256/1078/342 253/1079/342 251/1080/342
f 253/1081/343 256/1082/343 257/1083/343
f 256/1084/344 254/1085/344 257/1086/344
f 254/1087/345 252/1088/345 253/1089/345
f 255/1090/346 258/1091/346 251/1092/346
f 258/1093/347 254/1094/347 251/1095/347
f 254/1096/348 258/1097/348 252/1098/348
f 258/1099/349 255/1100/349 252/1101/349
f 253/1102/350 259/1103/350 251/1104/350
f 259/1105/351 255/1106/351 251/1107/351
f 255/1108/352 259/1109/352 260/1110/352
f 260/1111/353 252/1112/353 255/1113/353
f 259/1114/354 253/1115/354 260/1116/354
f 253/1117/355 252/1118/355 260/1119/355
f 257/1120/356 252/1121/356 253/1122/356
f 263/1123/357 266/1124/357 267/1125/357
f 267/1126/358 262/1127/358 263/1128/358
f 266/1129/359 264/1130/359 267/1131/359
f 264/1132/360 262/1133/360 267/1134/360
f 264/1135/361 268/1136/361 262/1137/361
f 268/1138/362 265/1139/362 262/1140/362
f 269/1141/363 265/1142/363 261/1143/363
f 265/1144/364 269/1145/364 270/1146/364
f 270/1147/365 262/1148/365 265/1149/365
f 269/1150/366 263/1151/366 270/1152/366
f 263/1153/367 262/1154/367 270/1155/367
f 268/1156/368 264/1157/368 261/1158/368
f 263/1159/369 269/1160/369 261/1161/369
f 264/1162/370 266/1163/370 261/1164/370
f 265/1165/371 268/1166/371 261/1167/371
f 266/1168/372 263/1169/372 261/1170/372