# Made in Blockbench 4.12.2
mtllib conductor_dummy.mtl

o Head
v 0.078125 0.3656250000000001 0.12187499999999996
v 0.078125 0.3656250000000001 -0.06562500000000004
v 0.078125 0.1781250000000001 0.12187499999999996
v 0.078125 0.1781250000000001 -0.06562500000000004
v -0.109375 0.3656250000000001 0.12187499999999996
v -0.109375 0.3656250000000001 -0.06562500000000004
v -0.109375 0.1781250000000001 0.12187499999999996
v -0.109375 0.1781250000000001 -0.06562500000000004
vt 0.875 0.1875
vt 0.875 0.5
vt 0.5625 0.5
vt 0.5625 0.1875
vt 0.75 0.5625
vt 0.75 0.875
vt 0.4375 0.875
vt 0.4375 0.5625
vt 0.5625 0.3125
vt 0.5625 0.625
vt 0.25 0.625
vt 0.25 0.3125
vt 0.0625 0.125
vt 0.0625 0.4375
vt 0.375 0.4375
vt 0.375 0.125
vt 0.4375 0.5625
vt 0.4375 0.875
vt 0.125 0.875
vt 0.125 0.5625
vt 0.9375 0.5625
vt 0.9375 0.875
vt 0.625 0.875
vt 0.625 0.5625
vn 1 0 0
vn -1 0 0
vn 0 1 0
vn 0 -1 0
vn 0 0 1
vn 0 0 -1
usemtl m_a2a43edc-01e3-04d8-d1bb-32e60455b969
f 4/1/1 2/2/1 1/3/1 3/4/1
f 7/5/2 5/6/2 6/7/2 8/8/2
f 1/9/3 2/10/3 6/11/3 5/12/3
f 4/13/4 3/14/4 7/15/4 8/16/4
f 3/17/5 1/18/5 5/19/5 7/20/5
f 8/21/6 6/22/6 2/23/6 4/24/6
o Body
v 0.034375000000000044 0.1781250000000001 0.0625
v 0.034375000000000044 0.1781250000000001 0
v 0.034375000000000044 0.05312500000000009 0.0625
v 0.034375000000000044 0.05312500000000009 0
v -0.07499999999999996 0.1781250000000001 0.0625
v -0.07499999999999996 0.1781250000000001 0
v -0.07499999999999996 0.05312500000000009 0.0625
v -0.07499999999999996 0.05312500000000009 0
vt 0.5625 0.125
vt 0.5625 0.25
vt 0.5 0.25
vt 0.5 0.125
vt NaN 0.1875
vt NaN 0.3125
vt NaN 0.25
vt NaN 0.125
vt 0.5625 0.3125
vt 0.5625 0.375
vt 0.5625 0.25
vt 0.5 0.3125
vt 0.5625 0.3125
vt 0.5625 0.4375
vt 0.5625 0.375
vt 0.5625 0.25
vt 0.9375 0.0625
vt 0.9375 0.25
vt 0.75 0.25
vt 0.75 0.0625
vt 0.3125 0.6875
vt 0.3125 0.875
vt 0.125 0.875
vt 0.125 0.6875
vn 1 0 0
vn -1 0 0
vn 0 1 0
vn 0 -1 0
vn 0 0 1
vn 0 0 -1
usemtl m_a2a43edc-01e3-04d8-d1bb-32e60455b969
f 12/25/7 10/26/7 9/27/7 11/28/7
f 15/29/8 13/30/8 14/31/8 16/32/8
f 9/33/9 10/34/9 14/35/9 13/36/9
f 12/37/10 11/38/10 15/39/10 16/40/10
f 11/41/11 9/42/11 13/43/11 15/44/11
f 16/45/12 14/46/12 10/47/12 12/48/12
o Left Arm
v 0.07128820210516539 0.19251587907908854 0.05259861686562517
v 0.07128820210516539 0.19251587907908854 0.00572361686562517
v 0.1191236311508016 0.0770309375151777 0.05259861686562517
v 0.1191236311508016 0.0770309375151777 0.00572361686562517
v 0.027981349018698927 0.17457759318697502 0.05259861686562517
v 0.027981349018698927 0.17457759318697502 0.00572361686562517
v 0.07581677806433514 0.059092651623064166 0.05259861686562517
v 0.07581677806433514 0.059092651623064166 0.00572361686562517
vt 1 0.875
vt 1 1
vt 1 1
vt 1 0.875
vt 1 0.875
vt 1 1
vt 1 1
vt 1 0.875
vt 1 1
vt 1 1
vt 1 1
vt 1 1
vt 1 1
vt 1 1
vt 1 1
vt 1 1
vt 1 0.875
vt 1 1
vt 1 1
vt 1 0.875
vt 1 0.875
vt 1 1
vt 0.9375 1
vt 0.9375 0.875
vn 0.9238795325112867 0.3826834323650897 0
vn -0.9238795325112867 -0.3826834323650897 0
vn -0.3826834323650897 0.9238795325112867 0
vn 0.3826834323650897 -0.9238795325112867 0
vn 0 0 1
vn 0 0 -1
usemtl m_a2a43edc-01e3-04d8-d1bb-32e60455b969
f 20/49/13 18/50/13 17/51/13 19/52/13
f 23/53/14 21/54/14 22/55/14 24/56/14
f 17/57/15 18/58/15 22/59/15 21/60/15
f 20/61/16 19/62/16 23/63/16 24/64/16
f 19/65/17 17/66/17 21/67/17 23/68/17
f 24/69/18 22/70/18 18/71/18 20/72/18
o Left Arm
v -0.07098511362772134 0.17511873592556618 0.05259861686562517
v -0.07098511362772134 0.17511873592556618 0.00572361686562517
v -0.11882054267335755 0.059633794361655335 0.05259861686562517
v -0.11882054267335755 0.059633794361655335 0.00572361686562517
v -0.1142919667141878 0.1930570218176797 0.05259861686562517
v -0.1142919667141878 0.1930570218176797 0.00572361686562517
v -0.16212739575982402 0.07757208025376887 0.05259861686562517
v -0.16212739575982402 0.07757208025376887 0.00572361686562517
vt 1 0.3125
vt 1 0.4375
vt 0.9375 0.4375
vt 0.9375 0.3125
vt 0.1875 0.625
vt 0.1875 0.75
vt 0.125 0.75
vt 0.125 0.625
vt 0.8125 0.875
vt 0.8125 0.9375
vt 0.75 0.9375
vt 0.75 0.875
vt 1 1
vt 1 1
vt 1 1
vt 1 1
vt 0.125 0.75
vt 0.125 0.875
vt 0.0625 0.875
vt 0.0625 0.75
vt 0.5625 0.75
vt 0.5625 0.875
vt 0.5 0.875
vt 0.5 0.75
vn 0.9238795325112867 -0.3826834323650897 0
vn -0.9238795325112867 0.3826834323650897 0
vn 0.3826834323650897 0.9238795325112867 0
vn -0.3826834323650897 -0.9238795325112867 0
vn 0 0 1
vn 0 0 -1
usemtl m_a2a43edc-01e3-04d8-d1bb-32e60455b969
f 28/73/19 26/74/19 25/75/19 27/76/19
f 31/77/20 29/78/20 30/79/20 32/80/20
f 25/81/21 26/82/21 30/83/21 29/84/21
f 28/85/22 27/86/22 31/87/22 32/88/22
f 27/89/23 25/90/23 29/91/23 31/92/23
f 32/93/24 30/94/24 26/95/24 28/96/24
o Right Leg
v 0.01751908848519053 0.05312499999999998 0.07613431285021996
v 0.0773133747922358 0.05312499999999998 -0.06822186410466859
v 0.01751908848519053 -1.734723475976807e-17 0.07613431285021996
v 0.0773133747922358 -1.734723475976807e-17 -0.06822186410466859
v -0.03156201167947156 0.05312499999999998 0.055804255505824574
v 0.028232274627573703 0.05312499999999998 -0.08855192144906397
v -0.03156201167947156 -1.734723475976807e-17 0.055804255505824574
v 0.028232274627573703 -1.734723475976807e-17 -0.08855192144906397
vt 0.25 0.5
vt 0.25 0.5625
vt 0.0625 0.5625
vt 0.0625 0.5
vt 1 0.5
vt 1 0.5625
vt 0.8125 0.5625
vt 0.8125 0.5
vt 0.8125 0.1875
vt 0.8125 0.375
vt 0.75 0.375
vt 0.75 0.1875
vt 0.8125 0.1875
vt 0.8125 0.375
vt 0.75 0.375
vt 0.75 0.1875
vt 0.9375 0.1875
vt 0.9375 0.25
vt 0.875 0.25
vt 0.875 0.1875
vt 0.8125 0.1875
vt 0.8125 0.25
vt 0.75 0.25
vt 0.75 0.1875
vn 0.9238795325112867 0 0.3826834323650897
vn -0.9238795325112867 0 -0.3826834323650897
vn 0 1 0
vn 0 -1 0
vn -0.3826834323650897 0 0.9238795325112867
vn 0.3826834323650897 0 -0.9238795325112867
usemtl m_a2a43edc-01e3-04d8-d1bb-32e60455b969
f 36/97/25 34/98/25 33/99/25 35/100/25
f 39/101/26 37/102/26 38/103/26 40/104/26
f 33/105/27 34/106/27 38/107/27 37/108/27
f 36/109/28 35/110/28 39/111/28 40/112/28
f 35/113/29 33/114/29 37/115/29 39/116/29
f 40/117/30 38/118/30 34/119/30 36/120/30
o Left Leg
v -0.017222503429376035 0.053124999999999985 0.05870447478830407
v -0.08180033264098494 0.053124999999999985 -0.09720019632297552
v -0.017222503429376035 -1.3877787807814457e-17 0.05870447478830407
v -0.08180033264098494 -1.3877787807814457e-17 -0.09720019632297552
v -0.060529356515842625 0.053124999999999985 0.07664276068041764
v -0.1251071857274515 0.053124999999999985 -0.07926191043086195
v -0.060529356515842625 -1.3877787807814457e-17 0.07664276068041764
v -0.1251071857274515 -1.3877787807814457e-17 -0.07926191043086195
vt 0.4375 0
vt 0.4375 0.0625
vt 0.25 0.0625
vt 0.25 0
vt 0.9375 0.0625
vt 0.9375 0.125
vt 0.75 0.125
vt 0.75 0.0625
vt 0.375 0
vt 0.375 0.1875
vt 0.3125 0.1875
vt 0.3125 0
vt 0.375 0
vt 0.375 0.1875
vt 0.3125 0.1875
vt 0.3125 0
vt 0.5 0
vt 0.5 0.0625
vt 0.4375 0.0625
vt 0.4375 0
vt 0.3125 0
vt 0.3125 0.0625
vt 0.25 0.0625
vt 0.25 0
vn 0.9238795325112867 0 -0.3826834323650897
vn -0.9238795325112867 0 0.3826834323650897
vn 0 1 0
vn 0 -1 0
vn 0.3826834323650897 0 0.9238795325112867
vn -0.3826834323650897 0 -0.9238795325112867
usemtl m_a2a43edc-01e3-04d8-d1bb-32e60455b969
f 44/121/31 42/122/31 41/123/31 43/124/31
f 47/125/32 45/126/32 46/127/32 48/128/32
f 41/129/33 42/130/33 46/131/33 45/132/33
f 44/133/34 43/134/34 47/135/34 48/136/34
f 43/137/35 41/138/35 45/139/35 47/140/35
f 48/141/36 46/142/36 42/143/36 44/144/36