# Made in Blockbench 5.0.7
mtllib corundum_half.mtl

o cone
v 0.295885 0.718835625 0.08472562500000003
v 0.621195625 0.66847125 0.11074625000000005
v 0.462541875 0.3885525 0.128208125
v 0.8254462499999999 0.5646825 0.14469749999999992
v 0.580911875 0.604411875 0.24108062499999994
v 0.425936875 0.39892625 0.5041212500000001
v 0.15875 0.06055375 0.18904125000000005
v 0.15875 0.289751875 0.15886687499999996
v 0.36151125 0.186570625 0.172945625
v 0.50580125 0.106340625 0.313005
vt 0.351771875 0.8125
vt 0.66441875 0.7607825
vt 0.509635 0.49085187500000005
vt 0.66441875 0.7607825
vt 0.863743125 0.6552781249999999
vt 0.509635 0.49085187500000005
vt 0.863743125 0.6552781249999999
vt 0.66441875 0.7607825
vt 0.622825625 0.6861493750000001
vt 0.66441875 0.7607825
vt 0.351771875 0.8125
vt 0.622825625 0.6861493750000001
vt 0.351771875 0.8125
vt 0.44688 0.433365625
vt 0.863743125 0.6552781249999999
vt 0.21881875 0.17671000000000003
vt 0.218590625 0.39548249999999996
vt 0.509635 0.49085187500000005
vt 0.218590625 0.39548249999999996
vt 0.351771875 0.8125
vt 0.509635 0.49085187500000005
vt 0.351771875 0.8125
vt 0.218590625 0.39548249999999996
vt 0.44688 0.433365625
vt 0.218590625 0.39548249999999996
vt 0.21881875 0.17671000000000003
vt 0.44688 0.433365625
vt 0.863743125 0.6552781249999999
vt 0.411008125 0.294170625
vt 0.509635 0.49085187500000005
vt 0.411008125 0.294170625
vt 0.21881875 0.17671000000000003
vt 0.509635 0.49085187500000005
vt 0.21881875 0.17671000000000003
vt 0.411008125 0.294170625
vt 0.542785 0.18122187499999998
vt 0.542785 0.18122187499999998
vt 0.44688 0.433365625
vt 0.21881875 0.17671000000000003
vt 0.411008125 0.294170625
vt 0.863743125 0.6552781249999999
vt 0.542785 0.18122187499999998
vt 0.863743125 0.6552781249999999
vt 0.44688 0.433365625
vt 0.542785 0.18122187499999998
vt 0.622825625 0.6861493750000001
vt 0.44688 0.433365625
vt 0.863743125 0.6552781249999999
vn 0.0642081242288851 -0.09834240366879628 -0.9930790947470658
vn 0.10312750395267017 -0.12004688421841422 -0.9873973179616922
vn 0.3263136767531873 0.8045077477747026 0.49627277593506175
vn 0.09925361201128383 0.8805400688089404 0.4634629518361312
vn 0.17147729186917565 0.8082363394626172 0.5633378719252617
vn -0.05751135396196865 -0.13030959770862635 -0.9898039467038295
vn -0.04925016506260691 -0.15475548429688393 -0.9867244606886681
vn -0.7926141239315251 0.3406919686652243 0.5056597996986465
vn -0.8002436137387594 0.07827296708873348 0.594544784935044
vn 0.1887598893135475 -0.30142805158594765 -0.9346180149683808
vn 0.0814964671795014 -0.25421828444362937 -0.9637071078350511
vn 0.33404016594441105 -0.627323394215803 -0.703478874313504
vn -0.2072307362605154 -0.57401931651623 0.7921851085542856
vn 0.4037730612132622 -0.5500359504840198 -0.731045667666263
vn 0.7026338924601262 -0.24465489656650197 0.6681688370108008
vn 0.37424463917695694 0.6108669083004538 0.6976980510154478
usemtl m_fe35298d-4951-981a-f26a-a16c8a40c1ec
f 1/1/1 2/2/1 3/3/1
f 2/4/2 4/5/2 3/6/2
f 4/7/3 2/8/3 5/9/3
f 2/10/4 1/11/4 5/12/4
f 1/13/5 6/14/5 4/15/5
f 7/16/6 8/17/6 3/18/6
f 8/19/7 1/20/7 3/21/7
f 1/22/8 8/23/8 6/24/8
f 8/25/9 7/26/9 6/27/9
f 4/28/10 9/29/10 3/30/10
f 9/31/11 7/32/11 3/33/11
f 7/34/12 9/35/12 10/36/12
f 10/37/13 6/38/13 7/39/13
f 9/40/14 4/41/14 10/42/14
f 4/43/15 6/44/15 10/45/15
f 5/46/16 6/47/16 4/48/16
o cone
v 0.280048125 0.723649375 0.03793500000000005
v 0.36242625 0.669905 0.06114750000000002
v 0.264919375 0.617246875 0.059599999999999986
v 0.492310625 0.493685 0.15155125000000003
v 0.470156875 0.957678125 0.27177562499999997
v 0.22662062500000002 0.694395625 0.15107625000000002
v 0.322930625 0.869303125 0.27858874999999994
v 0.338771875 0.65699625 0.36367250000000007
v 0.495574375 0.612656875 0.3491725
v 0.344189375 0.54778875 0.30345187500000004
v 0.37862562499999997 0.500195 0.13997812500000006
v 0.66434375 0.62785125 0.33421500000000004
v 0.48454875 0.74404 0.37273875
v 0.486771875 0.62530875 0.18160749999999992
vt 0.562804375 0.621105
vt 0.637105 0.5693675
vt 0.54787875 0.52088
vt 0.637105 0.5693675
vt 0.75352125 0.394774375
vt 0.54787875 0.52088
vt 0.637105 0.5693675
vt 0.562804375 0.621105
vt 0.72596125 0.850161875
vt 0.49990125 0.587371875
vt 0.562804375 0.621105
vt 0.54787875 0.52088
vt 0.562804375 0.621105
vt 0.49990125 0.587371875
vt 0.576285625 0.757871875
vt 0.576285625 0.757871875
vt 0.72596125 0.850161875
vt 0.562804375 0.621105
vt 0.49990125 0.587371875
vt 0.585534375 0.53406875
vt 0.576285625 0.757871875
vt 0.585534375 0.53406875
vt 0.72596125 0.850161875
vt 0.576285625 0.757871875
vt 0.747824375 0.488935625
vt 0.585534375 0.53406875
vt 0.5985575 0.42930875
vt 0.585534375 0.53406875
vt 0.54787875 0.52088
vt 0.5985575 0.42930875
vt 0.5985575 0.42930875
vt 0.54787875 0.52088
vt 0.64698375 0.4030775
vt 0.54787875 0.52088
vt 0.75352125 0.394774375
vt 0.64698375 0.4030775
vt 0.75352125 0.394774375
vt 0.5985575 0.42930875
vt 0.64698375 0.4030775
vt 0.747824375 0.488935625
vt 0.75352125 0.394774375
vt 0.921340625 0.505139375
vt 0.921340625 0.505139375
vt 0.735276875 0.6239718750000001
vt 0.747824375 0.488935625
vt 0.72596125 0.850161875
vt 0.735276875 0.6239718750000001
vt 0.921340625 0.505139375
vt 0.75352125 0.394774375
vt 0.637105 0.5693675
vt 0.747033125 0.517334375
vt 0.637105 0.5693675
vt 0.72596125 0.850161875
vt 0.747033125 0.517334375
vt 0.75352125 0.394774375
vt 0.747033125 0.517334375
vt 0.921340625 0.505139375
vt 0.747033125 0.517334375
vt 0.72596125 0.850161875
vt 0.921340625 0.505139375
vt 0.585534375 0.53406875
vt 0.49990125 0.587371875
vt 0.54787875 0.52088
vt 0.585534375 0.53406875
vt 0.747824375 0.488935625
vt 0.735276875 0.6239718750000001
vt 0.75352125 0.394774375
vt 0.747824375 0.488935625
vt 0.5985575 0.42930875
vt 0.735276875 0.6239718750000001
vt 0.72596125 0.850161875
vt 0.585534375 0.53406875
vn 0.13186785005579232 -0.21574655934289483 -0.9675041561943629
vn 0.19349896290246166 -0.33116125951616737 -0.9235206394831346
vn 0.47858867627920687 0.39484746662771253 -0.7842501877812934
vn -0.9077249519818891 0.044108193901159234 -0.4172407923253129
vn -0.7799232173749974 0.58725384614246 -0.21645483406549426
vn -0.4876989039804366 0.7826515894496852 -0.3867896955558181
vn -0.8677835663967322 0.12771485572370836 0.48025055702127084
vn -0.1708787798936927 0.3555139475123139 0.9189179918285717
vn -0.05619375777489504 -0.4842550857124038 0.8731204232800933
vn -0.9485848639331826 -0.1876267795583689 0.2549175308004942
vn -0.7315192444012619 -0.6803999175249806 0.04399485541068031
vn 0.056078426414983215 -0.5275920481003789 -0.847644878986517
vn -0.08179406945072859 -0.9614112133400206 0.26267510172598996
vn 0.1218756851503971 -0.8512301443417565 0.5104444717430429
vn 0.10197383913080077 -0.16733523848899445 0.9806121833287393
vn 0.4357760389765173 0.40840316658644055 0.8020636492050399
vn 0.7171488297421972 0.18369177769500136 -0.6722759008075831
vn 0.718217044027991 0.21539896521398902 -0.6616400558101343
vn 0.6373962865998829 0.1969299779944487 -0.7449460098529194
vn 0.6320596861428186 0.23216664662572384 -0.7393234754473903
vn -0.708099224851678 -0.6573265004266977 0.2579095957913227
vn 0.04208380090810561 -0.17297369872839044 0.9840269575826402
vn 0.208120637403674 -0.8394839584631634 0.5019486863910558
vn -0.2889886502594058 0.393064033886013 0.8729182237108482
usemtl m_fe35298d-4951-981a-f26a-a16c8a40c1ec
f 11/49/17 12/50/17 13/51/17
f 12/52/18 14/53/18 13/54/18
f 12/55/19 11/56/19 15/57/19
f 16/58/20 11/59/20 13/60/20
f 11/61/21 16/62/21 17/63/21
f 17/64/22 15/65/22 11/66/22
f 16/67/23 18/68/23 17/69/23
f 18/70/24 15/71/24 17/72/24
f 19/73/25 18/74/25 20/75/25
f 18/76/26 13/77/26 20/78/26
f 20/79/27 13/80/27 21/81/27
f 13/82/28 14/83/28 21/84/28
f 14/85/29 20/86/29 21/87/29
f 19/88/30 14/89/30 22/90/30
f 22/91/31 23/92/31 19/93/31
f 15/94/32 23/95/32 22/96/32
f 14/97/33 12/98/33 24/99/33
f 12/100/34 15/101/34 24/102/34
f 14/103/35 24/104/35 22/105/35
f 24/106/36 15/107/36 22/108/36
f 18/109/37 16/110/37 13/111/37
f 18/112/38 19/113/38 23/114/38
f 14/115/39 19/116/39 20/117/39
f 23/118/40 15/119/40 18/120/40
o cone
v 0.33261625 0.7585875 0.305098125
v 0.3631975 0.69002875 0.27696062499999996
v 0.23705062500000001 0.66997125 0.26414312500000003
v 0.026687499999999975 0.589365 0.3800675
v 0.380354375 0.485203125 0.27453937500000003
v 0.28719062500000003 0.41356 0.44779812500000005
v 0.2483975 0.42071375 0.5408425
v 0.27523624999999996 0.543998125 0.544731875
v 0.32933 0.59939 0.402666875
v 0.14460374999999998 0.638859375 0.46692374999999997
vt 0.340685625 0.6087162500000001
vt 0.373045625 0.544206875
vt 0.25649 0.5265206250000001
vt 0.25649 0.5265206250000001
vt 0.039805625 0.44038437500000005
vt 0.340685625 0.6087162500000001
vt 0.373045625 0.544206875
vt 0.390820625 0.35233749999999997
vt 0.25649 0.5265206250000001
vt 0.390820625 0.35233749999999997
vt 0.039805625 0.44038437500000005
vt 0.25649 0.5265206250000001
vt 0.390820625 0.35233749999999997
vt 0.28497375 0.258798125
vt 0.039805625 0.44038437500000005
vt 0.28497375 0.258798125
vt 0.233335 0.24944812500000002
vt 0.039805625 0.44038437500000005
vt 0.25777125 0.37369375000000005
vt 0.233335 0.24944812500000002
vt 0.328999375 0.446128125
vt 0.233335 0.24944812500000002
vt 0.25777125 0.37369375000000005
vt 0.1361525 0.48000062499999996
vt 0.1361525 0.48000062499999996
vt 0.039805625 0.44038437500000005
vt 0.233335 0.24944812500000002
vt 0.25777125 0.37369375000000005
vt 0.340685625 0.6087162500000001
vt 0.1361525 0.48000062499999996
vt 0.340685625 0.6087162500000001
vt 0.039805625 0.44038437500000005
vt 0.1361525 0.48000062499999996
vt 0.28497375 0.258798125
vt 0.390820625 0.35233749999999997
vt 0.328999375 0.446128125
vt 0.340685625 0.6087162500000001
vt 0.25777125 0.37369375000000005
vt 0.328999375 0.446128125
vt 0.390820625 0.35233749999999997
vt 0.373045625 0.544206875
vt 0.328999375 0.446128125
vt 0.233335 0.24944812500000002
vt 0.28497375 0.258798125
vt 0.328999375 0.446128125
vt 0.373045625 0.544206875
vt 0.340685625 0.6087162500000001
vt 0.328999375 0.446128125
vn 0.031218186275082126 0.3913826262929763 -0.9196983552674795
vn -0.5161003014993474 0.7487822705866775 -0.41589131999519147
vn 0.09792470093008948 0.019964347733831173 -0.99499355664613
vn -0.3572372886531853 -0.32631067935428926 -0.8751587628168177
vn -0.3804566643421158 -0.7643281842366556 -0.5206295740151222
vn -0.5247836459756227 -0.837108844968817 -0.15443738728528636
vn 0.9378510702749475 -0.21281631063966672 0.27412513184649206
vn -0.4698056108228066 0.07452549670236779 0.8796184618234631
vn -0.590922567766384 -0.007813681059066161 0.8066904395694117
vn 0.12226790010666957 0.7246452117292852 0.6781886741322986
vn -0.4579252613471361 0.8808938858994121 0.1197097189253685
vn 0.8926511114312228 -0.09543176974841439 0.440530101790205
vn 0.8710527987077731 0.24347337116201406 0.42660021026525563
vn 0.9477373943683938 0.0757218762131414 0.30993552358284043
vn 0.9140141647655478 -0.11261130789654213 0.38973940003772856
vn 0.8856061673991666 0.22926393338553547 0.4039056388726851
usemtl m_fe35298d-4951-981a-f26a-a16c8a40c1ec
f 25/121/41 26/122/41 27/123/41
f 27/124/42 28/125/42 25/126/42
f 26/127/43 29/128/43 27/129/43
f 29/130/44 28/131/44 27/132/44
f 29/133/45 30/134/45 28/135/45
f 30/136/46 31/137/46 28/138/46
f 32/139/47 31/140/47 33/141/47
f 31/142/48 32/143/48 34/144/48
f 34/145/49 28/146/49 31/147/49
f 32/148/50 25/149/50 34/150/50
f 25/151/51 28/152/51 34/153/51
f 30/154/52 29/155/52 33/156/52
f 25/157/53 32/158/53 33/159/53
f 29/160/54 26/161/54 33/162/54
f 31/163/55 30/164/55 33/165/55
f 26/166/56 25/167/56 33/168/56
o cone
v 0.663165625 0.730729375 0.21091937500000002
v 0.9882025 0.697410625 0.18751812499999998
v 0.8283968749999999 0.52259625 0.18916687499999996
v 0.9449356250000001 0.630351875 0.20527249999999997
v 0.96403875 0.64710125 0.312599375
v 0.8296462499999999 0.38732 0.47909625
v 0.529488125 0.31446375 0.24616937500000002
v 0.529488125 0.458895625 0.24616937500000002
v 0.73057875 0.393834375 0.22019062499999997
v 0.8903924999999999 0.332715625 0.3286475
vt 0.682468125 0.606140625
vt 1 0.5735756249999999
vt 0.83876875 0.40441875000000005
vt 1 0.5735756249999999
vt 0.95713125 0.506519375
vt 0.83876875 0.40441875000000005
vt 0.95713125 0.506519375
vt 1 0.5735756249999999
vt 0.989844375 0.513809375
vt 0.989844375 0.513809375
vt 0.85841375 0.22300624999999996
vt 0.95713125 0.506519375
vt 1 0.5735756249999999
vt 0.682468125 0.606140625
vt 0.989844375 0.513809375
vt 0.682468125 0.606140625
vt 0.85841375 0.22300624999999996
vt 0.989844375 0.513809375
vt 0.54854375 0.20017937500000005
vt 0.549075 0.3377325
vt 0.83876875 0.40441875000000005
vt 0.549075 0.3377325
vt 0.682468125 0.606140625
vt 0.83876875 0.40441875000000005
vt 0.95713125 0.506519375
vt 0.74311625 0.277983125
vt 0.83876875 0.40441875000000005
vt 0.74311625 0.277983125
vt 0.54854375 0.20017937500000005
vt 0.83876875 0.40441875000000005
vt 0.54854375 0.20017937500000005
vt 0.74311625 0.277983125
vt 0.9061125 0.19774250000000004
vt 0.9061125 0.19774250000000004
vt 0.85841375 0.22300624999999996
vt 0.54854375 0.20017937500000005
vt 0.74311625 0.277983125
vt 0.95713125 0.506519375
vt 0.9061125 0.19774250000000004
vt 0.95713125 0.506519375
vt 0.85841375 0.22300624999999996
vt 0.9061125 0.19774250000000004
vt 0.85841375 0.22300624999999996
vt 0.989844375 0.513809375
vt 0.9061125 0.19774250000000004
vt 0.682468125 0.606140625
vt 0.549075 0.3377325
vt 0.85841375 0.22300624999999996
vt 0.549075 0.3377325
vt 0.54854375 0.20017937500000005
vt 0.85841375 0.22300624999999996
vn -0.06647534582106417 0.05136999060672474 -0.9964648275092478
vn 0.5809082268765033 -0.5368049652373574 -0.6118709514625748
vn 0.831156709393787 -0.5526045757771734 -0.06169851910558668
vn 0.864744472374041 -0.49635843801706075 -0.07645455191030542
vn 0.12165629676912634 0.912516866844141 0.3905287610168743
vn -0.11302245392621686 0.5769276624173979 0.8089378203830586
vn -0.1873261610674867 0 -0.9822977702202719
vn -0.17906874069532946 -0.03941722459190582 -0.9830466258073726
vn 0.6204262372594957 -0.5945540643750342 -0.5114457436084021
vn -0.04765374413664398 -0.1996091272449832 -0.9787161575197662
vn 0.1912843877767341 -0.7073590043429662 -0.6804803611918624
vn -0.027953481426879402 -0.9432018335210157 0.3310421485531885
vn 0.39821161961580187 -0.412575893699429 -0.8192732376570575
vn 0.92557252279249 -0.012781131666592215 0.3783545265024153
vn -0.8858582252441798 0.18581556637395538 -0.42512090052167323
vn -0.5185186672635453 0.3558124274500018 0.7775190725450883
vn -0.6130719738378799 0 0.7900270595963951
usemtl m_fe35298d-4951-981a-f26a-a16c8a40c1ec
f 35/169/57 36/170/57 37/171/57
f 36/172/58 38/173/58 37/174/58
f 38/175/59 36/176/59 39/177/59
f 39/178/60 40/179/60 38/180/60
f 36/181/61 35/182/61 39/183/61
f 35/184/62 40/185/62 39/186/62
f 41/187/63 42/188/63 37/189/63
f 42/190/64 35/191/64 37/192/64
f 38/193/65 43/194/65 37/195/65
f 43/196/66 41/197/66 37/198/66
f 41/199/67 43/200/67 44/201/67
f 44/202/68 40/203/68 41/204/68
f 43/205/69 38/206/69 44/207/69
f 38/208/70 40/209/70 44/210/70
f 40/211/71 39/212/71 44/213/71
f 35/214/72 42/215/72 40/216/72
f 42/217/73 41/218/73 40/219/73
o cone
v 0.56113375 0.479016875 0.20967437500000008
v 0.544828125 0.157745 0.147824375
v 0.3622475 0.30246625 0.19049249999999995
v 0.48176 0.13146375 0.170488125
v 0.509 0.16247 0.279939375
v 0.264164375 0.255348125 0.49135874999999996
v 0.1451225 0.5755075 0.30974124999999997
v 0.2881825 0.58642 0.293148125
v 0.2326475 0.385715 0.24866500000000002
v 0.195145625 0.2096175 0.34152000000000005
vt 0.44083625 0.824158125
vt 0.4250825 0.535786875
vt 0.25102375 0.6616175
vt 0.4250825 0.535786875
vt 0.365384375 0.5074937500000001
vt 0.25102375 0.6616175
vt 0.365384375 0.5074937500000001
vt 0.4250825 0.535786875
vt 0.3866225 0.509146875
vt 0.3866225 0.509146875
vt 0.119646875 0.550605625
vt 0.365384375 0.5074937500000001
vt 0.4250825 0.535786875
vt 0.44083625 0.824158125
vt 0.3866225 0.509146875
vt 0.44083625 0.824158125
vt 0.119646875 0.550605625
vt 0.3866225 0.509146875
vt 0.019918125 0.909426875
vt 0.165223125 0.921389375
vt 0.25102375 0.6616175
vt 0.165223125 0.921389375
vt 0.44083625 0.824158125
vt 0.25102375 0.6616175
vt 0.165223125 0.921389375
vt 0.019918125 0.909426875
vt 0.119646875 0.550605625
vt 0.365384375 0.5074937500000001
vt 0.11946625 0.7310375
vt 0.25102375 0.6616175
vt 0.11946625 0.7310375
vt 0.019918125 0.909426875
vt 0.25102375 0.6616175
vt 0.019918125 0.909426875
vt 0.11946625 0.7310375
vt 0.072835 0.543055625
vt 0.072835 0.543055625
vt 0.119646875 0.550605625
vt 0.019918125 0.909426875
vt 0.11946625 0.7310375
vt 0.365384375 0.5074937500000001
vt 0.072835 0.543055625
vt 0.365384375 0.5074937500000001
vt 0.119646875 0.550605625
vt 0.072835 0.543055625
vt 0.44083625 0.824158125
vt 0.165223125 0.921389375
vt 0.119646875 0.550605625
vn -0.0762764574626715 0.19222553813510687 -0.9783819522689561
vn -0.29989310874163905 -0.09859233408263961 -0.9488644133855019
vn 0.4250714495226463 -0.893107887587233 0.14721604508404224
vn -0.10530496535475307 -0.9496080795512835 0.2952208656625709
vn 0.9594486661181517 -0.099471230795222 0.2637493721853825
vn 0.6646144531534584 0.055931414307043646 0.7450901325028695
vn -0.13269427714560403 0.306187779738379 -0.9426777139360449
vn -0.17133021286297168 0.29513126617292607 -0.9399699430766362
vn 0.06069372235728911 0.5094793901402562 0.858339689801613
vn -0.5382737856130603 -0.28334532092114284 -0.7937107538857463
vn -0.3215505976543893 0.15245295269140033 -0.934539089799768
vn -0.773216672646114 -0.1590286189562026 -0.6138777366014794
vn -0.8950135561761324 -0.08432153201867171 0.43799613411419186
vn -0.5476963339658348 -0.2960040489620382 -0.7825665011732
vn -0.06714256309716135 -0.9452343743296058 0.31941173085292707
vn 0.4172782033829525 0.44433840257450924 0.792743517777994
usemtl m_fe35298d-4951-981a-f26a-a16c8a40c1ec
f 45/220/74 46/221/74 47/222/74
f 46/223/75 48/224/75 47/225/75
f 48/226/76 46/227/76 49/228/76
f 49/229/77 50/230/77 48/231/77
f 46/232/78 45/233/78 49/234/78
f 45/235/79 50/236/79 49/237/79
f 51/238/80 52/239/80 47/240/80
f 52/241/81 45/242/81 47/243/81
f 52/244/82 51/245/82 50/246/82
f 48/247/83 53/248/83 47/249/83
f 53/250/84 51/251/84 47/252/84
f 51/253/85 53/254/85 54/255/85
f 54/256/86 50/257/86 51/258/86
f 53/259/87 48/260/87 54/261/87
f 48/262/88 50/263/88 54/264/88
f 45/265/89 52/266/89 50/267/89
o mesh
v 0 1 0
v 1 1 0
v 1 0 0
v 0 0 0
v 1 1 0.5
v 0 1 0.5
v 1 0 0.5
v 0 0 0.5
v 0.573789375 0.171336875 0.37402625
v 0.5 0.09375 0.5
v 0.7387875 0.171336875 0.5
v 0.26121249999999996 0.171336875 0.5
v 0.113633125 0.625538125 0.5
v 0.113633125 0.374461875 0.5
v 0.38060625 0.374461875 0.19504312499999998
v 0.38060625 0.688038125 0.22629312499999998
v 0.306816875 0.828663125 0.383516875
v 0.26121249999999996 0.828663125 0.5
v 0.426210625 0.828663125 0.31152625
v 0.5 0.90625 0.5
v 0.886366875 0.374461875 0.5
v 0.61939375 0.374461875 0.19504312499999998
v 0.886366875 0.688038125 0.5
v 0.61939375 0.625538125 0.257543125
v 0.7387875 0.828663125 0.5
v 0.573789375 0.828663125 0.31152625
v 0.693183125 0.828663125 0.383516875
v 1 0 0.5
v 0.7387875 0.171336875 0.5
v 0.5 0.09375 0.5
v 0.693183125 0.171336875 0.383516875
vt 0 1
vt 1 1
vt 1 0
vt 0 0
vt 0.5 0
vt 1 0
vt 1 1
vt 0.5 1
vt 0 0.5
vt 1 0.5
vt 1 1
vt 0 1
vt 1 0
vt 1 1
vt 0.5 1
vt 0.5 0
vt 0 1
vt 0.5 1
vt 0.5 0
vt 0 0
vt 0.584375 0.21514437500000005
vt 0.5078125 0.125
vt 0.7375 0.18509624999999996
vt 0.584375 0.21514437500000005
vt 0.278125 0.20011999999999996
vt 0.5078125 0.125
vt 0.125 0.6358174999999999
vt 0.125 0.38040874999999996
vt 0.4159375 0.42548062499999995
vt 0.4159375 0.680889375
vt 0 0.7600125
vt 0.147575 0.7600125
vt 0 0.7600125
vt 1 1
vt 0.010754375 0.99485875
vt 0.50163375 0.903565
vt 0.010754375 0.99485875
vt 0.2676825 0.82576125
vt 0.50163375 0.903565
vt 0.501578125 0.11546687499999997
vt 0.0273125 0.031906250000000025
vt 0.982803125 0.02271500000000004
vt 0.278125 0.20011999999999996
vt 0.4159375 0.42548062499999995
vt 0.125 0.38040874999999996
vt 0.584375 0.21514437500000005
vt 0.7375 0.18509624999999996
vt 0.890625 0.38040874999999996
vt 0.615 0.42548062499999995
vt 0.278125 0.20011999999999996
vt 0.584375 0.21514437500000005
vt 0.615 0.42548062499999995
vt 0.4159375 0.42548062499999995
vt 0.615 0.42548062499999995
vt 0.890625 0.38040874999999996
vt 0.890625 0.69591375
vt 0.615 0.6358174999999999
vt 0.619496875 0.6358625
vt 0.61538 0.428089375
vt 0.416660625 0.427955
vt 0.414075625 0.6875
vt 0.2628125 0.83113
vt 0.125 0.6358174999999999
vt 0.4159375 0.680889375
vt 0.4465625 0.8161056250000001
vt 0.4159375 0.680889375
vt 0.890625 0.69591375
vt 0.7375 0.83113
vt 0.4465625 0.8161056250000001
vt 0 0.7600125
vt 0.147575 0.7600125
vt 0.0737875 1
vt 0 0.7600125
vt 0.0737875 1
vt 0.147575 0.7600125
vt 0.5078125 0.90625
vt 0.2628125 0.83113
vt 0.4465625 0.8161056250000001
vt 0.147575 0.7600125
vt 0 0.7600125
vt 0.147575 0.7600125
vt 0.4465625 0.8161056250000001
vt 0.7375 0.83113
vt 0.5078125 0.90625
vt 0.615 0.6358174999999999
vt 0.890625 0.69591375
vt 0.4159375 0.680889375
vt 0.982803125 0.02271500000000004
vt 0.731879375 0.18717812499999997
vt 0.501578125 0.11546687499999997
vt 0.584375 0.21514437500000005
vt 0.6915625 0.21514437500000005
vt 0.7375 0.18509624999999996
vt 1 1
vt 0.881838125 0.687688125
vt 0.8776725 0.3811675
vt 0.982803125 0.02271500000000004
vt 0.73725875 0.826975
vt 0.881838125 0.687688125
vt 1 1
vt 0.501578125 0.11546687499999997
vt 0.27289625 0.19046125000000003
vt 0.0273125 0.031906250000000025
vt 0.731879375 0.18717812499999997
vt 0.982803125 0.02271500000000004
vt 0.8776725 0.3811675
vt 0.27289625 0.19046125000000003
vt 0.129793125 0.3843025
vt 0.0273125 0.031906250000000025
vt 0.0273125 0.031906250000000025
vt 0.129793125 0.3843025
vt 0.126574375 0.626413125
vt 0.010754375 0.99485875
vt 0.126574375 0.626413125
vt 0.2676825 0.82576125
vt 0.010754375 0.99485875
vt 0.50163375 0.903565
vt 0.73725875 0.826975
vt 1 1
vn 0 0 -1
vn 0 1 0
vn 0 -1 0
vn 1 0 0
vn -1 0 0
vn -0.2864443429668936 0.8815837542910075 0.3751795870678961
vn 0.24522706621564444 0.7547302049988249 0.6084784331902816
vn 0.7524105531617379 0 0.6586944356003378
vn 0 1 0
vn 0 0 1
vn 0 0 1
vn 0 0 1
vn 0.66020309549593 0.47966700409282287 0.5779718313916413
vn -0.5552646798051887 0.4034245632257223 0.7272755716693478
vn 0.30143332491497365 0.5913716093967101 0.7479422238584001
vn -0.7524105531617379 0 0.6586944356003379
vn 0 0.2415567704149761 -0.9703866892464501
vn 0.6767970253820269 -0.4917232344996363 0.5478631645650726
vn -0.4257908421462597 -0.44684761859319916 0.7867841918226153
vn 0 0.9247125786381467 -0.38066605694281364
vn -0.2982947686998469 -0.9180555613422329 0.2611402252716011
vn 0.2982947686998469 -0.9180555613422329 0.2611402252716012
vn 0 -1 0
vn -0.27500551401326173 -0.8463787100259124 0.45608666553317945
vn -0.27945118824025644 -0.809483673176262 0.5163750732289232
vn 0 0 1
vn 0 -1 0
vn 0 0 1
vn 0 0 1
vn 0 0 1
vn 0 0 1
vn 0 0 1
vn 0 0 1
vn 0 0 1
vn 0 0 1
usemtl m_a26d68ba-7299-f1ae-f748-3475f9cf500e
f 55/268/90 56/269/90 57/270/90 58/271/90
f 59/272/91 56/273/91 55/274/91 60/275/91
f 58/276/92 57/277/92 61/278/92 62/279/92
f 57/280/93 56/281/93 59/282/93 61/283/93
f 60/284/94 55/285/94 58/286/94 62/287/94
usemtl m_5c91c9f7-3d0b-21a7-04d7-e56df50af9ec
f 63/288/95 64/289/95 65/290/95
f 63/291/96 66/292/96 64/293/96
f 67/294/97 68/295/97 69/296/97 70/297/97
usemtl m_a26d68ba-7299-f1ae-f748-3475f9cf500e
f 71/298/98 72/299/98 73/300/98
usemtl m_b4625d33-98f3-4892-de4b-fcd409094ef2
f 59/301/99 60/302/99 74/303/99
f 60/304/100 72/305/100 74/306/100
f 64/307/101 62/308/101 61/309/101
usemtl m_5c91c9f7-3d0b-21a7-04d7-e56df50af9ec
f 66/310/102 69/311/102 68/312/102
f 63/313/103 65/314/103 75/315/103 76/316/103
f 66/317/104 63/318/104 76/319/104 69/320/104
f 76/321/105 75/322/105 77/323/105 78/324/105
f 78/325/106 76/326/106 69/327/106 70/328/106
f 72/329/107 67/330/107 70/331/107 73/332/107
f 70/333/108 77/334/108 79/335/108 73/336/108
usemtl m_a26d68ba-7299-f1ae-f748-3475f9cf500e
f 80/337/109 73/338/109 74/339/109
f 79/340/110 74/341/110 80/342/110
usemtl m_5c91c9f7-3d0b-21a7-04d7-e56df50af9ec
f 74/343/111 72/344/111 73/345/111
usemtl m_a26d68ba-7299-f1ae-f748-3475f9cf500e
f 81/346/112 79/347/112 80/348/112
usemtl m_5c91c9f7-3d0b-21a7-04d7-e56df50af9ec
f 73/349/113 79/350/113 74/351/113
f 78/352/114 77/353/114 70/354/114
usemtl m_b4625d33-98f3-4892-de4b-fcd409094ef2
f 82/355/115 83/356/115 84/357/115
usemtl m_5c91c9f7-3d0b-21a7-04d7-e56df50af9ec
f 63/358/116 85/359/116 65/360/116
usemtl m_b4625d33-98f3-4892-de4b-fcd409094ef2
f 59/361/117 77/362/117 75/363/117 61/364/117
f 79/365/118 77/366/118 59/367/118
f 64/368/119 66/369/119 62/370/119
f 65/371/120 61/372/120 75/373/120
f 66/374/121 68/375/121 62/376/121
f 62/377/122 68/378/122 67/379/122 60/380/122
f 67/381/123 72/382/123 60/383/123
f 74/384/124 79/385/124 59/386/124