# Made in Blockbench 5.0.7
mtllib garnet_whole.mtl

o cone
v 0.590041875 0.513400497983386 0.9731686484716043
v 0.5381312500000001 0.4512341258584965 0.9480248795438508
v 0.5030825000000001 0.5055771395531943 0.9413352735612175
v 0.45130937500000007 0.4131886023565111 0.9339963362200412
v 0.5235206250000001 0.4055518882697541 0.9671251075606033
v 0.48683625 0.48087574996217947 1.0830685192460285
v 0.5418575000000001 0.636838739698423 0.9766745053840759
v 0.554455625 0.6190312230669062 0.9918187276428947
v 0.46973937500000007 0.5830276121947794 0.9707404144425554
v 0.39749500000000004 0.5476877050705893 1.0031346797951586
vt 0.503191875 0.628594375
vt 0.44906625 0.5711881249999999
vt 0.415413125 0.62437
vt 0.44906625 0.5711881249999999
vt 0.363648125 0.53729375
vt 0.415413125 0.62437
vt 0.44906625 0.5711881249999999
vt 0.503191875 0.628594375
vt 0.43515375 0.52517875
vt 0.363648125 0.53729375
vt 0.503191875 0.628594375
vt 0.40575875 0.586635
vt 0.363648125 0.53729375
vt 0.457893125 0.75
vt 0.471230625 0.731698125
vt 0.415413125 0.62437
vt 0.471230625 0.731698125
vt 0.503191875 0.628594375
vt 0.415413125 0.62437
vt 0.503191875 0.628594375
vt 0.471230625 0.731698125
vt 0.40575875 0.586635
vt 0.471230625 0.731698125
vt 0.457893125 0.75
vt 0.40575875 0.586635
vt 0.363648125 0.53729375
vt 0.385210625 0.6976424999999999
vt 0.415413125 0.62437
vt 0.385210625 0.6976424999999999
vt 0.457893125 0.75
vt 0.415413125 0.62437
vt 0.457893125 0.75
vt 0.385210625 0.6976424999999999
vt 0.314069375 0.661251875
vt 0.314069375 0.661251875
vt 0.40575875 0.586635
vt 0.457893125 0.75
vt 0.385210625 0.6976424999999999
vt 0.363648125 0.53729375
vt 0.314069375 0.661251875
vt 0.363648125 0.53729375
vt 0.40575875 0.586635
vt 0.314069375 0.661251875
vt 0.43515375 0.52517875
vt 0.503191875 0.628594375
vt 0.40575875 0.586635
vt 0.363648125 0.53729375
vn 0.33408223490731426 0.10009702322048067 -0.9372137676441447
vn 0.16569122748052406 -0.014521727234498183 -0.9860707563730526
vn 0.7601403385191582 -0.44217712696159767 -0.47609458529578685
vn 0.5206061171591972 -0.817281981272802 0.24702112027765533
vn 0.7442844368548139 -0.04038547684503302 -0.6666406005605358
vn 0.31024089147349054 0.26567758302058525 -0.9127792784337702
vn 0.7069276530910038 0.11494113727416677 0.6978838214612562
vn -0.12665668520907852 0.5891047723463754 0.7980687008588758
vn -0.2820574867694651 0.23200902286615904 -0.9309217944951031
vn -0.14363538741862722 0.29661683912637027 -0.9441331083209518
vn -0.5364740073694858 0.759547536155223 -0.36780861835668777
vn -0.2322847417337339 0.6027169784486776 0.7633976962549658
vn -0.4910163913415406 0.23477917149536023 -0.8389169470608419
vn -0.752726384861867 -0.5131611865551833 0.4123937270934914
vn 0.7093325142666413 -0.4670991895057204 0.5278879913080655
usemtl m_049b1968-b94f-d532-6c95-e78464e778d3
f 1/1/1 2/2/1 3/3/1
f 2/4/2 4/5/2 3/6/2
f 2/7/3 1/8/3 5/9/3 4/10/3
f 1/11/4 6/12/4 4/13/4
f 7/14/5 8/15/5 3/16/5
f 8/17/6 1/18/6 3/19/6
f 1/20/7 8/21/7 6/22/7
f 8/23/8 7/24/8 6/25/8
f 4/26/9 9/27/9 3/28/9
f 9/29/10 7/30/10 3/31/10
f 7/32/11 9/33/11 10/34/11
f 10/35/12 6/36/12 7/37/12
f 9/38/13 4/39/13 10/40/13
f 4/41/14 6/42/14 10/43/14
f 5/44/15 1/45/15 6/46/15 4/47/15
o mesh
v 1 1 0
v 1 1 1
v 1 0 1
v 1 0 0
v 0 0 1
v 0 1 1
v 0 1 0
v 0 0 0
vt 1 1
vt 0 1
vt 0 0
vt 1 0
vt 1 0
vt 1 1
vt 0 1
vt 0 0
vt 0 0
vt 1 0
vt 1 1
vt 0 1
vt 1 0
vt 1 1
vt 0 1
vt 0 0
vt 1 0
vt 1 1
vt 0 1
vt 0 0
vt 1 1
vt 0 1
vt 0 0
vt 1 0
vn 1 0 0
vn -1 0 0
vn 0 1 0
vn 0 -1 0
vn 0 0 1
vn 0 0 -1
usemtl m_0480bcb4-013f-4d35-4dbb-d8705e76b550
f 11/48/16 12/49/16 13/50/16 14/51/16
f 15/52/17 16/53/17 17/54/17 18/55/17
f 16/56/18 12/57/18 11/58/18 17/59/18
f 14/60/19 13/61/19 15/62/19 18/63/19
usemtl m_5246a952-6ab8-b370-32ac-7e13dde059e4
f 13/64/20 12/65/20 16/66/20 15/67/20
usemtl m_0480bcb4-013f-4d35-4dbb-d8705e76b550
f 17/68/21 11/69/21 14/70/21 18/71/21