# Made in Blockbench 5.0.7
mtllib rhinestone_half.mtl

o cone
v 0.29588500000000023 0.7188356250000002 0.08472562500000036
v 0.6211956250000003 0.6684712500000002 0.11074625000000027
v 0.46254187500000016 0.38855250000000024 0.12820812500000023
v 0.8254462500000002 0.5646825000000002 0.14469750000000026
v 0.5809118750000002 0.6044118750000003 0.24108062500000016
v 0.4259368750000001 0.3989262500000001 0.5041212500000003
v 0.15875000000000017 0.060553750000000205 0.18904125000000005
v 0.1587500000000002 0.2897518750000002 0.15886687500000007
v 0.3615112500000002 0.18657062500000018 0.1729456250000001
v 0.5058012500000001 0.10634062500000016 0.3130050000000001
vt 0.351771875 0.8125
vt 0.66441875 0.7607825
vt 0.509635 0.49085187500000005
vt 0.66441875 0.7607825
vt 0.863743125 0.6552781249999999
vt 0.509635 0.49085187500000005
vt 0.863743125 0.6552781249999999
vt 0.66441875 0.7607825
vt 0.622825625 0.6861493750000001
vt 0.66441875 0.7607825
vt 0.351771875 0.8125
vt 0.622825625 0.6861493750000001
vt 0.351771875 0.8125
vt 0.44688 0.433365625
vt 0.863743125 0.6552781249999999
vt 0.21881875 0.17671000000000003
vt 0.218590625 0.39548249999999996
vt 0.509635 0.49085187500000005
vt 0.218590625 0.39548249999999996
vt 0.351771875 0.8125
vt 0.509635 0.49085187500000005
vt 0.351771875 0.8125
vt 0.218590625 0.39548249999999996
vt 0.44688 0.433365625
vt 0.218590625 0.39548249999999996
vt 0.21881875 0.17671000000000003
vt 0.44688 0.433365625
vt 0.863743125 0.6552781249999999
vt 0.411008125 0.294170625
vt 0.509635 0.49085187500000005
vt 0.411008125 0.294170625
vt 0.21881875 0.17671000000000003
vt 0.509635 0.49085187500000005
vt 0.21881875 0.17671000000000003
vt 0.411008125 0.294170625
vt 0.542785 0.18122187499999998
vt 0.542785 0.18122187499999998
vt 0.44688 0.433365625
vt 0.21881875 0.17671000000000003
vt 0.411008125 0.294170625
vt 0.863743125 0.6552781249999999
vt 0.542785 0.18122187499999998
vt 0.863743125 0.6552781249999999
vt 0.44688 0.433365625
vt 0.542785 0.18122187499999998
vt 0.622825625 0.6861493750000001
vt 0.44688 0.433365625
vt 0.863743125 0.6552781249999999
vn 0.06420812422888532 -0.09834240366879603 -0.9930790947470658
vn 0.1031275039526704 -0.12004688421841399 -0.9873973179616922
vn 0.3263136767531872 0.8045077477747025 0.496272775935062
vn 0.09925361201128373 0.8805400688089403 0.4634629518361314
vn 0.17147729186917554 0.8082363394626171 0.5633378719252621
vn -0.05751135396196843 -0.1303095977086261 -0.9898039467038295
vn -0.04925016506260669 -0.15475548429688368 -0.9867244606886681
vn -0.7926141239315252 0.3406919686652241 0.5056597996986464
vn -0.8002436137387593 0.07827296708873334 0.5945447849350438
vn 0.1887598893135477 -0.30142805158594743 -0.9346180149683809
vn 0.0814964671795016 -0.2542182844436291 -0.963707107835051
vn 0.3340401659444112 -0.6273233942158027 -0.703478874313504
vn -0.2072307362605156 -0.57401931651623 0.7921851085542855
vn 0.40377306121326234 -0.5500359504840195 -0.731045667666263
vn 0.702633892460126 -0.2446548965665021 0.6681688370108009
vn 0.37424463917695683 0.6108669083004534 0.6976980510154481
usemtl m_0da74c4d-e66f-b5d7-dc29-ad6aa48a17dd
f 1/1/1 2/2/1 3/3/1
f 2/4/2 4/5/2 3/6/2
f 4/7/3 2/8/3 5/9/3
f 2/10/4 1/11/4 5/12/4
f 1/13/5 6/14/5 4/15/5
f 7/16/6 8/17/6 3/18/6
f 8/19/7 1/20/7 3/21/7
f 1/22/8 8/23/8 6/24/8
f 8/25/9 7/26/9 6/27/9
f 4/28/10 9/29/10 3/30/10
f 9/31/11 7/32/11 3/33/11
f 7/34/12 9/35/12 10/36/12
f 10/37/13 6/38/13 7/39/13
f 9/40/14 4/41/14 10/42/14
f 4/43/15 6/44/15 10/45/15
f 5/46/16 6/47/16 4/48/16
o cone
v 0.2800481250000002 0.7236493750000003 0.037935000000000385
v 0.3624262500000002 0.6699050000000002 0.06114750000000024
v 0.26491937500000023 0.6172468750000002 0.05960000000000021
v 0.49231062500000017 0.4936850000000002 0.15155125000000025
v 0.47015687500000014 0.9576781250000003 0.2717756250000003
v 0.22662062500000021 0.6943956250000002 0.15107625000000025
v 0.3229306250000002 0.8693031250000002 0.2785887500000003
v 0.33877187500000017 0.6569962500000001 0.3636725000000003
v 0.4955743750000002 0.6126568750000001 0.3491725000000002
v 0.3441893750000002 0.5477887500000003 0.30345187500000026
v 0.37862562500000013 0.5001950000000002 0.1399781250000003
v 0.6643437500000001 0.6278512500000001 0.33421500000000026
v 0.48454875000000014 0.7440400000000001 0.37273875000000034
v 0.4867718750000002 0.6253087500000002 0.18160750000000014
vt 0.562804375 0.621105
vt 0.637105 0.5693675
vt 0.54787875 0.52088
vt 0.637105 0.5693675
vt 0.75352125 0.394774375
vt 0.54787875 0.52088
vt 0.637105 0.5693675
vt 0.562804375 0.621105
vt 0.72596125 0.850161875
vt 0.49990125 0.587371875
vt 0.562804375 0.621105
vt 0.54787875 0.52088
vt 0.562804375 0.621105
vt 0.49990125 0.587371875
vt 0.576285625 0.757871875
vt 0.576285625 0.757871875
vt 0.72596125 0.850161875
vt 0.562804375 0.621105
vt 0.49990125 0.587371875
vt 0.585534375 0.53406875
vt 0.576285625 0.757871875
vt 0.585534375 0.53406875
vt 0.72596125 0.850161875
vt 0.576285625 0.757871875
vt 0.747824375 0.488935625
vt 0.585534375 0.53406875
vt 0.5985575 0.42930875
vt 0.585534375 0.53406875
vt 0.54787875 0.52088
vt 0.5985575 0.42930875
vt 0.5985575 0.42930875
vt 0.54787875 0.52088
vt 0.64698375 0.4030775
vt 0.54787875 0.52088
vt 0.75352125 0.394774375
vt 0.64698375 0.4030775
vt 0.75352125 0.394774375
vt 0.5985575 0.42930875
vt 0.64698375 0.4030775
vt 0.747824375 0.488935625
vt 0.75352125 0.394774375
vt 0.921340625 0.505139375
vt 0.921340625 0.505139375
vt 0.735276875 0.6239718750000001
vt 0.747824375 0.488935625
vt 0.72596125 0.850161875
vt 0.735276875 0.6239718750000001
vt 0.921340625 0.505139375
vt 0.75352125 0.394774375
vt 0.637105 0.5693675
vt 0.747033125 0.517334375
vt 0.637105 0.5693675
vt 0.72596125 0.850161875
vt 0.747033125 0.517334375
vt 0.75352125 0.394774375
vt 0.747033125 0.517334375
vt 0.921340625 0.505139375
vt 0.747033125 0.517334375
vt 0.72596125 0.850161875
vt 0.921340625 0.505139375
vt 0.585534375 0.53406875
vt 0.49990125 0.587371875
vt 0.54787875 0.52088
vt 0.585534375 0.53406875
vt 0.747824375 0.488935625
vt 0.735276875 0.6239718750000001
vt 0.75352125 0.394774375
vt 0.747824375 0.488935625
vt 0.5985575 0.42930875
vt 0.735276875 0.6239718750000001
vt 0.72596125 0.850161875
vt 0.585534375 0.53406875
vn 0.13186785005579255 -0.21574655934289458 -0.9675041561943629
vn 0.1934989629024618 -0.3311612595161671 -0.9235206394831345
vn 0.47858867627920715 0.3948474666277128 -0.7842501877812934
vn -0.907724951981889 0.04410819390115934 -0.41724079232531314
vn -0.7799232173749975 0.5872538461424601 -0.21645483406549434
vn -0.48769890398043647 0.7826515894496854 -0.3867896955558181
vn -0.8677835663967323 0.12771485572370825 0.48025055702127073
vn -0.1708787798936929 0.3555139475123137 0.9189179918285718
vn -0.05619375777489522 -0.4842550857124039 0.873120423280093
vn -0.9485848639331828 -0.18762677955836896 0.2549175308004939
vn -0.7315192444012618 -0.6803999175249806 0.04399485541067998
vn 0.0560784264149834 -0.5275920481003786 -0.8476448789865171
vn -0.08179406945072865 -0.9614112133400207 0.26267510172598973
vn 0.12187568515039698 -0.8512301443417566 0.5104444717430426
vn 0.10197383913080053 -0.16733523848899468 0.9806121833287393
vn 0.4357760389765171 0.4084031665864403 0.8020636492050401
vn 0.7171488297421973 0.18369177769500153 -0.672275900807583
vn 0.7182170440279911 0.21539896521398919 -0.6616400558101342
vn 0.637396286599883 0.1969299779944489 -0.7449460098529193
vn 0.6320596861428187 0.23216664662572403 -0.7393234754473901
vn -0.7080992248516781 -0.6573265004266978 0.2579095957913224
vn 0.042083800908105394 -0.1729736987283907 0.9840269575826402
vn 0.2081206374036739 -0.8394839584631635 0.5019486863910556
vn -0.28898865025940595 0.3930640338860128 0.8729182237108482
usemtl m_0da74c4d-e66f-b5d7-dc29-ad6aa48a17dd
f 11/49/17 12/50/17 13/51/17
f 12/52/18 14/53/18 13/54/18
f 12/55/19 11/56/19 15/57/19
f 16/58/20 11/59/20 13/60/20
f 11/61/21 16/62/21 17/63/21
f 17/64/22 15/65/22 11/66/22
f 16/67/23 18/68/23 17/69/23
f 18/70/24 15/71/24 17/72/24
f 19/73/25 18/74/25 20/75/25
f 18/76/26 13/77/26 20/78/26
f 20/79/27 13/80/27 21/81/27
f 13/82/28 14/83/28 21/84/28
f 14/85/29 20/86/29 21/87/29
f 19/88/30 14/89/30 22/90/30
f 22/91/31 23/92/31 19/93/31
f 15/94/32 23/95/32 22/96/32
f 14/97/33 12/98/33 24/99/33
f 12/100/34 15/101/34 24/102/34
f 14/103/35 24/104/35 22/105/35
f 24/106/36 15/107/36 22/108/36
f 18/109/37 16/110/37 13/111/37
f 18/112/38 19/113/38 23/114/38
f 14/115/39 19/116/39 20/117/39
f 23/118/40 15/119/40 18/120/40
o cone
v 0.33261625000000017 0.7585875000000002 0.30509812500000033
v 0.3631975000000002 0.6900287500000002 0.2769606250000003
v 0.23705062500000018 0.6699712500000002 0.26414312500000015
v 0.026687500000000114 0.5893650000000001 0.3800675000000001
v 0.3803543750000002 0.4852031250000002 0.27453937500000025
v 0.28719062500000014 0.4135600000000001 0.44779812500000027
v 0.2483975000000001 0.4207137500000001 0.5408425000000001
v 0.27523625000000007 0.5439981250000001 0.5447318750000001
v 0.3293300000000001 0.5993900000000001 0.4026668750000002
v 0.1446037500000001 0.6388593750000001 0.4669237500000001
vt 0.340685625 0.6087162500000001
vt 0.373045625 0.544206875
vt 0.25649 0.5265206250000001
vt 0.25649 0.5265206250000001
vt 0.039805625 0.44038437500000005
vt 0.340685625 0.6087162500000001
vt 0.373045625 0.544206875
vt 0.390820625 0.35233749999999997
vt 0.25649 0.5265206250000001
vt 0.390820625 0.35233749999999997
vt 0.039805625 0.44038437500000005
vt 0.25649 0.5265206250000001
vt 0.390820625 0.35233749999999997
vt 0.28497375 0.258798125
vt 0.039805625 0.44038437500000005
vt 0.28497375 0.258798125
vt 0.233335 0.24944812500000002
vt 0.039805625 0.44038437500000005
vt 0.25777125 0.37369375000000005
vt 0.233335 0.24944812500000002
vt 0.328999375 0.446128125
vt 0.233335 0.24944812500000002
vt 0.25777125 0.37369375000000005
vt 0.1361525 0.48000062499999996
vt 0.1361525 0.48000062499999996
vt 0.039805625 0.44038437500000005
vt 0.233335 0.24944812500000002
vt 0.25777125 0.37369375000000005
vt 0.340685625 0.6087162500000001
vt 0.1361525 0.48000062499999996
vt 0.340685625 0.6087162500000001
vt 0.039805625 0.44038437500000005
vt 0.1361525 0.48000062499999996
vt 0.28497375 0.258798125
vt 0.390820625 0.35233749999999997
vt 0.328999375 0.446128125
vt 0.340685625 0.6087162500000001
vt 0.25777125 0.37369375000000005
vt 0.328999375 0.446128125
vt 0.390820625 0.35233749999999997
vt 0.373045625 0.544206875
vt 0.328999375 0.446128125
vt 0.233335 0.24944812500000002
vt 0.28497375 0.258798125
vt 0.328999375 0.446128125
vt 0.373045625 0.544206875
vt 0.340685625 0.6087162500000001
vt 0.328999375 0.446128125
vn 0.031218186275082334 0.3913826262929766 -0.9196983552674793
vn -0.5161003014993472 0.7487822705866775 -0.4158913199951913
vn 0.0979247009300897 0.019964347733831416 -0.99499355664613
vn -0.3572372886531851 -0.32631067935428903 -0.8751587628168179
vn -0.38045666434211567 -0.7643281842366555 -0.5206295740151226
vn -0.5247836459756227 -0.837108844968817 -0.15443738728528666
vn 0.9378510702749474 -0.21281631063966677 0.27412513184649223
vn -0.4698056108228068 0.07452549670236756 0.879618461823463
vn -0.5909225677663842 -0.007813681059066359 0.8066904395694116
vn 0.12226790010666941 0.7246452117292851 0.6781886741322988
vn -0.4579252613471361 0.8808938858994121 0.11970971892536862
vn 0.8926511114312227 -0.0954317697484145 0.44053010179020524
vn 0.871052798707773 0.24347337116201395 0.42660021026525585
vn 0.9477373943683937 0.07572187621314133 0.30993552358284066
vn 0.9140141647655476 -0.11261130789654222 0.3897394000377288
vn 0.8856061673991668 0.2292639333855354 0.4039056388726855
usemtl m_0da74c4d-e66f-b5d7-dc29-ad6aa48a17dd
f 25/121/41 26/122/41 27/123/41
f 27/124/42 28/125/42 25/126/42
f 26/127/43 29/128/43 27/129/43
f 29/130/44 28/131/44 27/132/44
f 29/133/45 30/134/45 28/135/45
f 30/136/46 31/137/46 28/138/46
f 32/139/47 31/140/47 33/141/47
f 31/142/48 32/143/48 34/144/48
f 34/145/49 28/146/49 31/147/49
f 32/148/50 25/149/50 34/150/50
f 25/151/51 28/152/51 34/153/51
f 30/154/52 29/155/52 33/156/52
f 25/157/53 32/158/53 33/159/53
f 29/160/54 26/161/54 33/162/54
f 31/163/55 30/164/55 33/165/55
f 26/166/56 25/167/56 33/168/56
o cone
v 0.6631656250000002 0.7307293750000002 0.21091937500000035
v 0.9882025000000002 0.6974106250000002 0.18751812500000042
v 0.8283968750000001 0.5225962500000002 0.1891668750000003
v 0.9449356250000003 0.6303518750000002 0.2052725000000003
v 0.9640387500000002 0.6471012500000002 0.31259937500000035
v 0.82964625 0.3873200000000001 0.47909625000000033
v 0.5294881250000002 0.31446375000000015 0.24616937500000025
v 0.5294881250000002 0.45889562500000014 0.24616937500000025
v 0.7305787500000003 0.3938343750000002 0.2201906250000002
v 0.8903925 0.3327156250000002 0.3286475000000003
vt 0.682468125 0.606140625
vt 1 0.5735756249999999
vt 0.83876875 0.40441875000000005
vt 1 0.5735756249999999
vt 0.95713125 0.506519375
vt 0.83876875 0.40441875000000005
vt 0.95713125 0.506519375
vt 1 0.5735756249999999
vt 0.989844375 0.513809375
vt 0.989844375 0.513809375
vt 0.85841375 0.22300624999999996
vt 0.95713125 0.506519375
vt 1 0.5735756249999999
vt 0.682468125 0.606140625
vt 0.989844375 0.513809375
vt 0.682468125 0.606140625
vt 0.85841375 0.22300624999999996
vt 0.989844375 0.513809375
vt 0.54854375 0.20017937500000005
vt 0.549075 0.3377325
vt 0.83876875 0.40441875000000005
vt 0.549075 0.3377325
vt 0.682468125 0.606140625
vt 0.83876875 0.40441875000000005
vt 0.95713125 0.506519375
vt 0.74311625 0.277983125
vt 0.83876875 0.40441875000000005
vt 0.74311625 0.277983125
vt 0.54854375 0.20017937500000005
vt 0.83876875 0.40441875000000005
vt 0.54854375 0.20017937500000005
vt 0.74311625 0.277983125
vt 0.9061125 0.19774250000000004
vt 0.9061125 0.19774250000000004
vt 0.85841375 0.22300624999999996
vt 0.54854375 0.20017937500000005
vt 0.74311625 0.277983125
vt 0.95713125 0.506519375
vt 0.9061125 0.19774250000000004
vt 0.95713125 0.506519375
vt 0.85841375 0.22300624999999996
vt 0.9061125 0.19774250000000004
vt 0.85841375 0.22300624999999996
vt 0.989844375 0.513809375
vt 0.9061125 0.19774250000000004
vt 0.682468125 0.606140625
vt 0.549075 0.3377325
vt 0.85841375 0.22300624999999996
vt 0.549075 0.3377325
vt 0.54854375 0.20017937500000005
vt 0.85841375 0.22300624999999996
vn -0.06647534582106394 0.05136999060672498 -0.9964648275092478
vn 0.5809082268765035 -0.5368049652373573 -0.6118709514625748
vn 0.831156709393787 -0.5526045757771734 -0.06169851910558662
vn 0.864744472374041 -0.49635843801706075 -0.07645455191030535
vn 0.12165629676912626 0.9125168668441409 0.3905287610168745
vn -0.11302245392621701 0.5769276624173976 0.8089378203830585
vn -0.18732616106748648 2.4047906814107756e-16 -0.9822977702202719
vn -0.17906874069532924 -0.039417224591905574 -0.9830466258073726
vn 0.620426237259496 -0.5945540643750342 -0.5114457436084022
vn -0.047653744136643764 -0.19960912724498295 -0.9787161575197662
vn 0.1912843877767343 -0.7073590043429661 -0.6804803611918627
vn -0.027953481426879475 -0.9432018335210158 0.33104214855318825
vn 0.39821161961580204 -0.41257589369942876 -0.8192732376570575
vn 0.9255725227924899 -0.012781131666592307 0.3783545265024155
vn -0.8858582252441798 0.1858155663739555 -0.42512090052167345
vn -0.5185186672635455 0.35581242745000163 0.7775190725450882
vn -0.6130719738378801 -1.9340873700178928e-16 0.790027059596395
usemtl m_0da74c4d-e66f-b5d7-dc29-ad6aa48a17dd
f 35/169/57 36/170/57 37/171/57
f 36/172/58 38/173/58 37/174/58
f 38/175/59 36/176/59 39/177/59
f 39/178/60 40/179/60 38/180/60
f 36/181/61 35/182/61 39/183/61
f 35/184/62 40/185/62 39/186/62
f 41/187/63 42/188/63 37/189/63
f 42/190/64 35/191/64 37/192/64
f 38/193/65 43/194/65 37/195/65
f 43/196/66 41/197/66 37/198/66
f 41/199/67 43/200/67 44/201/67
f 44/202/68 40/203/68 41/204/68
f 43/205/69 38/206/69 44/207/69
f 38/208/70 40/209/70 44/210/70
f 40/211/71 39/212/71 44/213/71
f 35/214/72 42/215/72 40/216/72
f 42/217/73 41/218/73 40/219/73
o cone
v 0.5611337500000002 0.4790168750000002 0.2096743750000003
v 0.5448281250000002 0.15774500000000022 0.14782437500000012
v 0.36224750000000017 0.3024662500000002 0.19049250000000018
v 0.4817600000000002 0.13146375000000018 0.1704881250000001
v 0.5090000000000001 0.16247000000000017 0.2799393750000001
v 0.2641643750000001 0.2553481250000001 0.4913587500000002
v 0.14512250000000015 0.5755075000000002 0.3097412500000001
v 0.2881825000000002 0.5864200000000003 0.2931481250000002
v 0.23264750000000017 0.38571500000000014 0.24866500000000014
v 0.19514562500000013 0.20961750000000018 0.34152000000000005
vt 0.44083625 0.824158125
vt 0.4250825 0.535786875
vt 0.25102375 0.6616175
vt 0.4250825 0.535786875
vt 0.365384375 0.5074937500000001
vt 0.25102375 0.6616175
vt 0.365384375 0.5074937500000001
vt 0.4250825 0.535786875
vt 0.3866225 0.509146875
vt 0.3866225 0.509146875
vt 0.119646875 0.550605625
vt 0.365384375 0.5074937500000001
vt 0.4250825 0.535786875
vt 0.44083625 0.824158125
vt 0.3866225 0.509146875
vt 0.44083625 0.824158125
vt 0.119646875 0.550605625
vt 0.3866225 0.509146875
vt 0.019918125 0.909426875
vt 0.165223125 0.921389375
vt 0.25102375 0.6616175
vt 0.165223125 0.921389375
vt 0.44083625 0.824158125
vt 0.25102375 0.6616175
vt 0.165223125 0.921389375
vt 0.019918125 0.909426875
vt 0.119646875 0.550605625
vt 0.365384375 0.5074937500000001
vt 0.11946625 0.7310375
vt 0.25102375 0.6616175
vt 0.11946625 0.7310375
vt 0.019918125 0.909426875
vt 0.25102375 0.6616175
vt 0.019918125 0.909426875
vt 0.11946625 0.7310375
vt 0.072835 0.543055625
vt 0.072835 0.543055625
vt 0.119646875 0.550605625
vt 0.019918125 0.909426875
vt 0.11946625 0.7310375
vt 0.365384375 0.5074937500000001
vt 0.072835 0.543055625
vt 0.365384375 0.5074937500000001
vt 0.119646875 0.550605625
vt 0.072835 0.543055625
vt 0.44083625 0.824158125
vt 0.165223125 0.921389375
vt 0.119646875 0.550605625
vn -0.07627645746267128 0.19222553813510712 -0.9783819522689561
vn -0.2998931087416388 -0.09859233408263937 -0.948864413385502
vn 0.42507144952264625 -0.893107887587233 0.1472160450840421
vn -0.10530496535475312 -0.9496080795512833 0.2952208656625706
vn 0.9594486661181516 -0.09947123079522206 0.26374937218538275
vn 0.6646144531534581 0.05593141430704345 0.7450901325028695
vn -0.1326942771456038 0.30618777973837924 -0.9426777139360448
vn -0.17133021286297145 0.2951312661729263 -0.9399699430766361
vn 0.06069372235728892 0.509479390140256 0.8583396898016131
vn -0.53827378561306 -0.2833453209211426 -0.7937107538857465
vn -0.3215505976543891 0.15245295269140055 -0.9345390897997681
vn -0.7732166726461139 -0.15902861895620246 -0.6138777366014796
vn -0.8950135561761325 -0.08432153201867182 0.43799613411419164
vn -0.5476963339658346 -0.296004048962038 -0.7825665011732003
vn -0.06714256309716142 -0.9452343743296059 0.31941173085292685
vn 0.41727820338295235 0.4443384025745091 0.7927435177779942
usemtl m_0da74c4d-e66f-b5d7-dc29-ad6aa48a17dd
f 45/220/74 46/221/74 47/222/74
f 46/223/75 48/224/75 47/225/75
f 48/226/76 46/227/76 49/228/76
f 49/229/77 50/230/77 48/231/77
f 46/232/78 45/233/78 49/234/78
f 45/235/79 50/236/79 49/237/79
f 51/238/80 52/239/80 47/240/80
f 52/241/81 45/242/81 47/243/81
f 52/244/82 51/245/82 50/246/82
f 48/247/83 53/248/83 47/249/83
f 53/250/84 51/251/84 47/252/84
f 51/253/85 53/254/85 54/255/85
f 54/256/86 50/257/86 51/258/86
f 53/259/87 48/260/87 54/261/87
f 48/262/88 50/263/88 54/264/88
f 45/265/89 52/266/89 50/267/89
o mesh
v 2.220446049250313e-16 1.0000000000000002 2.220446049250313e-16
v 1.0000000000000002 1.0000000000000002 4.440892098500626e-16
v 1.0000000000000002 2.4481280059014296e-16 2.220446049250313e-16
v 2.220446049250313e-16 2.44812800590143e-16 0
v 1 1.0000000000000002 0.5000000000000004
v 1.1102230246251565e-16 1.0000000000000002 0.5000000000000002
v 1 1.2240640029507146e-16 0.5000000000000002
v 1.1102230246251565e-16 1.224064002950715e-16 0.5
v 0.5737893750000002 0.17133687500000017 0.3740262500000001
v 0.5000000000000001 0.09375000000000012 0.5000000000000001
v 0.7387875000000002 0.1713368750000001 0.5000000000000002
v 0.26121250000000007 0.1713368750000001 0.5000000000000001
v 0.11363312500000011 0.6255381250000001 0.5000000000000002
v 0.11363312500000011 0.3744618750000001 0.5000000000000001
v 0.38060625000000015 0.3744618750000002 0.1950431250000002
v 0.38060625000000015 0.6880381250000002 0.22629312500000032
v 0.3068168750000001 0.8286631250000001 0.3835168750000003
v 0.26121250000000007 0.8286631250000001 0.5000000000000002
v 0.4262106250000002 0.8286631250000002 0.31152625000000034
v 0.5000000000000001 0.9062500000000001 0.5000000000000003
v 0.8863668750000001 0.3744618750000001 0.5000000000000003
v 0.6193937500000002 0.3744618750000002 0.1950431250000002
v 0.8863668750000001 0.6880381250000001 0.5000000000000004
v 0.6193937500000001 0.6255381250000002 0.2575431250000002
v 0.7387875000000002 0.8286631250000001 0.5000000000000004
v 0.5737893750000002 0.8286631250000002 0.31152625000000034
v 0.6931831250000001 0.8286631250000001 0.3835168750000003
v 1 1.2240640029507146e-16 0.5000000000000002
v 0.7387875000000002 0.1713368750000001 0.5000000000000002
v 0.5000000000000001 0.09375000000000012 0.5000000000000001
v 0.6931831250000001 0.17133687500000014 0.3835168750000001
vt 0 1
vt 1 1
vt 1 0
vt 0 0
vt 0.5 0
vt 1 0
vt 1 1
vt 0.5 1
vt 0 0.5
vt 1 0.5
vt 1 1
vt 0 1
vt 1 0
vt 1 1
vt 0.5 1
vt 0.5 0
vt 0 1
vt 0.5 1
vt 0.5 0
vt 0 0
vt 0.584375 0.21514437500000005
vt 0.5078125 0.125
vt 0.7375 0.18509624999999996
vt 0.584375 0.21514437500000005
vt 0.278125 0.20011999999999996
vt 0.5078125 0.125
vt 0.125 0.6358174999999999
vt 0.125 0.38040874999999996
vt 0.4159375 0.42548062499999995
vt 0.4159375 0.680889375
vt 0 0.7600125
vt 0.147575 0.7600125
vt 0 0.7600125
vt 1 1
vt 0.010754375 0.99485875
vt 0.50163375 0.903565
vt 0.010754375 0.99485875
vt 0.2676825 0.82576125
vt 0.50163375 0.903565
vt 0.501578125 0.11546687499999997
vt 0.0273125 0.031906250000000025
vt 0.982803125 0.02271500000000004
vt 0.278125 0.20011999999999996
vt 0.4159375 0.42548062499999995
vt 0.125 0.38040874999999996
vt 0.584375 0.21514437500000005
vt 0.7375 0.18509624999999996
vt 0.890625 0.38040874999999996
vt 0.615 0.42548062499999995
vt 0.278125 0.20011999999999996
vt 0.584375 0.21514437500000005
vt 0.615 0.42548062499999995
vt 0.4159375 0.42548062499999995
vt 0.615 0.42548062499999995
vt 0.890625 0.38040874999999996
vt 0.890625 0.69591375
vt 0.615 0.6358174999999999
vt 0.619496875 0.6358625
vt 0.61538 0.428089375
vt 0.416660625 0.427955
vt 0.414075625 0.6875
vt 0.2628125 0.83113
vt 0.125 0.6358174999999999
vt 0.4159375 0.680889375
vt 0.4465625 0.8161056250000001
vt 0.4159375 0.680889375
vt 0.890625 0.69591375
vt 0.7375 0.83113
vt 0.4465625 0.8161056250000001
vt 0 0.7600125
vt 0.147575 0.7600125
vt 0.0737875 1
vt 0 0.7600125
vt 0.0737875 1
vt 0.147575 0.7600125
vt 0.5078125 0.90625
vt 0.2628125 0.83113
vt 0.4465625 0.8161056250000001
vt 0.147575 0.7600125
vt 0 0.7600125
vt 0.147575 0.7600125
vt 0.4465625 0.8161056250000001
vt 0.7375 0.83113
vt 0.5078125 0.90625
vt 0.615 0.6358174999999999
vt 0.890625 0.69591375
vt 0.4159375 0.680889375
vt 0.982803125 0.02271500000000004
vt 0.731879375 0.18717812499999997
vt 0.501578125 0.11546687499999997
vt 0.584375 0.21514437500000005
vt 0.6915625 0.21514437500000005
vt 0.7375 0.18509624999999996
vt 1 1
vt 0.881838125 0.687688125
vt 0.8776725 0.3811675
vt 0.982803125 0.02271500000000004
vt 0.73725875 0.826975
vt 0.881838125 0.687688125
vt 1 1
vt 0.501578125 0.11546687499999997
vt 0.27289625 0.19046125000000003
vt 0.0273125 0.031906250000000025
vt 0.731879375 0.18717812499999997
vt 0.982803125 0.02271500000000004
vt 0.8776725 0.3811675
vt 0.27289625 0.19046125000000003
vt 0.129793125 0.3843025
vt 0.0273125 0.031906250000000025
vt 0.0273125 0.031906250000000025
vt 0.129793125 0.3843025
vt 0.126574375 0.626413125
vt 0.010754375 0.99485875
vt 0.126574375 0.626413125
vt 0.2676825 0.82576125
vt 0.010754375 0.99485875
vt 0.50163375 0.903565
vt 0.73725875 0.826975
vt 1 1
vn 2.220446049250313e-16 2.44812800590143e-16 -1
vn -5.055555011315539e-33 1 2.44812800590143e-16
vn 5.055555011315539e-33 -1 -2.44812800590143e-16
vn 1 -5.435936158762878e-32 2.220446049250313e-16
vn -1 5.435936158762878e-32 -2.220446049250313e-16
vn -0.28644434296689375 0.8815837542910077 0.3751795870678964
vn 0.2452270662156443 0.7547302049988247 0.6084784331902818
vn 0.7524105531617378 -1.6125682951246235e-16 0.658694435600338
vn -5.055555011315539e-33 1 2.44812800590143e-16
vn -2.220446049250313e-16 -2.44812800590143e-16 1
vn -2.220446049250313e-16 -2.44812800590143e-16 1
vn -2.220446049250313e-16 -2.44812800590143e-16 1
vn 0.6602030954959299 0.4796670040928227 0.5779718313916415
vn -0.5552646798051888 0.4034245632257221 0.7272755716693478
vn 0.3014333249149735 0.5913716093967099 0.7479422238584004
vn -0.752410553161738 -1.6125682951246228e-16 0.6586944356003377
vn 2.1546912903823714e-16 0.24155677041497636 -0.97038668924645
vn 0.6767970253820268 -0.4917232344996364 0.5478631645650726
vn -0.4257908421462599 -0.4468476185931994 0.7867841918226152
vn 8.452484422223652e-17 0.9247125786381468 -0.3806660569428134
vn -0.29829476869984695 -0.918055561342233 0.2611402252716008
vn 0.29829476869984684 -0.918055561342233 0.261140225271601
vn 5.055555011315539e-33 -1 -2.44812800590143e-16
vn -0.27500551401326184 -0.8463787100259125 0.45608666553317917
vn -0.2794511882402565 -0.809483673176262 0.5163750732289227
vn -2.220446049250313e-16 -2.44812800590143e-16 1
vn 5.055555011315539e-33 -1 -2.44812800590143e-16
vn -2.220446049250313e-16 -2.44812800590143e-16 1
vn -2.220446049250313e-16 -2.44812800590143e-16 1
vn -2.220446049250313e-16 -2.44812800590143e-16 1
vn -2.220446049250313e-16 -2.44812800590143e-16 1
vn -2.220446049250313e-16 -2.44812800590143e-16 1
vn -2.220446049250313e-16 -2.44812800590143e-16 1
vn -2.220446049250313e-16 -2.44812800590143e-16 1
vn -2.220446049250313e-16 -2.44812800590143e-16 1
usemtl m_507b2528-38f3-927e-29a8-b24b31e0700c
f 55/268/90 56/269/90 57/270/90 58/271/90
f 59/272/91 56/273/91 55/274/91 60/275/91
f 58/276/92 57/277/92 61/278/92 62/279/92
f 57/280/93 56/281/93 59/282/93 61/283/93
f 60/284/94 55/285/94 58/286/94 62/287/94
usemtl m_2de4d07d-e2cd-f36c-413f-1fbda143f89d
f 63/288/95 64/289/95 65/290/95
f 63/291/96 66/292/96 64/293/96
f 67/294/97 68/295/97 69/296/97 70/297/97
usemtl m_507b2528-38f3-927e-29a8-b24b31e0700c
f 71/298/98 72/299/98 73/300/98
usemtl m_e52d179f-7e60-d829-4742-2a2965b72ff5
f 59/301/99 60/302/99 74/303/99
f 60/304/100 72/305/100 74/306/100
f 64/307/101 62/308/101 61/309/101
usemtl m_2de4d07d-e2cd-f36c-413f-1fbda143f89d
f 66/310/102 69/311/102 68/312/102
f 63/313/103 65/314/103 75/315/103 76/316/103
f 66/317/104 63/318/104 76/319/104 69/320/104
f 76/321/105 75/322/105 77/323/105 78/324/105
f 78/325/106 76/326/106 69/327/106 70/328/106
f 72/329/107 67/330/107 70/331/107 73/332/107
f 70/333/108 77/334/108 79/335/108 73/336/108
usemtl m_507b2528-38f3-927e-29a8-b24b31e0700c
f 80/337/109 73/338/109 74/339/109
f 79/340/110 74/341/110 80/342/110
usemtl m_2de4d07d-e2cd-f36c-413f-1fbda143f89d
f 74/343/111 72/344/111 73/345/111
usemtl m_507b2528-38f3-927e-29a8-b24b31e0700c
f 81/346/112 79/347/112 80/348/112
usemtl m_2de4d07d-e2cd-f36c-413f-1fbda143f89d
f 73/349/113 79/350/113 74/351/113
f 78/352/114 77/353/114 70/354/114
usemtl m_e52d179f-7e60-d829-4742-2a2965b72ff5
f 82/355/115 83/356/115 84/357/115
usemtl m_2de4d07d-e2cd-f36c-413f-1fbda143f89d
f 63/358/116 85/359/116 65/360/116
usemtl m_e52d179f-7e60-d829-4742-2a2965b72ff5
f 59/361/117 77/362/117 75/363/117 61/364/117
f 79/365/118 77/366/118 59/367/118
f 64/368/119 66/369/119 62/370/119
f 65/371/120 61/372/120 75/373/120
f 66/374/121 68/375/121 62/376/121
f 62/377/122 68/378/122 67/379/122 60/380/122
f 67/381/123 72/382/123 60/383/123
f 74/384/124 79/385/124 59/386/124