# Made in Blockbench 5.1.1
mtllib bedrock_brace0.mtl

o cube
v 1 1 1
v 1 1 0
v 1 0 1
v 1 0 0
v 0 1 0
v 0 1 1
v 0 0 0
v 0 0 1
vt 0 1
vt 1 1
vt 1 0
vt 0 0
vt 0 1
vt 1 1
vt 1 0
vt 0 0
vt 0 1
vt 1 1
vt 1 0
vt 0 0
vt 0 1
vt 1 1
vt 1 0
vt 0 0
vt 0 1
vt 1 1
vt 1 0
vt 0 0
vt 0 1
vt 1 1
vt 1 0
vt 0 0
vn 0 0 -1
vn 1 0 0
vn 0 0 1
vn -1 0 0
vn 0 1 0
vn 0 -1 0
usemtl m_036d7fdc-7a97-97b9-3d73-f66bb11c0487
f 4/4/1 7/3/1 5/2/1 2/1/1
f 3/8/2 4/7/2 2/6/2 1/5/2
f 8/12/3 3/11/3 1/10/3 6/9/3
f 7/16/4 8/15/4 6/14/4 5/13/4
usemtl m_6e015522-5818-3804-8864-aa6d22d0d162
f 6/20/5 1/19/5 2/18/5 5/17/5
usemtl m_036d7fdc-7a97-97b9-3d73-f66bb11c0487
f 7/24/6 4/23/6 3/22/6 8/21/6
o mesh
v 0.6177175528894989 1.0625 0.7989883507690227
v 0.7285939070367766 1.0625 0.7412697741146436
v 0.6465768412166885 1 0.8544265278426616
v 0.7574531953639663 1 0.7967079511882824
v 0.31469502545400785 1.0625 0.21688749149581477
v 0.42557137960128555 1.0625 0.15916891484143553
v 0.28583573712681826 1 0.16144931442217592
v 0.39671209127409596 1 0.10373073776779662
vt 0 1
vt 0.125 1
vt 0.125 0.9116125
vt 0 0.9116125
vt 0.625 0.7241124999999999
vt 0.625 0.8125
vt 0.5 0.8125
vt 0.5 0.7241124999999999
vt 0.34375 0.875
vt 1 0.875
vt 1 1
vt 0.34375 1
vt 0.96875 0.375
vt 0.96875 0.5
vt 0.1875 0.5
vt 0.1875 0.375
vt 0.96875 0.6875
vt 0.90625 0.75
vt 0.25 0.75
vt 0.1875 0.6875
vt 0.71875 1
vt 0.0625 1
vt 0 0.9375
vt 0.78125 0.9375
vn 0.3265055756219769 0.7071067811865476 0.6272113751262501
vn -0.3265055756219769 0.7071067811865476 -0.6272113751262501
vn 0 1 0
vn 0 -1 0
vn -0.8870108331782217 0 0.4617486132350339
vn 0.8870108331782217 0 -0.4617486132350339
usemtl m_e0929195-0e22-917e-6b06-fd5f0fd86210
f 10/25/7 9/26/7 11/27/7 12/28/7
f 15/29/8 13/30/8 14/31/8 16/32/8
f 13/33/9 9/34/9 10/35/9 14/36/9
f 12/37/10 11/38/10 15/39/10 16/40/10
f 11/41/11 9/42/11 13/43/11 15/44/11
f 14/45/12 10/46/12 12/47/12 16/48/12
o mesh
v 0.864583125 1.0625 0.5625
v 0.864583125 1.0625 0.4375
v 0.9375 0.9375 0.5625
v 0.9375 0.9375 0.4375
v 0.135416875 1.0625 0.5625
v 0.135416875 1.0625 0.4375
v 0.0625 0.9375 0.5625
v 0.0625 0.9375 0.4375
v 0.529469375 1.1875 0.4375125
v 0.514283125 1.1875 0.5625125
v 0.510261875 1.109375 0.4374875
v 0.5143575 1.109375 0.5624875
vt 0.125 0.875
vt 0 0.875
vt 0 0.7302875
vt 0.125 0.7302875
vt 0.005109375 0.75
vt 0.005113125 0.875
vt 0.404069375 0.875
vt 0.418484375 0.749999375
vt 0.642370625 0.875
vt 0.628066875 0.7498962499999999
vt 1 0.749903125
vt 1 0.8747987500000001
vt 0.6875125 0.22093125000000002
vt 0.8125125 0.22093125000000002
vt 0.8125 0.6837500000000001
vt 0.6875 0.6875
vt 0.375005625 0.6837212500000001
vt 0.25 0.6875
vt 0.25 0.198283125
vt 0.37498875 0.19828749999999995
vt 0.5625 0.6875
vt 0.98541875 0.4994925
vt 0.91265 0.62458
vt 0.5625 0.75
vt 0.0625 0.5005425
vt 0.514580625 0.6875
vt 0.514580625 0.75
vt 0.13556875 0.625455
vt 0.561439375 0.91286625
vt 0.984375 0.91286625
vt 0.93133375 1
vt 0.519583125 0.963096875
vt 0 0.880885625
vt 0.46346625 0.934615625
vt 0.46346625 1
vt 0.10642 0.97895125
vt 0 0.7302875
vt 0 0.875
vt 0.125 0.875
vt 0.125 0.7302875
vn 0.8637782743228517 0.5038720996521207 0
vn -0.31331899414586867 0.9496479389265378 0
vn 0.33580239648927984 0.9410485562582428 0.0407966331494826
vn -0.37632697883041194 -0.9264869157221677 0
vn 0.3554990798446436 -0.934604049861777 -0.011647927351109748
vn -0.000038713857852702353 -0.000022583148270506116 0.9999999989956193
vn 0.00014932929471927572 -0.00031985781857406936 0.999999937695867
vn -0.00003597110168496797 0.00002098320260140079 -0.9999999991328925
vn 0.00014377160668816645 0.00028465287159446857 -0.9999999491512328
vn -0.8637782743228517 0.5038720996521207 0
usemtl m_e0929195-0e22-917e-6b06-fd5f0fd86210
f 18/49/13 17/50/13 19/51/13 20/52/13
f 22/53/14 21/54/14 26/55/14 25/56/14
f 25/57/15 26/58/15 17/59/15 18/60/15
f 20/61/16 19/62/16 28/63/16 27/64/16
f 27/65/17 28/66/17 23/67/17 24/68/17
f 28/69/18 19/70/18 17/71/18 26/72/18
f 23/73/19 28/74/19 26/75/19 21/76/19
f 27/77/20 24/78/20 22/79/20 25/80/20
f 20/81/21 27/82/21 25/83/21 18/84/21
f 23/85/22 21/86/22 22/87/22 24/88/22