# Made in Blockbench 5.1.1
mtllib bedrock_brace2.mtl

o cube
v 1 1 1
v 1 1 0
v 1 0 1
v 1 0 0
v 0 1 0
v 0 1 1
v 0 0 0
v 0 0 1
vt 0 1
vt 1 1
vt 1 0
vt 0 0
vt 0 1
vt 1 1
vt 1 0
vt 0 0
vt 0 1
vt 1 1
vt 1 0
vt 0 0
vt 0 1
vt 1 1
vt 1 0
vt 0 0
vt 0 1
vt 1 1
vt 1 0
vt 0 0
vt 0 1
vt 1 1
vt 1 0
vt 0 0
vn 0 0 -1
vn 1 0 0
vn 0 0 1
vn -1 0 0
vn 0 1 0
vn 0 -1 0
usemtl m_036d7fdc-7a97-97b9-3d73-f66bb11c0487
f 4/4/1 7/3/1 5/2/1 2/1/1
f 3/8/2 4/7/2 2/6/2 1/5/2
f 8/12/3 3/11/3 1/10/3 6/9/3
f 7/16/4 8/15/4 6/14/4 5/13/4
usemtl m_0d24eb5d-c938-e79f-71b0-061fd0781b48
f 6/20/5 1/19/5 2/18/5 5/17/5
usemtl m_036d7fdc-7a97-97b9-3d73-f66bb11c0487
f 7/24/6 4/23/6 3/22/6 8/21/6
o mesh
v 0.875456760467437 0.9300843865240405 0.6808477101201108
v 0.5271098431122065 1.119582079330244 0.508378422161176
v 0.8284854065855907 0.6517372152708452 0.2681538242465389
v 0.48013837141782995 0.9662345082825594 0.09568464170832275
v 0.51986162858217 0.6587654917174406 0.9043153582916772
v 0.1715145934144094 0.9732627847291548 0.7318461757534611
v 0.472890355581304 0.3804177061124255 0.49162139083925754
v 0.12454323953256291 0.6949156134759595 0.3191522898798892
vt 0.5 0.5
vt 0.5 1
vt 0 1
vt 0 0.5
vt 0.5 0.5
vt 0.5 1
vt 0 1
vt 0 0.5
vt 0.5 0.5
vt 0.5 1
vt 0 1
vt 0 0.5
vt 0.5 1
vt 0 1
vt 0 0.5
vt 0.5 0.5
vt 0 0.5
vt 0.5 0.5
vt 0.5 1
vt 0 1
vt 0.5 1
vt 0 1
vt 0 0.5
vt 0.5 0.5
vn -0.711190310480424 -0.5426385740565018 0.44693592407042465
vn -0.09394282098809122 -0.5566941501766567 -0.8253886172851487
vn 0.6966938811770604 -0.6289949024592112 0.3449391955269385
vn 0.5914288726347816 0.635705595384726 -0.49607487802800754
vn -0.020827699033955233 0.6517406198991497 0.7581559017289407
vn -0.4991612172088396 0.8292619607530638 -0.251321864712512
usemtl m_55e87bc1-9170-4aea-78c8-0d88c3bf1da8
f 15/25/7 13/26/7 14/27/7 16/28/7
f 12/29/8 11/30/8 15/31/8 16/32/8
f 11/33/9 9/34/9 13/35/9 15/36/9
f 10/37/10 9/38/10 11/39/10 12/40/10
f 13/41/11 9/42/11 10/43/11 14/44/11
f 14/45/12 10/46/12 12/47/12 16/48/12
o mesh
v 0.864583125 1.0625 0.5625
v 0.864583125 1.0625 0.4375
v 0.9375 0.9375 0.5625
v 0.9375 0.9375 0.4375
v 0.135416875 1.0625 0.5625
v 0.135416875 1.0625 0.4375
v 0.0625 0.9375 0.5625
v 0.0625 0.9375 0.4375
v 0.31773125 1.034583125 0.562493125
v 0.288204375 1.0241375 0.43749375
v 0.694233125 1.036311875 0.562493125
v 0.7052031249999999 1.03095125 0.437493125
vt 0.625 0.75
vt 0.5 0.75
vt 0.5 0.6052875
vt 0.625 0.6052875
vt 0.625 0.6677875
vt 0.625 0.8125
vt 0.5 0.8125
vt 0.5 0.6677875
vt 0.25 0.47461687500000005
vt 0.25 0.198283125
vt 0.37498875 0.19828749999999995
vt 0.0625 0.5005425
vt 0.3178575 0.6061449999999999
vt 0.13556875 0.625455
vt 0.7474475 0.5930031250000001
vt 0.9354325 0.43635999999999997
vt 0.902448125 0.5772649999999999
vt 0.25 0.47461687500000005
vt 0.37498875 0.19828749999999995
vt 0.374996875 0.44302624999999995
vt 0.18362375 0.9375
vt 0.1575325 0.81130625
vt 0.000001875 0.81130625
vt 0 0.935125
vt 0.742280625 0.6075787500000001
vt 0.98541875 0.4994925
vt 0.91265 0.62458
vt 0.0625 0.568385625
vt 0.314495 0.5975993749999999
vt 0.16892 0.6664512499999999
vt 0.687505625 0.474664375
vt 0.6875125 0.22093125000000002
vt 0.8125125 0.22093125000000002
vt 0.812505625 0.487008125
vt 0 0.93749625
vt 0 0.77502125
vt 0.125216875 0.76530875
vt 0.124780625 0.9375
vn 0.8637782743228517 0.5038720996521207 0
vn -0.8637782743228517 0.5038720996521207 0
vn 0.3555225386273 -0.9346677080802567 0
vn 0.00003461744928841651 -0.000020193569780658444 0.999999999196926
vn -0.000035680503599639424 0.00002081368656729566 -0.9999999991468461
vn 0.35835163827720723 -0.9335631108409576 -0.006634864052546085
vn 0.2412147576134361 0.9607157422709905 -0.1372614412797395
vn -0.00003703674771296339 -0.000021604831227141495 0.9999999990807554
vn 0.000038670632407814166 0.000022557933355612275 -0.9999999989978611
vn -0.37322330181079 -0.9277415410476413 0
vn -0.19383824472433273 0.9792573434825768 -0.059006695532257694
usemtl m_a79a6aef-1582-09f5-2f05-a75f3b292fca
f 18/49/13 17/50/13 19/51/13 20/52/13
f 23/53/14 21/54/14 22/55/14 24/56/14
f 25/57/15 23/58/15 24/59/15
f 23/60/16 25/61/16 21/62/16
f 26/63/17 24/64/17 22/65/17
f 25/66/18 24/67/18 26/68/18
f 25/69/19 26/70/19 22/71/19 21/72/19
f 27/73/20 19/74/20 17/75/20
f 20/76/21 28/77/21 18/78/21
f 28/79/22 20/80/22 19/81/22 27/82/22
f 18/83/23 28/84/23 27/85/23 17/86/23
o mesh
v 0.6177175528894989 1.0625 0.7989883507690227
v 0.7285939070367766 1.0625 0.7412697741146436
v 0.6465768412166885 1 0.8544265278426616
v 0.7574531953639663 1 0.7967079511882824
v 0.5793182496199902 1.0625 0.7252239755001512
v 0.6924516887073373 1.0625 0.6718412186747011
v 0.6930805325999868 1 0.6730492165531358
v 0.5792276314546427 1 0.7250498996241399
v 0.28583573712681826 1 0.16144931442217592
v 0.39671209127409596 1 0.10373073776779662
v 0.31469502545400785 1.0625 0.21688749149581477
v 0.42557137960128555 1.0625 0.15916891484143553
v 0.4546081525516874 1.0625 0.21494803670407725
v 0.3435976027136882 1.0625 0.2724088258350641
v 0.34250614442915395 1 0.27031215397813907
v 0.45350457336605565 1 0.2128280808127813
vt 0.625 0.6875
vt 0.5 0.6875
vt 0.5 0.5991124999999999
vt 0.625 0.5991124999999999
vt 0.8279775 0.5
vt 0.823089375 0.375
vt 0.90625 0.375
vt 0.90625 0.5
vt 0.3282725 0.75
vt 0.25 0.75
vt 0.1875 0.6875
vt 0.3282725 0.75
vt 0.1875 0.6875
vt 0.326910625 0.6875
vt 0.96875 0.6875
vt 0.90625 0.75
vt 0.823089375 0.75
vt 0.822893125 0.6875
vt 0.829339375 0.375
vt 0.96875 0.375
vt 0.96875 0.5
vt 0.822893125 0.5
vt 0.625 0.7241124999999999
vt 0.625 0.8125
vt 0.5 0.8125
vt 0.5 0.7241124999999999
vt 0.31259375 0.75
vt 0.25 0.75
vt 0.1875 0.6875
vt 0.31259375 0.75
vt 0.1875 0.6875
vt 0.31023 0.6875
vt 0.25 0.5
vt 0.25 0.375
vt 0.31259375 0.375
vt 0.312884375 0.5
vt 0.1875 0.5
vt 0.1875 0.375
vt 0.310494375 0.375
vt 0.845755625 0.6875
vt 0.96875 0.6875
vt 0.90625 0.75
vt 0.843365625 0.75
vt 0 0.875
vt 0.1251625 0.875
vt 0.12515625 0.9375
vt 0.00006875 0.93749375
vt 0.12500625 0.9375
vt 0.00000625 0.9375
vt 0 0.87495625
vt 0.125 0.87495625
vn 0.3265055756219769 0.7071067811865476 0.6272113751262501
vn 0 1 0
vn 0.8870108331782217 0 -0.4617486132350339
vn 0.8870108331782217 0 -0.4617486132350339
vn -0.8870108331782217 0 0.4617486132350339
vn 0 -1 0
vn -0.3265055756219769 0.7071067811865476 -0.6272113751262501
vn -0.8870108331782217 0 0.4617486132350339
vn -0.8870108331782217 0 0.4617486132350339
vn 0 1 0
vn 0 -1 0
vn 0.8870108331782217 0 -0.4617486132350339
vn -0.4154513468721996 0.0031358175319483733 -0.9096099961139839
vn 0.45935666881599746 -0.03779287901663266 0.8874475472442889
usemtl m_a79a6aef-1582-09f5-2f05-a75f3b292fca
f 30/87/24 29/88/24 31/89/24 32/90/24
f 34/91/25 33/92/25 29/93/25 30/94/25
f 34/95/26 30/96/26 32/97/26
f 34/98/27 32/99/27 35/100/27
f 31/101/28 29/102/28 33/103/28 36/104/28
f 35/105/29 32/106/29 31/107/29 36/108/29
f 37/109/30 39/110/30 40/111/30 38/112/30
f 42/113/31 39/114/31 37/115/31
f 42/116/32 37/117/32 43/118/32
f 40/119/33 39/120/33 42/121/33 41/122/33
f 37/123/34 38/124/34 44/125/34
f 44/126/35 38/127/35 40/128/35 41/129/35
f 35/130/36 36/131/36 33/132/36 34/133/36
f 41/134/37 42/135/37 43/136/37 44/137/37