# Made in Blockbench 5.1.1
mtllib bedrock_brace1.mtl

o cube
v 1 1 1
v 1 1 0
v 1 0 1
v 1 0 0
v 0 1 0
v 0 1 1
v 0 0 0
v 0 0 1
vt 0 1
vt 1 1
vt 1 0
vt 0 0
vt 0 1
vt 1 1
vt 1 0
vt 0 0
vt 0 1
vt 1 1
vt 1 0
vt 0 0
vt 0 1
vt 1 1
vt 1 0
vt 0 0
vt 0 1
vt 1 1
vt 1 0
vt 0 0
vt 0 1
vt 1 1
vt 1 0
vt 0 0
vn 0 0 -1
vn 1 0 0
vn 0 0 1
vn -1 0 0
vn 0 1 0
vn 0 -1 0
usemtl m_036d7fdc-7a97-97b9-3d73-f66bb11c0487
f 4/4/1 7/3/1 5/2/1 2/1/1
f 3/8/2 4/7/2 2/6/2 1/5/2
f 8/12/3 3/11/3 1/10/3 6/9/3
f 7/16/4 8/15/4 6/14/4 5/13/4
usemtl m_6e015522-5818-3804-8864-aa6d22d0d162
f 6/20/5 1/19/5 2/18/5 5/17/5
usemtl m_036d7fdc-7a97-97b9-3d73-f66bb11c0487
f 7/24/6 4/23/6 3/22/6 8/21/6
o mesh
v 0.864583125 1.0625 0.5625
v 0.864583125 1.0625 0.4375
v 0.9375 0.9375 0.5625
v 0.9375 0.9375 0.4375
v 0.135416875 1.0625 0.5625
v 0.135416875 1.0625 0.4375
v 0.0625 0.9375 0.5625
v 0.0625 0.9375 0.4375
v 0.31773125 1.034583125 0.562493125
v 0.288204375 1.0241375 0.43749375
v 0.694233125 1.036311875 0.562493125
v 0.7052031249999999 1.03095125 0.437493125
vt 0.625 0.75
vt 0.5 0.75
vt 0.5 0.6052875
vt 0.625 0.6052875
vt 0.625 0.6677875
vt 0.625 0.8125
vt 0.5 0.8125
vt 0.5 0.6677875
vt 0.25 0.47461687500000005
vt 0.25 0.198283125
vt 0.37498875 0.19828749999999995
vt 0.0625 0.5005425
vt 0.3178575 0.6061449999999999
vt 0.13556875 0.625455
vt 0.7474475 0.5930031250000001
vt 0.9354325 0.43635999999999997
vt 0.902448125 0.5772649999999999
vt 0.25 0.47461687500000005
vt 0.37498875 0.19828749999999995
vt 0.374996875 0.44302624999999995
vt 0.18362375 0.9375
vt 0.1575325 0.81130625
vt 0.000001875 0.81130625
vt 0 0.935125
vt 0.742280625 0.6075787500000001
vt 0.98541875 0.4994925
vt 0.91265 0.62458
vt 0.0625 0.568385625
vt 0.314495 0.5975993749999999
vt 0.16892 0.6664512499999999
vt 0.687505625 0.474664375
vt 0.6875125 0.22093125000000002
vt 0.8125125 0.22093125000000002
vt 0.812505625 0.487008125
vt 0 0.93749625
vt 0 0.77502125
vt 0.125216875 0.76530875
vt 0.124780625 0.9375
vn 0.8637782743228517 0.5038720996521207 0
vn -0.8637782743228517 0.5038720996521207 0
vn 0.3555225386273 -0.9346677080802567 0
vn 0.00003461744928841651 -0.000020193569780658444 0.999999999196926
vn -0.000035680503599639424 0.00002081368656729566 -0.9999999991468461
vn 0.35835163827720723 -0.9335631108409576 -0.006634864052546085
vn 0.2412147576134361 0.9607157422709905 -0.1372614412797395
vn -0.00003703674771296339 -0.000021604831227141495 0.9999999990807554
vn 0.000038670632407814166 0.000022557933355612275 -0.9999999989978611
vn -0.37322330181079 -0.9277415410476413 0
vn -0.19383824472433273 0.9792573434825768 -0.059006695532257694
usemtl m_13cee411-62ee-8045-5fb1-42dc906bfbf9
f 10/25/7 9/26/7 11/27/7 12/28/7
f 15/29/8 13/30/8 14/31/8 16/32/8
f 17/33/9 15/34/9 16/35/9
f 15/36/10 17/37/10 13/38/10
f 18/39/11 16/40/11 14/41/11
f 17/42/12 16/43/12 18/44/12
f 17/45/13 18/46/13 14/47/13 13/48/13
f 19/49/14 11/50/14 9/51/14
f 12/52/15 20/53/15 10/54/15
f 20/55/16 12/56/16 11/57/16 19/58/16
f 10/59/17 20/60/17 19/61/17 9/62/17
o mesh
v 0.6177175528894989 1.0625 0.7989883507690227
v 0.7285939070367766 1.0625 0.7412697741146436
v 0.6465768412166885 1 0.8544265278426616
v 0.7574531953639663 1 0.7967079511882824
v 0.5793182496199902 1.0625 0.7252239755001512
v 0.6924516887073373 1.0625 0.6718412186747011
v 0.6930805325999868 1 0.6730492165531358
v 0.5792276314546427 1 0.7250498996241399
v 0.28583573712681826 1 0.16144931442217592
v 0.39671209127409596 1 0.10373073776779662
v 0.31469502545400785 1.0625 0.21688749149581477
v 0.42557137960128555 1.0625 0.15916891484143553
v 0.4546081525516874 1.0625 0.21494803670407725
v 0.3435976027136882 1.0625 0.2724088258350641
v 0.34250614442915395 1 0.27031215397813907
v 0.45350457336605565 1 0.2128280808127813
vt 0.625 0.6875
vt 0.5 0.6875
vt 0.5 0.5991124999999999
vt 0.625 0.5991124999999999
vt 0.8279775 0.5
vt 0.823089375 0.375
vt 0.90625 0.375
vt 0.90625 0.5
vt 0.3282725 0.75
vt 0.25 0.75
vt 0.1875 0.6875
vt 0.3282725 0.75
vt 0.1875 0.6875
vt 0.326910625 0.6875
vt 0.96875 0.6875
vt 0.90625 0.75
vt 0.823089375 0.75
vt 0.822893125 0.6875
vt 0.829339375 0.375
vt 0.96875 0.375
vt 0.96875 0.5
vt 0.822893125 0.5
vt 0.625 0.7241124999999999
vt 0.625 0.8125
vt 0.5 0.8125
vt 0.5 0.7241124999999999
vt 0.31259375 0.75
vt 0.25 0.75
vt 0.1875 0.6875
vt 0.31259375 0.75
vt 0.1875 0.6875
vt 0.31023 0.6875
vt 0.25 0.5
vt 0.25 0.375
vt 0.31259375 0.375
vt 0.312884375 0.5
vt 0.1875 0.5
vt 0.1875 0.375
vt 0.310494375 0.375
vt 0.845755625 0.6875
vt 0.96875 0.6875
vt 0.90625 0.75
vt 0.843365625 0.75
vt 0 0.875
vt 0.1251625 0.875
vt 0.12515625 0.9375
vt 0.00006875 0.93749375
vt 0.12500625 0.9375
vt 0.00000625 0.9375
vt 0 0.87495625
vt 0.125 0.87495625
vn 0.3265055756219769 0.7071067811865476 0.6272113751262501
vn 0 1 0
vn 0.8870108331782217 0 -0.4617486132350339
vn 0.8870108331782217 0 -0.4617486132350339
vn -0.8870108331782217 0 0.4617486132350339
vn 0 -1 0
vn -0.3265055756219769 0.7071067811865476 -0.6272113751262501
vn -0.8870108331782217 0 0.4617486132350339
vn -0.8870108331782217 0 0.4617486132350339
vn 0 1 0
vn 0 -1 0
vn 0.8870108331782217 0 -0.4617486132350339
vn -0.4154513468721996 0.0031358175319483733 -0.9096099961139839
vn 0.45935666881599746 -0.03779287901663266 0.8874475472442889
usemtl m_13cee411-62ee-8045-5fb1-42dc906bfbf9
f 22/63/18 21/64/18 23/65/18 24/66/18
f 26/67/19 25/68/19 21/69/19 22/70/19
f 26/71/20 22/72/20 24/73/20
f 26/74/21 24/75/21 27/76/21
f 23/77/22 21/78/22 25/79/22 28/80/22
f 27/81/23 24/82/23 23/83/23 28/84/23
f 29/85/24 31/86/24 32/87/24 30/88/24
f 34/89/25 31/90/25 29/91/25
f 34/92/26 29/93/26 35/94/26
f 32/95/27 31/96/27 34/97/27 33/98/27
f 29/99/28 30/100/28 36/101/28
f 36/102/29 30/103/29 32/104/29 33/105/29
f 27/106/30 28/107/30 25/108/30 26/109/30
f 33/110/31 34/111/31 35/112/31 36/113/31