# Made in Blockbench 5.1.1
mtllib bedrock_brace3.mtl

o cube
v 1 1 1
v 1 1 0
v 1 0 1
v 1 0 0
v 0 1 0
v 0 1 1
v 0 0 0
v 0 0 1
vt 0 1
vt 1 1
vt 1 0
vt 0 0
vt 0 1
vt 1 1
vt 1 0
vt 0 0
vt 0 1
vt 1 1
vt 1 0
vt 0 0
vt 0 1
vt 1 1
vt 1 0
vt 0 0
vt 0 1
vt 1 1
vt 1 0
vt 0 0
vt 0 1
vt 1 1
vt 1 0
vt 0 0
vn 0 0 -1
vn 1 0 0
vn 0 0 1
vn -1 0 0
vn 0 1 0
vn 0 -1 0
usemtl m_036d7fdc-7a97-97b9-3d73-f66bb11c0487
f 4/4/1 7/3/1 5/2/1 2/1/1
f 3/8/2 4/7/2 2/6/2 1/5/2
f 8/12/3 3/11/3 1/10/3 6/9/3
f 7/16/4 8/15/4 6/14/4 5/13/4
usemtl m_0d24eb5d-c938-e79f-71b0-061fd0781b48
f 6/20/5 1/19/5 2/18/5 5/17/5
usemtl m_036d7fdc-7a97-97b9-3d73-f66bb11c0487
f 7/24/6 4/23/6 3/22/6 8/21/6
o mesh
v 0.864583125 1.0625 0.5625
v 0.864583125 1.0625 0.4375
v 0.9375 0.9375 0.5625
v 0.9375 0.9375 0.4375
v 0.135416875 1.0625 0.5625
v 0.135416875 1.0625 0.4375
v 0.0625 0.9375 0.5625
v 0.0625 0.9375 0.4375
v 0.31773125 1.034583125 0.562493125
v 0.288204375 1.0241375 0.43749375
v 0.694233125 1.036311875 0.562493125
v 0.7052031249999999 1.03095125 0.437493125
vt 0.625 0.75
vt 0.5 0.75
vt 0.5 0.6052875
vt 0.625 0.6052875
vt 0.625 0.6677875
vt 0.625 0.8125
vt 0.5 0.8125
vt 0.5 0.6677875
vt 0.25 0.47461687500000005
vt 0.25 0.198283125
vt 0.37498875 0.19828749999999995
vt 0.0625 0.5005425
vt 0.3178575 0.6061449999999999
vt 0.13556875 0.625455
vt 0.7474475 0.5930031250000001
vt 0.9354325 0.43635999999999997
vt 0.902448125 0.5772649999999999
vt 0.25 0.47461687500000005
vt 0.37498875 0.19828749999999995
vt 0.374996875 0.44302624999999995
vt 0.18362375 0.9375
vt 0.1575325 0.81130625
vt 0.000001875 0.81130625
vt 0 0.935125
vt 0.742280625 0.6075787500000001
vt 0.98541875 0.4994925
vt 0.91265 0.62458
vt 0.0625 0.568385625
vt 0.314495 0.5975993749999999
vt 0.16892 0.6664512499999999
vt 0.687505625 0.474664375
vt 0.6875125 0.22093125000000002
vt 0.8125125 0.22093125000000002
vt 0.812505625 0.487008125
vt 0 0.93749625
vt 0 0.77502125
vt 0.125216875 0.76530875
vt 0.124780625 0.9375
vn 0.8637782743228517 0.5038720996521207 0
vn -0.8637782743228517 0.5038720996521207 0
vn 0.3555225386273 -0.9346677080802567 0
vn 0.00003461744928841651 -0.000020193569780658444 0.999999999196926
vn -0.000035680503599639424 0.00002081368656729566 -0.9999999991468461
vn 0.35835163827720723 -0.9335631108409576 -0.006634864052546085
vn 0.2412147576134361 0.9607157422709905 -0.1372614412797395
vn -0.00003703674771296339 -0.000021604831227141495 0.9999999990807554
vn 0.000038670632407814166 0.000022557933355612275 -0.9999999989978611
vn -0.37322330181079 -0.9277415410476413 0
vn -0.19383824472433273 0.9792573434825768 -0.059006695532257694
usemtl m_a79a6aef-1582-09f5-2f05-a75f3b292fca
f 10/25/7 9/26/7 11/27/7 12/28/7
f 15/29/8 13/30/8 14/31/8 16/32/8
f 17/33/9 15/34/9 16/35/9
f 15/36/10 17/37/10 13/38/10
f 18/39/11 16/40/11 14/41/11
f 17/42/12 16/43/12 18/44/12
f 17/45/13 18/46/13 14/47/13 13/48/13
f 19/49/14 11/50/14 9/51/14
f 12/52/15 20/53/15 10/54/15
f 20/55/16 12/56/16 11/57/16 19/58/16
f 10/59/17 20/60/17 19/61/17 9/62/17
o mesh
v 0.6177175528894989 1.0625 0.7989883507690227
v 0.7285939070367766 1.0625 0.7412697741146436
v 0.6465768412166885 1 0.8544265278426616
v 0.7574531953639663 1 0.7967079511882824
v 0.5793182496199902 1.0625 0.7252239755001512
v 0.6924516887073373 1.0625 0.6718412186747011
v 0.6930805325999868 1 0.6730492165531358
v 0.5792276314546427 1 0.7250498996241399
v 0.28583573712681826 1 0.16144931442217592
v 0.39671209127409596 1 0.10373073776779662
v 0.31469502545400785 1.0625 0.21688749149581477
v 0.42557137960128555 1.0625 0.15916891484143553
v 0.4546081525516874 1.0625 0.21494803670407725
v 0.3435976027136882 1.0625 0.2724088258350641
v 0.34250614442915395 1 0.27031215397813907
v 0.45350457336605565 1 0.2128280808127813
vt 0.625 0.6875
vt 0.5 0.6875
vt 0.5 0.5991124999999999
vt 0.625 0.5991124999999999
vt 0.8279775 0.5
vt 0.823089375 0.375
vt 0.90625 0.375
vt 0.90625 0.5
vt 0.3282725 0.75
vt 0.25 0.75
vt 0.1875 0.6875
vt 0.3282725 0.75
vt 0.1875 0.6875
vt 0.326910625 0.6875
vt 0.96875 0.6875
vt 0.90625 0.75
vt 0.823089375 0.75
vt 0.822893125 0.6875
vt 0.829339375 0.375
vt 0.96875 0.375
vt 0.96875 0.5
vt 0.822893125 0.5
vt 0.625 0.7241124999999999
vt 0.625 0.8125
vt 0.5 0.8125
vt 0.5 0.7241124999999999
vt 0.31259375 0.75
vt 0.25 0.75
vt 0.1875 0.6875
vt 0.31259375 0.75
vt 0.1875 0.6875
vt 0.31023 0.6875
vt 0.25 0.5
vt 0.25 0.375
vt 0.31259375 0.375
vt 0.312884375 0.5
vt 0.1875 0.5
vt 0.1875 0.375
vt 0.310494375 0.375
vt 0.845755625 0.6875
vt 0.96875 0.6875
vt 0.90625 0.75
vt 0.843365625 0.75
vt 0 0.875
vt 0.1251625 0.875
vt 0.12515625 0.9375
vt 0.00006875 0.93749375
vt 0.12500625 0.9375
vt 0.00000625 0.9375
vt 0 0.87495625
vt 0.125 0.87495625
vn 0.3265055756219769 0.7071067811865476 0.6272113751262501
vn 0 1 0
vn 0.8870108331782217 0 -0.4617486132350339
vn 0.8870108331782217 0 -0.4617486132350339
vn -0.8870108331782217 0 0.4617486132350339
vn 0 -1 0
vn -0.3265055756219769 0.7071067811865476 -0.6272113751262501
vn -0.8870108331782217 0 0.4617486132350339
vn -0.8870108331782217 0 0.4617486132350339
vn 0 1 0
vn 0 -1 0
vn 0.8870108331782217 0 -0.4617486132350339
vn -0.4154513468721996 0.0031358175319483733 -0.9096099961139839
vn 0.45935666881599746 -0.03779287901663266 0.8874475472442889
usemtl m_a79a6aef-1582-09f5-2f05-a75f3b292fca
f 22/63/18 21/64/18 23/65/18 24/66/18
f 26/67/19 25/68/19 21/69/19 22/70/19
f 26/71/20 22/72/20 24/73/20
f 26/74/21 24/75/21 27/76/21
f 23/77/22 21/78/22 25/79/22 28/80/22
f 27/81/23 24/82/23 23/83/23 28/84/23
f 29/85/24 31/86/24 32/87/24 30/88/24
f 34/89/25 31/90/25 29/91/25
f 34/92/26 29/93/26 35/94/26
f 32/95/27 31/96/27 34/97/27 33/98/27
f 29/99/28 30/100/28 36/101/28
f 36/102/29 30/103/29 32/104/29 33/105/29
f 27/106/30 28/107/30 25/108/30 26/109/30
f 33/110/31 34/111/31 35/112/31 36/113/31
o mesh_selection
v 0.3958569863424482 0.9593763553201795 0.7909513398483421
v 0.4537805924690904 1.0563191878097398 0.889677947620445
v 0.4623464886112841 1.1106802658109811 0.603371296244994
v 0.5036477191707174 1.169797120677841 0.748992914917934
v 0.5727540305140658 1.0525816138964597 0.5956433381252342
v 0.6140552610734991 1.1116984687633196 0.7412649567981742
v 0.4564241625531803 1.0095675382366338 0.2679843468352862
v 0.4725903993733917 1.046409569922171 0.22196987573265686
v 0.5283847497589155 1.0183486569278353 0.21911249671118677
v 0.38820000082747197 0.8733335121907836 0.8229564620014227
v 0.41716180389079305 0.9218049284355637 0.8723197658874742
v 0.4434037717788628 0.8442841862335229 0.8190924829415429
v 0.4723655748421839 0.8927556024783031 0.8684557868275944
v 0.4256003458536921 0.9584419618418595 0.7174426874745393
v 0.480804116805083 0.9293926358845988 0.7135787084146594
v 0.5641881343718722 0.9982205358952184 0.8819499895006853
v 0.3995959153074217 1.0056588639472908 0.496417471158549
v 0.5127576344190343 1.2050562290525915 0.6140668065445503
v 0.5652072281615943 0.9185108860755086 0.4848255339789095
v 0.678368947273207 1.1179082511808094 0.6024748693649107
v 0.4868633870352687 1.2042452464664677 0.2502186639291546
v 0.5834027305796723 1.365816633949068 0.4147630102159928
v 0.6524746998894414 1.1170972685946856 0.238626726749515
v 0.749014043433845 1.278668656077286 0.40317107303635324
vt 0.6 0.6875
vt 0.6 0.8125
vt 0.4375 0.8125
vt 0.4375 0.6875
vt 0.5125 0.75
vt 0.4375 0.75
vt 0.4375 0.6875
vt 0.5125 0.6875
vt 0.625 0.875
vt 0.375 0.875
vt 0.375 0.625
vt 0.625 0.625
vt 0.625 0.625
vt 0.625 0.875
vt 0.375 0.875
vt 0.375 0.625
vt 0.375 0.375
vt 0.625 0.375
vt 0.625 0.625
vt 0.375 0.625
vt 0.625 0.375
vt 0.625 0.625
vt 0.375 0.625
vt 0.375 0.375
vt 0.625 0.625
vt 0.625 0.875
vt 0.375 0.875
vt 0.375 0.625
vt 0.625 0.875
vt 0.375 0.875
vt 0.375 0.625
vt 0.625 0.625
vt 0.375 0.4125
vt 0.625 0.4125
vt 0.625 0.5625
vt 0.4375 0.5625
vt 0.625 0.8125
vt 0.4375 0.8125
vt 0.4375 0.6875
vt 0.625 0.6875
vt 0.25 1
vt 0 1
vt 0.0625 0.82243125
vt 0.123625 0.8226
vt 0.178375 0.75
vt 0.178375 1
vt 0 0.875
vt 0 1
vt 0 0.75
vt 0.13938125 0.8125
vt 0.14075 0.875
vt 0.5625 0.6875
vt 0.5625 0.75
vt 0.4375 0.75
vt 0.4375 0.6875
vt 0.25 0.930125
vt 0.175 0.930125
vt 0.0625 1
vt 0.2125 1
vt 0.0625 0.90625
vt 0.0625 0.84375
vt 0.19119375 0.8125
vt 0.19119375 0.9375
vt 0.25 1
vt 0 1
vt 0.1875 0.95118125
vt 0.3125 0.95118125
vt 0 0.9375
vt 0 0.8125
vt 0.1912125 0.84375
vt 0.1912125 0.90625
vt 0 0.8226
vt 0.328125 0.8226
vt 0.13925 1
vt 0.078125 0.9550375
vn 0.39402176767632274 0.8072319579392679 -0.4394580897864574
vn -0.26595800907534345 -0.605215641963206 0.7503201744133926
vn -0.16436024774947164 -0.43039814621692635 0.8875489534063827
vn 0.26595800907534345 0.605215641963206 -0.7503201744133926
vn -0.8832603352222546 0.4647892153161711 0.06182366495807788
vn 0.8832603352222546 -0.4647892153161711 -0.06182366495807788
vn -0.38615737417761464 -0.6462855499304022 -0.6581773851473534
vn 0.38615737417761464 0.6462855499304022 0.6581773851473534
vn -0.8832603352222546 0.4647892153161711 0.06182366495807788
vn 0.38615737417761464 0.6462855499304022 0.6581773851473534
vn -0.9628760760153942 0.12946660031646312 -0.2368714031699356
vn -0.46882828312271174 -0.873434257519373 -0.1315775008722702
vn 0.020163014441123808 0.16938169219905166 -0.9853442521253335
vn -0.38615737417761464 -0.6462855499304022 -0.6581773851473534
vn -0.9188609581096463 0.20677450598711672 0.336063748916194
vn 0.0018126272518841358 -0.12846738164656468 0.9917120782945632
vn -0.9257513117059557 -0.05668096106077357 -0.3738606391798016
vn -0.3264998020452145 -0.5150425686130328 -0.7925459177744374
vn 0.35464676053895183 -0.7851941587329461 -0.507637477271811
usemtl m_55e87bc1-9170-4aea-78c8-0d88c3bf1da8
f 41/114/32 39/115/32 40/116/32 42/117/32
f 47/118/33 46/119/33 48/120/33 49/121/33
f 54/122/34 53/123/34 55/124/34 56/125/34
f 59/126/35 57/127/35 58/128/35 60/129/35
f 57/130/36 53/131/36 54/132/36 58/133/36
f 56/134/37 55/135/37 59/136/37 60/137/37
f 55/138/38 53/139/38 57/140/38 59/141/38
f 58/142/39 54/143/39 56/144/39 60/145/39
f 39/146/40 37/147/40 38/148/40 40/149/40
f 40/150/41 38/151/41 52/152/41 42/153/41
f 53/154/42 57/155/42 44/156/42 43/157/42
f 55/158/43 53/159/43 43/160/43
f 57/161/44 59/162/44 45/163/44 44/164/44
f 48/165/45 46/166/45 50/167/45 51/168/45
f 46/169/46 47/170/46 38/171/46 37/172/46
f 47/173/47 49/174/47 52/175/47 38/176/47
f 37/177/48 39/178/48 50/179/48 46/180/48
f 39/181/49 41/182/49 51/183/49 50/184/49
f 59/185/50 55/186/50 43/187/50 45/188/50
o mesh
v 0.5212891885276485 1.1279134484808315 0.30497344849532104
v 0.4714220618260216 1.0144355156127305 0.44565848119783213
v 0.5764929594790393 1.0988641225235707 0.30110946943544115
v 0.5266258327774125 0.9853861896554696 0.4417945021379523
v 0.5695588602998503 1.2086991422221318 0.3872456216387402
v 0.5196917335982234 1.0952212093540306 0.5279306543412513
v 0.6247626312512411 1.179649816264871 0.3833816425788603
v 0.5748955045496142 1.06617188339677 0.5240666752813714
v 0.4488846808693457 1.0067349078688812 0.18156518878019234
v 0.3159056763316741 0.7041270868872781 0.5567252759868886
v 0.5040884518207366 0.9776855819116204 0.17770120972031245
v 0.37110944728306494 0.6750777609300174 0.5528612969270088
v 0.5212891885276485 1.1279134484808315 0.30497344849532104
v 0.3883101839899768 0.8253056274992285 0.6801335357020173
v 0.5764929594790393 1.0988641225235707 0.30110946943544115
v 0.4435139549413677 0.7962563015419678 0.6762695566421375
v 0.43817731069160365 0.9387835603673296 0.5394485029995062
v 0.3883101839899768 0.8253056274992285 0.6801335357020173
v 0.4933810816429946 0.909734234410069 0.5355845239396264
v 0.4435139549413677 0.7962563015419678 0.6762695566421375
v 0.48644698246380547 1.0195692541086299 0.6217206761429254
v 0.4365798557621786 0.9060913212405288 0.7624057088454366
v 0.5416507534151964 0.9905199281513692 0.6178566970830455
v 0.4917836267135695 0.8770419952832681 0.7585417297855567
v 0.5695588602998503 1.2086991422221318 0.3872456216387402
v 0.4365798557621786 0.9060913212405288 0.7624057088454366
v 0.6247626312512411 1.179649816264871 0.3833816425788603
v 0.4917836267135695 0.8770419952832681 0.7585417297855567
v 0.641963367958153 1.3298776828340821 0.5106538813538689
v 0.5089843634204814 1.0272698618524791 0.8858139685605653
v 0.697167138909544 1.3008283568768215 0.506789902293989
v 0.5641881343718722 0.9982205358952185 0.8819499895006854
v 0.641963367958153 1.3298776828340821 0.5106538813538689
v 0.5089843634204814 1.0272698618524791 0.8858139685605653
v 0.697167138909544 1.3008283568768215 0.506789902293989
v 0.5641881343718722 0.9982205358952185 0.8819499895006854
v 0.6660982038442539 1.3702705297047322 0.5517899679255784
v 0.5331191993065822 1.0676627087231292 0.9269500551322748
v 0.7213019747956448 1.3412212037474716 0.5479259888656987
v 0.5883229702579732 1.0386133827658686 0.9230860760723949
v 0.4488846808693457 1.0067349078688812 0.18156518878019234
v 0.641963367958153 1.3298776828340821 0.5106538813538689
v 0.5040884518207366 0.9776855819116204 0.17770120972031245
v 0.697167138909544 1.3008283568768215 0.506789902293989
v 0.46550705643655466 1.0445608854915815 0.1346701778793553
v 0.6585857435253619 1.3677036604567825 0.4637588704530319
v 0.5207108273879455 1.0155115595343207 0.13080619881947542
v 0.7137895144767529 1.3386543344995219 0.459894891393152
v 0.42474984498324475 0.966342060998231 0.14042910220848276
v 0.2917708404455731 0.663734240016628 0.5155891894151791
v 0.4799536159346357 0.9372927350409703 0.13656512314860292
v 0.34697461139696406 0.6346849140593673 0.5117252103552992
v 0.4488846808693457 1.0067349078688812 0.18156518878019234
v 0.3159056763316741 0.7041270868872781 0.5567252759868886
v 0.5040884518207366 0.9776855819116204 0.17770120972031245
v 0.37110944728306494 0.6750777609300174 0.5528612969270088
v 0.2992833007644651 0.6663011092645778 0.6036202868877256
v 0.49236198785327245 0.9894438842297788 0.9327089794614023
v 0.3544870717158559 0.637251783307317 0.5997563078278458
v 0.5475657588046633 0.9603945582725182 0.9288450004015224
v 0.3159056763316741 0.7041270868872781 0.5567252759868886
v 0.5089843634204814 1.0272698618524791 0.8858139685605653
v 0.37110944728306494 0.6750777609300174 0.5528612969270088
v 0.5641881343718722 0.9982205358952185 0.8819499895006854
vt 1 1
vt 0 1
vt 0 0.5
vt 1 0.5
vt 1 0.5
vt 1 1
vt 0 1
vt 0 0.5
vt 0 0
vt 1 0
vt 1 1
vt 0 1
vt 1 0
vt 1 1
vt 0 1
vt 0 0
vt 1 0.5
vt 1 1
vt 0 1
vt 0 0.5
vt 1 1
vt 0 1
vt 0 0.5
vt 1 0.5
vt 0.587635625 0.12292875000000003
vt 0.5951175 0.10811312500000003
vt 0.5948175 0.901026875
vt 0.58735375 0.892065625
vt 0.5951175 0.10811312500000003
vt 0.89270375 0.10809000000000002
vt 0.89201875 0.901026875
vt 0.5948175 0.901026875
vt 0.875649375 0.892065625
vt 0.876293125 0.12290625
vt 0.587635625 0.12292875000000003
vt 0.58735375 0.892065625
vt 0.876293125 0.12290625
vt 0.89270375 0.10809000000000002
vt 0.5951175 0.10811312500000003
vt 0.587635625 0.12292875000000003
vt 0.5948175 0.901026875
vt 0.89201875 0.901026875
vt 0.875649375 0.892065625
vt 0.58735375 0.892065625
vt 0.5948175 0.901026875
vt 0.59493 0.6039243750000001
vt 0.587459375 0.603865
vt 0.58735375 0.892065625
vt 0.39518125 0.603870625
vt 0.39671 0.6039300000000001
vt 0.396693125 0.90102625
vt 0.395165625 0.892065625
vt 0.39671 0.6039300000000001
vt 0.59493 0.6039243750000001
vt 0.5948175 0.901026875
vt 0.396693125 0.90102625
vt 0.58735375 0.892065625
vt 0.587459375 0.603865
vt 0.39518125 0.603870625
vt 0.395165625 0.892065625
vt 0.587459375 0.603865
vt 0.59493 0.6039243750000001
vt 0.39671 0.6039300000000001
vt 0.39518125 0.603870625
vt 0.396693125 0.90102625
vt 0.5948175 0.901026875
vt 0.58735375 0.892065625
vt 0.395165625 0.892065625
vt 0.396693125 0.90102625
vt 0.3967375 0.10812875
vt 0.39520625 0.12294375000000002
vt 0.395165625 0.892065625
vt 0.106576875 0.12296562499999997
vt 0.09918125 0.10815249999999998
vt 0.099521875 0.90102625
vt 0.1068975 0.892065625
vt 0.09918125 0.10815249999999998
vt 0.3967375 0.10812875
vt 0.396693125 0.90102625
vt 0.099521875 0.90102625
vt 0.395165625 0.892065625
vt 0.39520625 0.12294375000000002
vt 0.106576875 0.12296562499999997
vt 0.1068975 0.892065625
vt 0.39520625 0.12294375000000002
vt 0.3967375 0.10812875
vt 0.09918125 0.10815249999999998
vt 0.106576875 0.12296562499999997
vt 0.099521875 0.90102625
vt 0.396693125 0.90102625
vt 0.395165625 0.892065625
vt 0.1068975 0.892065625
vt 0.099521875 0.90102625
vt 0.09918125 0.10815249999999998
vt 0.106576875 0.12296562499999997
vt 0.1068975 0.892065625
vt 0.010370625 0.12297312500000002
vt 0 0.10816062500000001
vt 0.000468125 0.90102625
vt 0.0108125 0.892065625
vt 0 0.10816062500000001
vt 0.09918125 0.10815249999999998
vt 0.099521875 0.90102625
vt 0.000468125 0.90102625
vt 0.000468125 0.90102625
vt 0.099521875 0.90102625
vt 0.1068975 0.892065625
vt 0.0108125 0.892065625
vt 0.09918125 0.10815249999999998
vt 0.89270375 0.10809000000000002
vt 0.876293125 0.12290625
vt 0.106576875 0.12296562499999997
vt 0.87637375 0.026625624999999986
vt 0.892789375 0.008828750000000052
vt 0.09913875 0.008899375000000043
vt 0.106536875 0.026692500000000008
vt 0.892789375 0.008828750000000052
vt 0.89270375 0.10809000000000002
vt 0.09918125 0.10815249999999998
vt 0.09913875 0.008899375000000043
vt 0.876293125 0.12290625
vt 0.89270375 0.10809000000000002
vt 0.892789375 0.008828750000000052
vt 0.87637375 0.026625624999999986
vt 0.99109 0.901026875
vt 0.9919025 0.108081875
vt 0.972515625 0.12289874999999995
vt 0.97175125 0.892065625
vt 0.876293125 0.12290625
vt 0.89270375 0.10809000000000002
vt 0.89201875 0.901026875
vt 0.875649375 0.892065625
vt 0.89270375 0.10809000000000002
vt 0.9919025 0.108081875
vt 0.99109 0.901026875
vt 0.89201875 0.901026875
vt 0.97175125 0.892065625
vt 0.972515625 0.12289874999999995
vt 0.876293125 0.12290625
vt 0.875649375 0.892065625
vt 0.972515625 0.12289874999999995
vt 0.9919025 0.108081875
vt 0.89270375 0.10809000000000002
vt 0.876293125 0.12290625
vt 0.89201875 0.901026875
vt 0.99109 0.901026875
vt 0.97175125 0.892065625
vt 0.875649375 0.892065625
vt 0.09956375 0.99999125
vt 0.891933125 1
vt 0.87556875 0.988075
vt 0.106938125 0.9880675
vt 0.875649375 0.892065625
vt 0.89201875 0.901026875
vt 0.099521875 0.90102625
vt 0.1068975 0.892065625
vt 0.89201875 0.901026875
vt 0.891933125 1
vt 0.09956375 0.99999125
vt 0.099521875 0.90102625
vt 0.106938125 0.9880675
vt 0.87556875 0.988075
vt 0.875649375 0.892065625
vt 0.1068975 0.892065625
vt 0.87556875 0.988075
vt 0.891933125 1
vt 0.89201875 0.901026875
vt 0.875649375 0.892065625
vt 0.099521875 0.90102625
vt 0.09956375 0.99999125
vt 0.106938125 0.9880675
vt 0.1068975 0.791601875
vt 0.000468125 0.90102625
vt 0.09956375 0.99999125
vt 0.106938125 0.9880675
vt 0.0108125 0.892065625
vt 0.099521875 0.90102625
vt 0.09956375 0.99999125
vt 0.000468125 0.90102625
vt 0.09918125 0.10815249999999998
vt 0.09918125 0.007689374999999998
vt 0 0.10816062500000001
vt 0.09913875 0.008899375000000043
vt 0.87637375 0.026625624999999986
vt 0.972515625 0.12289874999999995
vt 0.9919025 0.108081875
vt 0.892789375 0.008828750000000052
vt 0.89270375 0.007626875000000033
vt 0.892789375 0.008828750000000052
vt 0.9919025 0.108081875
vt 0.89270375 0.10809000000000002
vt 0.099521875 0.90102625
vt 0.09956375 0.99999125
vt 0.000468125 0.90102625
vt 0.891933125 1
vt 0.99109 0.901026875
vt 0.97175125 0.892065625
vt 0.87556875 0.988075
vt 0.89201875 0.80056375
vt 0.99109 0.901026875
vt 0.891933125 1
vt 0.89201875 0.901026875
vt 0.87556875 0.988075
vt 0.97175125 0.892065625
vt 0.875649375 0.892065625
vt 0.875649375 0.892065625
vt 0.972515625 0.12289874999999995
vt 0.87637375 0.026625624999999986
vt 0.876293125 0.022443125000000008
vt 0.876293125 0.12290625
vt 0.1068975 0.892065625
vt 0.106576875 0.12296562499999997
vt 0.010370625 0.12297312500000002
vt 0.0108125 0.892065625
vt 0.106576875 0.12296562499999997
vt 0.09918125 0.007689374999999998
vt 0 0.10816062500000001
vt 0.010370625 0.12297312500000002
vt 0.106576875 0.12296562499999997
vt 0.876293125 0.022443125000000008
vt 0.87637375 0.026625624999999986
vt 0.106536875 0.026692500000000008
vt 0.09913875 0.008899375000000043
vt 0.09918125 0.10815249999999998
vt 0.106576875 0.12296562499999997
vt 0.106536875 0.026692500000000008
vt 0.09913875 0.008899375000000043
vt 0 0.10816062500000001
vt 0.010370625 0.12297312500000002
vt 0.106536875 0.026692500000000008
vt 0.1068975 0.791601875
vt 0.0108125 0.892065625
vt 0.1068975 0.892065625
vt 0.106938125 0.9880675
vt 0.106576875 0.02250249999999998
vt 0.106536875 0.026692500000000008
vt 0.010370625 0.12297312500000002
vt 0.106576875 0.12296562499999997
vt 0.89201875 0.901026875
vt 0.89270375 0.10809000000000002
vt 0.876293125 0.12290625
vt 0.875649375 0.892065625
vn -0.38615737417761464 -0.6462855499304022 -0.6581773851473534
vn 0.38615737417761464 0.6462855499304022 0.6581773851473534
vn -0.8832603352222546 0.4647892153161711 0.06182366495807788
vn 0.8832603352222546 -0.4647892153161711 -0.06182366495807788
vn 0.26595800907534345 0.605215641963206 -0.7503201744133926
vn -0.26595800907534345 -0.605215641963206 0.7503201744133926
vn 0.38615737417761464 0.6462855499304022 0.6581773851473534
vn -0.8832603352222546 0.4647892153161711 0.06182366495807788
vn 0.8832603352222546 -0.4647892153161711 -0.06182366495807788
vn 0.26595800907534345 0.605215641963206 -0.7503201744133926
vn -0.26595800907534345 -0.605215641963206 0.7503201744133926
vn -0.38615737417761464 -0.6462855499304022 -0.6581773851473534
vn 0.38615737417761464 0.6462855499304022 0.6581773851473534
vn -0.8832603352222546 0.4647892153161711 0.06182366495807788
vn 0.8832603352222546 -0.4647892153161711 -0.06182366495807788
vn 0.26595800907534345 0.605215641963206 -0.7503201744133926
vn -0.26595800907534345 -0.605215641963206 0.7503201744133926
vn -0.38615737417761464 -0.6462855499304022 -0.6581773851473534
vn 0.38615737417761464 0.6462855499304022 0.6581773851473534
vn -0.8832603352222546 0.4647892153161711 0.06182366495807788
vn 0.8832603352222546 -0.4647892153161711 -0.06182366495807788
vn 0.26595800907534345 0.605215641963206 -0.7503201744133926
vn -0.26595800907534345 -0.605215641963206 0.7503201744133926
vn -0.38615737417761464 -0.6462855499304022 -0.6581773851473534
vn 0.38615737417761464 0.6462855499304022 0.6581773851473534
vn -0.8832603352222546 0.4647892153161711 0.06182366495807788
vn -0.26595800907534345 -0.605215641963206 0.7503201744133926
vn -0.26595800907534345 -0.605215641963206 0.7503201744133926
vn 0.26595800907534345 0.605215641963206 -0.7503201744133926
vn -0.8832603352222546 0.4647892153161711 0.06182366495807788
vn -0.38615737417761464 -0.6462855499304022 -0.6581773851473534
vn -0.38615737417761464 -0.6462855499304022 -0.6581773851473534
vn 0.38615737417761464 0.6462855499304022 0.6581773851473534
vn -0.8832603352222546 0.4647892153161711 0.06182366495807788
vn 0.8832603352222546 -0.4647892153161711 -0.06182366495807788
vn 0.26595800907534345 0.605215641963206 -0.7503201744133926
vn -0.26595800907534345 -0.605215641963206 0.7503201744133926
vn -0.26595800907534345 -0.605215641963206 0.7503201744133926
vn 0.26595800907534345 0.605215641963206 -0.7503201744133926
vn -0.8832603352222546 0.4647892153161711 0.06182366495807788
vn 0.8832603352222546 -0.4647892153161711 -0.06182366495807788
vn -0.38615737417761464 -0.6462855499304022 -0.6581773851473534
vn 0.38615737417761464 0.6462855499304022 0.6581773851473534
vn 0.08499378615813362 0.029040810426311896 0.9959581756501066
vn -0.8832603352222546 0.4647892153161711 0.06182366495807788
vn 0 0 0
vn -0.08499378615813362 -0.029040810426311896 -0.9959581756501066
vn -0.8832603352222546 0.4647892153161711 0.06182366495807788
vn -0.8832603352222546 0.4647892153161711 0.06182366495807788
vn -0.46111520961423097 -0.8849449794510169 0.06515479112745946
vn -0.8832603352222546 0.4647892153161711 0.06182366495807788
vn 0.8832603352222546 -0.4647892153161711 -0.06182366495807788
vn 0.8832603352222546 -0.4647892153161711 -0.06182366495807788
vn 0.8832603352222546 -0.4647892153161711 -0.06182366495807788
vn 0.26595800907534345 0.605215641963206 -0.7503201744133926
vn 0.8832603352222546 -0.4647892153161711 -0.06182366495807788
vn 0.38615737417761464 0.6462855499304022 0.6581773851473534
vn 0.46111520961423097 0.8849449794510169 -0.06515479112745946
vn 0 0 0
vn 0.8832603352222546 -0.4647892153161711 -0.06182366495807788
vn -0.38615737417761464 -0.6462855499304022 -0.6581773851473534
usemtl m_ed00973e-468d-2124-1850-ca34e46ee804
f 62/189/51 61/190/51 63/191/51 64/192/51
f 67/193/52 65/194/52 66/195/52 68/196/52
f 65/197/53 61/198/53 62/199/53 66/200/53
f 64/201/54 63/202/54 67/203/54 68/204/54
f 63/205/55 61/206/55 65/207/55 67/208/55
f 66/209/56 62/210/56 64/211/56 68/212/56
f 75/213/57 73/214/57 74/215/57 76/216/57
f 73/217/58 69/218/58 70/219/58 74/220/58
f 72/221/59 71/222/59 75/223/59 76/224/59
f 71/225/60 69/226/60 73/227/60 75/228/60
f 74/229/61 70/230/61 72/231/61 76/232/61
f 78/233/62 77/234/62 79/235/62 80/236/62
f 83/237/63 81/238/63 82/239/63 84/240/63
f 81/241/64 77/242/64 78/243/64 82/244/64
f 80/245/65 79/246/65 83/247/65 84/248/65
f 79/249/66 77/250/66 81/251/66 83/252/66
f 82/253/67 78/254/67 80/255/67 84/256/67
f 86/257/68 85/258/68 87/259/68 88/260/68
f 91/261/69 89/262/69 90/263/69 92/264/69
f 89/265/70 85/266/70 86/267/70 90/268/70
f 88/269/71 87/270/71 91/271/71 92/272/71
f 87/273/72 85/274/72 89/275/72 91/276/72
f 90/277/73 86/278/73 88/279/73 92/280/73
f 94/281/74 93/282/74 95/283/74 96/284/74
f 99/285/75 97/286/75 98/287/75 100/288/75
f 97/289/76 93/290/76 94/291/76 98/292/76
f 98/293/77 94/294/77 96/295/77 100/296/77
f 102/297/78 101/298/78 103/299/78 104/300/78
f 107/301/79 105/302/79 106/303/79 108/304/79
f 105/305/80 101/306/80 102/307/80 106/308/80
f 103/309/81 101/310/81 105/311/81 107/312/81
f 110/313/82 109/314/82 111/315/82 112/316/82
f 115/317/83 113/318/83 114/319/83 116/320/83
f 113/321/84 109/322/84 110/323/84 114/324/84
f 112/325/85 111/326/85 115/327/85 116/328/85
f 111/329/86 109/330/86 113/331/86 115/332/86
f 114/333/87 110/334/87 112/335/87 116/336/87
f 118/337/88 117/338/88 119/339/88 120/340/88
f 123/341/89 121/342/89 122/343/89 124/344/89
f 121/345/90 117/346/90 118/347/90 122/348/90
f 120/349/91 119/350/91 123/351/91 124/352/91
f 119/353/92 117/354/92 121/355/92 123/356/92
f 122/357/93 118/358/93 120/359/93 124/360/93
f 98/361/94 118/362/94 120/363/94 100/364/94
f 122/365/95 118/366/95 98/367/95
f 102/368/96 93/369/96 97/370/96 106/371/96
f 107/372/97 111/373/97 109/374/97 105/375/97
f 101/376/98 105/377/98 109/378/98 113/379/98
f 94/380/99 118/381/99 98/382/99
f 117/383/100 110/384/100 112/385/100 119/386/100
f 114/387/101 110/388/101 117/389/101 121/390/101
f 119/391/102 112/392/102 116/393/102 123/394/102
f 111/395/103 107/396/103 103/397/103 115/398/103
f 96/399/104 95/400/104 99/401/104 100/402/104
f 95/403/105 93/404/105 97/405/105 99/406/105
f 104/407/106 103/408/106 107/409/106 108/410/106
f 106/411/107 102/412/107 104/413/107 108/414/107
f 106/415/108 97/416/108 99/417/108 108/418/108
f 124/419/109 100/420/109 96/421/109 120/422/109
f 104/423/110 108/424/110 99/425/110 95/426/110
f 70/427/111 69/428/111 71/429/111 72/430/111