# Made in Blockbench 5.0.7
mtllib apparatus.mtl

o mesh
v 1.375 1.99375 0.5
v 0.625 1.99375 0.5
v 1.375 1.49375 0.5
v 0.625 1.49375 0.5
v 1.375 1.99375 1
v 0.625 1.99375 1
v 1.375 1.49375 1
v 0.625 1.49375 1
vt 0.6 1
vt 0 1
vt 0 0
vt 0.6 0
vt 0.6 0
vt 0.6 1
vt 0 1
vt 0 0
vt 0 0
vt 0.6 0
vt 0.6 1
vt 0 1
vt 0 0.021742499999999998
vt 0.5950770000000001 -0.013013750000000046
vt 0.603445 1
vt 0 1
vt 1 0
vt 1 1
vt 0.6 1
vt 0.6 0
vt 1 0
vt 1 1
vt 0.6 1
vt 0.6 0
vn 0 0 -1
vn 0 0 1
vn 0 1 0
vn 0 -1 0
vn 1 0 0
vn -1 0 0
usemtl m_ba32258c-4749-79ad-d348-25beeb1d94c0
f 2/1/1 1/2/1 3/3/1 4/4/1
f 7/5/2 5/6/2 6/7/2 8/8/2
f 5/9/3 1/10/3 2/11/3 6/12/3
f 4/13/4 3/14/4 7/15/4 8/16/4
f 3/17/5 1/18/5 5/19/5 7/20/5
f 6/21/6 2/22/6 4/23/6 8/24/6
o mesh
v 1.489873406536008 1.325462885000818 0.6875
v 1.329781455703572 0.9176501513024262 0.6875
v 1.489873406536008 1.325462885000818 0.8125
v 1.329781455703572 0.9176501513024262 0.8125
v 1.4057752422816312 1.7554265055520915 0.6875000000000001
v 1.489873406536008 1.3254628850008179 0.6875000000000001
v 1.4057752422816312 1.7554265055520915 0.8125000000000001
v 1.489873406536008 1.3254628850008179 0.8125000000000001
vt 0.75 0.3125
vt 0.75 0.6875
vt 0.875 0.6875
vt 0.875 0.3125
vt 0.5625 0.875
vt 0.125 0.875
vt 0.125 0.75
vt 0.5625 0.75
vn 0.9308448322493807 -0.36541469356694256 0
vn 0.9814034719423463 0.191956310809279 0
usemtl m_2e00d5d7-bd41-b407-21f7-7f2e790fcf39
f 10/25/7 9/26/7 11/27/7 12/28/7
f 14/29/8 13/30/8 15/31/8 16/32/8
o mesh
v 0.6875 1.8125 0.6875
v 0.5625 1.8125 0.6875
v 0.6875 1.6875 0.6875
v 0.5625 1.6875 0.6875
v 0.6875 1.8125 0.8125
v 0.5625 1.8125 0.8125
v 0.6875 1.6875 0.8125
v 0.5625 1.6875 0.8125
vt 0.5625 0.8125
vt 0.4375 0.8125
vt 0.4375 0.6875
vt 0.5625 0.6875
vt 0.5625 0.6875
vt 0.5625 0.8125
vt 0.4375 0.8125
vt 0.4375 0.6875
vt 0.4375 0.4375
vt 0.5625 0.4375
vt 0.5625 0.5625
vt 0.4375 0.5625
vt 0.5625 0.4375
vt 0.5625 0.5625
vt 0.4375 0.5625
vt 0.4375 0.4375
vt 0.5625 0.6875
vt 0.5625 0.8125
vt 0.4375 0.8125
vt 0.4375 0.6875
vt 0.5625 0.8125
vt 0.4375 0.8125
vt 0.4375 0.6875
vt 0.5625 0.6875
vn 0 0 -1
vn 0 0 1
vn 0 1 0
vn 0 -1 0
vn 1 0 0
vn -1 0 0
usemtl m_58295871-aaed-331e-1826-ee21687fe7ff
f 18/33/9 17/34/9 19/35/9 20/36/9
f 23/37/10 21/38/10 22/39/10 24/40/10
f 21/41/11 17/42/11 18/43/11 22/44/11
f 20/45/12 19/46/12 23/47/12 24/48/12
f 19/49/13 17/50/13 21/51/13 23/52/13
f 22/53/14 18/54/14 20/55/14 24/56/14
o mesh
v 1.4375 1.8125 0.6875
v 1.3125 1.8125 0.6875
v 1.4375 1.6875 0.6875
v 1.3125 1.6875 0.6875
v 1.4375 1.8125 0.8125
v 1.3125 1.8125 0.8125
v 1.4375 1.6875 0.8125
v 1.3125 1.6875 0.8125
vt 0.5625 0.8125
vt 0.4375 0.8125
vt 0.4375 0.6875
vt 0.5625 0.6875
vt 0.5625 0.6875
vt 0.5625 0.8125
vt 0.4375 0.8125
vt 0.4375 0.6875
vt 0.4375 0.4375
vt 0.5625 0.4375
vt 0.5625 0.5625
vt 0.4375 0.5625
vt 0.5625 0.4375
vt 0.5625 0.5625
vt 0.4375 0.5625
vt 0.4375 0.4375
vt 0.5625 0.6875
vt 0.5625 0.8125
vt 0.4375 0.8125
vt 0.4375 0.6875
vt 0.5625 0.8125
vt 0.4375 0.8125
vt 0.4375 0.6875
vt 0.5625 0.6875
vn 0 0 -1
vn 0 0 1
vn 0 1 0
vn 0 -1 0
vn 1 0 0
vn -1 0 0
usemtl m_58295871-aaed-331e-1826-ee21687fe7ff
f 26/57/15 25/58/15 27/59/15 28/60/15
f 31/61/16 29/62/16 30/63/16 32/64/16
f 29/65/17 25/66/17 26/67/17 30/68/17
f 28/69/18 27/70/18 31/71/18 32/72/18
f 27/73/19 25/74/19 29/75/19 31/76/19
f 30/77/20 26/78/20 28/79/20 32/80/20
o mesh_selection
v 1.4375 1 0.5625
v 0.5625 1 0.5625
v 1.4375 0 0.5625
v 0.5625 0 0.5625
v 1.4375 1 1.4375
v 0.5625 1 1.4375
v 1.4375 0 1.4375
v 0.5625 0 1.4375
vt 0.9375 0
vt 0.9375 1
vt 0.0625 1
vt 0.0625 0
vt 0.9375 0
vt 0.9375 1
vt 0.0625 1
vt 0.0625 0
vt 0.9375 1
vt 0.0625 1
vt 0.0625 0
vt 0.9375 0
vt 0.9375 1
vt 0.0625 1
vt 0.0625 0
vt 0.9375 0
vn 1 0 0
vn 0 0 1
vn -1 0 0
vn 0 0 -1
usemtl m_034f04ed-4791-9738-7e01-6f57625c17d7
f 35/81/21 33/82/21 37/83/21 39/84/21
f 39/85/22 37/86/22 38/87/22 40/88/22
f 38/89/23 34/90/23 36/91/23 40/92/23
f 34/93/24 33/94/24 35/95/24 36/96/24
o mesh
v 0.6875 1.125 0.6875
v 0.5625 1.125 0.6875
v 0.6875 1 0.6875
v 0.5625 1 0.6875
v 0.6875 1.125 0.8125
v 0.5625 1.125 0.8125
v 0.6875 1 0.8125
v 0.5625 1 0.8125
vt 0.6875 0.4375
vt 0.5625 0.4375
vt 0.5625 0.3125
vt 0.6875 0.3125
vt 0.6875 0.3125
vt 0.6875 0.4375
vt 0.5625 0.4375
vt 0.5625 0.3125
vt 0.5625 0.0625
vt 0.6875 0.0625
vt 0.6875 0.1875
vt 0.5625 0.1875
vt 0.6875 0.0625
vt 0.6875 0.1875
vt 0.5625 0.1875
vt 0.5625 0.0625
vt 0.6875 0.3125
vt 0.6875 0.4375
vt 0.5625 0.4375
vt 0.5625 0.3125
vt 0.6875 0.4375
vt 0.5625 0.4375
vt 0.5625 0.3125
vt 0.6875 0.3125
vn 0 0 -1
vn 0 0 1
vn 0 1 0
vn 0 -1 0
vn 1 0 0
vn -1 0 0
usemtl m_58295871-aaed-331e-1826-ee21687fe7ff
f 42/97/25 41/98/25 43/99/25 44/100/25
f 47/101/26 45/102/26 46/103/26 48/104/26
f 45/105/27 41/106/27 42/107/27 46/108/27
f 44/109/28 43/110/28 47/111/28 48/112/28
f 43/113/29 41/114/29 45/115/29 47/116/29
f 46/117/30 42/118/30 44/119/30 48/120/30
o mesh
v 1.4375 1.125 0.6875
v 1.3125 1.125 0.6875
v 1.4375 1 0.6875
v 1.3125 1 0.6875
v 1.4375 1.125 0.8125
v 1.3125 1.125 0.8125
v 1.4375 1 0.8125
v 1.3125 1 0.8125
vt 0.8125 0.75
vt 0.6875 0.75
vt 0.6875 0.625
vt 0.8125 0.625
vt 0.8125 0.625
vt 0.8125 0.75
vt 0.6875 0.75
vt 0.6875 0.625
vt 0.6875 0.375
vt 0.8125 0.375
vt 0.8125 0.5
vt 0.6875 0.5
vt 0.8125 0.375
vt 0.8125 0.5
vt 0.6875 0.5
vt 0.6875 0.375
vt 0.8125 0.625
vt 0.8125 0.75
vt 0.6875 0.75
vt 0.6875 0.625
vt 0.8125 0.75
vt 0.6875 0.75
vt 0.6875 0.625
vt 0.8125 0.625
vn 0 0 -1
vn 0 0 1
vn 0 1 0
vn 0 -1 0
vn 1 0 0
vn -1 0 0
usemtl m_58295871-aaed-331e-1826-ee21687fe7ff
f 50/121/31 49/122/31 51/123/31 52/124/31
f 55/125/32 53/126/32 54/127/32 56/128/32
f 53/129/33 49/130/33 50/131/33 54/132/33
f 52/133/34 51/134/34 55/135/34 56/136/34
f 51/137/35 49/138/35 53/139/35 55/140/35
f 54/141/36 50/142/36 52/143/36 56/144/36
o mesh
v 0.75 1.9996874999999998 1.25
v 0.5 1.9996874999999998 1.25
v 0.75 1.0003125 1.25
v 0.5 1.0003125 1.25
v 0.75 1.9996874999999998 1.375
v 0.5 1.9996874999999998 1.375
v 0.75 1.0003125 1.375
v 0.5 1.0003125 1.375
v 0.625 1.9996874999999998 1.2500625
v 0.625 1.9996874999999998 1.5
v 0.625 1.0003125 1.2500625
v 0.625 1.0003125 1.5
v 0.75 1.9996874999999998 1.2500625
v 0.75 1.9996874999999998 1.5
v 0.75 1.0003125 1.2500625
v 0.75 1.0003125 1.5
vt 0.6875 1
vt 0.4375 1
vt 0.4375 0
vt 0.6875 0
vt 0.6875 0
vt 0.6875 1
vt 0.4375 1
vt 0.4375 0
vt 0.4375 0.3125
vt 0.6875 0.3125
vt 0.6875 0.5625
vt 0.4375 0.5625
vt 0.6875 0.3125
vt 0.6875 0.5625
vt 0.4375 0.5625
vt 0.4375 0.3125
vt 0.625 1
vt 0.5 1
vt 0.5 0.0006249999999999867
vt 0.625 0.0006249999999999867
vt 0.6875 1
vt 0.4375 1
vt 0.4375 0
vt 0.6875 0
vt 0.6875 0
vt 0.6875 1
vt 0.4375 1
vt 0.4375 0
vt 0.4375 0.3125
vt 0.6875 0.3125
vt 0.6875 0.5625
vt 0.4375 0.5625
vt 0.6875 0.3125
vt 0.6875 0.5625
vt 0.4375 0.5625
vt 0.4375 0.3125
vt 0.6875 0
vt 0.6875 1
vt 0.4375 1
vt 0.4375 0
vt 0.625 1
vt 0.5 1
vt 0.5 0.0006249999999999867
vt 0.625 0.0006249999999999867
vt 0 0.0006249999999999867
vt 0.176775 0.0006249999999999867
vt 0.176775 1
vt 0 1
vn 0 0 -1
vn 0 0 1
vn 0 1 0
vn 0 -1 0
vn -1 0 0
vn -1 0 0
vn 1 0 0
vn 0 1 0
vn 0 -1 0
vn 0 0 -1
vn 0 0 1
vn 0.7071067811865476 0 -0.7071067811865476
usemtl m_bc1325e1-0d08-769c-d5a1-4b293760afca
f 58/145/37 57/146/37 59/147/37 60/148/37
f 63/149/38 61/150/38 62/151/38 64/152/38
f 61/153/39 57/154/39 58/155/39 62/156/39
f 60/157/40 59/158/40 63/159/40 64/160/40
f 62/161/41 58/162/41 60/163/41 64/164/41
f 66/165/42 65/166/42 67/167/42 68/168/42
f 71/169/43 69/170/43 70/171/43 72/172/43
f 69/173/44 65/174/44 66/175/44 70/176/44
f 68/177/45 67/178/45 71/179/45 72/180/45
f 67/181/46 65/182/46 69/183/46 71/184/46
f 70/185/47 66/186/47 68/187/47 72/188/47
f 68/189/48 64/190/48 62/191/48 66/192/48
o mesh
v 0.99998125 1.5386625 1.625
v 0.99998125 1.4761625 1.625
v 0.99998125 1.5386625 1.8125
v 0.99998125 1.4761625 1.8125
v 1 1.6875 1.25
v 1.125 1.6875 1.180075
v 1.1249875 2.0625 1.180075
v 1 1.6875 1.11015
v 0.9999875 2.0625 1.11015
v 0.875 1.6875 1.180075
v 0.8749875 2.0625 1.180075
v 0.875 1.6875 1.319925
v 0.8749875 2.0625 1.319925
v 1 1.6875 1.38985
v 0.9999875 2.0625 1.38985
v 1.125 1.6875 1.319925
v 1.1249875 2.0625 1.319925
v 0.99998125 1.4999875 1.625
v 1 1.5 1.4375
v 1.12498125 1.4300625 1.625
v 1.125 1.430075 1.4375
v 0.99998125 1.360136875 1.625
v 1 1.360149375 1.4375
v 0.87498125 1.4300625 1.625
v 0.875 1.430075 1.4375
v 0.87498125 1.5699125 1.625
v 0.875 1.569925 1.4375
v 0.99998125 1.6398375 1.625
v 1 1.63985 1.4375
v 1.12498125 1.5699125 1.625
v 1.125 1.569925 1.4375
vt 0.8 0.75
vt 0.8 0.875
vt 0.65 0.875
vt 0.65 0.75
vt 0.8 0.875
vt 0.65 0.875
vt 0.65 0.75
vt 0.8 0.75
vt 0.45235 0.3125
vt 0.382425 0.4375
vt 0.3125 0.3125
vt 0.3125 0.25
vt 0.455725 0.25
vt 0.4557375 0.625
vt 0.31250625 0.625
vt 0.382425 0.4375
vt 0.45235 0.5625
vt 0.3125 0.5625
vt 0.3125 0.25
vt 0.45573125 0.25
vt 0.45574375 0.625
vt 0.3125125 0.625
vt 0.3125 0.3125
vt 0.45235 0.3125
vt 0.382425 0.4375
vt 0.3125 0.25
vt 0.45235 0.25
vt 0.45235 0.625
vt 0.3125 0.625
vt 0.3125 0.5625
vt 0.382425 0.4375
vt 0.45235 0.5625
vt 0.31250625 0.25
vt 0.4557375 0.25
vt 0.455725 0.625
vt 0.3125 0.625
vt 0.382425 0.4375
vt 0.3125 0.3125
vt 0.45235 0.3125
vt 0.3125125 0.25
vt 0.4557375 0.25
vt 0.45573125 0.625
vt 0.3125 0.625
vt 0.45235 0.5625
vt 0.3125 0.5625
vt 0.382425 0.4375
vt 0.3125 0.25
vt 0.45235 0.25
vt 0.45235 0.625
vt 0.3125 0.625
vt 0.3125 0.29764999999999997
vt 0.4375 0.367575
vt 0.3125 0.4375
vt 0.25 0.49996874999999996
vt 0.25 0.35674375
vt 0.4375 0.35676874999999997
vt 0.4375 0.5
vt 0.25 0.492575
vt 0.375 0.42264999999999997
vt 0.375 0.5625
vt 0.25 0.492575
vt 0.375 0.42264999999999997
vt 0.375 0.5625
vt 0.250015625 0.3125
vt 0.393240625 0.3125
vt 0.393225 0.5
vt 0.25 0.5
vt 0.3125 0.29764999999999997
vt 0.4375 0.367575
vt 0.3125 0.4375
vt 0.3125 0.4375
vt 0.3125 0.29764999999999997
vt 0.4375 0.367575
vt 0.4375 0.3601375
vt 0.4375 0.49998750000000003
vt 0.25 0.5
vt 0.25 0.36014999999999997
vt 0.375 0.42264999999999997
vt 0.375 0.5625
vt 0.25 0.492575
vt 0.375 0.5625
vt 0.25 0.492575
vt 0.375 0.42264999999999997
vt 0.3125 0.3125
vt 0.45573125 0.3125
vt 0.455748125 0.5
vt 0.312523125 0.5
vt 0.4375 0.367575
vt 0.3125 0.4375
vt 0.3125 0.29764999999999997
vt 0.4375 0.367575
vt 0.3125 0.4375
vt 0.3125 0.29764999999999997
vt 0.25 0.5
vt 0.25 0.35676874999999997
vt 0.4375 0.35676125000000003
vt 0.4375 0.49999249999999995
vt 0.375 0.5625
vt 0.25 0.492575
vt 0.375 0.42264999999999997
vt 0.375 0.42264999999999997
vt 0.375 0.5625
vt 0.25 0.492575
vt 0.25 0.49998750000000003
vt 0.25 0.3601375
vt 0.4375 0.36014999999999997
vt 0.4375 0.5
vt 0.3125 0.4375
vt 0.3125 0.29764999999999997
vt 0.4375 0.367575
vt 0.0625 0.5530787500000001
vt 0.228778125 0.5530787500000001
vt 0.179335625 0.687499375
vt 0.111949375 0.6875
vt 0.062506875 0.521225625
vt 0.19692625 0.5706687500000001
vt 0.19692625 0.638055
vt 0.0625 0.6875
vt 0.319925 0.6875
vt 0.180075 0.6875
vt 0.0625 0.569925
vt 0.0625 0.430075
vt 0.52544625 0.55307375
vt 0.476001875 0.6875
vt 0.111946875 0.6875
vt 0.0625 0.553073125
vt 0.19692 0.638056875
vt 0.0625 0.6875
vt 0.0625 0.224559375
vt 0.196926875 0.27400562500000003
vt 0.20235 0.6875
vt 0.0625 0.6875
vt 0.319925 0.430075
vt 0.319925 0.569925
vn 1 0 0
vn -1 0 0
vn 0 -1 0
vn 0.488204690060499 0.000016273489668676478 -0.8727291563469769
vn 0 -1 0
vn -0.48820469006049894 -0.000016273489668676475 -0.8727291563469767
vn 0 -1 0
vn -0.9999999994444446 -0.00003333333331481115 0
vn 0 -1 0
vn -0.48820469006049894 -0.000016273489668676475 0.8727291563469767
vn 0 -1 0
vn 0.488204690060499 0.000016273489668676478 0.8727291563469769
vn 0 -1 0
vn 0.9999999994444446 0.00003333333331481115 0
vn 0 0 1
vn 0.48820801369091216 -0.872727297201334 -0.000009361018444179793
vn 0 0 -1
vn 0 0 1
vn -0.48820801091741906 -0.8727272922433998 -0.00010700262057451528
vn 0 0 -1
vn 0 0 1
vn -0.9999999950000001 0 -0.00009999999950006303
vn 0 0 -1
vn 0 0 1
vn -0.48820469010375117 0.8727291564242958 0.000009361474751064874
vn 0 0 -1
vn 0 0 1
vn 0.4882046873302899 0.8727291514663743 0.00010700241216402915
vn 0 0 -1
vn 0 0 1
vn 0.9999999950000001 0 0.000099999999499989
vn 0 0 -1
vn 0.36782510820690456 0.6575350522111271 0.6575350522111271
vn -0.36782510820690456 0.657535052211127 0.6575350522111271
vn 1 0 0
vn 0.36782510820690456 0.657535052211127 0.657535052211127
vn -0.3678254118379369 0.6575343395794254 0.6575355949909489
vn -1 0 0
usemtl m_ba32258c-4749-79ad-d348-25beeb1d94c0
f 74/193/49 73/194/49 75/195/49 76/196/49
f 75/197/50 73/198/50 74/199/50 76/200/50
usemtl m_58295871-aaed-331e-1826-ee21687fe7ff
f 80/201/51 78/202/51 77/203/51
f 78/204/52 80/205/52 81/206/52 79/207/52
f 82/208/53 80/209/53 77/210/53
f 80/211/54 82/212/54 83/213/54 81/214/54
f 84/215/55 82/216/55 77/217/55
f 82/218/56 84/219/56 85/220/56 83/221/56
f 86/222/57 84/223/57 77/224/57
f 84/225/58 86/226/58 87/227/58 85/228/58
f 88/229/59 86/230/59 77/231/59
f 86/232/60 88/233/60 89/234/60 87/235/60
f 78/236/61 88/237/61 77/238/61
f 88/239/62 78/240/62 79/241/62 89/242/62
f 94/243/63 92/244/63 90/245/63
f 92/246/64 94/247/64 95/248/64 93/249/64
f 93/250/65 95/251/65 91/252/65
f 96/253/66 94/254/66 90/255/66
f 94/256/67 96/257/67 97/258/67 95/259/67
f 95/260/68 97/261/68 91/262/68
f 98/263/69 96/264/69 90/265/69
f 96/266/70 98/267/70 99/268/70 97/269/70
f 97/270/71 99/271/71 91/272/71
f 100/273/72 98/274/72 90/275/72
f 98/276/73 100/277/73 101/278/73 99/279/73
f 99/280/74 101/281/74 91/282/74
f 102/283/75 100/284/75 90/285/75
f 100/286/76 102/287/76 103/288/76 101/289/76
f 101/290/77 103/291/77 91/292/77
f 92/293/78 102/294/78 90/295/78
f 102/296/79 92/297/79 93/298/79 103/299/79
f 103/300/80 93/301/80 91/302/80
f 103/303/81 88/304/81 86/305/81 101/306/81
f 99/307/82 101/308/82 86/309/82 84/310/82
f 82/311/83 84/312/83 99/313/83 97/314/83
f 80/315/84 82/316/84 97/317/84 95/318/84
f 78/319/85 80/320/85 95/321/85 93/322/85
f 88/323/86 78/324/86 93/325/86 103/326/86
o mesh_selection
v 0.9144375 1.550971875 1.6875025
v 1.00003 1.6024075 1.687504375
v 1.0000375000000001 1.6024075 1.562495625
v 0.9144450000000001 1.550971875 1.562493125
v 0.91438125 1.448551875 1.6875025
v 0.9143887500000001 1.448551875 1.562493125
v 0.9999175 1.397566875 1.687504375
v 0.9999250000000001 1.397566875 1.562495625
v 1.08551 1.4490025 1.687506875
v 1.0855175000000001 1.4490025 1.5624975
v 1.08556625 1.5514231250000001 1.687506875
v 1.08557375 1.5514231250000001 1.5624975
vt 0.5 0.25
vt 0.5 0.15013750000000003
vt 0.62500625 0.15013750000000003
vt 0.6250125 0.25
vt 0.56250625 0.08791875000000005
vt 0.5625125 0.1875
vt 0.4375 0.1875
vt 0.4375 0.08791875000000005
vt 0.6250125 0.147575
vt 0.6250125 0.25
vt 0.5 0.25
vt 0.5 0.147575
vt 0.5625125 0.087635625
vt 0.5625125 0.18749187499999997
vt 0.43750625 0.1875
vt 0.4375 0.08764375000000002
vt 0.4375 0.1875
vt 0.4375 0.08792500000000003
vt 0.5625125 0.08792500000000003
vt 0.56250625 0.1875
vt 0.5 0.25
vt 0.5 0.147575
vt 0.6250125 0.147575
vt 0.6250125 0.25
vn 0.5150856225887768 -0.8571387288224342 0.00003090297414717448
vn -0.5120070129449655 -0.8589812674043429 -0.000030718116918009304
vn -0.9999998473849658 0.0005492090550225729 -0.000059995491181208415
vn -0.5150856227545624 0.8571387287228077 -0.00003090297415712092
vn 0.512002381691899 0.858984027906362 0.00003071783906356351
vn 0.9999998473868065 -0.0005492057035924992 0.00005999549118137429
usemtl m_2e00d5d7-bd41-b407-21f7-7f2e790fcf39
f 112/327/87 110/328/87 111/329/87 113/330/87
f 110/331/88 108/332/88 109/333/88 111/334/88
f 108/335/89 104/336/89 107/337/89 109/338/89
f 104/339/90 105/340/90 106/341/90 107/342/90
f 105/343/91 114/344/91 115/345/91 106/346/91
f 114/347/92 112/348/92 113/349/92 115/350/92
o mesh_selection
v 1.3124375 2.8125 0.6875624999999999
v 0.6875624999999999 2.8125 0.6875624999999999
v 1.3124375 2.8125 1.3125624999999999
v 0.6875624999999999 2.8125 1.3125624999999999
vt 0 0.12512500000000004
vt 0.75 0.12512500000000004
vt 0.75 0.875
vt 0 0.875
vn 0 1 0
usemtl m_1ccbcf6e-0fcc-1a85-050d-4a9bb7d9e55d
f 118/351/93 116/352/93 117/353/93 119/354/93
o mesh_selection
v 0.71875 2.9375 0.7187499999999999
v 0.625 2.9375625 0.7187968749999999
v 0.625 2.9375625 1.2812968749999998
v 1.28125 2.9375 0.7187499999999999
v 1.28125 2.9375 0.6249999999999999
v 0.71875 2.9375 0.6249999999999999
v 1.375 2.9375625 1.2812968749999998
v 1.375 2.9375625 0.7187968749999999
v 1.375 2.5 1.3749999999999998
v 0.625 2.5 1.3749999999999998
v 1.375 1.9999999999999998 1.3749999999999998
v 0.625 1.9999999999999998 1.3749999999999998
v 1.375 2.5 1.4999999999999998
v 0.625 2.5 1.4999999999999998
v 1.375 1.9999999999999998 1.4999999999999998
v 0.625 1.9999999999999998 1.4999999999999998
v 1.375 2.5 1.4999999999999998
v 1.375 2.5 1.3749999999999998
v 0.625 2.5 1.3749999999999998
v 0.625 2.5 1.4999999999999998
v 1.28125 2.9375 1.3749999999999998
v 1.28125 2.9375 1.2812499999999998
v 0.71875 2.9375 1.2812499999999998
v 0.71875 2.9375 1.3749999999999998
v 1.5 2.0000625 0.6250624999999999
v 1.5 2.5000625 0.6250624999999999
v 1.375 2.5 0.4999999999999998
v 0.625 2.5 0.4999999999999998
v 1.375 1.9999999999999998 0.4999999999999998
v 0.625 1.9999999999999998 0.4999999999999998
v 1.375 2.5 0.6249999999999999
v 0.625 2.5 0.6249999999999999
v 1.375 1.9999999999999998 0.6249999999999999
v 0.625 1.9999999999999998 0.6249999999999999
v 0.5 2.5000625 0.6250624999999999
v 0.5 2.0000625 0.6250624999999999
v 0.5 2.5000625 1.3750624999999999
v 0.5 2.0000625 1.3750624999999999
v 1.375 2.5000625 1.3750624999999999
v 1.375 2.0000625 1.3750624999999999
v 0.625 2.5000625 1.3750624999999999
v 0.625 2.0000625 1.3750624999999999
v 1.5 2.5000625 1.3750624999999999
v 1.5 2.0000625 1.3750624999999999
vt 0.875 1
vt 0.875 0
vt 1 0
vt 1 1
vt 0 0.25
vt 0 0
vt 1 0
vt 1 0.25
vt 0 1
vt 0 0
vt 0.125 0
vt 0.125 1
vt 1 1
vt 0 1
vt 0 0
vt 1 0
vt 0.875 0
vt 0.875 1
vt 0.125 1
vt 0.125 0
vt 0.75 -1
vt 0.75 1
vt 0.25 1
vt 0.25 -1
vt 1 0
vt 1 1
vt 0.5 1
vt 0.5 0
vt 0.5 1
vt 0 1
vt 0 0
vt 0.5 0
vt 0 1
vt 0 0.75
vt 1 0.75
vt 1 1
vt 0 1
vt 0 0.75
vt 1 0.75
vt 1 1
vt 0.21875 1
vt 0.125 -0.003762499999999891
vt 0.875 -0.003762499999999891
vt 0.78125 1
vt 0.6875 1
vt 0.375 1
vt 0.375 0
vt 0.6875 0
vt 1 0
vt 1 1
vt 0.875 1
vt 0.875 0
vt 0.8750625 0.74925
vt 0.8750625 0.99925
vt 0.1250625 1
vt 0.125 0.75
vt 1 1
vt 0.125 1
vt 0.125 0
vt 1 0
vt 0.875 1
vt 0.125 1
vt 0.125 0
vt 0.875 0
vt 1 0
vt 1 1
vt 0 1
vt 0 0
vt 0 0.25
vt 0 0
vt 1 0
vt 1 0.25
vt 0.75 -1
vt 0.75 1
vt 0.25 1
vt 0.25 -1
vt 1 0
vt 1 1
vt 0.875 1
vt 0.875 0
vt 0.125 1
vt 0 1
vt 0 0
vt 0.125 0
vt 0.6875 1
vt 0.375 1
vt 0.375 0
vt 0.6875 0
vt 0.125 0
vt 0.125 1
vt 0 1
vt 0 0
vt 0.125 0.99924625
vt 0.125 0.7492525
vt 0.87506125 0.74999875
vt 0.874998125 1
vt 0.875 0
vt 0.875 1
vt 0 1
vt 0 0
vt 0 1
vt 0 0
vt 0.125 0
vt 0.125 1
vt 0.875 1
vt 0.875 0
vt 1 0
vt 1 1
vt 0.875 1
vt 0.125 1
vt 0.125 0
vt 0.875 0
vt 0.875 0
vt 0.875 1
vt 0.125 1
vt 0.125 0
vt 0.78126875 1
vt 0.21876875 1
vt 0.125 -0.003762499999999891
vt 0.875 -0.003762499999999891
vt 0.875 -0.003762499999999891
vt 0.78125 1
vt 0.21875 1
vt 0.125 -0.003762499999999891
vt 0.78123125 1
vt 0.21873125 1
vt 0.125 -0.003762499999999891
vt 0.875 -0.003762499999999891
vt 0.09375 0.8125
vt 0.09375 1
vt 0 0.8125875
vt 0.23923125 1
vt 0.0625 1.000125
vt 0.0625 0.00012500000000004174
vt 0.23923125 0
vt 0.79142625 1
vt 0.76874875 -0.015609999999999902
vt 0.95173 -0.015546250000000095
vt 0.92866375 1
vt 0.75 0.999875
vt 0.75 -0.00012499999999993072
vt 0.92673125 0
vt 0.92673125 1
vt 0.00004375 1
vt 0 0.8125
vt 0.09375 0.8125
vt 0.23923125 0.00939000000000001
vt 0.217321875 1
vt 0.084771875 1
vt 0.0625 0.009438750000000051
vt 0.92681875 0.00012500000000004174
vt 0.92681875 1.000125
vt 0.75 1
vt 0.75 0
vt 0.09375 0.8125
vt 0.09379375 1
vt 0 0.8125
vt 0.92324625 1.02180375
vt 0.7906275 1.0218425
vt 0.768714375 0
vt 0.945533125 0
vt 0.00004375 0.8125
vt 0.09379375 0.8125
vt 0 1
vt 0.75 0.999875
vt 0.75 -0.00012499999999993072
vt 0.92681875 0
vt 0.92681875 1
vt 0.084793125 0.99997625
vt 0.0625 0.009419999999999984
vt 0.23931875 0.009419999999999984
vt 0.217411875 1
vt 0.125 0.12493750000000003
vt 0.875 0.12493750000000003
vt 0.875 0.875
vt 0.125 0.875
vt 0.0937875 1
vt 0 0.10515375000000005
vt 0.7500625 0.10515375000000005
vt 0.6562875 0.99990625
vt 0.09375 1
vt 0 0.1051375
vt 0.75 0.1051375
vt 0.65625 1
vt 0.0938125 1
vt 0 0.10526250000000004
vt 0.7500625 0.1051375
vt 0.6563125 1
vt 0.09375 1
vt 0 0.1051375
vt 0.75 0.1051375
vt 0.65625 1
vt 0 0.75
vt 0.1250625 1
vt 0.0000625 1
vt 0 0.7498750000000001
vt 0 0.999875
vt 0.125 1
vn 0.0006666665185181984 0.999999777777852 0
vn 0 1 0
vn -0.0006666665185181984 0.999999777777852 0
vn 0 0 -1
vn 0 0 1
vn 0 -1 0
vn 1 0 0
vn -1 0 0
vn 0 1 0
vn 0 1 0
vn 0 0.274721127897378 0.9615239476408232
vn 0.0004999999374997346 0 -0.9999998750000235
vn 0 0 1
vn 0.0004999999375000118 -0.9999998750000235 0
vn -1 0 0
vn 0 0 -1
vn 0 0 1
vn 0 1 0
vn 0 -1 0
vn 1 0 0
vn -1 0 0
vn -0.0004999999374997346 0 -0.9999998750000234
vn 0 0 1
vn -0.0004999582725852239 -0.9999998715492119 0.00008332637876420398
vn 1 0 0
vn -0.0004999999375001787 0.9999998750000235 0
vn 0.0004999582725853908 0.9999998715492119 -0.0000833263787642318
vn -1 0 0
vn 1 0 0
vn 0.9615239476408232 0.27472112789737807 0
vn 0 0.27472112789737824 -0.9615239476408233
vn -0.9615239476408232 0.27472112789737807 0
vn 0.0006666665185181985 0.999999777777852 0
vn -0.7069299381834157 0 0.7072835799734024
vn -0.6664152377580028 0.3333386073533241 0.6669153647440514
vn 0.7069299381834157 0 0.7072835799734024
vn -0.0006666665185181985 0.999999777777852 0
vn 0.6663878841061865 0.33333683925590923 0.6669435804559184
vn -0.7072834916071548 0 0.7069300265938574
vn -0.0006666665185181985 0.999999777777852 0
vn 0.666726622016683 0.33331569674720274 -0.6666155247188217
vn 0.0006666665185181985 0.999999777777852 0
vn -0.7072834916071548 0 -0.7069300265938574
vn -0.6667512986328882 0.3333280412265739 -0.666584670318342
vn 0 -0.9999999965283565 0.00008332638917826485
vn -0.9778016474027841 -0.20953266578642132 0.00001745960051551349
vn 0 -0.20952908873087342 0.9778024140774095
vn 0.9777970474246723 -0.2095541308175369 0.00001746138911905616
vn 0 -0.20952908873087342 -0.9778024140774095
vn -0.0004999999375000119 -0.9999998750000235 0
vn 0.0004999999375000119 -0.9999998750000235 0
usemtl m_815050ab-b8a5-3a3a-a5d4-c89116336819
f 142/355/94 120/356/94 121/357/94 122/358/94
f 123/359/95 124/360/95 125/361/95 120/362/95
f 126/363/96 127/364/96 123/365/96 141/366/96
f 129/367/97 128/368/97 130/369/97 131/370/97
f 134/371/98 132/372/98 133/373/98 135/374/98
f 131/375/99 130/376/99 134/377/99 135/378/99
f 130/379/100 128/380/100 132/381/100 134/382/100
f 133/383/101 129/384/101 131/385/101 135/386/101
f 136/387/102 137/388/102 138/389/102 139/390/102
f 140/391/103 141/392/103 142/393/103 143/394/103
f 143/395/104 133/396/104 132/397/104 140/398/104
f 150/399/105 145/400/105 144/401/105 152/402/105
f 163/403/106 162/404/106 158/405/106 159/406/106
f 152/407/107 144/408/107 163/409/107 159/410/107
f 158/411/108 150/412/108 152/413/108 159/414/108
usemtl m_95dfe3b3-74b2-ad25-4b95-075cd816607d
f 147/415/109 146/416/109 148/417/109 149/418/109
usemtl m_815050ab-b8a5-3a3a-a5d4-c89116336819
f 152/419/110 150/420/110 151/421/110 153/422/110
f 150/423/111 146/424/111 147/425/111 151/426/111
f 149/427/112 148/428/112 152/429/112 153/430/112
f 148/431/113 146/432/113 150/433/113 152/434/113
f 151/435/114 147/436/114 149/437/114 153/438/114
f 154/439/115 151/440/115 153/441/115 155/442/115
f 161/443/116 160/444/116 156/445/116 157/446/116
f 155/447/117 153/448/117 161/449/117 157/450/117
f 153/451/118 151/452/118 160/453/118 161/454/118
f 162/455/119 145/456/119 150/457/119 158/458/119
f 160/459/120 151/460/120 154/461/120 156/462/120
f 156/463/121 154/464/121 155/465/121 157/466/121
f 144/467/122 145/468/122 162/469/122 163/470/122
f 127/471/123 126/472/123 162/473/123 145/474/123
f 147/475/124 125/476/124 124/477/124 146/478/124
f 122/479/125 121/480/125 154/481/125 156/482/125
f 142/483/126 122/484/126 143/485/126
f 133/486/127 156/487/127 157/488/127 135/489/127
f 122/490/128 156/491/128 133/492/128 143/493/128
f 132/494/129 134/495/129 163/496/129 162/497/129
f 126/498/130 141/499/130 140/500/130
f 162/501/131 126/502/131 140/503/131 132/504/131
usemtl m_95dfe3b3-74b2-ad25-4b95-075cd816607d
f 144/505/132 145/506/132 146/507/132 148/508/132
usemtl m_815050ab-b8a5-3a3a-a5d4-c89116336819
f 123/509/133 127/510/133 124/511/133
f 124/512/134 127/513/134 145/514/134 146/515/134
f 120/516/135 125/517/135 121/518/135
usemtl m_95dfe3b3-74b2-ad25-4b95-075cd816607d
f 147/519/136 149/520/136 155/521/136 154/522/136
usemtl m_815050ab-b8a5-3a3a-a5d4-c89116336819
f 125/523/137 147/524/137 154/525/137 121/526/137
usemtl m_41709984-6be5-3954-0cad-80f6db6b0b15
f 153/527/138 152/528/138 159/529/138 161/530/138
usemtl m_815050ab-b8a5-3a3a-a5d4-c89116336819
f 123/531/139 150/532/139 158/533/139 141/534/139
f 120/535/140 151/536/140 150/537/140 123/538/140
f 142/539/141 160/540/141 151/541/141 120/542/141
f 141/543/142 128/544/142 129/545/142 142/546/142
f 155/547/143 149/548/143 153/549/143
f 144/550/144 152/551/144 148/552/144
o mesh_selection
v 1.5 0.8125 0.5
v 0.5 0.8125 0.5
v 1.5 0 0.5
v 0.5 0 0.5
v 1.5 0.8125 1.5
v 0.5 0.8125 1.5
v 1.5 0 1.5
v 0.5 0 1.5
v 1.5 1 0.5
v 0.5 1 0.5
v 1.5 1 1.5
v 0.5 1 1.5
vt 0.875 1
vt 0.125 1
vt 0.125 0
vt 0.875 0
vt 0.125 0
vt 0.875 0
vt 0.875 1
vt 0.125 1
vt 0.125 0
vt 0.875 0
vt 0.875 1
vt 0.125 1
vt 0.125 0
vt 0.875 0
vt 0.875 1
vt 0.125 1
vt 0 0
vt 1 0
vt 1 1
vt 0 1
vt 1 0
vt 1 1
vt 0 1
vt 0 0
vt 0 1
vt 0 0.8125
vt 1 0.8125
vt 1 1
vt 0 1
vt 0 0.8125
vt 1 0.8125
vt 1 1
vt 0 1
vt 0 0.8125
vt 1 0.8125
vt 1 1
vt 1 0.8125
vt 1 1
vt 0 1
vt 0 0.8125
vn 0 0 -1
vn 1 0 0
vn 0 0 1
vn -1 0 0
vn 0 1 0
vn 0 -1 0
vn 0 0 -1
vn -1 0 0
vn 0 0 1
vn 1 0 0
usemtl m_2e00d5d7-bd41-b407-21f7-7f2e790fcf39
f 167/553/145 165/554/145 164/555/145 166/556/145
f 168/557/146 170/558/146 166/559/146 164/560/146
f 169/561/147 171/562/147 170/563/147 168/564/147
f 165/565/148 167/566/148 171/567/148 169/568/148
usemtl m_5888b1d2-c933-8489-9216-979f38737622
f 174/569/149 172/570/149 173/571/149 175/572/149
f 167/573/150 166/574/150 170/575/150 171/576/150
f 172/577/151 164/578/151 165/579/151 173/580/151
f 173/581/152 165/582/152 169/583/152 175/584/152
f 175/585/153 169/586/153 168/587/153 174/588/153
f 164/589/154 172/590/154 174/591/154 168/592/154
o mesh
v 1.25 1.9996874999999998 1.25
v 1.5 1.9996874999999998 1.25
v 1.25 1.0003125 1.25
v 1.5 1.0003125 1.25
v 1.25 1.9996874999999998 1.375
v 1.5 1.9996874999999998 1.375
v 1.25 1.0003125 1.375
v 1.5 1.0003125 1.375
v 1.375 1.9996874999999998 1.2500625
v 1.375 1.9996874999999998 1.5
v 1.375 1.0003125 1.2500625
v 1.375 1.0003125 1.5
v 1.25 1.9996874999999998 1.2500625
v 1.25 1.9996874999999998 1.5
v 1.25 1.0003125 1.2500625
v 1.25 1.0003125 1.5
vt 0.4375 0
vt 0.4375 1
vt 0.6875 1
vt 0.6875 0
vt 0.4375 1
vt 0.6875 1
vt 0.6875 0
vt 0.4375 0
vt 0.6875 0.5625
vt 0.6875 0.3125
vt 0.4375 0.3125
vt 0.4375 0.5625
vt 0.4375 0.5625
vt 0.6875 0.5625
vt 0.6875 0.3125
vt 0.4375 0.3125
vt 0.625 0.0006249999999999867
vt 0.625 1
vt 0.5 1
vt 0.5 0.0006249999999999867
vt 0.4375 0
vt 0.4375 1
vt 0.6875 1
vt 0.6875 0
vt 0.4375 1
vt 0.6875 1
vt 0.6875 0
vt 0.4375 0
vt 0.6875 0.5625
vt 0.6875 0.3125
vt 0.4375 0.3125
vt 0.4375 0.5625
vt 0.4375 0.5625
vt 0.6875 0.5625
vt 0.6875 0.3125
vt 0.4375 0.3125
vt 0.4375 1
vt 0.6875 1
vt 0.6875 0
vt 0.4375 0
vt 0.625 0.0006249999999999867
vt 0.625 1
vt 0.5 1
vt 0.5 0.0006249999999999867
vt 0.176775 1
vt 0.176775 0.0006249999999999867
vt 0 0.0006249999999999867
vt 0 1
vn 0 0 -1
vn 0 0 1
vn 0 1 0
vn 0 -1 0
vn 1 0 0
vn 1 0 0
vn -1 0 0
vn 0 1 0
vn 0 -1 0
vn 0 0 -1
vn 0 0 1
vn -0.7071067811865476 0 -0.7071067811865476
usemtl m_bc1325e1-0d08-769c-d5a1-4b293760afca
f 178/593/155 176/594/155 177/595/155 179/596/155
f 181/597/156 180/598/156 182/599/156 183/600/156
f 177/601/157 176/602/157 180/603/157 181/604/157
f 182/605/158 178/606/158 179/607/158 183/608/158
f 179/609/159 177/610/159 181/611/159 183/612/159
f 186/613/160 184/614/160 185/615/160 187/616/160
f 189/617/161 188/618/161 190/619/161 191/620/161
f 185/621/162 184/622/162 188/623/162 189/624/162
f 190/625/163 186/626/163 187/627/163 191/628/163
f 188/629/164 184/630/164 186/631/164 190/632/164
f 187/633/165 185/634/165 189/635/165 191/636/165
f 181/637/166 183/638/166 187/639/166 185/640/166
o mesh
v 0.5887406322449988 1.7571902428914001 0.6874999999999999
v 0.5046424679906221 1.3272266223401266 0.6875000000000008
v 0.5887406322449988 1.7571902428914004 0.8124999999999999
v 0.5046424679906221 1.327226622340127 0.8125000000000009
v 0.5046424679906222 1.3272266223401268 0.6875000000000006
v 0.6647344188230583 0.9194138886417348 0.6875000000000016
v 0.5046424679906222 1.3272266223401272 0.8125000000000007
v 0.6647344188230583 0.919413888641735 0.8125000000000016
vt 0.125 0.75
vt 0.125 0.875
vt 0.5625 0.875
vt 0.5625 0.75
vt 0.875 0.6875
vt 0.75 0.6875
vt 0.75 0.3125
vt 0.875 0.3125
vn -0.9814034719423462 0.19195631080927875 -7.661725471628972e-16
vn -0.9308448322493807 -0.3654146935669425 5.559996908145831e-16
usemtl m_2e00d5d7-bd41-b407-21f7-7f2e790fcf39
f 194/641/167 192/642/167 193/643/167 195/644/167
f 198/645/168 196/646/168 197/647/168 199/648/168