# Made in Blockbench 5.0.7
mtllib gemcutting_table.mtl

o mesh
v 1.5 1 2.5
v 1.5 1 1.5
v 1.5 0 2.5
v 1.5 0 1.5
v 0.5 1 2.5
v 0.5 1 1.5
v 0.5 0 2.5
v 0.5 0 1.5
vt 0.8125 0.8125
vt 0.1875 0.8125
vt 0.1875 0.1875
vt 0.8125 0.1875
vt 1 0
vt 1 1
vt 0 1
vt 0 0
vt 0 0
vt 1 0
vt 1 1
vt 0 1
vt 0.8125 0.8125
vt 0.1875 0.8125
vt 0.1875 0.1875
vt 0.8125 0.1875
vn 1 0 0
vn 0 -1 0
vn 0 1 0
vn 0 0 -1
usemtl m_ac41f875-3502-99f6-b118-bc2b4b2ef8a8
f 2/1/1 1/2/1 3/3/1 4/4/1
usemtl m_3eb1844b-626b-c8fb-fe4b-406e629f522e
f 4/5/2 3/6/2 7/7/2 8/8/2
usemtl m_eff18b4d-41c2-5fc6-00a7-cb26d43cd1bd
f 5/9/3 1/10/3 2/11/3 6/12/3
usemtl m_ac41f875-3502-99f6-b118-bc2b4b2ef8a8
f 6/13/4 2/14/4 4/15/4 8/16/4
o hammer
v 1.1609762672995858 1.40625 2.0132894443732248
v 1.1898355556267755 1.40625 1.9578512672995858
v 1.1609762672995858 1.71875 2.0132894443732248
v 1.1898355556267755 1.71875 1.9578512672995858
v 1.2164144443732245 1.40625 2.042148732700414
v 1.2452737327004142 1.40625 1.9867105556267755
v 1.2164144443732245 1.71875 2.042148732700414
v 1.2452737327004142 1.71875 1.9867105556267755
v 1.0622491577351625 1.21875 2.0675874216564933
v 1.177686311043921 1.21875 1.845834713361938
v 1.0622491577351625 1.40625 2.0675874216564933
v 1.1776863110439209 1.40625 1.845834713361938
v 1.2285636889560791 1.21875 2.154165286638062
v 1.3440008422648375 1.21875 1.9324125783435067
v 1.2285636889560791 1.40625 2.154165286638062
v 1.3440008422648375 1.40625 1.9324125783435067
vt 0.0625 1
vt 0 1
vt 0 0.6875
vt 0.0625 0.6875
vt 0.0625 0.6875
vt 0.0625 1
vt 0 1
vt 0 0.6875
vt 0 0
vt 1 0
vt 1 1
vt 0 1
vt 1 0
vt 1 1
vt 0 1
vt 0 0
vt 0.0625 0.6875
vt 0.0625 1
vt 0 1
vt 0 0.6875
vt 0.0625 1
vt 0 1
vt 0 0.6875
vt 0.0625 0.6875
vt 0.375 1
vt 0 1
vt 0 0.75
vt 0.375 0.75
vt 0.375 1
vt 0 1
vt 0 0.75
vt 0.375 0.75
vt 0.375 1
vt 0 1
vt 0 0.75
vt 0.375 0.75
vt 0.375 1
vt 0 1
vt 0 0.75
vt 0.375 0.75
vt 0.25 0.75
vt 0.25 1
vt 0 1
vt 0 0.75
vt 0.25 0.75
vt 0.25 1
vt 0 1
vt 0 0.75
vn -0.8870108331782217 -1.2246467991473537e-16 -0.4617486132350339
vn 0.8870108331782217 1.2246467991473537e-16 0.4617486132350339
vn 1.0862749776607363e-16 -1 5.654789612090136e-17
vn -1.0862749776607363e-16 1 -5.654789612090136e-17
vn -0.461748613235034 -1.2325951644078315e-32 0.8870108331782218
vn 0.461748613235034 1.2325951644078315e-32 -0.8870108331782218
vn -0.8870108331782217 -1.2246467991473537e-16 -0.4617486132350339
vn 0.8870108331782217 1.2246467991473537e-16 0.4617486132350339
vn 1.0862749776607363e-16 -1 5.654789612090136e-17
vn -1.0862749776607363e-16 1 -5.654789612090136e-17
vn -0.461748613235034 -1.2325951644078315e-32 0.8870108331782218
vn 0.461748613235034 1.2325951644078315e-32 -0.8870108331782218
usemtl m_3eb1844b-626b-c8fb-fe4b-406e629f522e
f 10/17/5 9/18/5 11/19/5 12/20/5
f 15/21/6 13/22/6 14/23/6 16/24/6
usemtl none
f 13/25/7 9/26/7 10/27/7 14/28/7
f 12/29/8 11/30/8 15/31/8 16/32/8
usemtl m_3eb1844b-626b-c8fb-fe4b-406e629f522e
f 11/33/9 9/34/9 13/35/9 15/36/9
f 14/37/10 10/38/10 12/39/10 16/40/10
usemtl m_7f80d216-d869-7841-6577-43f7c5fb041c
f 18/41/11 17/42/11 19/43/11 20/44/11
f 23/45/12 21/46/12 22/47/12 24/48/12
f 21/49/13 17/50/13 18/51/13 22/52/13
f 20/53/14 19/54/14 23/55/14 24/56/14
f 19/57/15 17/58/15 21/59/15 23/60/15
f 22/61/16 18/62/16 20/63/16 24/64/16
o mesh
v 0.6988353637406857 1.3461293749999999 1.9343820600350647
v 0.6829027796905874 1.346121875 1.9612656051056963
v 0.7601773363959695 1.716795625 1.9708421467596122
v 0.7442447523458714 1.7167881249999999 1.9977256918302437
v 0.7644577014143438 1.33967375 1.9732708370728476
v 0.7485251173642455 1.3396656249999999 2.0001543821434793
v 0.8257996740696276 1.710339375 2.0097309237973953
v 0.8098670900195294 1.710331875 2.0366144688680268
v 0.7911050427292101 1.236049375 2.0050625380288696
v 0.9546591165123942 1.356749375 2.0859985724515258
v 0.938726532462296 1.356741875 2.1128821175221577
v 0.8913732753778323 1.722241875 2.04859661469632
v 0.875440691327734 1.722234375 2.0754801597669514
v 0.8890855152041897 1.344846875 2.0471328815526015
v 0.8731529311540914 1.344839375 2.074016426623233
v 0.8257996740696276 1.710339375 2.0097309237973953
v 0.8098670900195294 1.710331875 2.0366144688680268
v 0.8489320440104585 1.23845 2.039334483760397
vt 0.689975 0.75
vt 0.3125 0.75
vt 0.31250125 0.71875
vt 0.68997625 0.71875
vt 0.53125 0.48594812499999995
vt 0.53125 0.5624981250000001
vt 0.5 0.5625
vt 0.5 0.485949375
vt 0.477348125 0.562139375
vt 0.553901875 0.562139375
vt 0.51405375 0.9375
vt 0.4375 0.9375
vt 0.689969375 0.75
vt 0.3125 0.75
vt 0.32058125 0.67387375
vt 0.69805125 0.67387375
vt 0.56177875 0.1875
vt 0.48522625 0.1875
vt 0.4375 0.086594375
vt 0.65949125 0.59375
vt 0.65949125 0.625
vt 0.5 0.611236875
vt 0.599835 0.593756875
vt 0.079965625 0.88924
vt 0.09375 1
vt 0.0625 1
vt 0.09375625 0.62252375
vt 0.09375625 0.99999875
vt 0.0625 1
vt 0.06250625 0.622525
vt 0.500019375 0.5646875
vt 0.531269375 0.5646875
vt 0.53125 0.9375
vt 0.5 0.9375
vt 0.51465 0.46875
vt 0.51465 0.5
vt 0.4375 0.49999499999999997
vt 0.4375 0.46874499999999997
vt 0.685313125 0.8125
vt 0.3125 0.8125
vt 0.3158575 0.73542375
vt 0.68867125 0.73542375
vt 0.45372625 0.56504
vt 0.530875625 0.56504
vt 0.514649375 0.9375
vt 0.4375 0.9375
vt 0.505275 0.15063249999999995
vt 0.4375 0.1875
vt 0.505275 0.036649374999999984
vt 0.642453125 0.522693125
vt 0.65625625 0.6875
vt 0.625 0.6875
vt 0.625000625 0.6258874999999999
vt 0.0625 0.9375
vt 0.0625 0.82351
vt 0.093520625 0.933720625
vt 0.3728125 0.7812306250000001
vt 0.3728125 0.8124806250000001
vt 0 0.8125
vt 0 0.78125
vt 0 0.906249375
vt 0.15260375 0.906249375
vt 0.152605 0.9375
vt 0.00000125 0.93749375
vt 0 1
vt 0.074949375 0.9817075
vt 0.151503125 0.9817075
vt 6.25e-7 0.92372
vt 6.25e-7 0.92372
vt 6.25e-7 0.84749
vt 0 1
vn -0.8447802388506225 0.1890452469859389 -0.5006078731297691
vn 0.0724309066384463 0.9964372293797588 0.04320430151643366
vn 0.5098345400080918 0.00024645235508621816 -0.8602724458425797
vn -0.5098345417174434 -0.00024645197256863193 0.8602724448296537
vn 0.495153483595818 -0.1359342982285936 -0.8581054097533858
vn -0.5936529856935059 -0.7236366425433708 -0.3520314505065479
vn 0.8047444890629062 0.3532973601009052 0.4770401268956454
vn 0.8447801879831186 -0.18904555435376602 0.5006078428972967
vn 0.843355248610859 0.19718216940788155 0.49987110009293195
vn -0.13284112776141493 0.9880275180167606 -0.07845290572512574
vn 0.5098398320319333 0.0002459318180018134 -0.8602693096880715
vn -0.5098398320319333 -0.0002459318180018132 0.8602693096880714
vn 0.5232764855475301 -0.1358198881208304 -0.8412696818879608
vn 0.6175850326881351 -0.6962509639263821 0.3658187018608791
vn -0.808930859722472 0.340417006056254 -0.4793194406409557
vn -0.843355248610859 -0.19718216940788158 -0.49987110009293173
vn -0.03082436026047798 0.9993629187920228 -0.017989312327633747
vn 0.5098363734112347 0.00027165400339309367 -0.860271351697232
vn 0 0 0
usemtl m_7f80d216-d869-7841-6577-43f7c5fb041c
f 27/65/17 25/66/17 26/67/17 28/68/17
f 31/69/18 27/70/18 28/71/18 32/72/18
f 29/73/19 25/74/19 27/75/19 31/76/19
f 28/77/20 26/78/20 30/79/20 32/80/20
f 25/81/21 29/82/21 33/83/21
f 26/84/22 25/85/22 33/86/22 30/87/22
f 33/88/23 29/89/23 30/90/23
f 29/91/24 31/92/24 32/93/24 30/94/24
f 35/95/25 34/96/25 36/97/25 37/98/25
f 37/99/26 36/100/26 40/101/26 41/102/26
f 36/103/27 34/104/27 38/105/27 40/106/27
f 39/107/28 35/108/28 37/109/28 41/110/28
f 38/111/29 34/112/29 42/113/29
f 42/114/30 34/115/30 35/116/30 39/117/30
f 38/118/31 42/119/31 39/120/31
f 41/121/32 40/122/32 38/123/32 39/124/32
f 28/125/33 37/126/33 36/127/33 27/128/33
f 37/129/34 41/130/34 28/131/34
f 40/132/35 31/133/35 36/134/35 27/135/35
o mesh
v 1.0174379741506294 0.8548486914450757 1.0718369180350726
v 1.0173732878881143 0.8570936529080144 0.9468570958087734
v 1.110552560642283 0.7714681441454772 1.0702909936883227
v 1.1104878743797681 0.7737131056084159 0.9453111714620236
v 0.9340431563635037 0.7617477117598521 1.0702077461507447
v 0.9339784701009887 0.7639926732227909 0.9452279239244453
v 1.0271583325428848 0.6783678227805976 1.068661833323927
v 1.02709364628037 0.6806127842435363 0.9436820110976278
v 0.8437302191794106 1.1601620837874154 1.046155999007825
v 0.843697876048153 1.161284564518885 0.9836660878946754
v 0.996828060250442 0.7126950583040593 1.0380390923167024
v 0.9967957171191846 0.7138175390355288 0.9755491812035528
v 0.9008533556674172 1.1909633849200558 1.046679704760343
v 0.9008210125361598 1.1920858656515252 0.9841897936471935
v 1.0539511967384487 0.7434963594366998 1.0385627980692207
v 1.053918853607191 0.7446188401681693 0.976072886956071
v 0.9080302037345823 1.3125778043162968 1.0173160333434412
v 1.1536387307737455 1.1685690182905677 1.0461466088572018
v 1.153606387642488 1.169691499022037 0.9836566977440522
v 1.0506096896461234 0.7069969990776946 1.0379089044536982
v 1.050577346514866 0.708119479809164 0.9754189933405485
v 1.0934783409897735 1.1929114761013313 1.0466149999096306
v 1.093445997858516 1.1940339568328007 0.984125088796481
v 0.9904486758078022 0.731339422521575 1.0383772952118027
v 0.9904163326765447 0.7324619032530444 0.9758873840986532
v 1.0794016811090077 1.3201411101135845 1.0227440611449687
vt 1 1
vt 0 1
vt 0 0.5
vt 1 0.5
vt 1 0.5
vt 1 1
vt 0 1
vt 0 0.5
vt 0 0
vt 1 0
vt 1 1
vt 0 1
vt 1 0
vt 1 1
vt 0 1
vt 0 0
vt 1 0.5
vt 1 1
vt 0 1
vt 0 0.5
vt 1 1
vt 0 1
vt 0 0.5
vt 1 0.5
vt 0.5 0.527
vt 0.5 1
vt 0.4375 1
vt 0.4375 0.527
vt 0.5625 1
vt 0.5 1
vt 0.5 0.5269937499999999
vt 0.5625 0.5269937499999999
vt 0.5 0.5
vt 0.5 0.43510000000000004
vt 0.5625 0.43510000000000004
vt 0.5625 0.5
vt 0.564018125 1
vt 0.5 0.989348125
vt 0.5 0.5163443750000001
vt 0.5640125 0.526998125
vt 0.25 0.669963125
vt 0.716594375 0.74760125
vt 0.716594375 0.8125
vt 0.250008125 0.73485875
vt 0.4375 0.07963437500000003
vt 0.502403125 0.07963437500000003
vt 0.5661925 0.1875
vt 0.5625 0.52256875
vt 0.625 0.52256875
vt 0.59345625 0.6875
vt 0.5625 0.5732125
vt 0.1875 0.44121875
vt 0.25 0.44121875
vt 0.21904375 0.5625
vt 1 1
vt 0 1
vt 0 0.5
vt 1 0.5
vt 1 0.5
vt 1 1
vt 0 1
vt 0 0.5
vt 1 0
vt 1 1
vt 0 1
vt 0 0
vt 1 0.5
vt 1 1
vt 0 1
vt 0 0.5
vt 1 1
vt 0 1
vt 0 0.5
vt 1 0.5
vt 0 0
vt 1 0
vt 0.5195975 0.44135125
vt 0.5195975 0.44135125
vt 1 0
vt 1 1
vt 0 1
vt 0 1
vt 0 0
vt 0.5195975 0.44135125
vn 0.6671581390223787 0.7448020887166151 0.013033272020629951
vn -0.6671528716599661 -0.7448068054044388 -0.01303335947081343
vn -0.7449182934331775 0.6670410670309913 0.012367336122182925
vn 0.7449182934331775 -0.6670410670309915 -0.01236733612218293
vn 0.0005174901001193527 -0.017959691703510097 0.999838577810394
vn -0.0005174901001193527 0.017959691703510097 -0.999838577810394
vn -0.9461691311963512 -0.323628854572973 -0.005323500627185667
vn 0.9461691311963512 0.323628854572973 0.005323500627185667
vn 0.4746625407056935 -0.8800214595064068 -0.01605313860370421
vn 0.0005174901001193527 -0.017959691703510097 0.999838577810394
vn -0.0005174901001193527 0.017959691703510097 -0.999838577810394
vn -0.13830186015555454 0.24015357531734174 0.9608323765047738
vn -0.9208315746565867 0.3898887797202166 0.0074800109459401175
vn 0.9982394799788384 -0.059291136643245444 -0.0015816849023409206
vn 0.9759890155205841 -0.21777495757533522 -0.004416948745693054
vn -0.9759887384884119 0.21777619868090262 0.004416970895780525
vn -0.37514001036642275 -0.926822118683407 -0.016453964308971194
vn 0.0005174901001193527 -0.017959691703510097 0.999838577810394
vn -0.0005174901001193527 0.017959691703510097 -0.999838577810394
vn 0.08565132492854997 0.19287185077135757 0.9774785418197248
vn 0.8975882145336427 0.44077188243874754 0.007452837158463633
vn -0.9939038795169303 -0.11024032728532665 -0.0014657834831976356
usemtl m_7f80d216-d869-7841-6577-43f7c5fb041c
f 44/136/36 43/137/36 45/138/36 46/139/36
f 49/140/37 47/141/37 48/142/37 50/143/37
f 47/144/38 43/145/38 44/146/38 48/147/38
f 46/148/39 45/149/39 49/150/39 50/151/39
f 45/152/40 43/153/40 47/154/40 49/155/40
f 48/156/41 44/157/41 46/158/41 50/159/41
f 53/160/42 51/161/42 52/162/42 54/163/42
f 56/164/43 55/165/43 57/166/43 58/167/43
f 57/168/44 53/169/44 54/170/44 58/171/44
f 55/172/45 51/173/45 53/174/45 57/175/45
f 54/176/46 52/177/46 56/178/46 58/179/46
f 51/180/47 55/181/47 59/182/47
f 52/183/48 51/184/48 59/185/48 56/186/48
f 55/187/49 56/188/49 59/189/49
f 61/190/50 60/191/50 62/192/50 63/193/50
f 66/194/51 64/195/51 65/196/51 67/197/51
f 63/198/52 62/199/52 66/200/52 67/201/52
f 62/202/53 60/203/53 64/204/53 66/205/53
f 65/206/54 61/207/54 63/208/54 67/209/54
f 64/210/55 60/211/55 68/212/55
f 68/213/56 60/214/56 61/215/56 65/216/56
f 65/217/57 64/218/57 68/219/57
o circle
v 2.0214560464928515 1.4090396383982493 0.993560242242368
v 2.001755995110913 1.4028282369442733 1.466655988678586
v 2.3265725935132235 1.5052424904795285 1.3426951199247734
v 2.4726554898581536 1.5513022392562525 1.0142163196161935
v 2.3544319051552693 1.514026496444071 0.6736366638455774
v 2.0411560978747896 1.4152510398522253 0.5204644958061502
v 1.716339499472479 1.31283678631697 0.6444253645599626
v 1.5702566031275489 1.2667770375402463 0.9729041648685426
v 1.6884801878304332 1.3040527803524278 1.3134838206391586
v 1.9650737224764607 1.5878615708856005 0.993560242519899
v 1.9453736710945224 1.5816501694316245 1.4666559889561168
v 2.270190269496833 1.6840644229668795 1.3426951202023045
v 2.416273165841763 1.7301241717436036 1.0142163198937244
v 2.298049581138879 1.692848428931422 0.6736366641231084
v 1.984773773858399 1.5940729723395763 0.5204644960836812
v 1.6599571754560887 1.4916587188043213 0.6444253648374936
v 1.5138742791111583 1.4455989700275973 0.9729041651460736
v 1.6320978638140424 1.4828747128397788 1.3134838209166897
vt 0 0.64209
vt 0 0.3125
vt 0.431439375 0.448799375
vt 0.017095 0
vt 0.381134375 0
vt 0.210385625 0.43143937499999996
vt 0.392095 0
vt 0.756134375 0
vt 0.585385625 0.43143937499999996
vt 0.45114875 1
vt 0.08710875 1
vt 0.2578575 0.5685606249999999
vt 0.017095 0
vt 0.381134375 0
vt 0.210385625 0.43143937499999996
vt 0.01588125 0.0015818749999999548
vt 0.3799075 0
vt 0.21282625 0.431365625
vt 0.017095 0
vt 0.381134375 0
vt 0.210385625 0.43143937499999996
vt 0.017095 0
vt 0.381134375 0
vt 0.210385625 0.43143937499999996
vt 0.1887875 0
vt 0.487885 0.0012987500000000152
vt 0.347746875 0.43150687499999996
vt 0.079595 0
vt 0.443634375 0
vt 0.272885625 0.43143937499999996
vt 0.392095 0
vt 0.756134375 0
vt 0.585385625 0.43143937499999996
vt 0.329594375 0
vt 0.693634375 0
vt 0.522885625 0.41262624999999997
vt 0.079595 0
vt 0.443634375 0
vt 0.272885625 0.43143937499999996
vt 0.26588125 0.0015818749999999548
vt 0.6299075 0
vt 0.46282625 0.431365625
vt 0.579595 0
vt 0.943634375 0
vt 0.772885625 0.43143937499999996
vt 0.079595 0
vt 0.443634375 0
vt 0.272885625 0.43143937499999996
vt 0.4249375 0.9375
vt 0.4249375 0.75
vt 0.0625 0.75
vt 0.0625 0.9375
vt 0.4249375 0.9375
vt 0.4249375 0.75
vt 0.0625 0.75
vt 0.0625 0.9375
vt 0.4249375 0.9375
vt 0.4249375 0.75
vt 0.0625 0.75
vt 0.0625 0.9375
vt 0.42493125 0.9375
vt 0.42493125 0.75
vt 0.0625 0.75
vt 0.0625 0.9375
vt 0.4249375 0.9375
vt 0.4249375 0.75
vt 0.0625 0.75
vt 0.0625 0.9375
vt 0.4249375 0.9375
vt 0.4249375 0.75
vt 0.0625 0.75
vt 0.0625 0.9375
vt 0.4249375 0.9375
vt 0.4249375 0.75
vt 0.0625 0.75
vt 0.0625 0.9375
vt 0.42493125 0.9375
vt 0.42493125 0.75
vt 0.0625 0.75
vt 0.0625 0.9375
vn -0.30070572808741614 0.9537169732658726 1.480165420786328e-9
vn -0.30070572808741614 0.9537169732658726 1.480165420786328e-9
vn -0.30070572808741614 0.9537169732658726 1.480165420786328e-9
vn -0.30070572808741614 0.9537169732658726 1.480165420786328e-9
vn -0.30070572808741614 0.9537169732658726 1.480165420786328e-9
vn -0.30070572808741614 0.9537169732658726 1.480165420786328e-9
vn -0.30070572808741614 0.9537169732658726 1.480165420786328e-9
vn -0.30070572808741614 0.9537169732658726 1.480165420786328e-9
vn -0.30070572808741614 0.9537169732658726 1.480165420786328e-9
vn -0.30070572808741614 0.9537169732658726 1.480165420786328e-9
vn -0.30070572808741614 0.9537169732658726 1.480165420786328e-9
vn -0.30070572808741614 0.9537169732658726 1.480165420786328e-9
vn -0.30070572808741614 0.9537169732658726 1.480165420786328e-9
vn -0.30070572808741614 0.9537169732658726 1.480165420786328e-9
vn -0.30070572808741614 0.9537169732658726 1.480165420786328e-9
vn -0.30070572808741614 0.9537169732658726 1.480165420786328e-9
vn 0.8962007920857502 0.28257095108632735 -0.34202017172535676
vn 0.403058182907836 0.12708372514262592 -0.9063077998091528
vn -0.3261904433920329 -0.1028474234327311 -0.939692610449267
vn -0.8643611318693422 -0.27253194621632265 -0.42261823434997814
vn -0.8962007920857502 -0.28257095108632735 0.34202017172535676
vn -0.403058182907836 -0.12708372514262592 0.9063077998091528
vn 0.3261904433920329 0.1028474234327311 0.939692610449267
vn 0.8643611318693422 0.27253194621632265 0.42261823434997814
usemtl m_50ca034b-fa1a-fd7e-01c5-d5f9ba51bb31
f 71/220/58 72/221/58 69/222/58
f 72/223/59 73/224/59 69/225/59
f 73/226/60 74/227/60 69/228/60
f 74/229/61 75/230/61 69/231/61
f 75/232/62 76/233/62 69/234/62
f 76/235/63 77/236/63 69/237/63
f 77/238/64 70/239/64 69/240/64
f 70/241/65 71/242/65 69/243/65
f 80/244/66 81/245/66 78/246/66
f 81/247/67 82/248/67 78/249/67
f 82/250/68 83/251/68 78/252/68
f 83/253/69 84/254/69 78/255/69
f 84/256/70 85/257/70 78/258/70
f 85/259/71 86/260/71 78/261/71
f 86/262/72 79/263/72 78/264/72
f 79/265/73 80/266/73 78/267/73
f 81/268/74 72/269/74 73/270/74 82/271/74
f 82/272/75 73/273/75 74/274/75 83/275/75
f 83/276/76 74/277/76 75/278/76 84/279/76
f 84/280/77 75/281/77 76/282/77 85/283/77
f 85/284/78 76/285/78 77/286/78 86/287/78
f 86/288/79 77/289/79 70/290/79 79/291/79
f 79/292/80 70/293/80 71/294/80 80/295/80
f 80/296/81 71/297/81 72/298/81 81/299/81
o mesh
v 1.8539021472274708 1.6518769606940213 1.49375
v 1.8539021472274708 1.6518769606940213 0.49375
v 1.9666668220415733 1.294233104163436 1.49375
v 1.9666668220415733 1.294233104163436 0.49375
v 2.145488750306866 1.3506154415704874 1.49375
v 2.0327240754927636 1.7082592981010725 1.49375
v 2.0327240754927636 1.7082592981010725 0.49375
v 2.145488750306866 1.3506154415704874 0.49375
vt 0.1875 0
vt 0.1875 1
vt 0 1
vt 0 0
vt 0.25 0.3125
vt 0.25 0.6875
vt 0.0625 0.6875
vt 0.0625 0.3125
vt 1 0.9375
vt 0.8125 0.9375
vt 0.8125 0.5625
vt 1 0.5625
vt 0 0
vt 0.1875 0
vt 0.1875 1
vt 0 1
vt 1 0.3125
vt 1 0.6875
vt 0 0.6875
vt 0 0.3125
vt 1 0.3125
vt 1 0.6875
vt 0 0.6875
vt 0 0.3125
vn 0.30070579950427306 -0.9537169507482269 0
vn 0 0 1
vn 0 0 -1
vn -0.30070579950427306 0.9537169507482269 0
vn -0.9537169507482269 -0.30070579950427306 0
vn -0.9537169507482269 -0.30070579950427306 0
usemtl m_ac41f875-3502-99f6-b118-bc2b4b2ef8a8
f 94/300/82 91/301/82 89/302/82 90/303/82
f 91/304/83 92/305/83 87/306/83 89/307/83
f 88/308/84 93/309/84 94/310/84 90/311/84
f 87/312/85 92/313/85 93/314/85 88/315/85
usemtl m_7f80d216-d869-7841-6577-43f7c5fb041c
f 91/316/86 92/317/86 93/318/86 94/319/86
f 89/320/87 87/321/87 88/322/87 90/323/87
o mesh
v 1.5 1 1.5
v 1.5 1 0.5
v 1.5 0 1.5
v 1.5 0 0.5
v 0.5 1 1.5
v 0.5 1 0.5
v 0.5 0 1.5
v 0.5 0 0.5
vt 0.8125 0.8125
vt 0.1875 0.8125
vt 0.1875 0.1875
vt 0.8125 0.1875
vt 1 0
vt 1 1
vt 0 1
vt 0 0
vt 0.8125 0.8125
vt 0.1875 0.8125
vt 0.1875 0.1875
vt 0.8125 0.1875
vt 0 0
vt 1 0
vt 1 1
vt 0 1
vn 1 0 0
vn 0 -1 0
vn 0 0 1
vn 0 1 0
usemtl m_ac41f875-3502-99f6-b118-bc2b4b2ef8a8
f 96/324/88 95/325/88 97/326/88 98/327/88
usemtl m_3eb1844b-626b-c8fb-fe4b-406e629f522e
f 98/328/89 97/329/89 101/330/89 102/331/89
usemtl m_ac41f875-3502-99f6-b118-bc2b4b2ef8a8
f 97/332/90 95/333/90 99/334/90 101/335/90
f 99/336/91 95/337/91 96/338/91 100/339/91
o mesh
v 2.5 1 2.5
v 2.5 1 1.5
v 2.5 0 2.5
v 2.5 0 1.5
v 1.5 1 2.5
v 1.5 1 1.5
v 1.5 0 2.5
v 1.5 0 1.5
vt 0.8125 0.8125
vt 0.1875 0.8125
vt 0.1875 0.1875
vt 0.8125 0.1875
vt 1 0
vt 1 1
vt 0 1
vt 0 0
vt 0 0
vt 1 0
vt 1 1
vt 0 1
vt 0.8125 0.8125
vt 0.1875 0.8125
vt 0.1875 0.1875
vt 0.8125 0.1875
vn -1 0 0
vn 0 -1 0
vn 0 1 0
vn 0 0 -1
usemtl m_ac41f875-3502-99f6-b118-bc2b4b2ef8a8
f 109/340/92 107/341/92 108/342/92 110/343/92
usemtl m_3eb1844b-626b-c8fb-fe4b-406e629f522e
f 106/344/93 105/345/93 109/346/93 110/347/93
usemtl m_a251a3f8-d094-f966-79d7-686db652ff5a
f 107/348/94 103/349/94 104/350/94 108/351/94
usemtl m_ac41f875-3502-99f6-b118-bc2b4b2ef8a8
f 108/352/95 104/353/95 106/354/95 110/355/95
o mesh
v 2.5 1 1.5
v 2.5 1 0.5
v 2.5 0 1.5
v 2.5 0 0.5
v 1.5 1 1.5
v 1.5 1 0.5
v 1.5 0 1.5
v 1.5 0 0.5
vt 0.8125 0.8125
vt 0.1875 0.8125
vt 0.1875 0.1875
vt 0.8125 0.1875
vt 1 0
vt 1 1
vt 0 1
vt 0 0
vt 0.8125 0.8125
vt 0.1875 0.8125
vt 0.1875 0.1875
vt 0.8125 0.1875
vt 0 0
vt 1 0
vt 1 1
vt 0 1
vn -1 0 0
vn 0 -1 0
vn 0 0 1
vn 0 1 0
usemtl m_ac41f875-3502-99f6-b118-bc2b4b2ef8a8
f 117/356/96 115/357/96 116/358/96 118/359/96
usemtl m_3eb1844b-626b-c8fb-fe4b-406e629f522e
f 114/360/97 113/361/97 117/362/97 118/363/97
usemtl m_ac41f875-3502-99f6-b118-bc2b4b2ef8a8
f 113/364/98 111/365/98 115/366/98 117/367/98
usemtl m_eff18b4d-41c2-5fc6-00a7-cb26d43cd1bd
f 115/368/99 111/369/99 112/370/99 116/371/99
o mesh
v 2.43125 0.94375 1.43125
v 2.43125 0.94375 0.56875
v 2.43125 0.00625 1.43125
v 2.43125 0.00625 0.56875
v 1.50625 0.94375 1.43125
v 1.50625 0.94375 0.56875
v 1.50625 0.00625 1.43125
v 1.50625 0.00625 0.56875
vt 0.9875 1
vt 0.0625 1
vt 0.0625 0.0625
vt 0.9875 0.0625
vt 1 0
vt 1 1
vt 0 1
vt 0 0
vt 1 0.5
vt 1 1
vt 0 1
vt 0 0.5
vt 0.9875 1
vt 0 1
vt 0 0.0625
vt 0.9875 0.0625
vt 0 0
vt 1 0
vt 1 1
vt 0 1
vt 1 0.5
vt 1 1
vt 0 1
vt 0 0.5
vn 1 0 0
vn 0 -1 0
vn -1 0 0
vn 0 0 -1
vn 0 1 0
vn 0 0 1
usemtl m_3eb1844b-626b-c8fb-fe4b-406e629f522e
f 120/372/100 119/373/100 121/374/100 122/375/100
f 122/376/101 121/377/101 125/378/101 126/379/101
f 125/380/102 123/381/102 124/382/102 126/383/102
f 124/384/103 120/385/103 122/386/103 126/387/103
f 123/388/104 119/389/104 120/390/104 124/391/104
f 121/392/105 119/393/105 123/394/105 125/395/105
o mesh
v 0.58125 0.94375 1.43125
v 0.58125 0.94375 0.56875
v 0.58125 0.00625 1.43125
v 0.58125 0.00625 0.56875
v 1.50625 0.94375 1.43125
v 1.50625 0.94375 0.56875
v 1.50625 0.00625 1.43125
v 1.50625 0.00625 0.56875
vt 0.9875 0.0625
vt 0.9875 1
vt 0.0625 1
vt 0.0625 0.0625
vt 0 1
vt 1 1
vt 1 0
vt 0 0
vt 0 1
vt 1 1
vt 1 0.5
vt 0 0.5
vt 0.9875 0.0625
vt 0.9875 1
vt 0 1
vt 0 0.0625
vt 1 1
vt 1 0
vt 0 0
vt 0 1
vt 0 1
vt 1 1
vt 1 0.5
vt 0 0.5
vn -1 0 0
vn 0 -1 0
vn 1 0 0
vn 0 0 -1
vn 0 1 0
vn 0 0 1
usemtl m_3eb1844b-626b-c8fb-fe4b-406e629f522e
f 129/396/106 127/397/106 128/398/106 130/399/106
f 133/400/107 129/401/107 130/402/107 134/403/107
f 132/404/108 131/405/108 133/406/108 134/407/108
f 130/408/109 128/409/109 132/410/109 134/411/109
f 128/412/110 127/413/110 131/414/110 132/415/110
f 131/416/111 127/417/111 129/418/111 133/419/111
o mesh
v 0.58125 0.94375 2.4125
v 0.58125 0.94375 1.425
v 0.58125 0.00625 2.4125
v 0.58125 0.00625 1.425
v 1.50625 0.94375 2.4125
v 1.50625 0.94375 1.425
v 1.50625 0.00625 2.4125
v 1.50625 0.00625 1.425
vt 0.9875 0.0625
vt 0.9875 1
vt -0.0625 1
vt -0.0625 0.0625
vt 0 1
vt 1 1
vt 1 0
vt 0 0
vt 0 1
vt 1 1
vt 1 0.5
vt 0 0.5
vt 0 0.5
vt 0 1
vt 1 1
vt 1 0.5
vt 1 1
vt 1 0
vt 0 0
vt 0 1
vt 0.9875 1
vt 0 1
vt 0 0.0625
vt 0.9875 0.0625
vn -1 0 0
vn 0 -1 0
vn 1 0 0
vn 0 0 -1
vn 0 1 0
vn 0 0 1
usemtl m_3eb1844b-626b-c8fb-fe4b-406e629f522e
f 137/420/112 135/421/112 136/422/112 138/423/112
f 141/424/113 137/425/113 138/426/113 142/427/113
f 140/428/114 139/429/114 141/430/114 142/431/114
f 138/432/115 136/433/115 140/434/115 142/435/115
f 136/436/116 135/437/116 139/438/116 140/439/116
f 139/440/117 135/441/117 137/442/117 141/443/117
o mesh
v 1.5125 0.94375 2.4125
v 1.5125 0.94375 1.425
v 1.5125 0.00625 2.4125
v 1.5125 0.00625 1.425
v 2.43125 0.94375 2.4125
v 2.43125 0.94375 1.425
v 2.43125 0.00625 2.4125
v 2.43125 0.00625 1.425
vt 0 0.5
vt 0 1
vt 1 1
vt 1 0.5
vt 0 1
vt 1 1
vt 1 0
vt 0 0
vt 1.05 1
vt 0 1
vt 0 0.0625
vt 1.05 0.0625
vt 0 0.5
vt 0 1
vt 1 1
vt 1 0.5
vt 1 1
vt 1 0
vt 0 0
vt 0 1
vt 0.98125 1
vt 0 1
vt 0 0.0625
vt 0.98125 0.0625
vn -1 0 0
vn 0 -1 0
vn 1 0 0
vn 0 0 -1
vn 0 1 0
vn 0 0 1
usemtl m_3eb1844b-626b-c8fb-fe4b-406e629f522e
f 145/444/118 143/445/118 144/446/118 146/447/118
f 149/448/119 145/449/119 146/450/119 150/451/119
f 148/452/120 147/453/120 149/454/120 150/455/120
f 146/456/121 144/457/121 148/458/121 150/459/121
f 144/460/122 143/461/122 147/462/122 148/463/122
f 147/464/123 143/465/123 145/466/123 149/467/123
o mesh
v 2.49375 0.990625 1.43125
v 2.49375 0.990625 0.50625
v 2.49375 0.803125 1.43125
v 2.49375 0.803125 0.50625
v 1.50625 0.990625 1.43125
v 1.50625 0.990625 0.50625
v 1.50625 0.803125 1.43125
v 1.50625 0.803125 0.50625
vt 1 1
vt 0 1
vt 0 0.5
vt 1 0.5
vt 1 0
vt 1 1
vt 0 1
vt 0 0
vt 1 0.5
vt 1 1
vt 0 1
vt 0 0.5
vt 1 1
vt 0 1
vt 0 0.5
vt 1 0.5
vt 0 0
vt 1 0
vt 1 1
vt 0 1
vt 1 0.5
vt 1 1
vt 0 1
vt 0 0.5
vn 1 0 0
vn 0 -1 0
vn -1 0 0
vn 0 0 -1
vn 0 1 0
vn 0 0 1
usemtl m_50ca034b-fa1a-fd7e-01c5-d5f9ba51bb31
f 152/468/124 151/469/124 153/470/124 154/471/124
f 154/472/125 153/473/125 157/474/125 158/475/125
f 157/476/126 155/477/126 156/478/126 158/479/126
f 156/480/127 152/481/127 154/482/127 158/483/127
f 155/484/128 151/485/128 152/486/128 156/487/128
f 153/488/129 151/489/129 155/490/129 157/491/129
o mesh
v 0.51875 0.990625 1.49375
v 0.51875 0.990625 0.50625
v 0.51875 0.803125 1.49375
v 0.51875 0.803125 0.50625
v 1.50625 0.990625 1.49375
v 1.50625 0.990625 0.50625
v 1.50625 0.803125 1.49375
v 1.50625 0.803125 0.50625
vt 0 0.5
vt 0 1
vt 1 1
vt 1 0.5
vt 0 1
vt 1 1
vt 1 0
vt 0 0
vt 0 1
vt 1 1
vt 1 0.5
vt 0 0.5
vt 0 0.5
vt 0 1
vt 1 1
vt 1 0.5
vt 1 1
vt 1 0
vt 0 0
vt 0 1
vt 0 1
vt 1 1
vt 1 0.5
vt 0 0.5
vn -1 0 0
vn 0 -1 0
vn 1 0 0
vn 0 0 -1
vn 0 1 0
vn 0 0 1
usemtl m_bc57c7c7-6c52-1fe5-d11c-b3b3bbfea9b1
f 161/492/130 159/493/130 160/494/130 162/495/130
f 165/496/131 161/497/131 162/498/131 166/499/131
f 164/500/132 163/501/132 165/502/132 166/503/132
f 162/504/133 160/505/133 164/506/133 166/507/133
f 160/508/134 159/509/134 163/510/134 164/511/134
f 163/512/135 159/513/135 161/514/135 165/515/135
o mesh
v 0.51875 0.990625 2.475
v 0.51875 0.990625 1.5
v 0.51875 0.803125 2.475
v 0.51875 0.803125 1.425
v 1.50625 0.990625 2.475
v 1.50625 0.990625 1.5
v 1.50625 0.803125 2.475
v 1.50625 0.803125 1.425
vt 0 0.5
vt 0 1
vt 1 1
vt 1 0.5
vt 0 1
vt 1 1
vt 1 0
vt 0 0
vt 0 1
vt 1 1
vt 1 0.5
vt 0 0.5
vt 0 0.5
vt 0 1
vt 1 1
vt 1 0.5
vt 1 1
vt 1 0
vt 0 0
vt 0 1
vt 0 1
vt 1 1
vt 1 0.5
vt 0 0.5
vn -1 0 0
vn 0 -1 0
vn 1 0 0
vn 0 0.3713906763541037 -0.9284766908852593
vn 0 1 0
vn 0 0 1
usemtl m_50ca034b-fa1a-fd7e-01c5-d5f9ba51bb31
f 169/516/136 167/517/136 168/518/136 170/519/136
f 173/520/137 169/521/137 170/522/137 174/523/137
f 172/524/138 171/525/138 173/526/138 174/527/138
f 170/528/139 168/529/139 172/530/139 174/531/139
f 168/532/140 167/533/140 171/534/140 172/535/140
f 171/536/141 167/537/141 169/538/141 173/539/141
o mesh
v 1.5125 0.990625 2.475
v 1.5125 0.990625 1.425
v 1.5125 0.803125 2.475
v 1.5125 0.803125 1.425
v 2.49375 0.990625 2.475
v 2.49375 0.990625 1.425
v 2.49375 0.803125 2.475
v 2.49375 0.803125 1.425
vt 0 0.5
vt 0 1
vt 1 1
vt 1 0.5
vt 0 1
vt 1 1
vt 1 0
vt 0 0
vt 0 1
vt 1 1
vt 1 0.5
vt 0 0.5
vt 0 0.5
vt 0 1
vt 1 1
vt 1 0.5
vt 1 1
vt 1 0
vt 0 0
vt 0 1
vt 0 1
vt 1 1
vt 1 0.5
vt 0 0.5
vn -1 0 0
vn 0 -1 0
vn 1 0 0
vn 0 0 -1
vn 0 1 0
vn 0 0 1
usemtl m_da2ab62f-99e1-9977-8fa1-b9376e4bba80
f 177/540/142 175/541/142 176/542/142 178/543/142
f 181/544/143 177/545/143 178/546/143 182/547/143
f 180/548/144 179/549/144 181/550/144 182/551/144
f 178/552/145 176/553/145 180/554/145 182/555/145
f 176/556/146 175/557/146 179/558/146 180/559/146
f 179/560/147 175/561/147 177/562/147 181/563/147
o pyramid
v 1.014898125 1.375 1.009730625
v 1.175376875 1.125 0.99432375
v 1.000858125 1.125 0.833626875
v 1.028938125 1.125 1.185835
v 0.854419375 1.125 1.025138125
vt 0.125 0.875
vt 0.125 1
vt 0 1
vt 0 0.875
vt 0 0.86024375
vt 0.125 0.86024375
vt 0.0625 1
vt 0 0.86024375
vt 0.125 0.86024375
vt 0.0625 1
vt 0 0.86024375
vt 0.125 0.86024375
vt 0.0625 1
vt 0 0.86024375
vt 0.125 0.86024375
vt 0.0625 1
vn 0 -1 0
vn 0.610632971727834 0.43284303607465935 -0.6631547933631374
vn 0.7182425314499523 0.42720465136933305 0.5492029241225604
vn -0.7182429527384725 0.4272035289401061 -0.5492032462601074
vn -0.6106325335342934 0.4328443833499369 0.663154317479652
usemtl m_3cf74367-845e-24ab-9504-79fdf08b234c
f 185/564/148 184/565/148 186/566/148 187/567/148
f 184/568/149 185/569/149 183/570/149
f 186/571/150 184/572/150 183/573/150
f 185/574/151 187/575/151 183/576/151
f 187/577/152 186/578/152 183/579/152
o mesh
v 2.5 2 2.5
v 2.5 2 1.5
v 2.5 1 2.5
v 2.5 1 1.5
v 1.5 2 2.5
v 1.5 2 1.5
v 1.5 1 2.5
v 1.5 1 1.5
vt 1 1
vt 0 1
vt 0 0
vt 1 0
vt 1 0
vt 1 1
vt 0 1
vt 0 0
vt 0 0
vt 1 0
vt 1 1
vt 0 1
vt 1 0
vt 1 1
vt 0 1
vt 0 0
vt 1 0
vt 1 1
vt 0 1
vt 0 0
vt 1 1
vt 0 1
vt 0 0
vt 1 0
vn 1 0 0
vn -1 0 0
vn 0 1 0
vn 0 -1 0
vn 0 0 1
vn 0 0 -1
usemtl m_54a0e783-80d2-bf39-076a-2757a6424af3
f 189/580/153 188/581/153 190/582/153 191/583/153
usemtl m_2a7f4cc7-679f-aca9-7ab2-b6395bc6ee94
f 194/584/154 192/585/154 193/586/154 195/587/154
usemtl m_3f23b25a-26b8-a4f9-40c7-d4133be262c4
f 192/588/155 188/589/155 189/590/155 193/591/155
usemtl none
f 191/592/156 190/593/156 194/594/156 195/595/156
usemtl m_2a7f4cc7-679f-aca9-7ab2-b6395bc6ee94
f 190/596/157 188/597/157 192/598/157 194/599/157
usemtl m_3f23b25a-26b8-a4f9-40c7-d4133be262c4
f 193/600/158 189/601/158 191/602/158 195/603/158
o mesh
v 1.5 2 2.5
v 1.5 2 1.5
v 1.5 1.625 2.5
v 1.5 1.625 1.5
v 0.5 2 2.25
v 0.5 2 1.75
v 0.5 1.625 2.25
v 0.5 1.625 1.75
vt 1 1
vt 0 1
vt 0 0
vt 1 0
vt 0.4375 0.75
vt 0 0.75
vt 0 0.375
vt 0.4375 0.375
vt 0 0.25
vt 1 0
vt 1 1
vt 0 0.75
vt 0 0
vt 1 0
vt 0.75 1
vt 0.25 1
vt 1 0.625
vt 1 1
vt 0 1
vt 0 0.625
vt 1 1
vt 0 1
vt 0 0.625
vt 1 0.625
vn 1 0 0
vn -1 0 0
vn 0 1 0
vn 0 -1 0
vn -0.242535625036333 0 0.970142500145332
vn -0.242535625036333 0 -0.970142500145332
usemtl m_3f23b25a-26b8-a4f9-40c7-d4133be262c4
f 197/604/159 196/605/159 198/606/159 199/607/159
f 202/608/160 200/609/160 201/610/160 203/611/160
f 200/612/161 196/613/161 197/614/161 201/615/161
f 199/616/162 198/617/162 202/618/162 203/619/162
f 198/620/163 196/621/163 200/622/163 202/623/163
f 201/624/164 197/625/164 199/626/164 203/627/164
o mesh_selection
v 1.15628125 1.6368739976042528 0.9279198064934422
v 1.15628125 1.3974851091295721 0.7270486784663985
v 0.843779375 1.6368739976042528 0.9279198064934422
v 0.843779375 1.3974851091295721 0.7270486784663985
vt 0.4375 0.5625
vt 0.4375 1
vt 0 1
vt 0 0.5625
vn 0 0.6427876096865394 -0.7660444431189781
usemtl m_e3d7b4ac-1bac-2553-ec8b-b8af2ae66d7b
f 207/628/165 206/629/165 204/630/165 205/631/165
o mesh
v 1.3125 1.8369168930524107 0.9325998151170916
v 1.3125 1.3581391161030492 0.5308575590630045
v 0.6875 1.8369168930524107 0.9325998151170916
v 0.6875 1.3581391161030492 0.5308575590630045
v 1.21875 1.7651002265100062 0.8723384767089786
v 1.21875 1.4299557826454534 0.5911188974711176
v 0.78125 1.7651002265100062 0.8723384767089786
v 0.78125 1.4299557826454534 0.5911188974711176
v 0.78124375 1.7249260009045977 0.9202162544039146
v 0.78124375 1.3897815570400447 0.6389966751660537
v 0.68749375 1.7967426674470017 0.9804775928120277
v 0.68749375 1.3179648904976404 0.5787353367579406
v 1.21874375 1.3897815570400447 0.6389966751660537
v 1.31249375 1.3179648904976404 0.5787353367579406
v 1.21874375 1.7249260009045977 0.9202162544039146
v 1.31249375 1.7967426674470017 0.9804775928120277
v 1.25 1.708690664146657 0.9881811449015552
v 1.25 1.3256684425871679 0.6667873400582855
v 0.74999875 1.708690664146657 0.9881811449015552
v 0.74999875 1.3256684425871679 0.6667873400582855
v 1.159375 1.6392686899735116 0.9299275602181587
v 1.159375 1.3950920237293374 0.7250390096305742
v 0.84062375 1.6392670830044875 0.9299294753292665
v 0.84062375 1.395090416760313 0.725040924741682
v 0.84061875 1.5990928573990788 0.9778072530242026
v 0.84061875 1.3549161911549046 0.7729187024366182
v 0.74999375 1.668516438541248 1.0360589225964913
v 0.74999375 1.2854942169817591 0.7146651177532216
v 1.15937 1.3549177981239287 0.7729167873255104
v 1.249995 1.2854942169817591 0.7146651177532216
v 1.15937 1.599094464368103 0.9778053379130949
v 1.249995 1.668516438541248 1.0360589225964913
vt 0.1875 0.0625
vt 0.1875 0.6875
vt 0.125 0.6875
vt 0.125 0.0625
vt 0.125 0.125
vt 0.75 0.125
vt 0.75000625 0.1875
vt 0.12500625 0.1875
vt 0.65625 0.84375
vt 0.75 0.9375
vt 0.125 0.9375
vt 0.21875 0.84375
vt 0.53125 0.9375
vt 0.4375 0.84375
vt 0.4375 0.40625
vt 0.53125 0.3125
vt 0.1875 0.75
vt 0.125 0.75
vt 0.125 0.125
vt 0.1875 0.125
vt 0.125 0.3125
vt 0.21875 0.40625
vt 0.21875 0.84375
vt 0.125 0.9375
vt 0.65625 0.84375
vt 0.75 0.9375
vt 0.125 0.9375
vt 0.21875 0.84375
vt 0.21875 0.9375
vt 0.125 0.84375
vt 0.125 0.40625
vt 0.21875 0.3125
vt 0.75 0.59375
vt 0.65625 0.6875
vt 0.21875 0.6875
vt 0.125 0.59375
vt 0.125 0.3125
vt 0.21875 0.40625
vt 0.21875 0.84375
vt 0.125 0.9375
vt 0.125 0.625
vt 0.5625 0.625
vt 0.56250625 0.6875
vt 0.12500625 0.6875
vt 0.1875 0.6875
vt 0.125 0.6875
vt 0.125 0.25
vt 0.1875 0.25
vt 0.125 0.25
vt 0.1875 0.25
vt 0.1875 0.6875
vt 0.125 0.6875
vt 0.8125 0.8124375
vt 0.8125 0.8749375
vt 0.1875 0.875
vt 0.1875 0.8125
vt 0.75 0.8125
vt 0.65625 0.90625
vt 0.21875 0.90625
vt 0.125 0.8125
vt 0.12500625 0.6875
vt 0.125 0.625
vt 0.5625 0.625
vt 0.56250625 0.6875
vt 0.1875 0.1875
vt 0.1875 0.6875
vt 0.125 0.6875
vt 0.125 0.1875
vt 0.375 0.625
vt 0.875 0.625
vt 0.87500625 0.6875
vt 0.37500625 0.6875
vt 0.875 0.87495
vt 0.875 0.93745
vt 0.375 0.9375
vt 0.375 0.875
vt 0.596875 0.846875
vt 0.6875 0.9375
vt 0.1875 0.9375
vt 0.278125 0.846875
vt 0.215625 0.875
vt 0.125 0.784375
vt 0.125 0.46562499999999996
vt 0.215625 0.375
vt 0.6875 0.846875
vt 0.596875 0.9375
vt 0.278125 0.9375
vt 0.1875 0.846875
vt 0.1875 0.6875
vt 0.125 0.6875
vt 0.125 0.1875
vt 0.1875 0.1875
vt 0.125 0.375
vt 0.215625 0.46562499999999996
vt 0.215625 0.784375
vt 0.125 0.875
vt 0.596875 0.721875
vt 0.6875 0.8125
vt 0.1875 0.8125
vt 0.278125 0.721875
vt 0.278125 0.8125
vt 0.1875 0.721875
vt 0.1875 0.40312499999999996
vt 0.278125 0.3125
vt 0.6875 0.721875
vt 0.596875 0.8125
vt 0.278125 0.8125
vt 0.1875 0.721875
vt 0.1875 0.3125
vt 0.278125 0.40312499999999996
vt 0.278125 0.721875
vt 0.1875 0.8125
vt 0.1875 0.625
vt 0.50625 0.625
vt 0.50625625 0.6875
vt 0.18750625 0.6875
vt 0.1875 0.875
vt 0.125 0.875
vt 0.125 0.55625
vt 0.1875 0.55625
vt 0.125 0.55625
vt 0.1875 0.55625
vt 0.1875 0.875
vt 0.125 0.875
vt 0.18750625 0.6875
vt 0.1875 0.625
vt 0.50625 0.625
vt 0.50625625 0.6875
vt 0.125 0.9375
vt 0.125 0.3125
vt 0.26475 0.375
vt 0.26475 0.875
vt 0.8125 0.875
vt 0.1875 0.875
vt 0.25 0.73524375
vt 0.75 0.73524375
vt 0.1875 0.81024375
vt 0.8125 0.81024375
vt 0.75 0.9375
vt 0.25 0.9375
vt 0.38975625 0.6875
vt 0.25 0.625
vt 0.25 0.125
vt 0.38975625 0.0625
vt 0.125 0.25
vt 0.26338125 0.30937499999999996
vt 0.26338125 0.628125
vt 0.125 0.6875
vt 0.375 0.9375
vt 0.434375 0.7991125
vt 0.753125 0.7991125
vt 0.8125 0.9375
vt 0.8125 0.7991125
vt 0.753125 0.9375
vt 0.434375 0.9375
vt 0.375 0.7991125
vt 0.2633875 0.6875
vt 0.125 0.628125
vt 0.125 0.30937499999999996
vt 0.2633875 0.25
vn -0.9999999950000001 0.00006427876064711035 -0.00007660444392869708
vn 0 0.7660444431189781 0.6427876096865394
vn 0 0.6427876096865394 -0.7660444431189781
vn 0 0.6427876096865394 -0.7660444431189781
vn 0.9999999950000001 -0.00006427876064711035 0.00007660444392869708
vn 0 0.6427876096865394 -0.7660444431189781
vn 0 0.6427876096865394 -0.7660444431189781
vn 0 0.6427876096865394 -0.7660444431189781
vn 0 0.6427876096865394 -0.7660444431189781
vn 0 0.6427876096865394 -0.7660444431189781
vn 0 0.7660444431189781 0.6427876096865394
vn 0.9999999950000001 -0.00006427876064739579 0.00007660444392903726
vn -0.9999999950000001 0.00006427876064739579 -0.00007660444392903726
vn 0 -0.7660444431189781 -0.6427876096865394
vn 0 0.6427876096865394 -0.7660444431189781
vn 0 0.7660444431189781 0.6427876096865394
vn -0.9999999968000002 0.000051423008610135505 -0.00006128355525313198
vn 0 0.7660444431189781 0.6427876096865394
vn 0 -0.7660444431189781 -0.6427876096865394
vn 0 0.6427770434951453 -0.7660533090821031
vn 0.000013793103446977587 0.6427876096253943 -0.7660444430461082
vn -0.000007843106495552412 0.6428041838147113 -0.7660305354284442
vn 0.9999999968000002 -0.00005142300861042096 0.00006128355525347218
vn 0.000013793103446977589 0.6427876096253943 -0.7660444430461082
vn 0 0.6427770434951454 -0.7660533090821031
vn 0.000013793103446901026 0.6427876096253943 -0.7660444430461083
vn -0.000007843106495508871 0.6428041838147112 -0.7660305354284442
vn 0.000013793103446901027 0.6427876096253943 -0.7660444430461083
vn 0 0.7660444431189781 0.6427876096865394
vn 0.9999999968000002 -0.00005142300861042097 0.00006128355525347219
vn -0.9999999968000002 0.000051423008610135505 -0.00006128355525313198
vn 0 0.7660444431189781 0.6427876096865394
vn -0.8944271909999159 -0.28746335807074086 0.3425854897200012
vn 0 0.3977076213692615 0.9175122058614829
vn 0 -0.9726343375107432 -0.23234122642148053
vn 0.8944307686943687 -0.28745875862941533 0.3425800083192776
vn -0.9032758414926381 0.2757946544908538 -0.32867927030775385
vn -0.0000033651759759458412 -0.4161534715893289 -0.9092943902129966
vn -0.00000336510060543449 0.9677417768979166 0.2519441470547374
vn 0.903282667826588 0.27578541674544144 -0.32866826119147124
usemtl m_68293f91-02f5-ed90-ccda-50b1932e8d2d
f 219/632/166 218/633/166 210/634/166 211/635/166
f 218/636/167 223/637/167 208/638/167 210/639/167
f 214/640/168 210/641/168 208/642/168 212/643/168
f 210/644/169 214/645/169 215/646/169 211/647/169
f 208/648/170 223/649/170 221/650/170 209/651/170
f 209/652/171 213/653/171 212/654/171 208/655/171
f 216/656/172 218/657/172 223/658/172 222/659/172
f 218/660/173 216/661/173 217/662/173 219/663/173
f 219/664/174 217/665/174 220/666/174 221/667/174
f 221/668/175 220/669/175 222/670/175 223/671/175
f 216/672/176 222/673/176 212/674/176 214/675/176
f 214/676/177 216/677/177 217/678/177 215/679/177
f 213/680/178 220/681/178 222/682/178 212/683/178
f 209/684/179 221/685/179 219/686/179 211/687/179
f 211/688/180 215/689/180 213/690/180 209/691/180
f 215/692/181 217/693/181 220/694/181 213/695/181
f 235/696/182 234/697/182 226/698/182 227/699/182
f 234/700/183 239/701/183 224/702/183 226/703/183
f 225/704/184 237/705/184 235/706/184 227/707/184
f 230/708/185 226/709/185 224/710/185 228/711/185
f 226/712/186 230/713/186 231/714/186 227/715/186
f 227/716/187 231/717/187 229/718/187 225/719/187
f 224/720/188 239/721/188 237/722/188 225/723/188
f 225/724/189 229/725/189 228/726/189 224/727/189
f 232/728/190 234/729/190 239/730/190 238/731/190
f 234/732/191 232/733/191 233/734/191 235/735/191
f 235/736/192 233/737/192 236/738/192 237/739/192
f 237/740/193 236/741/193 238/742/193 239/743/193
f 232/744/194 238/745/194 228/746/194 230/747/194
f 230/748/195 232/749/195 233/750/195 231/751/195
f 229/752/196 236/753/196 238/754/196 228/755/196
f 231/756/197 233/757/197 236/758/197 229/759/197
f 218/760/198 219/761/198 235/762/198 234/763/198
f 223/764/199 218/765/199 234/766/199 239/767/199
f 219/768/200 221/769/200 237/770/200 235/771/200
f 223/772/201 239/773/201 237/774/201 221/775/201
f 213/776/202 229/777/202 228/778/202 212/779/202
f 212/780/203 228/781/203 230/782/203 214/783/203
f 215/784/204 231/785/204 229/786/204 213/787/204
f 214/788/205 230/789/205 231/790/205 215/791/205
o mesh_selection
v 1.21878125 1.7651002265100062 0.8723384767089786
v 1.21878125 1.4299557826454534 0.5911188974711176
v 0.781279375 1.7651002265100062 0.8723384767089786
v 0.781279375 1.4299557826454534 0.5911188974711176
vt 0.5625 0.4375
vt 0.5625 1
vt 0 1
vt 0 0.4375
vn 0 0.6427876096865394 -0.7660444431189781
usemtl m_e3d7b4ac-1bac-2553-ec8b-b8af2ae66d7b
f 243/792/206 242/793/206 240/794/206 241/795/206
o mesh
v 1.0625 1.3557375 0.5959862499999999
v 1.0625 1.3557375 0.5334862499999999
v 1.0625 0.9932375 0.57411125
v 1.0625 0.9932375 0.51161125
v 0.9375 1.3557375 0.5959862499999999
v 0.9375 1.3557375 0.5334862499999999
v 0.9375 0.9932375 0.57411125
v 0.9375 0.9932375 0.51161125
vt 0.25 1
vt 0.125 1
vt 0.125 0.75
vt 0.25 0.75
vt 0.25 0.75
vt 0.25 1
vt 0.125 1
vt 0.125 0.75
vt 0.125 0.75
vt 0.25 0.75
vt 0.25 1
vt 0.125 1
vt 0.25 0.75
vt 0.25 1
vt 0.125 1
vt 0.125 0.75
vt 0.25 0.75
vt 0.25 1
vt 0.125 1
vt 0.125 0.75
vt 0.25 1
vt 0.125 1
vt 0.125 0.75
vt 0.25 0.75
vn 1 0 0
vn -1 0 0
vn 0 1 0
vn 0 -1 0
vn 0 -0.06023525396366021 0.9981842085406549
vn 0 0.06023525396366021 -0.9981842085406549
usemtl m_b8c9faf9-3e01-6ca4-54d9-f4b3f093449a
f 245/796/207 244/797/207 246/798/207 247/799/207
f 250/800/208 248/801/208 249/802/208 251/803/208
f 248/804/209 244/805/209 245/806/209 249/807/209
f 247/808/210 246/809/210 250/810/210 251/811/210
f 246/812/211 244/813/211 248/814/211 250/815/211
f 249/816/212 245/817/212 247/818/212 251/819/212
o mesh_selection
v 0.5 1 1.5
v 0.5 1 0.5
v 0.5 0.8125 1.5
v 0.5 0.8125 0.5
vt 0.1875 1
vt 0 1
vt 0 0
vt 0.1875 0
vn -1 0 0
usemtl m_ac41f875-3502-99f6-b118-bc2b4b2ef8a8
f 254/820/213 252/821/213 253/822/213 255/823/213
o mesh_selection
v 1.5 1 0.5
v 1.5 0.8125 0.5
v 0.5 1 0.5
v 0.5 0.8125 0.5
vt 1 1
vt 0 1
vt 0 0.8125
vt 1 0.8125
vn 0 0 -1
usemtl m_ac41f875-3502-99f6-b118-bc2b4b2ef8a8
f 258/824/214 256/825/214 257/826/214 259/827/214
o mesh_selection
v 1.5 0.8125 0.5
v 1.5 0 0.5
v 0.5 0.8125 0.5
v 0.5 0 0.5
vt 0.125 1
vt 0.125 0
vt 0.875 0
vt 0.875 1
vn 0 0 -1
usemtl m_b8c9faf9-3e01-6ca4-54d9-f4b3f093449a
f 262/828/215 260/829/215 261/830/215 263/831/215
o mesh_selection
v 0.5 0.8125 1.5
v 0.5 0.8125 0.5
v 0.5 0 1.5
v 0.5 0 0.5
vt 0.875 1
vt 0.125 1
vt 0.125 0
vt 0.875 0
vn -1 0 0
usemtl m_b8c9faf9-3e01-6ca4-54d9-f4b3f093449a
f 266/832/216 264/833/216 265/834/216 267/835/216
o mesh_selection
v 2.5 0.8125 0.5
v 2.5 0 0.5
v 1.5 0.8125 0.5
v 1.5 0 0.5
vt 0.125 1
vt 0.125 0
vt 0.875 0
vt 0.875 1
vn 0 0 -1
usemtl m_b8c9faf9-3e01-6ca4-54d9-f4b3f093449a
f 270/836/217 268/837/217 269/838/217 271/839/217
o mesh_selection
v 1.5 0.8125 0.5
v 1.5 0 0.5
v 0.5 0.8125 0.5
v 0.5 0 0.5
vt 0.125 1
vt 0.125 0
vt 0.875 0
vt 0.875 1
vn 0 0 -1
usemtl m_b8c9faf9-3e01-6ca4-54d9-f4b3f093449a
f 274/840/218 272/841/218 273/842/218 275/843/218
o mesh_selection
v 2.5 1 0.5
v 2.5 0.8125 0.5
v 1.5 1 0.5
v 1.5 0.8125 0.5
vt 1 1
vt 0 1
vt 0 0.8125
vt 1 0.8125
vn 0 0 -1
usemtl m_eff18b4d-41c2-5fc6-00a7-cb26d43cd1bd
f 278/844/219 276/845/219 277/846/219 279/847/219
o mesh_selection
v 0.5 1 2.5
v 0.5 1 1.5
v 0.5 0.8125 2.5
v 0.5 0.8125 1.5
vt 0.1875 1
vt 0 1
vt 0 0
vt 0.1875 0
vn -1 0 0
usemtl m_eff18b4d-41c2-5fc6-00a7-cb26d43cd1bd
f 282/848/220 280/849/220 281/850/220 283/851/220
o mesh_selection
v 0.5 0.8125 2.5
v 0.5 0.8125 1.5
v 0.5 0 2.5
v 0.5 0 1.5
vt 0.875 1
vt 0.125 1
vt 0.125 0
vt 0.875 0
vn -1 0 0
usemtl m_b8c9faf9-3e01-6ca4-54d9-f4b3f093449a
f 286/852/221 284/853/221 285/854/221 287/855/221
o mesh_selection
v 1.5 0.8125 2.5
v 0.4999999999999999 0.8125 2.5
v 1.5 0 2.5
v 0.4999999999999999 0 2.5
vt 0.875 1
vt 0.125 1
vt 0.125 0
vt 0.875 0
vn -2.220446049250313e-16 0 1
usemtl m_b8c9faf9-3e01-6ca4-54d9-f4b3f093449a
f 290/856/222 288/857/222 289/858/222 291/859/222
o mesh_selection
v 1.5 1 2.5
v 0.4999999999999999 1 2.5
v 1.5 0.8125 2.5
v 0.4999999999999999 0.8125 2.5
vt 0.1875 1
vt 0 1
vt 0 0
vt 0.1875 0
vn -2.220446049250313e-16 0 1
usemtl m_eff18b4d-41c2-5fc6-00a7-cb26d43cd1bd
f 294/860/223 292/861/223 293/862/223 295/863/223
o mesh_selection
v 2.5 0.8125 2.5
v 1.5 0.8125 2.5
v 2.5 0 2.5
v 1.5 0 2.5
vt 0.875 1
vt 0.125 1
vt 0.125 0
vt 0.875 0
vn -2.220446049250313e-16 0 1
usemtl m_b8c9faf9-3e01-6ca4-54d9-f4b3f093449a
f 298/864/224 296/865/224 297/866/224 299/867/224
o mesh_selection
v 2.5 1 2.5
v 1.5 1 2.5
v 2.5 0.8125 2.5
v 1.5 0.8125 2.5
vt 0.1875 1
vt 0 1
vt 0 0
vt 0.1875 0
vn -2.220446049250313e-16 0 1
usemtl m_eff18b4d-41c2-5fc6-00a7-cb26d43cd1bd
f 302/868/225 300/869/225 301/870/225 303/871/225
o mesh_selection
v 2.5 1 1.5
v 2.5 1 2.5
v 2.5 0.8125 1.5
v 2.5 0.8125 2.5
vt 0.1875 1
vt 0 1
vt 0 0
vt 0.1875 0
vn 1 0 -1.2246467991473532e-16
usemtl m_eff18b4d-41c2-5fc6-00a7-cb26d43cd1bd
f 306/872/226 304/873/226 305/874/226 307/875/226
o mesh_selection
v 2.5 0.8125 1.5
v 2.5 0.8125 2.5
v 2.5 0 1.5
v 2.5 0 2.5
vt 0.875 1
vt 0.125 1
vt 0.125 0
vt 0.875 0
vn 1 0 -1.2246467991473532e-16
usemtl m_b8c9faf9-3e01-6ca4-54d9-f4b3f093449a
f 310/876/227 308/877/227 309/878/227 311/879/227
o mesh_selection
v 2.5 0.8125 0.5
v 2.5 0.8125 1.5
v 2.5 0 0.5
v 2.5 0 1.5
vt 0.875 1
vt 0.125 1
vt 0.125 0
vt 0.875 0
vn 1 0 -1.2246467991473532e-16
usemtl m_b8c9faf9-3e01-6ca4-54d9-f4b3f093449a
f 314/880/228 312/881/228 313/882/228 315/883/228
o mesh_selection
v 2.5 1 0.5
v 2.5 1 1.5
v 2.5 0.8125 0.5
v 2.5 0.8125 1.5
vt 0.1875 1
vt 0 1
vt 0 0
vt 0.1875 0
vn 1 0 -1.2246467991473532e-16
usemtl m_eff18b4d-41c2-5fc6-00a7-cb26d43cd1bd
f 318/884/229 316/885/229 317/886/229 319/887/229
o mesh
v 2.8260575 2.075 1.8912475
v 1.8912475 2.075 1.1739424999999999
v 2.1087525 2.075 2.8260575
v 1.1739424999999999 2.075 2.1087525
vt 0 0
vt 1 0
vt 1 1
vt 0 1
vn 0 1 0
usemtl m_4b85cf0d-32da-ffbd-27f0-89e5eb8c3c10
f 322/888/230 320/889/230 321/890/230 323/891/230
o mesh
v 2.0625 2.125 2.0625
v 2.0625 2.125 1.9375
v 2.0625 1.9375 2.0625
v 2.0625 1.9375 1.9375
v 1.9375 2.125 2.0625
v 1.9375 2.125 1.9375
v 1.9375 1.9375 2.0625
v 1.9375 1.9375 1.9375
vt 0.3125 1
vt 0.4375 1
vt 0.4375 0.75
vt 0.3125 0.75
vt 0.3125 0.75
vt 0.3125 1
vt 0.4375 1
vt 0.4375 0.75
vt 0.125 0.5625
vt 0 0.5625
vt 0 0.6875
vt 0.125 0.6875
vt 0.4375 0.5625
vt 0.4375 0.6875
vt 0.3125 0.6875
vt 0.3125 0.5625
vt 0.4375 0.75
vt 0.4375 1
vt 0.3125 1
vt 0.3125 0.75
vt 0.4375 1
vt 0.3125 1
vt 0.3125 0.75
vt 0.4375 0.75
vn 1 0 0
vn -1 0 0
vn 0 1 0
vn 0 -1 0
vn 0 0 1
vn 0 0 -1
usemtl m_33e87a15-6357-85ec-5e42-3580faca5cb8
f 325/892/231 324/893/231 326/894/231 327/895/231
f 330/896/232 328/897/232 329/898/232 331/899/232
f 328/900/233 324/901/233 325/902/233 329/903/233
f 327/904/234 326/905/234 330/906/234 331/907/234
f 326/908/235 324/909/235 328/910/235 330/911/235
f 329/912/236 325/913/236 327/914/236 331/915/236
o mesh
v 2.503125 1.59375 1.4962499999999999
v 2.503125 1.59375 1.4337499999999999
v 2.503125 1.40625 1.4962499999999999
v 2.503125 1.40625 1.4337499999999999
v 1.5 1.59375 1.4962499999999999
v 1.5 1.59375 1.4337499999999999
v 1.5 1.40625 1.4962499999999999
v 1.5 1.40625 1.4337499999999999
vt 0.5625 1
vt 0.5 1
vt 0.5 0.8125
vt 0.5625 0.8125
vt 0.0625 0.375
vt 0.0625 0.5625
vt 0 0.5625
vt 0 0.375
vt 0 0.9375
vt 1 0.9375
vt 1 1
vt 0 1
vt 1 0.9375
vt 1 1
vt 0 1
vt 0 0.9375
vt 1 0.75
vt 1 0.9375
vt 0 0.9375
vt 0 0.75
vt 1 1
vt 0 1
vt 0 0.8125
vt 1 0.8125
vn 1 0 0
vn -1 0 0
vn 0 1 0
vn 0 -1 0
vn 0 0 1
vn 0 0 -1
usemtl m_ac41f875-3502-99f6-b118-bc2b4b2ef8a8
f 333/916/237 332/917/237 334/918/237 335/919/237
f 338/920/238 336/921/238 337/922/238 339/923/238
f 336/924/239 332/925/239 333/926/239 337/927/239
f 335/928/240 334/929/240 338/930/240 339/931/240
f 334/932/241 332/933/241 336/934/241 338/935/241
f 337/936/242 333/937/242 335/938/242 339/939/242
o mesh
v 0.9001294417494266 1.0625 2.4485572190051803
v 1.2687681101544885 1.0625 2.1107621151973506
v 0.9001294417494266 1 2.4485572190051803
v 1.2687681101544885 1 2.1107621151973506
v 0.5623343379415964 1.0625 2.0799185506001185
v 0.9309730063466584 1.0625 1.7421234467922884
v 0.5623343379415964 1 2.0799185506001185
v 0.9309730063466584 1 1.7421234467922884
v 0.44358457083412794 1.05625 2.0799183723931542
v 0.4435844391742263 1.05625 1.5799183823666092
v 0.49983422398869437 1 2.079918672618576
v 0.49983409232879283 1 1.579918682592031
v 0.43733457083412786 0.4375 2.0799183723931542
v 0.4373344391742262 0.4375 1.5799183823666092
v 0.49983422398869437 0.4375 2.079918672618576
v 0.49983409232879283 0.4375 1.579918682592031
vt 0.6015625 0.4677734375
vt 0.6015625 0.4208984375
vt 0.60546875 0.4208984375
vt 0.60546875 0.4677734375
vt 0.56640625 0.51953125
vt 0.56640625 0.55078125
vt 0.50390625 0.55078125
vt 0.50390625 0.51953125
vt 0.5703125 0.39453125
vt 0.5703125 0.34765625
vt 0.61328125 0.34765625
vt 0.61328125 0.39453125
vt 0.59375 0.4716796875
vt 0.58984375 0.4716796875
vt 0.58984375 0.4248046875
vt 0.59375 0.4248046875
vt 0.59765625 0.4677734375
vt 0.59765625 0.4208984375
vt 0.6015625 0.4208984375
vt 0.6015625 0.4677734375
vt 0.56640625 0.55078125
vt 0.50390625 0.55078125
vt 0.50390625 0.51953125
vt 0.56640625 0.51953125
vt 0.58984375 0.4677734375
vt 0.5859375 0.4677734375
vt 0.5859375 0.4208984375
vt 0.58984375 0.4208984375
vt 0.56640625 0.37890625
vt 0.56640625 0.42578125
vt 0.609375 0.42578125
vt 0.609375 0.37890625
vt 0.56640625 0.48828125
vt 0.56640625 0.55078125
vt 0.50390625 0.55078125
vt 0.50390625 0.48828125
vt 0.58984375 0.4716796875
vt 0.5859375 0.4716796875
vt 0.5859375 0.4248046875
vt 0.58984375 0.4248046875
vt 0.59765625 0.4677734375
vt 0.59765625 0.4208984375
vt 0.6015625 0.4208984375
vt 0.6015625 0.4677734375
vt 0.5758356773513377 0.39655289709596875
vt 0.6103392385752565 0.4172915972793865
vt 0.6103392385752565 0.37346615224505086
vt 0.5728773199683905 0.3869346760846959
vt 0.56640625 0.48828125
vt 0.56640625 0.55078125
vt 0.50390625 0.55078125
vt 0.50390625 0.48828125
vt 0.59814453125 0.423640625
vt 0.59814453125 0.4208984375
vt 0.59765625 0.44523300781249997
vt 0.59814453125 0.44523300781249997
vt 0.5546875 0.4609375
vt 0.55859375 0.4609375
vt 0.5625 0.46484375
vt 0.5546875 0.46484375
vn 0.6755902076156604 0 0.7372773368101241
vn -0.6755902076156604 0 -0.7372773368101241
vn 0 1 0
vn -0.7372773368101241 0 0.6755902076156604
vn 0.7372773368101241 0 -0.6755902076156604
vn 0.7071089612504649 0.7071046011158846 -1.8619579628120775e-7
vn 0 -1 0
vn -0.9999489887009294 0.01010049483536294 2.6330637631355453e-7
vn 0.9999999999999654 0 -2.633198085688626e-7
vn -0.000005283999686189755 5.337373423328645e-8 0.9999999999860384
vn 0.000005283999684912999 -5.337373419859177e-8 -0.9999999999860384
vn -0.009406010632453629 0.9999030751158898 -0.010264859364344597
vn 0 -1 0
vn 0.29798853079201804 0.2979818530888588 -0.9068680448368132
vn -0.000001952291763029912 -0.0000072896205634648955 -0.9999999999715251
usemtl m_76aec372-9917-e433-5a74-dfc34d605ee6
f 341/940/243 340/941/243 342/942/243 343/943/243
f 346/944/244 344/945/244 345/946/244 347/947/244
f 344/948/245 340/949/245 341/950/245 345/951/245
f 342/952/246 340/953/246 344/954/246 346/955/246
f 345/956/247 341/957/247 343/958/247 347/959/247
f 349/960/248 348/961/248 350/962/248 351/963/248
f 354/964/249 352/965/249 353/966/249 355/967/249
f 352/968/250 348/969/250 349/970/250 353/971/250
f 351/972/251 350/973/251 354/974/251 355/975/251
f 350/976/252 348/977/252 352/978/252 354/979/252
f 353/980/253 349/981/253 351/982/253 355/983/253
f 344/984/254 345/985/254 349/986/254 348/987/254
f 343/988/255 342/989/255 346/990/255 347/991/255
f 351/992/256 349/993/256 345/994/256 347/995/256
f 346/996/257 350/997/257 348/998/257 344/999/257