# Made in Blockbench 5.0.3
mtllib wheel_base.mtl

o cuboid
v 0.5 1 -1.5
v 0.5 1 -1.5
v 0.5 0 -1.5
v 0.5 0 -1.5
v -0.5 1 -1.5
v -0.5 1 -1.5
v -0.5 0 -1.5
v -0.5 0 -1.5
v 0.5 1 1.5
v 0.5 1 1.5
v 0.5 0 1.5
v 0.5 0 1.5
v -0.5 1 1.5
v -0.5 1 1.5
v -0.5 0 1.5
v -0.5 0 1.5
v -1.5 1 0.5
v -1.5 1 0.5
v -1.5 0 0.5
v -1.5 0 0.5
v -1.5 1 -0.5
v -1.5 1 -0.5
v -1.5 0 -0.5
v -1.5 0 -0.5
v 1.5 1 0.5
v 1.5 1 0.5
v 1.5 0 0.5
v 1.5 0 0.5
v 1.5 1 -0.5
v 1.5 1 -0.5
v 1.5 0 -0.5
v 1.5 0 -0.5
v -0.4999999999999998 -3.164135620181696e-15 -0.5000000015921182
v -0.4999999999999998 -3.164135620181696e-15 -0.5000000015921182
v 0.5000000000000001 -5.551115123125783e-17 -0.5
v 0.5000000000000001 -5.551115123125783e-17 -0.5
v -0.49999999840788156 -3.6465504560379e-8 -1.5000000015921175
v -0.49999999840788156 -3.6465504560379e-8 -1.5000000015921175
v 0.5000000015921183 -3.6465501451754534e-8 -1.4999999999999993
v 0.5000000015921183 -3.6465501451754534e-8 -1.4999999999999993
v -0.4999999999999998 -3.164135620181696e-15 0.49999999840788223
v -0.4999999999999998 -3.164135620181696e-15 0.49999999840788223
v 0.5000000000000001 -5.551115123125783e-17 0.5
v 0.5000000000000001 -5.551115123125783e-17 0.5
v -0.49999999840788156 -3.6465504560379e-8 -0.5000000015921175
v -0.49999999840788156 -3.6465504560379e-8 -0.5000000015921175
v 0.5000000015921183 -3.6465501451754534e-8 -0.4999999999999991
v 0.5000000015921183 -3.6465501451754534e-8 -0.4999999999999991
v -0.4999999999999998 -3.164135620181696e-15 1.4999999984078816
v -0.4999999999999998 -3.164135620181696e-15 1.4999999984078816
v 0.5000000000000001 -5.551115123125783e-17 1.5
v 0.5000000000000001 -5.551115123125783e-17 1.5
v -0.49999999840788156 -3.6465504560379e-8 0.4999999984078827
v -0.49999999840788156 -3.6465504560379e-8 0.4999999984078827
v 0.5000000015921183 -3.6465501451754534e-8 0.5000000000000009
v 0.5000000015921183 -3.6465501451754534e-8 0.5000000000000009
v 0.5000000000000002 -3.164135620181696e-15 0.499999998407882
v 0.5000000000000002 -3.164135620181696e-15 0.499999998407882
v 1.5000000000000002 -5.551115123125783e-17 0.5
v 1.5000000000000002 -5.551115123125783e-17 0.5
v 0.5000000015921184 -3.6465504560379e-8 -0.5000000015921175
v 0.5000000015921184 -3.6465504560379e-8 -0.5000000015921175
v 1.5000000015921189 -3.6465501451754534e-8 -0.4999999999999991
v 1.5000000015921189 -3.6465501451754534e-8 -0.4999999999999991
v -1.5 -3.164135620181696e-15 0.4999999984078818
v -1.5 -3.164135620181696e-15 0.4999999984078818
v -0.5 -5.551115123125783e-17 0.5
v -0.5 -5.551115123125783e-17 0.5
v -1.4999999984078818 -3.6465504560379e-8 -0.5000000015921175
v -1.4999999984078818 -3.6465504560379e-8 -0.5000000015921175
v -0.4999999984078818 -3.6465501451754534e-8 -0.4999999999999991
v -0.4999999984078818 -3.6465501451754534e-8 -0.4999999999999991
v -0.4999999999999998 0.9999999999999969 -0.5000000015921182
v -0.4999999999999998 0.9999999999999969 -0.5000000015921182
v 0.5000000000000001 1 -0.5
v 0.5000000000000001 1 -0.5
v -0.49999999840788156 0.9999999635344954 -1.5000000015921175
v -0.49999999840788156 0.9999999635344954 -1.5000000015921175
v 0.5000000015921183 0.9999999635344985 -1.4999999999999993
v 0.5000000015921183 0.9999999635344985 -1.4999999999999993
v -0.4999999999999998 0.9999999999999969 0.49999999840788223
v -0.4999999999999998 0.9999999999999969 0.49999999840788223
v 0.5000000000000001 1 0.5
v 0.5000000000000001 1 0.5
v -0.49999999840788156 0.9999999635344955 -0.5000000015921175
v -0.49999999840788156 0.9999999635344955 -0.5000000015921175
v 0.5000000015921183 0.9999999635344986 -0.4999999999999991
v 0.5000000015921183 0.9999999635344986 -0.4999999999999991
v -0.4999999999999998 0.9999999999999969 1.4999999984078816
v -0.4999999999999998 0.9999999999999969 1.4999999984078816
v 0.5000000000000001 1 1.5
v 0.5000000000000001 1 1.5
v -0.49999999840788156 0.9999999635344954 0.4999999984078827
v -0.49999999840788156 0.9999999635344954 0.4999999984078827
v 0.5000000015921183 0.9999999635344986 0.5000000000000009
v 0.5000000015921183 0.9999999635344986 0.5000000000000009
v 0.5000000000000002 0.9999999999999969 0.499999998407882
v 0.5000000000000002 0.9999999999999969 0.499999998407882
v 1.5000000000000002 1 0.5
v 1.5000000000000002 1 0.5
v 0.5000000015921184 0.9999999635344955 -0.5000000015921175
v 0.5000000015921184 0.9999999635344955 -0.5000000015921175
v 1.5000000015921189 0.9999999635344986 -0.4999999999999991
v 1.5000000015921189 0.9999999635344986 -0.4999999999999991
v -1.5 0.9999999999999969 0.4999999984078818
v -1.5 0.9999999999999969 0.4999999984078818
v -0.5 1 0.5
v -0.5 1 0.5
v -1.4999999984078818 0.9999999635344954 -0.5000000015921175
v -1.4999999984078818 0.9999999635344954 -0.5000000015921175
v -0.4999999984078818 0.9999999635344985 -0.4999999999999991
v -0.4999999984078818 0.9999999635344985 -0.4999999999999991
v -1.5 0.9999999999999969 0.4999999984078818
v -0.5 1 0.5
v -0.4999999999999998 0.9999999999999969 1.4999999984078816
v -0.49999999840788156 0.9999999635344954 0.4999999984078827
vt 0 1
vt 0 1
vt 0 1
vt 0 1
vt 0 1
vt 0 1
vt 0 1
vt 0 1
vt 0.125 1
vt 0.125 1
vt 0 1
vt 0 1
vt 0.125 1
vt 0 1
vt 0.125 1
vt 0 1
vt 1 1
vt 0 1
vt 0 0
vt 1 0
vt 0 1
vt 0 1
vt 0 1
vt 0 1
vt 0 1
vt 0 1
vt 0 1
vt 0 1
vt 0.125 1
vt 0.125 1
vt 0 1
vt 0 1
vt 0.125 1
vt 0 1
vt 0.125 1
vt 0 1
vt 1 1
vt 0 1
vt 0 0
vt 1 0
vt 0 1
vt 0 1
vt 0 1
vt 0 1
vt 0 1
vt 0 1
vt 0 1
vt 0 1
vt 0 0.875
vt 0 0.875
vt 0 1
vt 0 1
vt 0 0.875
vt 0 1
vt 0 0.875
vt 0 1
vt 1 1
vt 0 1
vt 0 0
vt 1 0
vt 0 1
vt 0 1
vt 0 1
vt 0 1
vt 0 1
vt 0 1
vt 0 1
vt 0 1
vt 0 0.875
vt 0 0.875
vt 0 1
vt 0 1
vt 0 0.875
vt 0 1
vt 0 0.875
vt 0 1
vt 1 1
vt 0 1
vt 0 0
vt 1 0
vt 0 1
vt 0.125 1
vt 0 1
vt 0.125 1
vt 0 1
vt 0 1
vt 0.125 1
vt 0.125 1
vt 0 0.875
vt 0 0.875
vt 0 1
vt 0 1
vt 0 0.875
vt 0 1
vt 0 0.875
vt 0 1
vt 1.1102230246251565e-16 1
vt 0 1.1102230246251565e-16
vt 1 0
vt 1 1
vt 0 1
vt 0.125 1
vt 0 1
vt 0.125 1
vt 0 1
vt 0 1
vt 0.125 1
vt 0.125 1
vt 0 0.875
vt 0 0.875
vt 0 1
vt 0 1
vt 0 0.875
vt 0 1
vt 0 0.875
vt 0 1
vt 1 0
vt 1 1
vt 0 1
vt 0 0
vt 0 1
vt 0.125 1
vt 0 1
vt 0.125 1
vt 0 1
vt 0 1
vt 0.125 1
vt 0.125 1
vt 0 0.875
vt 0 0.875
vt 0 1
vt 0 1
vt 0 0.875
vt 0 1
vt 0 0.875
vt 0 1
vt 0.9999999999999998 0
vt 1 0.9999999999999998
vt 1.1102230246251565e-16 1
vt 0 2.220446049250313e-16
vt 0 1
vt 0.125 1
vt 0 1
vt 0.125 1
vt 0 1
vt 0 1
vt 0.125 1
vt 0.125 1
vt 0 0.875
vt 0 0.875
vt 0 1
vt 0 1
vt 0 0.875
vt 0 1
vt 0 0.875
vt 0 1
vt 5.551115123125783e-17 0
vt 1 0
vt 0.9999999999999999 1
vt 0 0.9999999999999999
vt 0 1
vt 0.125 1
vt 0 1
vt 0.125 1
vt 0 1
vt 0 1
vt 0.125 1
vt 0.125 1
vt 0 0.875
vt 0 0.875
vt 0 1
vt 0 1
vt 0 0.875
vt 0 1
vt 0 0.875
vt 0 1
vt 1 1
vt 1.1102230246251565e-16 1
vt 0 1.1102230246251565e-16
vt 1 0
vt 0 1
vt 0.125 1
vt 0 1
vt 0.125 1
vt 0 1
vt 0 1
vt 0.125 1
vt 0.125 1
vt 0 0.875
vt 0 0.875
vt 0 1
vt 0 1
vt 0 0.875
vt 0 1
vt 0 0.875
vt 0 1
vt 1.1102230246251565e-16 1
vt 0 1.1102230246251565e-16
vt 1 0
vt 1 1
vt 0 1
vt 0.125 1
vt 0 1
vt 0.125 1
vt 0 1
vt 0 1
vt 0.125 1
vt 0.125 1
vt 0 0.875
vt 0 0.875
vt 0 1
vt 0 1
vt 0 0.875
vt 0 1
vt 0 0.875
vt 0 1
vt 1 0
vt 1 1
vt 0 1
vt 0 0
vt 0 1
vt 0.125 1
vt 0 1
vt 0.125 1
vt 0 1
vt 0 1
vt 0.125 1
vt 0.125 1
vt 0 0.875
vt 0 0.875
vt 0 1
vt 0 1
vt 0 0.875
vt 0 1
vt 0 0.875
vt 0 1
vt 1 0
vt 1 1
vt 0 1
vt 0 0
vt 0 1
vt 0 1
vt 0.125 1
vt 0.125 1
vt 0 1
vt 0 1
vt 0.125 1
vt 0.125 1
vt 0 0.875
vt 0 0.875
vt 0 1
vt 0 1
vt 0 0.875
vt 0 1
vt 0 0.875
vt 0 1
vt 5.551115123125783e-17 0
vt 1 0
vt 1 1
vt 0 1
vt 0 1
vt 0.125 1
vt 0 1
vt 0.125 1
vt 0 1
vt 0 1
vt 0.125 1
vt 0.125 1
vt 0 0.875
vt 0 0.875
vt 0 1
vt 0 1
vt 0 0.875
vt 0 1
vt 0 0.875
vt 0 1
vt 1 1
vt 5.551115123125783e-17 1
vt 0 0
vt 1 0
vt 1.00 1
vt 0 1
vt 0 0
vt 1.00 0
vt 0.48835625000000005 0
vt 0.9767125000000001 0.7071125
vt 0 0.7071125
vt 0 0.7071125
vt 1.00 0
vt 1.00 1
vt 0 1
vt 0 0
vt 0.7478836760928329 0.640625
vt 0.7478836787536416 0.640625
vt 1 0
vt 0.046875 0
vt -9.329765626731046e-9 0.7170175919626359
vt 0.5401264624144002 0
vt 1 0.7283272884201593
vt 0 0.7170175784103627
vt 0 0.7199893283871639
vt 0 0.7199893433318381
vt 0.4675107956488225 0
vt 1 0.7237157758621247
vt 1.00 1
vt 1.2582259388088594e-15 1
vt 1.2582259388088594e-15 0
vt 1.0017125000000013 0
vt 0 0
vt 1 0
vt 0.51960625 0.6875000000000018
vt 0.51960625 0.7071062499999998
vt 1.0017125000000013 0
vt 1.0017125000000013 1
vt 1.2582259388088594e-15 1
vt 1.2582259388088594e-15 0
vt 0.7478836760928329 0
vt 0.7478836787536416 0
vt 1 0.640625
vt 0.046875 0.640625
vt 0.48835625000000005 0
vt 0.9767125000000001 0.7071125
vt 0 0.7071125
vt 0 0.7071125
vt 1 0.7071062499999998
vt 1 0.7071062499999998
vt 0.023287499999999905 0.7071062499999998
vt 0.4803937500000002 0
vt 0 0
vt 1 0
vt 0.51960625 0.6875000000000018
vt 0.51960625 0.7071062499999998
vn 0 0 0
vn 0 0 0
vn 0 0 0
vn 0 0 0
vn 0 0 -1
vn 0 0 0
vn 0 0 0
vn 0 0 0
vn 0 0 0
vn 0 0 -1
vn 0 0 0
vn 0 0 0
vn 0 0 0
vn 0 0 0
vn 1 0 0
vn 0 0 0
vn 0 0 0
vn 0 0 0
vn 0 0 0
vn 1 0 0
vn 0 0 0
vn 0 0 0
vn 0 0 0
vn 0 0 0
vn -3.0505670771227303e-15 0.9999999999999993 -3.646550139624339e-8
vn 0 0 0
vn 0 0 0
vn 0 0 0
vn 0 0 0
vn -3.050567096975064e-15 0.9999999999999994 -3.6465501396243376e-8
vn 0 0 0
vn 0 0 0
vn 0 0 0
vn 0 0 0
vn -3.0505670705052866e-15 0.9999999999999993 -3.64655013962434e-8
vn 0 0 0
vn 0 0 0
vn 0 0 0
vn 0 0 0
vn -3.050567090357619e-15 0.9999999999999993 -3.6465501396243376e-8
vn 0 0 0
vn 0 0 0
vn 0 0 0
vn 0 0 0
vn -3.05056707712273e-15 0.9999999999999993 -3.646550139624338e-8
vn 0 0 0
vn 0 0 0
vn 0 0 0
vn 0 0 0
vn -3.0505670771227303e-15 0.9999999999999993 -3.646550150726569e-8
vn 0 0 0
vn 0 0 0
vn 0 0 0
vn 0 0 0
vn -3.050567096975064e-15 0.9999999999999994 -3.6465501396243376e-8
vn 0 0 0
vn 0 0 0
vn 0 0 0
vn 0 0 0
vn -3.0505670705052866e-15 0.9999999999999993 -3.6465501507265705e-8
vn 0 0 0
vn 0 0 0
vn 0 0 0
vn 0 0 0
vn -3.050567090357619e-15 0.9999999999999993 -3.6465501396243376e-8
vn 0 0 0
vn 0 0 0
vn 0 0 0
vn 0 0 0
vn -3.05056707712273e-15 0.9999999999999993 -3.6465501507265685e-8
vn 0.7071067811865476 0 -0.7071067811865476
vn 3.6465504620982576e-8 -0.9999999999999987 -3.6465504620982576e-8
vn 0.7071067811865476 0 0.7071067811865476
vn -0.9990482214362923 -0.04361939069933374 8.623696251851812e-17
vn -3.106078228353987e-15 -0.9999999999999993 3.646550139624338e-8
vn 1.5921184370882493e-9 -2.4287163006577926e-8 -0.9999999999999999
vn -0.7071067811865476 0 0.7071067811865476
vn 3.108624473899736e-15 -1 -3.1086244738997374e-15
vn -0.7071067811865476 0 -0.7071067811865476
vn 0.9990482215040687 0.04361938914699905 -2.4679666561276446e-17
vn 3.646550150981191e-8 -0.9999999999999987 3.646550145430076e-8
vn -0.0000019873742462717512 -0.9999999999960504 0.0000019873742462717512
vn 3.108624473899736e-15 -1 -3.1086244738997374e-15
usemtl wheel
f 1/1/1 3/2/1 2/3/1 4/4/1
f 5/5/2 6/6/2 7/7/2 8/8/2
f 1/9/3 2/10/3 5/11/3 6/12/3
f 3/13/4 7/14/4 4/15/4 8/16/4
usemtl wheel
f 6/17/5 2/18/5 4/19/5 8/20/5
usemtl wheel
f 9/21/6 11/22/6 10/23/6 12/24/6
f 13/25/7 14/26/7 15/27/7 16/28/7
f 9/29/8 10/30/8 13/31/8 14/32/8
f 11/33/9 15/34/9 12/35/9 16/36/9
usemtl wheel
f 14/37/10 10/38/10 12/39/10 16/40/10
usemtl wheel
f 17/41/11 19/42/11 18/43/11 20/44/11
f 21/45/12 22/46/12 23/47/12 24/48/12
f 17/49/13 18/50/13 21/51/13 22/52/13
f 19/53/14 23/54/14 20/55/14 24/56/14
usemtl wheel
f 22/57/15 18/58/15 20/59/15 24/60/15
usemtl wheel
f 25/61/16 27/62/16 26/63/16 28/64/16
f 29/65/17 30/66/17 31/67/17 32/68/17
f 25/69/18 26/70/18 29/71/18 30/72/18
f 27/73/19 31/74/19 28/75/19 32/76/19
usemtl wheel
f 30/77/20 26/78/20 28/79/20 32/80/20
usemtl wheel
f 33/81/21 35/82/21 34/83/21 36/84/21
f 37/85/22 38/86/22 39/87/22 40/88/22
f 33/89/23 34/90/23 37/91/23 38/92/23
f 35/93/24 39/94/24 36/95/24 40/96/24
usemtl wheel
f 38/97/25 34/98/25 36/99/25 40/100/25
usemtl wheel
f 41/101/26 43/102/26 42/103/26 44/104/26
f 45/105/27 46/106/27 47/107/27 48/108/27
f 41/109/28 42/110/28 45/111/28 46/112/28
f 43/113/29 47/114/29 44/115/29 48/116/29
usemtl wheel
f 46/117/30 42/118/30 44/119/30 48/120/30
usemtl wheel
f 49/121/31 51/122/31 50/123/31 52/124/31
f 53/125/32 54/126/32 55/127/32 56/128/32
f 49/129/33 50/130/33 53/131/33 54/132/33
f 51/133/34 55/134/34 52/135/34 56/136/34
usemtl wheel
f 54/137/35 50/138/35 52/139/35 56/140/35
usemtl none
f 57/141/36 59/142/36 58/143/36 60/144/36
f 61/145/37 62/146/37 63/147/37 64/148/37
f 57/149/38 58/150/38 61/151/38 62/152/38
f 59/153/39 63/154/39 60/155/39 64/156/39
usemtl wheel
f 62/157/40 58/158/40 60/159/40 64/160/40
usemtl none
f 65/161/41 67/162/41 66/163/41 68/164/41
f 69/165/42 70/166/42 71/167/42 72/168/42
f 65/169/43 66/170/43 69/171/43 70/172/43
f 67/173/44 71/174/44 68/175/44 72/176/44
usemtl wheel
f 70/177/45 66/178/45 68/179/45 72/180/45
usemtl none
f 73/181/46 75/182/46 74/183/46 76/184/46
f 77/185/47 78/186/47 79/187/47 80/188/47
f 73/189/48 74/190/48 77/191/48 78/192/48
f 75/193/49 79/194/49 76/195/49 80/196/49
usemtl wheel
f 78/197/50 74/198/50 76/199/50 80/200/50
usemtl none
f 81/201/51 83/202/51 82/203/51 84/204/51
f 85/205/52 86/206/52 87/207/52 88/208/52
f 81/209/53 82/210/53 85/211/53 86/212/53
f 83/213/54 87/214/54 84/215/54 88/216/54
usemtl wheel
f 86/217/55 82/218/55 84/219/55 88/220/55
usemtl none
f 89/221/56 91/222/56 90/223/56 92/224/56
f 93/225/57 94/226/57 95/227/57 96/228/57
f 89/229/58 90/230/58 93/231/58 94/232/58
f 91/233/59 95/234/59 92/235/59 96/236/59
usemtl wheel
f 94/237/60 90/238/60 92/239/60 96/240/60
usemtl none
f 98/241/61 97/242/61 99/243/61 100/244/61
f 101/245/62 102/246/62 103/247/62 104/248/62
f 97/249/63 98/250/63 101/251/63 102/252/63
f 99/253/64 103/254/64 100/255/64 104/256/64
usemtl wheel
f 102/257/65 98/258/65 100/259/65 104/260/65
usemtl none
f 105/261/66 107/262/66 106/263/66 108/264/66
f 109/265/67 110/266/67 111/267/67 112/268/67
f 105/269/68 106/270/68 109/271/68 110/272/68
f 107/273/69 111/274/69 108/275/69 112/276/69
usemtl wheel
f 110/277/70 106/278/70 108/279/70 112/280/70
f 1/281/71 30/282/71 31/283/71 3/284/71
f 102/285/72 1/286/72 30/287/72 103/288/72
f 7/289/73 6/290/73 22/291/73 23/292/73
f 6/293/74 77/294/74 74/295/74 22/296/74
f 37/297/75 34/298/75 23/299/75 7/300/75
f 31/301/76 63/302/76 62/303/76 3/304/76
f 14/305/77 17/306/77 19/307/77 15/308/77
f 90/309/78 105/310/78 107/311/78 93/312/78
f 11/313/79 9/314/79 25/315/79 27/316/79
f 95/317/80 97/318/80 91/319/80 99/320/80
f 55/321/81 27/322/81 51/323/81 11/324/81
f 50/325/82 15/326/82 19/327/82 53/328/82
f 115/329/83 113/330/83 114/331/83 116/332/83