# Made in Blockbench 5.0.7
mtllib wheel_small.mtl

o cylinder
v 0.5 0 0.20710678118654757
v 0.20710678118654754 0 0.5
v 0 0 0
v 0.5 1 0.20710678118654757
v 0.20710678118654754 1 0.5
v 0 1 0
v 0.5 0 -0.20710678118654752
v 0.5 1 -0.20710678118654752
v 0.2071067811865476 0 -0.5
v 0.2071067811865476 1 -0.5
v -0.2071067811865475 0 -0.5000000000000001
v -0.2071067811865475 1 -0.5000000000000001
v -0.4999999999999999 0 -0.20710678118654785
v -0.4999999999999999 1 -0.20710678118654785
v -0.49999999999999994 0 0.20710678118654766
v -0.49999999999999994 1 0.20710678118654766
v -0.20710678118654788 0 0.4999999999999999
v -0.20710678118654788 1 0.4999999999999999
vt 0.6537703974530445 1
vt 0.9197696626646964 0.7454849169110429
vt 0.4756126646630126 0.5557088832120476
vt 0 0
vt 0.4142125 0
vt 0.4142125 1
vt 0 1
vt 0.9165102595417076 0.7485959148224548
vt 0.652463003043751 1
vt 0.4756126714483605 0.5611395487349948
vt 0.2834087831580696 0.99425538819892
vt 0.6537703974530445 1
vt 0.4756126646630126 0.5557088832120476
vt 0 0
vt 0.4142125 0
vt 0.4142125 1
vt 0 1
vt 0.652463003043751 1
vt 0.2848192679383593 0.9943256061074885
vt 0.4756126714483605 0.5611395487349948
vt 0.025637559122915876 0.7316161949770352
vt 0.2834087831580696 0.99425538819892
vt 0.4756126646630126 0.5557088832120476
vt 0 0
vt 0.4142125 0
vt 0.4142125 1
vt 0 1
vt 0.2848192679383593 0.9943256061074885
vt 0.028939670808422857 0.734896713123985
vt 0.4756126714483605 0.5611395487349948
vt 0.03145561463943987 0.365932827285534
vt 0.025637559122915876 0.7316161949770352
vt 0.4756126646630126 0.5557088832120476
vt 0 0
vt 0.4142125 0
vt 0.4142125 1
vt 0 1
vt 0.028939670808422857 0.734896713123985
vt 0.03471501237649205 0.3736831524696069
vt 0.4756126714483605 0.5611395487349948
vt 0.29745488302117484 0.11141764459708936
vt 0.03145561463943987 0.365932827285534
vt 0.4756126646630126 0.5557088832120476
vt 0 0
vt 0.4142125 0
vt 0.4142125 1
vt 0 1
vt 0.03471501237649205 0.3736831524696069
vt 0.2987622731997013 0.12227893206751039
vt 0.4756126714483605 0.5611395487349948
vt 0.667816598189844 0.11716225952820947
vt 0.29745488302117484 0.11141764459708936
vt 0.4756126646630126 0.5557088832120476
vt 0 0
vt 0.4142125 0
vt 0.4142125 1
vt 0 1
vt 0.2987622731997013 0.12227893206751039
vt 0.6664061459368833 0.12795333020962452
vt 0.4756126714483605 0.5611395487349948
vt 0.9255878190549142 0.37980155234958124
vt 0.667816598189844 0.11716225952820947
vt 0.4756126646630126 0.5557088832120476
vt 0 0
vt 0.4142125 0
vt 0.4142125 1
vt 0 1
vt 0.6664061459368833 0.12795333020962452
vt 0.9222857387415659 0.3873823584176792
vt 0.4756126714483605 0.5611395487349948
vt 0.9197696626646964 0.7454849169110429
vt 0.9255878190549142 0.37980155234958124
vt 0.4756126646630126 0.5557088832120476
vt 0 0
vt 0.4142125 0
vt 0.4142125 1
vt 0 1
vt 0.9222857387415659 0.3873823584176792
vt 0.9165102595417076 0.7485959148224548
vt 0.4756126714483605 0.5611395487349948
vn 0 -1 0
vn 0.7071067811865476 0 0.7071067811865476
vn 0 1 0
vn 0 -1 0
vn 1 0 0
vn 0 1 0
vn 0 -1 0
vn 0.7071067811865476 0 -0.7071067811865475
vn 0 1 0
vn 0 -1 0
vn 2.6803154833089315e-16 0 -1
vn 0 1 0
vn 0 -1 0
vn -0.7071067811865474 0 -0.7071067811865477
vn 0 1 0
vn 0 -1 0
vn -1 0 -1.3401577416544645e-16
vn 0 1 0
vn 0 -1 0
vn -0.7071067811865477 0 0.7071067811865474
vn 0 1 0
vn 0 -1 0
vn -2.680315483308929e-16 0 1
vn 0 1 0
usemtl m_87216389-1cf8-ceab-6ccc-20b4e5fa50a4
f 1/1/1 2/2/1 3/3/1
f 2/4/2 1/5/2 4/6/2 5/7/2
f 5/8/3 4/9/3 6/10/3
f 7/11/4 1/12/4 3/13/4
f 1/14/5 7/15/5 8/16/5 4/17/5
f 4/18/6 8/19/6 6/20/6
f 9/21/7 7/22/7 3/23/7
f 7/24/8 9/25/8 10/26/8 8/27/8
f 8/28/9 10/29/9 6/30/9
f 11/31/10 9/32/10 3/33/10
f 9/34/11 11/35/11 12/36/11 10/37/11
f 10/38/12 12/39/12 6/40/12
f 13/41/13 11/42/13 3/43/13
f 11/44/14 13/45/14 14/46/14 12/47/14
f 12/48/15 14/49/15 6/50/15
f 15/51/16 13/52/16 3/53/16
f 13/54/17 15/55/17 16/56/17 14/57/17
f 14/58/18 16/59/18 6/60/18
f 17/61/19 15/62/19 3/63/19
f 15/64/20 17/65/20 18/66/20 16/67/20
f 16/68/21 18/69/21 6/70/21
f 2/71/22 17/72/22 3/73/22
f 17/74/23 2/75/23 5/76/23 18/77/23
f 18/78/24 5/79/24 6/80/24